<?xml version="1.0" encoding="utf-8"?>
<!-- Generator: Adobe Illustrator 30.4.0, SVG Export Plug-In . SVG Version: 9.03 Build 0)  -->
<svg version="1.0" id="Layer_1" xmlns="http://www.w3.org/2000/svg" xmlns:xlink="http://www.w3.org/1999/xlink" x="0px" y="0px"
	 viewBox="0 0 240 240" style="enable-background:new 0 0 240 240;" xml:space="preserve">
<path style="fill:#FFFFFF;" d="M119.8-0.2c-25.4,0-46.1,21.4-46.1,47.9c0,11.7,4.1,22.5,10.8,30.8l17.1,18.2l10.9-27.2l-3.4-3.5
	l-4.6-4.8c-2.8-3.8-4.4-8.5-4.4-13.5c0-11.8,8.8-21.4,19.6-21.4s19.6,9.6,19.6,21.4c0,4.9-1.5,9.7-4.4,13.5l-8,8.3l10.9,27.2
	l17.1-18.2c6.8-8.3,10.8-19.1,10.8-30.8C165.9,21.2,145.2-0.2,119.8-0.2z"/>
<polygon style="fill:#FFFFFF;" points="119.8,115.1 132.9,102 119.8,69.2 106.7,102 "/>
<polygon style="fill:#FFFFFF;" points="137.6,132.9 170.4,119.8 137.6,106.7 124.5,119.8 "/>
<path style="fill:#FFFFFF;" d="M239.8,119.8c0,25.4-21.4,46.1-47.9,46.1c-11.7,0-22.5-4.1-30.8-10.8L142.9,138l27.2-10.9l3.5,3.4
	l4.8,4.6c3.8,2.8,8.5,4.4,13.5,4.4c11.8,0,21.4-8.8,21.4-19.6s-9.6-19.6-21.4-19.6c-4.9,0-9.7,1.5-13.5,4.4l-8.3,8l-27.2-10.9
	l18.2-17.1c8.3-6.8,19.1-10.8,30.8-10.8C218.4,73.7,239.8,94.4,239.8,119.8z"/>
<polygon style="fill:#FFFFFF;" points="119.8,124.5 106.7,137.6 106.7,239.8 132.9,239.8 132.9,137.6 "/>
<polygon style="fill:#FFFFFF;" points="139.5,144.2 139.5,239.6 165.8,239.6 165.8,170.5 "/>
<polygon style="fill:#FFFFFF;" points="102,106.7 69.2,119.8 102,132.9 115.1,119.8 "/>
<path style="fill:#FFFFFF;" d="M-0.2,119.8c0,25.4,21.4,46.1,47.9,46.1c11.7,0,22.5-4.1,30.8-10.8L96.7,138l-27.2-10.9l-3.5,3.4
	l-4.8,4.6c-3.8,2.8-8.5,4.4-13.5,4.4c-11.8,0-21.4-8.8-21.4-19.6s9.6-19.6,21.4-19.6c4.9,0,9.7,1.5,13.5,4.4l8.3,8l27.2-10.9
	L78.5,84.6c-8.3-6.8-19.1-10.9-30.8-10.9C21.2,73.7-0.2,94.4-0.2,119.8z"/>
<polygon style="fill:#FFFFFF;" points="100.1,144.2 100.1,239.6 73.8,239.6 73.8,170.5 "/>
</svg>
