<?xml version="1.0" encoding="utf-8"?>
<!-- Generator: Adobe Illustrator 30.4.0, SVG Export Plug-In . SVG Version: 9.03 Build 0)  -->
<svg version="1.0" id="Layer_1" xmlns="http://www.w3.org/2000/svg" xmlns:xlink="http://www.w3.org/1999/xlink" x="0px" y="0px"
	 viewBox="0 0 480 265.9" style="enable-background:new 0 0 480 265.9;" xml:space="preserve">
<polygon style="fill:#000C0F;" points="356.4,12.2 381.8,107.6 477.2,132.9 381.8,158.3 356.4,253.7 331.1,158.3 2.8,132.9 
	331.1,107.6 "/>
<g>
	<path style="fill:#000C0F;" d="M134.5,98.1c0-0.4,0.2-0.7,0.8-0.8c0.6-0.1,1,0,1.2,0.4c0.3,0.3,0.3,0.8,0.1,1.4
		c-0.2,0.6-0.5,0.9-0.8,1c-0.4,0-0.7,0.4-0.8,1.2c-0.1,0.7-0.7,1.4-1.8,2.2c-1.1,0.8-2,1.2-2.7,1.1c-0.6,0-0.8,0.1-0.8,0.3
		c0.1,0.1,0.1,0.2,0,0.3s-0.2,0.1-0.4,0.1c-0.5,0-1.1,0.6-1.9,1.7c-1,1.5-1.6,1.9-1.8,1.4c0-0.1-0.1-0.4-0.1-0.8
		c-0.1-0.8-0.3-1.1-0.6-1.1c-0.3,0-0.4,0.4-0.1,1.1c0.2,0.7,0.2,1.5-0.1,2.4c-0.3,0.8-0.7,1.3-1.3,1.3c-0.6,0-1,0.4-1.1,1.1
		c-0.1,0.7-0.7,1-1.6,0.9c-1-0.1-2.1,0.3-3.4,1.2c-2.5,1.7-3.9,1.7-4.3,0.2c-0.1-0.5-0.2-0.7-0.3-0.7c-0.2,0-0.5,0.2-0.9,0.6
		c-0.5,0.3-0.8,0.5-1.1,0.5c-0.3,0-0.7-0.1-1.4-0.4c-1-0.4-1.5-0.9-1.5-1.5c-0.1-0.7-0.3-1.3-0.7-1.9c-0.4-0.6-0.5-1.1-0.2-1.5
		c0.2-0.4,0.2-1.7-0.2-4c-0.3-1.8-0.1-2.8,0.5-2.8c0.5,0,0.8-0.4,1.1-1.1c0.3-0.6,0.3-0.9,0.2-0.9c-0.1,0,0-0.1,0.2-0.4
		c0.2-0.3,0.5-0.7,1-1.2c0.9-1.1,1.6-2.4,1.9-4c0.3-1.5,0.8-2.8,1.4-3.9c0.6-1.1,0.9-2,0.9-2.6c0-0.5,0.2-1.2,0.8-2
		c0.6-0.8,1.3-2.2,2.1-4.1c0.7-1.7,1.3-2.9,1.7-3.6c0.5-0.7,0.9-1.1,1.4-1.1c0.4,0,0.6-0.3,0.6-1c0-0.6,0.3-1.1,0.9-1.5
		c0.6-0.4,0.8-0.8,0.6-1.3c-0.2-0.5-0.1-1.1,0.5-1.6c0.5-0.6,0.8-1,0.8-1.3s-0.3-0.6-0.8-0.8c-0.4-0.2-0.8-0.2-1.1-0.2
		s-0.6,0.1-0.8,0.3c-0.2,0.2-0.3,0.4-0.2,0.7c0.2,0.4-0.1,0.8-0.8,1.2S118,73,117.1,73c-0.8,0-1.5,0.2-2.1,0.7
		c-0.6,0.5-0.9,1-0.8,1.6c0,0.6-0.1,0.9-0.4,0.9s-0.9,0.5-1.8,1.6c-0.6,0.6-1,1-1.2,1.1c-0.3,0.1-0.5,0.1-0.8-0.2
		c-0.3-0.2-0.6-0.2-0.8-0.1c-0.2,0.1-0.5,0.5-0.9,1.1s-0.8,1-1.1,1.1c-0.3,0.1-0.8,0.2-1.4,0.1c-0.6-0.1-1,0-1.2,0.1
		s-0.4,0.4-0.6,0.9c-0.2,0.6-0.5,1-1.1,1.2c-0.5,0.2-1.4,0.3-2.6,0.3c-0.2,0-0.4,0-0.6,0.2s-0.2,0.3-0.2,0.4
		c0.2,1.2,0.1,1.7-0.2,1.7c-0.3-0.1-0.8,0.1-1.4,0.4c-0.6,0.3-0.9,0.6-0.9,0.8c0,0.3-0.8,1.5-2.4,3.7c-1.6,2.2-2.6,3.2-2.8,3.3
		c-0.5,0-1,0.5-1.8,1.4c-0.7,0.9-1.1,1.6-1,2c0,0.6-0.2,1.1-0.6,1.5c-0.4,0.4-0.6,0.8-0.6,1.2c0,0.5-0.3,1-1.1,1.6
		c-0.7,0.6-1.1,1.1-1.2,1.6c-0.2,1.6-0.6,2.4-1.3,2.4c-0.4,0-0.6,0.3-0.6,0.7c0,0.3-0.7,1.4-2.3,3.1c-1.6,1.7-2.5,2.6-2.9,2.7
		c-0.3,0-0.9,0.8-1.7,2.5c-0.6,1.1-1,1.8-1.3,2.1c-0.3,0.3-0.9,0.4-1.8,0.5c-2.4,0.2-3.8-1-4-3.6c-0.1-1.4,0.1-2.2,0.5-2.7
		c0.4-0.4,0.6-0.8,0.6-1.2c0-0.3,0.3-1,0.9-1.9c1.4-2.1,2.5-4.3,3.3-6.5c0.4-1.1,0.8-1.6,1.1-1.6c0.3,0,0.5-0.4,0.4-1
		c0-0.6,0.1-1,0.6-1.2c0.4-0.2,0.6-1,0.5-2.5c-0.1-0.9,0-1.7,0.2-2.1c0.2-0.5,0.6-1.2,1.4-2.1c1.2-1.4,2-2,2.5-2
		c0.3,0,0.5-0.1,0.6-0.3c0.1-0.2,0.2-0.5,0.2-1c0-0.5,0.1-0.9,0.3-1.1c0.2-0.2,0.6-0.3,1.1-0.3c0.9-0.1,1.4-0.4,1.5-1
		c0.1-0.6,0.8-1.1,1.8-1.3c0.7-0.2,1.2-0.4,1.3-0.6c0.1-0.2,0.1-0.5-0.1-1.1c-0.9-2.6-0.8-4.3,0.2-5.1c0.6-0.5,1-0.9,0.9-1.4
		c0-0.4,0.2-0.9,0.8-1.3c0.6-0.5,0.8-0.9,0.8-1.4c0-0.5,0.1-0.9,0.5-1.3c0.4-0.4,0.7-0.5,0.9-0.3c0.1,0,0.2-0.2,0.2-0.5
		c-0.1-0.7,0.1-1.4,0.5-2.1c0.4-0.7,0.9-1.2,1.6-1.6c0.9-0.4,1.3-0.7,1.3-1c0-0.2,0.6-0.8,1.8-1.8c1.2-1,1.9-1.6,2-1.9
		c0.1-0.2,0.6-0.3,1.6-0.2c0.8,0.1,1.7,0.2,2.5,0.2c0.4,0,0.6,0.1,0.7,0.3c0.1,0.2,0.2,0.6,0.2,1.3c0,1.2,0.1,2.2,0.1,2.9
		c0,0.8-0.3,1.4-1,1.7c-0.8,0.3-1.4,0.7-1.8,1.2c-0.4,0.5-0.5,0.9-0.1,1.2c0.2,0.2,0.4,0.6,0.4,1c0.1,0.4,0,0.8-0.1,1.1
		c-0.1,0.3-0.3,0.5-0.6,0.5c-0.4,0-0.9,0.2-1.4,0.7c-0.5,0.5-0.9,0.7-1.1,0.5c-0.1-0.1-0.2,0-0.2,0.2c0,0.2,0,0.4,0,0.6
		c0.1,0.8-0.2,1.3-0.7,1.8c-0.5,0.5-0.6,0.7-0.3,0.6c0.4,0,0.8-0.4,1.3-1c0.5-0.7,1-1,1.4-1.1c0.5,0,1.4-0.5,2.8-1.4
		c1.4-0.9,2.3-1.6,2.5-2c0.3-0.5,1.1-0.7,2.5-0.6c1.1,0.1,1.9,0,2.3-0.2c0.4-0.2,0.7-0.8,1.1-1.7c0.3-0.9,0.8-1.4,1.4-1.4
		c0.6,0,1.3-0.6,2.2-1.5c0.9-0.9,1.3-1.2,1.4-0.9c0,0.3,0.5,0,1.3-1.1c0-0.1,0.1-0.2,0.2-0.2c0.7-0.9,1.2-1.4,1.5-1.6
		c0.3-0.2,0.9-0.2,1.8-0.1c1.2,0.2,2.2,0,3.1-0.4c0.9-0.4,1.9-0.7,2.9-0.8c1-0.1,1.6,0.1,1.8,0.4c0.6,1.2,1,3.6,1.3,7.1
		c0.1,1.3-0.1,2.4-0.7,3.3c-0.6,1-1.1,1.8-1.3,2.5c-0.1,0.3-0.3,0.6-0.7,1c-0.4,0.4-0.8,0.7-1.2,0.9c-0.9,0.4-1.5,0.9-1.7,1.3
		c-0.2,0.4-0.4,1.2-0.4,2.3c-0.1,1.9-0.7,3-1.9,3c-0.6,0-0.9,0.3-1.1,0.7c-0.1,0.2-0.1,0.3,0,0.3c0.1,0,0.2-0.1,0.3-0.1
		c0.2-0.2,0.4-0.2,0.4,0c0,0.1-0.1,0.3-0.1,0.7c-0.1,0.6-0.3,1.2-0.7,1.8c-0.3,0.5-0.3,0.9-0.1,1.3c0.2,0.5,0,0.8-0.6,1.1
		c-0.6,0.2-0.8,0.6-0.6,1.1c0.2,0.5-0.1,1.2-0.9,2c-0.8,0.8-1.4,1.6-1.7,2.5c-0.4,0.9-1,1.4-1.9,1.3c-0.9,0-1.5,0.2-1.7,0.7
		c-1.1,2.5-1.8,4.9-2.2,7c-0.2,1.3-0.5,2.1-0.7,2.3c-0.2,0.2-0.2,0.7,0.1,1.5c0.3,0.9,0.4,1.5,0.3,1.9c-0.1,0.2,0,0.3,0.1,0.3
		c0.1,0,0.2,0,0.4-0.1c0.4-0.2,0.7-0.1,1,0.5c0.2,0.5,0.9,0.6,1.9,0.3c1-0.3,1.6-0.2,1.8,0.1c0.2,0.2,0.5,0.2,0.9,0.1
		c0.5-0.1,0.9-0.4,1.4-0.8c0.5-0.4,0.7-0.7,0.7-1c0-0.5,0.2-1,0.6-1.4c0.4-0.4,1-0.6,1.7-0.6c0.9-0.1,1.4-0.3,1.5-0.7
		c0.1-0.5,0.6-0.7,1.4-0.8c0.8-0.1,1.3-0.3,1.5-0.7c0.2-0.4,0.4-0.4,0.7-0.1c0.3,0.4,0.6,0.5,0.8,0.4c0.2-0.1,0.3-0.4,0.1-0.9
		c-0.2-0.6,0.2-1.5,1.3-2.5c1.2-1.2,2-2.1,2.4-2.6c0.5-0.6,1.1-0.8,1.7-0.5c0.2,0.1,0.4,0.2,0.5,0.2c0.1,0,0.2,0,0.3,0
		c0.1,0,0.1,0,0.1-0.1C134.6,98.4,134.6,98.3,134.5,98.1z M137.5,97.9c0.2-0.7,0.4-0.8,0.6-0.3c0.2,0.4,0,0.9-0.5,1.5
		c-0.4,0.4-0.5,0.5-0.5,0.4c0,0,0-0.1,0-0.1c0,0,0.1-0.2,0.1-0.4c0.1-0.2,0.1-0.4,0.2-0.6C137.5,98.2,137.5,98,137.5,97.9z
		 M142.5,93.6c0.2,1-0.2,1.9-1.2,2.6c-0.9,0.6-1.7,0.6-2.2-0.1c-0.1-0.1-0.2-0.3-0.2-0.4c-0.2-0.6-0.2-1,0.3-1
		c0.4,0,0.7-0.5,1.1-1.3c0.2-0.5,0.5-0.8,0.8-1c0.3-0.2,0.6-0.1,0.9,0.1C142.2,92.7,142.4,93.1,142.5,93.6z"/>
	<path style="fill:#000C0F;" d="M176.4,74c-0.3,0-0.3,0.3-0.2,0.8c0.1,0.5-0.1,1-0.7,1.4c-0.6,0.4-1,0.8-1.2,1
		c-0.2,0.3-0.4,0.3-0.8,0.2c-0.4-0.2-0.8-0.2-1.2,0.1c-0.4,0.3-0.7,0.7-0.8,1.2c-0.1,0.7-0.4,1-0.8,1c-0.2,0-0.4-0.2-0.4-0.5
		c0-0.2-0.2-0.1-0.5,0.5c-0.2,0.3-0.3,0.7-0.5,1.1c-0.3,0.9-0.7,1.5-0.9,1.7c-0.3,0.3-0.7,0.4-1.2,0.5c-0.9,0.1-1.3,0.2-1.3,0.5
		c0,0.3-0.3,0.8-1,1.4c-0.7,0.6-1.3,1-1.7,1c-0.5,0-0.9,0.4-1,1c-0.1,0.6-0.6,1.1-1.4,1.3c-0.7,0.2-1.4,0.5-2,0.9
		c-0.5,0.3-1,0.5-1.5,0.5c-0.4,0-1.4,0.4-3.1,1.1c-1.7,0.7-2.6,1-2.9,0.9c-0.4-0.1-0.6,0-0.5,0.3s-0.6,0.7-1.7,1.1
		c-1,0.3-1.9,1-2.7,2c-0.8,1-1.3,2-1.4,2.9c-0.2,1-0.4,1.8-0.5,2.3c-0.2,0.7-0.1,1.2,0.3,1.6c0.5,0.3,0.8,0.9,0.8,1.8
		c0.1,0.9,0.3,1.4,0.6,1.5c0.3,0.2,0.4,0.4,0.3,0.7c-0.1,0.1,0,0.3,0.3,0.5s0.6,0.4,1.1,0.6c0.7,0.3,1.3,0.4,1.6,0.4
		c0.3,0,0.8-0.2,1.3-0.5c1.4-0.8,3.2-0.8,5.4-0.1c0.3,0.1,0.5,0.1,0.6,0c0.1-0.1,0.1-0.3,0.1-0.7c-0.1-1.2,0.4-1.5,1.4-1.1
		c0.5,0.3,1,0.1,1.2-0.4c0.2-0.6,0.6-0.8,1.1-0.6c0.5,0.2,0.9,0,1.2-0.5c0.3-0.5,0.7-0.7,1.2-0.5c0.5,0.1,1.2,0.1,1.9-0.2
		c0.7-0.3,1.1-0.7,1.2-1.2c0.1-0.6,0.5-0.9,1-0.9c0.5,0,1,0.3,1.6,0.9c0.6,0.7,1,0.7,1.2,0.1c0.1-0.3,0.1-0.9,0.2-1.7
		c0-0.5,0.1-0.8,0.2-0.9c0.2-0.2,0.4-0.2,0.9-0.2c0.7,0.1,1.2-0.2,1.3-0.7c0.2-0.5,0.8-1,1.8-1.6c1.9-1,3.2-1.2,3.8-0.6
		c0.5,0.5,0.2,1.2-1,2.2c-0.9,0.9-1.6,1.3-1.9,1.3c-0.3,0-0.5,0.3-0.7,0.9c-0.2,0.9-1.6,1.9-4.2,3.1c-2.6,1.2-4.2,1.5-4.7,0.8
		c-0.3-0.4-0.6-0.1-0.8,0.8c-0.1,0.4-0.3,0.7-0.4,0.9c-0.2,0.2-0.3,0.3-0.5,0.3c-0.5,0-1.1,0.3-1.9,0.9c-0.8,0.6-1.9,1-3.3,1.1
		c-1.4,0.1-2,0.3-1.9,0.7c0,0.1-0.1,0.2-0.3,0.3c-0.2,0.1-0.5,0.2-0.8,0.2c-0.4,0.1-0.8,0.1-1.4,0.2c-1.6,0.1-2.5,0.3-2.8,0.6
		c-0.2,0.2-0.6,0.4-1.3,0.6c-0.7,0.2-1.3,0.4-1.9,0.7c-0.6,0.2-1.1,0.3-1.5,0.1c-0.5-0.2-1.4-0.3-2.6-0.1c-0.8,0.1-1.4,0.1-1.8,0
		c-0.4-0.1-0.8-0.4-1.3-0.9c-0.2-0.2-0.7-0.6-1.3-1.2c-0.6-0.5-1-0.9-1-1c-0.7-0.7-1.1-1.2-1.1-1.5c0-0.3-0.2-0.4-0.5-0.4
		c-0.3,0-0.6-0.2-0.8-0.7c-0.3-0.5-0.7-1.1-1.1-1.6c-0.3-0.4-0.5-0.7-0.5-1c0-0.3,0.1-1.1,0.4-2.1c0.4-1.7,0.5-2.7,0.5-3.2
		c0-0.5,0.3-1.3,1.1-2.4c0.8-1.1,1.1-2.3,1.1-3.8c0-1.5,0.3-2.5,0.9-3s1.2-1.5,1.8-2.9c0.5-1.4,1.3-2.4,2.2-2.9
		c1-0.5,1.5-1.4,1.6-2.5c0.1-1.1,0.3-1.9,0.4-2.1c0.3-0.5,0.8-1,1.7-1.7c0.8-0.7,1.4-0.9,1.6-0.8c0.2,0.1,0.6-0.1,1.2-0.5
		c0.7-0.4,1.3-0.9,1.9-1.3c0.6-0.5,0.8-0.8,0.7-0.9c-0.3-0.2-0.2-0.8,0.4-1.7c0.5-0.9,1-1.4,1.4-1.4c0.6,0,1.4-0.6,2.3-1.5
		c0.8-0.8,2-1.7,3.7-2.5c1.7-0.9,2.9-1.3,3.6-1.3c0.5,0,1.3-0.2,2.4-0.8c1.2-0.5,2.1-1,2.8-1.5c0.5-0.3,0.9-0.5,1.2-0.5
		c0.3-0.1,0.7,0.1,1.3,0.6s0.9,0.8,0.9,1.1c0,0.3,0.2,0.4,0.5,0.4c0.3,0,0.4-0.2,0.2-0.5c-0.1-0.2,0.1-0.3,0.6-0.4
		c0.2-0.1,0.5-0.1,0.8-0.1c1.2-0.1,2.3,0.2,3.2,0.9c1,0.7,1.6,1.1,1.8,1c0.3,0,0.4,0.7,0.5,2.3c0.1,1.6-0.2,2.7-0.8,3.2
		c-0.7,0.6-1.2,1.4-1.5,2.4C177,73.4,176.7,74,176.4,74z M174.6,69.9c0.2-0.2,0.4-0.5,0.5-0.7c0.1-0.2,0.1-0.4,0-0.5
		c-0.1-0.1-0.3-0.2-0.6-0.2c-0.4,0-1-0.4-1.9-1.3c-0.8-0.9-1.3-1.2-1.5-1c-0.2,0.2-1,0.5-2.4,0.6c-1.4,0.1-2.2,0.5-2.5,1
		c-0.3,0.6-1.3,1.6-3.1,3.2c-1.8,1.6-2.9,2.4-3.3,2.4c-0.4,0-0.7,0.4-0.9,1.2c-0.2,0.7-0.8,1.4-1.8,1.9c-0.8,0.4-1.5,0.9-2.1,1.4
		c-0.6,0.5-0.9,0.9-0.9,1.1c0,0.2-0.4,1-1.2,2.4c-0.8,1.3-1.2,2.2-1.2,2.7c0,0.5-0.2,1-0.7,1.6c-0.3,0.4-0.5,0.7-0.4,0.9
		c0.1,0.2,0.4,0.5,1,1c0.9,0.7,1.4,0.9,1.4,0.6c0.1-0.2,0.4-0.5,1.1-0.7c0.7-0.2,1.3-0.5,1.5-0.8c0.3-0.4,0.7-0.6,1.1-0.7
		c0.4,0,1-0.3,1.8-0.8c0.6-0.4,0.9-0.7,0.8-0.8c-0.3,0-0.2-0.2,0.2-0.8c0.4-0.5,0.8-0.7,1.4-0.6c0.5,0.1,0.9,0,1-0.4
		c0.1-0.3,0.6-0.7,1.4-1.3c0.8-0.5,1.6-1.1,2.4-1.8c0.9-0.8,1.7-1.4,2.2-1.8c0.8-0.6,1.6-1.4,2.5-2.5c0.9-1.1,1.7-1.7,2.3-1.7
		c0.3,0,0.6,0,0.7-0.3c0.2-0.2,0.3-0.7,0.3-1.3C174,71,174.2,70.2,174.6,69.9z M190.7,84.4c1.3-0.4,1.9-0.3,2,0.4
		c0.1,0.6-0.4,1.2-1.5,1.8c-0.2,0.1-0.4,0.2-0.6,0.3c-1.4,0.5-2.2,1.1-2.6,1.7c-0.4,0.6-0.8,0.9-1.2,0.9c-0.5,0-0.7,0.3-0.6,0.7
		c0,0.4-0.7,1-2.1,1.8c-1.5,0.8-2.3,1.4-2.5,1.7c-0.2,0.3-0.7,0.5-1.5,0.6c-0.6,0-0.8,0-0.8-0.1c0,0,0-0.1,0.1-0.1
		c0.4-0.2,0.5-0.4,0.3-0.6c-0.2-0.2,0.1-0.6,0.9-1c0.7-0.5,1.1-0.9,1-1.3c0-0.4,0.2-0.5,0.7-0.4c0.5,0.2,0.7,0.1,0.7-0.3
		c0-0.3,0.2-0.4,0.7-0.3c0.2,0.1,0.4,0.1,0.5,0c0.1-0.1,0.1-0.2,0-0.4s0-0.4,0.2-0.7c0.2-0.2,0.6-0.5,1.1-0.7c1-0.5,1.5-0.8,1.5-1.1
		s0.3-0.3,0.9-0.2c0.5,0.1,0.9-0.1,1.5-0.5c0.5-0.4,0.8-0.9,0.7-1.3C189.9,84.8,190.2,84.6,190.7,84.4z"/>
	<path style="fill:#000C0F;" d="M247.2,54.3c0.2,0.4,0,1.1-0.6,2.1c-0.6,1-1.2,1.6-1.7,1.8c-0.6,0.2-1.2,0.7-1.9,1.6
		c-0.7,0.8-1.2,1.3-1.7,1.3c-0.4,0-0.7,0.5-0.9,1.3c-0.2,0.8-0.7,1.4-1.6,1.8c-0.8,0.4-1.1,0.7-1.1,1c0,0.3-0.3,0.8-1.1,1.6
		c-0.8,0.7-1.3,1.1-1.6,1.2c-0.8,0.1-1.8,1.1-3.1,3.1c-0.8,1.4-1.5,2.2-2.1,2.5c-0.5,0.3-1.1,1-1.5,2.1c-0.5,1.1-1,1.8-1.6,1.9
		c-0.6,0.2-1.3,0.9-2.1,2.3c-0.8,1.3-1.6,2.1-2.3,2.5c-1.2,0.6-1.9,1-2.3,1.4c-0.4,0.3-0.6,0.8-0.6,1.4c-0.1,0.8-0.3,1.2-0.8,1.3
		c-0.6,0-1.2,0.3-1.8,0.7c-0.6,0.4-0.9,0.8-0.9,1.1c0,0.5-0.2,1.1-0.6,1.7c-0.4,0.6-0.8,0.9-1.2,0.8c-0.4-0.1-0.6,0.1-0.5,0.5
		s-0.2,0.7-0.7,0.9c-0.8,0.3-0.9,0.8-0.3,1.6c0.3,0.4,0.4,1.1,0.5,2.2c0.1,1.1,0,1.7-0.2,2.1c-0.2,0.3-0.1,0.5,0.2,0.5
		c0.2,0,0.5,0,1-0.1c1.1-0.1,2.1,0.1,2.9,0.6l1.2,0.8l0.9-1.1c0.4-0.5,0.7-0.8,1.1-0.9c0.3-0.1,0.9-0.2,1.6-0.1
		c1.1,0.1,1.9-0.1,2.3-0.7c0.4-0.6,0.6-0.7,0.8-0.3c0.2,0.4,0.4,0.6,0.8,0.5c0.2-0.1,0.2-0.2,0.1-0.4c-0.2-0.4,0.5-1.3,2.1-2.7
		c1.6-1.4,3-2.4,4.3-3c1.8-0.9,2.9-1.6,3.3-2.2c0.4-0.7,0.8-1,1.1-0.8c0.1,0.1,0.2,0.1,0.3,0c0.1-0.1,0.1-0.2,0-0.3
		c0-0.1,0-0.3,0.1-0.4c0.1-0.1,0.3-0.2,0.6-0.3c0.6-0.1,1,0,1.2,0.5c0.2,0.4,0.1,1-0.3,1.7c-0.3,0.6-0.4,0.9-0.2,0.8
		c0.1-0.1,0.2-0.1,0.4,0c0.1,0.1,0.3,0.2,0.3,0.4c0.2,0.4,0.1,0.7-0.1,0.9s-0.7,0.2-1.2,0.1c-0.6-0.1-1.2,0.1-1.9,0.6
		c-0.7,0.5-0.9,1-0.7,1.4c0.2,0.4-0.3,1.2-1.4,2.2c-1,0.9-1.7,1.7-2.1,2.2c-0.3,0.4-0.7,0.6-1.1,0.6c-0.5,0-0.8,0.2-0.9,0.6
		c-0.2,0.4-0.7,0.8-1.4,1.2c-0.8,0.4-1.5,0.6-2.1,0.7c-0.7,0.1-1.2,0.5-1.7,1.2c-0.4,0.8-0.8,1.1-1.1,1c-0.3-0.1-1,0.3-2.2,1.2
		c-1.1,0.9-1.7,1.5-1.7,1.8c0,0.3-0.5,0.4-1.6,0.3c-0.4,0-1.2-0.1-2.4-0.2c-0.6,0-1-0.3-1.3-0.9c-0.2-0.4-0.4-0.7-0.5-0.8
		c-0.1-0.1-0.3,0-0.4,0.2c-0.2,0.2-0.4,0.6-0.7,1.2c-0.3,0.7-0.6,1.1-0.8,1.3c-0.2,0.1-0.6,0.2-1.2,0.1c-1-0.2-1.8-0.4-2.2-0.7
		c-0.5-0.3-1.1-0.5-1.8-0.4c-0.4,0-0.7-0.1-0.9-0.3s-0.5-0.6-0.9-1.3c-0.6-1.1-1.1-1.6-1.5-1.5c-0.3,0-0.4,0.3-0.3,0.8
		c0,0.5-0.2,0.9-0.7,1.2c-0.5,0.4-1.1,0.6-1.8,0.7c-0.6,0-1.2,0.3-1.7,0.8c-0.4,0.3-0.6,0.4-0.8,0.4s-0.4-0.1-0.8-0.4
		c-0.6-0.4-1.1-0.5-1.6-0.1c-0.5,0.3-0.9,0.4-1.2,0.1c-0.4-0.3-0.5-0.2-0.5,0.3c0,0.3-0.1,0.5-0.3,0.6c-0.2,0.1-0.8,0.1-1.6,0
		c-1.3-0.1-2.2-0.3-2.6-0.6c-0.4-0.3-0.4-0.8,0-1.5c0.4-0.6,0.4-1.1,0.1-1.5c-0.3-0.3-0.2-0.8,0.4-1.6c0.5-0.8,1-1.2,1.5-1.2
		s1.3,0.1,2.3,0.4c0.7,0.2,1.2,0.3,1.6,0.3s0.8-0.2,1.5-0.5c1-0.5,1.5-0.7,1.7-0.6c0.2,0.1,0.7-0.2,1.5-1c0.8-0.7,1.4-1.1,1.7-1.2
		c0.3,0,0.5-0.3,0.6-0.9c0.1-0.3,0.1-0.5,0.2-0.6c0.1-0.1,0.2-0.1,0.3-0.1c0.3,0.2,0.7,0,1.2-0.6s0.7-1,0.6-1.3
		c-0.1-0.3,0-0.5,0.2-0.8c0.3-0.2,0.4-0.7,0.4-1.3c0-0.6,0-1.1,0.3-1.3s0.4-0.6,0.3-1.1c0-0.6,0.1-0.9,0.5-1.1
		c0.4-0.2,0.6-0.8,0.5-1.7c-0.1-1,0.2-2,0.7-2.8c0.4-0.6,0.6-1.1,0.7-1.6s0-1.3-0.1-2.5c-0.1-1.1-0.2-2-0.1-2.5
		c0.1-0.6,0.3-1.1,0.6-1.8c0.5-0.9,1-1.7,1.7-2.3c0.5-0.4,0.7-0.8,0.5-1.3c-0.2-0.4,0-1.1,0.4-2c0.5-1,1-1.7,1.6-2.1
		c0.7-0.5,1.2-1.1,1.3-1.8c0.1-0.3,0-0.5-0.2-0.4c-0.3,0-0.4,0.2-0.4,0.6c0,0.4-0.4,0.8-1.4,1.2c-0.9,0.4-1.4,0.8-1.3,1
		c0,0.3-0.3,0.4-0.9,0.4c-0.6-0.1-1.1,0.3-1.4,1.1c-0.1,0.3-0.6,0.9-1.4,1.7c-0.8,0.8-1.4,1.3-1.8,1.6c-0.3,0.2-0.9,0.7-1.6,1.5
		c-0.7,0.8-1.1,1.3-1.1,1.4c0,0.3-0.3,0.4-0.8,0.5c-0.6,0-0.8,0.2-0.8,0.6c0,0.4-0.2,0.8-0.7,1.3c-0.5,0.5-0.8,0.8-1.1,1
		c0,0-0.3,0.3-0.9,0.9c-0.1,0-0.2,0.1-0.3,0.3c-0.1,0.2-0.2,0.3-0.3,0.3c0,0-0.2,0.1-0.6,0.2c-0.1,0-0.3,0.3-0.6,0.6
		c0,0-0.3,0.3-0.7,0.6c-0.4,0.4-0.6,0.7-0.6,0.9c0,0.2,0,0.4-0.1,0.5c-0.1,0.1-0.3,0.3-0.5,0.5c-0.2,0.2-0.4,0.4-0.4,0.4
		c-0.1,0.2-0.3,0.3-0.4,0.4c-0.1,0.1-0.3,0.2-0.5,0.3c-0.2,0.1-0.4,0.2-0.5,0.3c-0.1,0.1-0.3,0.2-0.5,0.3c-0.3,0.1-0.4,0.2-0.5,0.2
		c-0.2,0.1-0.6,0.4-1.1,0.7c-0.5,0.3-1,0.6-1.3,0.7c0,0-0.2,0.1-0.5,0.3s-0.5,0.2-0.6,0.3c-0.1,0.1-0.3,0.2-0.4,0.4
		c-0.1,0.2-0.2,0.4-0.2,0.6c0,0.1,0,0.2,0,0.3c0,0.1-0.1,0.1-0.2,0.1c-0.1,0-0.3,0-0.4,0c-0.2,0-0.4-0.1-0.8-0.2
		c-1-0.2-1.8-0.1-2.3,0.2c-0.3,0.2-0.5,0.3-0.6,0.3c-0.1,0-0.2-0.1-0.2-0.4c0-0.4,0.3-0.7,0.9-1c0.7-0.2,1-0.6,1-1.1
		c0-0.5,0.4-1,1.4-1.5c0.1-0.1,0.4-0.3,0.9-0.5c0.4-0.3,0.8-0.4,1-0.5c0.2-0.1,0.5-0.3,1-0.5c0.4-0.3,0.7-0.4,1-0.5
		c0.2-0.1,0.3-0.2,0.4-0.3l0.1-0.4c0,0,0.2-0.1,0.4-0.3s0.3-0.3,0.3-0.4c-0.1-0.4,0.3-1,1-1.9c0.4-0.5,0.8-0.9,1.2-1.4
		c0.2-0.2,0.3-0.3,0.4-0.4c0.1,0,0.2-0.1,0.4-0.1c0.2,0,0.3,0,0.3-0.1c0.1-0.1,0.1-0.1,0.1-0.2c0.1-0.5,0.1-0.8,0.1-0.8
		c0-0.2,0.1-0.3,0.2-0.4c0.1-0.1,0.3-0.2,0.4-0.2c0.2-0.1,0.3-0.1,0.4-0.2c0.2-0.1,0.4-0.3,0.7-0.6c0.3-0.3,0.5-0.5,0.7-0.6
		c1-0.8,1.7-1.3,2-1.5c0.3-0.2,0.6-0.4,0.9-0.7c0.3-0.4,0.5-0.6,0.6-0.6c0.1,0,0.2-0.1,0.4-0.1s0.3,0,0.3-0.2c0-0.1,0.1-0.2,0.1-0.3
		c0-0.2,0.1-0.3,0.1-0.3c0,0,0.2-0.2,0.4-0.5c0.2-0.3,0.4-0.5,0.3-0.7c0-0.4,0.3-0.8,0.9-1.2c0.8-0.5,1.3-1,1.6-1.5
		c0.4-0.7,0.7-1.1,1-1.1c0.3,0,0.9-0.6,1.8-1.6c0.8-1,1.4-1.5,1.9-1.6c0.3,0,1-0.5,2.2-1.5c1.1-0.9,2.1-1.4,3.1-1.7
		c0.7-0.1,1.1-0.2,1.2-0.1c0.1,0.1,0.1,0.3,0.1,0.8c-0.1,0.7,0.1,1,0.5,1c0.3,0,0.4-0.1,0.5-0.4c0-0.2,0-0.7-0.1-1.4
		c-0.2-1.1-0.1-1.9,0.3-2.2c0.5-0.4,0.8-0.8,0.9-1.3c0.1-0.5,0.8-0.9,2-1.5c0.9-0.4,1.5-0.6,1.8-0.6c0.3,0,0.7,0.2,1.2,0.6
		c0.7,0.5,1,0.9,0.9,1.1c-0.1,0.2,0,0.4,0.4,0.5c0.4,0.1,0.7,0.5,0.7,1c0,0.5,0.3,0.9,0.8,1c0.5,0.2,0.6,0.5,0.5,1.2
		c-0.2,0.7-0.2,1.2-0.2,1.6c0,0.5-0.2,1-0.7,1.5c-0.2,0.2-0.3,0.2-0.3,0c0-0.1-0.1-0.1-0.3,0.2c0,0.1-0.1,0.1-0.1,0.2
		c-0.2,0.5-0.7,0.8-1.4,0.8c-0.5,0-0.7,0.1-0.8,0.2c-0.1,0.1,0,0.3,0.2,0.6c0.4,0.6,0.5,1.1,0.5,1.3s-0.4,0.5-0.9,0.8
		c-0.7,0.4-1.1,1.1-1.3,2.1c-0.2,1.2-0.4,1.8-0.6,1.9c-0.2,0.1-0.6,0.6-1.2,1.6c-0.3,0.5-0.5,1.1-0.6,1.9s-0.2,1.4-0.2,2
		s0.2,0.8,0.4,0.9c0.2,0,0.3-0.3,0.3-0.8c0-0.4,0.4-1.2,1.2-2.3c0.8-1.1,1.4-1.7,1.7-1.8c0.3,0,0.6-0.4,0.9-1
		c0.5-0.8,1.3-1.8,2.4-2.8s2-1.6,2.5-1.6c0.7-0.1,1.2-0.5,1.4-1.4c0.2-0.8,1.1-2,2.6-3.3c1.6-1.4,2.3-2.3,2.3-2.6
		c0-0.3,0.1-0.4,0.4-0.4c0.2,0,0.7-0.5,1.5-1.4c0.7-0.9,1.7-1.4,2.8-1.4c1.1,0,1.7-0.1,1.9-0.3c0.1-0.1,0.1-0.2,0-0.2
		c-0.1-0.1-0.2-0.1-0.3-0.1c-0.3,0-0.4-0.2,0-0.6s0.7-0.7,1.3-0.7c0.5,0,0.8-0.3,1-0.7c0-0.1,0.1-0.3,0.1-0.5
		c0.1-0.3,0.1-0.5,0.1-0.6c0.1-0.4,0.7-0.6,1.8-0.7C246.3,53.8,247,54,247.2,54.3z M186.9,103.8c0.7,0.1,1.2,0.2,1.4,0.4
		c0.2,0.2,0.4,0.4,0.4,0.7c0,0.4-0.2,0.8-0.6,1.1s-0.9,0.4-1.3,0.3c-0.5-0.1-0.8-0.6-0.9-1.4c-0.1-0.6-0.1-0.9,0-1
		C186.1,103.8,186.4,103.7,186.9,103.8z M217.5,81c0.4-0.3,0.4-0.6,0.1-0.9c-0.3-0.2-0.5-0.1-0.7,0.3c-0.2,0.5-0.2,0.7-0.1,0.8
		C216.9,81.4,217.1,81.3,217.5,81z M240.5,86.8c0.1,0,0.2,0.1,0.2,0.4c0,0.3-0.1,0.5-0.4,0.5c-0.3,0-0.4-0.1-0.2-0.4
		C240.2,87,240.4,86.8,240.5,86.8z M245,81.7c0.3,0.1,0.5,0.3,0.5,0.6c0,0.3-0.1,0.6-0.4,1.1c-0.3,0.4-0.7,0.9-1.2,1.3
		c-1,0.9-1.5,1.5-1.5,1.7c0,0.2-0.2,0.2-0.7-0.1c-0.6-0.4-0.9-1.2-0.7-2.2c0.2-1,0.7-1.7,1.5-2.1C243.4,81.6,244.2,81.5,245,81.7z"
		/>
	<path style="fill:#000C0F;" d="M298.7,35c0.2,0.7-0.1,1.1-0.7,1.1c-0.6,0-0.9,0.3-0.9,0.6c0,0.3-0.5,0.4-1.5,0.3
		c-2.1-0.2-4.7,0.1-7.7,0.9c-3.1,0.8-5,1.7-5.8,2.7c-0.6,0.7-1.2,1-2,0.9c-0.8-0.1-1.1,0.1-1.1,0.5c0,0.5-0.5,1.4-1.5,2.8
		c-1.1,1.5-1.6,2.7-1.7,3.5c-0.1,0.9-0.3,1.4-0.8,1.4s-0.8,0.4-1.1,1.1c-0.3,0.7-0.3,0.9,0.1,0.7c0.3-0.2,0.5-0.2,0.5,0
		c0,0.3-0.3,0.6-0.8,0.8c-0.6,0.2-0.9,0.6-0.8,1.1c0,0.4-0.4,1.2-1.3,2.5c-0.9,1.2-1.6,1.9-2,1.9c-0.3,0-0.3,0.2-0.1,0.7
		c0.2,0.4,0.3,1,0.2,1.9c-0.1,0.7-0.5,1.1-1.1,1.3s-1.3,0.1-1.8-0.4c-0.3-0.3-0.5-0.2-0.4,0.2c0,0.2,0.1,0.6,0.3,1.1
		c0.3,0.9,0.3,1.4,0.2,1.8c-0.1,0.3-0.5,0.8-1.3,1.5c-1.1,1-1.6,1.8-1.6,2.2c0,1-0.6,2.1-1.6,3.4c-0.3,0.4-0.5,0.5-0.5,0.4
		c0-0.1-0.3,0.1-0.7,0.5c-0.4,0.4-0.8,0.9-1.3,1.5c-0.4,0.6-0.7,1-0.8,1.3c-0.3,1-0.8,1.6-1.5,1.7c-0.7,0.1-1.3,0.4-1.9,0.9
		c-0.5,0.5-0.9,0.7-1.2,0.6c-0.1-0.1-0.1,0-0.2,0.1c0,0.2,0,0.3,0.1,0.5c0.2,0.6,0.1,1.1-0.2,1.6c-0.3,0.5-0.6,1-0.8,1.6
		c-0.1,0.6-0.5,1-1,1.2c-0.6,0.3-1.4,1-2.4,2.1c-1,1.1-1.5,1.8-1.5,2.1c0,0.4-0.1,0.7-0.5,1c-0.4,0.3-0.8,1.1-1.2,2.4
		c-0.5,1.4-0.9,2.4-1.2,2.8c-0.3,0.5-0.3,1.2,0.1,2c0.4,0.9,0.7,1.7,0.7,2.3c0.1,0.7,0.6,1.3,1.7,1.7c0.7,0.3,1.2,0.4,1.4,0.4
		c0.2,0,0.4-0.2,0.7-0.6c0.3-0.6,0.7-0.8,1-0.9c0.4,0,1.1-0.4,2.1-1c1-0.7,1.5-1.1,1.5-1.3c0-0.3,0.3-0.5,1.1-0.5
		c0.8-0.1,1.3-0.4,1.5-1c0.3-0.7,1-1,2.2-0.9c1.2,0,2.3-0.3,3.2-0.9c0.9-0.6,1.7-1,2.3-1c0.6,0,0.9-0.3,0.9-0.7
		c0-0.5,0.1-0.7,0.3-0.8c0.3,0,0.4-0.3,0.1-0.7c-0.3-0.5-0.1-0.8,0.6-1.1c0.6-0.2,0.9-0.5,0.9-0.8c0-0.3,0.2-0.5,0.6-0.5
		c0.5,0,0.8-0.4,1-1.2c0.3-1.2,1.3-1.9,2.9-2c0.6-0.1,0.9-0.2,0.9-0.4c-0.2-0.3-0.1-0.7,0.3-1.3c0.4-0.6,1-1,1.6-1.2
		c0.6-0.2,1-0.3,1.1-0.3c0.1,0.1,0.1,0.4,0.1,1c0,0.6,0,0.9,0.1,1c0,0,0.2-0.1,0.5-0.4c0.5-0.5,1.1-1,1.9-1.5c1-0.6,1.9-1.6,2.7-2.9
		c0.9-1.5,1.7-2.2,2.2-2.3s0.8-0.3,1-0.8c0.1-0.5,0.3-0.7,0.7-0.7c0.4,0,0.5,0.1,0.3,0.3c-0.1,0.2-0.1,0.5,0.3,1.1
		c0.3,0.5,0.1,1.1-0.5,1.9c-0.7,0.8-1,1.4-0.9,1.8c0,0.4-0.2,0.6-0.8,0.7c-0.5,0-1,0.3-1.5,0.9c-0.5,0.5-0.8,0.8-1.1,0.8
		c-0.3,0-0.5,0.3-0.6,0.7c-0.1,0.5-0.4,0.8-0.8,0.8s-0.7,0.3-0.8,0.8c-0.1,0.5-0.3,0.8-0.7,0.8c-0.3,0-0.7,0.3-1.1,0.7
		s-0.6,0.9-0.6,1.2c0,0.2-0.7,0.8-2.1,1.8c-1.4,0.9-2.2,1.5-2.1,1.8c0,0.3-0.3,0.4-0.8,0.5c-0.6,0-0.9,0.5-1,1.5
		c0,0.9-0.4,1.5-1.1,1.8c-0.7,0.3-1.6,1.2-2.9,2.7c-1.3,1.5-2.4,2.3-3.2,2.4c-0.9,0.1-1.5,0.5-1.7,1.3c-0.2,0.8-0.7,1.2-1.4,1.4
		s-1.4,0.5-2.2,1.2c-1.1,0.9-1.8,1.4-2.2,1.5s-0.7-0.1-1.2-0.5c-0.4-0.4-0.7-0.6-0.9-0.6s-0.5,0.4-0.9,1c-0.7,0.9-1.1,1.1-1.4,0.7
		c-0.2-0.3-0.3-0.4-0.5-0.3c-0.1,0-0.4,0.2-0.6,0.6c-0.4,0.6-1,0.7-1.6,0.5c-0.7-0.2-1.7-0.4-2.8-0.4c-1.3,0-2.5-0.3-3.6-0.9
		s-1.7-1.3-1.8-2.2c-0.1-0.8-0.5-1.5-1.3-2.1c-0.8-0.5-1.1-0.9-0.9-1.3c0.2-0.3,0.1-0.6-0.3-0.7c-0.2-0.1-0.4-0.6-0.6-1.5
		s-0.3-1.7-0.3-2.6c0-0.8,0.1-1.3,0.2-1.3c0.3,0,0.3-0.6,0-1.8c-0.2-0.9-0.3-1.3-0.1-1.4c0,0,0.1,0,0.2,0c0.4,0.2,0.9-0.1,1.4-0.8
		c0.5-0.7,0.6-1.2,0.2-1.5c-0.3-0.3-0.4-0.6-0.1-1.1c0.2-0.3,0.4-1,0.5-2c0.2-0.8,0.5-1.5,1.1-1.8c0.6-0.4,0.8-0.8,0.8-1.3
		c-0.1-0.5,0.2-1.5,0.9-2.9c0.7-1.4,1.1-2.2,1.5-2.2c0.1,0,0.6-0.2,1.2-0.6c0.7-0.4,1.1-0.7,1.3-1c0.5-0.6,1.2-1.2,2-1.7
		c0.6-0.4,0.9-1.1,0.7-1.9c-0.2-0.8,0-1.4,0.5-1.9c0.1-0.1,0.6-0.3,1.6-0.7c1-0.4,1.5-0.7,1.6-0.9c0.1-0.7,0.7-1.7,1.6-3
		c1-1.4,1.6-2.6,2.1-3.6c0.5-1.1,1.1-1.8,1.7-2c0.9-0.2,1.5-1.4,1.7-3.6c0.1-0.9,0.4-1.7,1-2.6c0.6-0.9,1.3-1.6,2.2-2.1
		c1-0.6,1.6-1.6,1.9-2.9c0.2-1.2,0.6-2,1.1-2.4c0.6-0.4,1-1.2,1.4-2.3c0.2-0.5,0.4-0.9,0.7-1.4c0.3-0.5,0.6-0.8,0.9-1
		c0.7-0.4,1-0.7,0.9-1c0-0.3-0.2-0.2-0.6,0c-0.5,0.4-1.9,0.7-4.3,0.8c-2.4,0.1-3.8,0-4.2-0.3c-0.5-0.4-0.7-0.8-0.5-1.4
		c0.1-0.5,0.5-0.9,1-0.9c0.5,0,0.9-0.2,1-0.6c0.2-0.4,0.8-0.6,1.7-0.6c0.9,0,1.7,0.2,2.2,0.6c0.6,0.5,1.3,0.5,1.9,0.1
		c0.7-0.4,1.1-0.4,1.5,0.1c0.3,0.2,0.4,0.3,0.4,0c0-0.4,0.2-0.6,0.8-0.5c0.6,0.1,1.2-0.4,1.8-1.4c1.6-2.6,2.3-4.4,2.2-5.4
		c0-0.4,0.5-1.2,1.6-2.5s1.9-2,2.2-2c0.2,0,0.3-0.3,0.2-0.9c0-0.5,0.3-1.2,0.9-1.9c1.4-1.6,1.9-2.5,1.5-2.8c-0.1-0.1-0.1-0.1,0-0.1
		c0.1,0,0.2,0,0.5,0c0.3,0.1,0.5,0.1,0.6,0s0.1-0.4,0.1-0.9c-0.1-0.5,0.2-1.4,0.8-2.6c0.6-1.2,1.1-1.9,1.6-2.2
		c0.2-0.1,0.3-0.4,0.2-0.9c0-0.4,0.2-0.8,0.6-1c0.4-0.2,0.9-0.9,1.4-2c0.5-1.1,1.3-1.9,2.2-2.5c1-0.6,1.7-0.9,2.1-0.8
		c0.4,0,0.8,0.3,1.3,1c0.3,0.4,0.5,0.6,0.6,0.7c0.2,0.1,0.3,0,0.4-0.1c0.2-0.4,0.5-0.6,0.8-0.6s0.4,0.2,0,0.6
		c-0.3,0.5-0.1,0.7,0.7,0.6c0.9,0,1.3,0.1,1.4,0.3s-0.1,0.8-0.5,1.8c-0.5,1.2-0.8,1.9-0.7,2.3s-0.3,0.8-1,1.5
		c-0.8,0.7-1.4,1.7-1.8,2.9c-0.4,1.3-0.9,2-1.5,2.3c-0.4,0.2-1,1.3-1.9,3.5c-0.9,2.1-1.3,3.5-1.2,4.1c0,0.3-0.2,0.7-0.7,1.1
		c-0.4,0.4-1,1.3-1.8,2.8c-0.8,1.5-1.1,2.3-0.9,2.4c0.1,0.1,1.9,0,5.5-0.2c4.8-0.3,7.4-0.4,7.9-0.2C298.4,34.3,298.6,34.6,298.7,35z
		 M260.7,93c0-0.3,0.1-0.5,0.4-0.5c0.3,0,0.5,0.1,0.5,0.4c0,0.3-0.1,0.5-0.4,0.5C260.9,93.5,260.7,93.3,260.7,93z M278.8,77.6
		c1.2-0.9,1.8-1,1.9-0.3c0,0.1,0,0.2,0,0.3c-0.3,1-0.9,1.9-1.9,2.6c-0.8,0.5-1.2,0.5-1.3-0.2C277.4,79.1,277.9,78.3,278.8,77.6z"/>
</g>
</svg>
