<?xml version="1.0" encoding="utf-8"?>
<!-- Generator: Adobe Illustrator 30.4.0, SVG Export Plug-In . SVG Version: 9.03 Build 0)  -->
<svg version="1.0" id="Layer_1" xmlns="http://www.w3.org/2000/svg" xmlns:xlink="http://www.w3.org/1999/xlink" x="0px" y="0px"
	 viewBox="0 0 240 240" style="enable-background:new 0 0 240 240;" xml:space="preserve">
<g>
	<polygon style="fill:#FFFFFF;" points="90.5,124.7 77.4,137.8 77.4,239.8 103.6,239.8 103.6,137.8 	"/>
	<polygon style="fill:#FFFFFF;" points="72.7,106.9 40,120 72.7,133.1 85.8,120 	"/>
	<polygon style="fill:#FFFFFF;" points="70.8,144.4 70.8,239.7 44.6,239.7 44.6,170.6 	"/>
	<g>
		<polygon style="fill:#FFFFFF;" points="90.5,115.3 77.4,102.2 77.4,0.2 103.6,0.2 103.6,102.2 		"/>
		<polygon style="fill:#FFFFFF;" points="70.8,95.6 70.8,0.4 44.6,0.4 44.6,69.4 		"/>
	</g>
	<polygon style="fill:#FFFFFF;" points="149.5,124.7 162.6,137.8 162.6,239.8 136.4,239.8 136.4,137.8 	"/>
	<polygon style="fill:#FFFFFF;" points="167.3,106.9 200,120 167.3,133.1 154.2,120 	"/>
	<polygon style="fill:#FFFFFF;" points="143.1,120.2 130,107.1 110.4,107.1 97.3,120.2 110.4,133.3 130,133.3 	"/>
	<polygon style="fill:#FFFFFF;" points="169.2,144.4 169.2,239.7 195.4,239.7 195.4,170.6 	"/>
	<g>
		<polygon style="fill:#FFFFFF;" points="149.5,115.3 162.6,102.2 162.6,0.2 136.4,0.2 136.4,102.2 		"/>
		<polygon style="fill:#FFFFFF;" points="169.2,95.6 169.2,0.4 195.4,0.4 195.4,69.4 		"/>
	</g>
</g>
</svg>
