<?xml version="1.0" encoding="utf-8"?>
<!-- Generator: Adobe Illustrator 30.4.0, SVG Export Plug-In . SVG Version: 9.03 Build 0)  -->
<svg version="1.0" id="Layer_1" xmlns="http://www.w3.org/2000/svg" xmlns:xlink="http://www.w3.org/1999/xlink" x="0px" y="0px"
	 viewBox="0 0 680.3 240" style="enable-background:new 0 0 680.3 240;" xml:space="preserve">
<g>
	<path d="M105.8,56.7c1.1,50.8,16,79.1,55.9,100.5l-23.5,32.1c-19-9.4-46-35.3-53.5-57.7c-6.7,24.6-32.3,53.2-54.5,63.6L6.4,163.1
		c40.9-22.7,55.9-52.9,56.9-106.4H16.3V22.2h135.3v34.5H105.8z M211.4,0v240.6h-42V0H211.4z"/>
</g>
<rect x="240" y="93.3" style="fill:#E6007E;" width="217.6" height="32.6"/>
<polygon style="fill:#009FE3;" points="264.1,239 264.1,172.7 389.5,172.7 389.5,164.4 263.8,164.4 263.8,134.5 431.7,134.5 
	431.7,198.6 306.3,198.6 306.3,206.7 438.1,206.7 438.1,239 "/>
<polygon style="fill:#F9D500;" points="265.9,83.7 265.9,7.2 431.2,7.2 431.2,39 307.6,39 307.6,52.1 433,52.1 433,83.7 "/>
<g>
	<path d="M622.8,180.7c-29.4,5.3-66.8,7.8-102.7,8c-7.8,0-29.9,0-36.4-0.3V85h71.9V54.5h-71.9v-34H598v97.6H526V154
		c24.3,0.8,66-1.3,93.3-6.7L622.8,180.7z M631.6,240.6V0h42.2v240.6H631.6z"/>
</g>
</svg>
