<?xml version="1.0" encoding="utf-8"?>
<!-- Generator: Adobe Illustrator 30.4.0, SVG Export Plug-In . SVG Version: 9.03 Build 0)  -->
<svg version="1.0" id="Layer_1" xmlns="http://www.w3.org/2000/svg" xmlns:xlink="http://www.w3.org/1999/xlink" x="0px" y="0px"
	 viewBox="0 0 1000 302.3" style="enable-background:new 0 0 1000 302.3;" xml:space="preserve">
<g>
	<path style="fill:#E6007E;" d="M229.5,28.3c3,5.2,3.7,8.8,2,10.7c-0.9,1-1.1,2.9-0.6,5.8c0.4,3,0.1,4.8-0.8,5.6
		c-1,0.9-1.6,1.7-1.6,2.5c0,1-0.8,1.4-2.4,1.4c-0.9,0-1.4,0.1-1.7,0.4c-0.2,0.2-0.3,0.7-0.1,1.4c0.3,1.2-1.1,3.2-4.3,6.1
		c-3.3,3-5.3,5.5-6.1,7.6c-0.8,2.1-2.7,4-5.6,5.9c-2.9,1.9-4.5,3.4-4.8,4.3c-0.4,1.3-2.1,3.2-5.1,5.8c-3,2.6-5.1,3.9-6.2,3.9
		c-1.4,0-2,0.6-2,1.8c0,1-1.8,3.3-5.5,6.8c-3.6,3.5-6.2,5.4-7.7,5.8c-1.4,0.2-3,1.7-4.9,4.4c-1.9,2.6-3.7,4.5-5.4,5.6
		c-1.9,1.3-3,2.2-3.4,2.8c-0.5,0.8-1.6,1.4-3.2,1.8c-1.1,0.2-2,0.2-2.8-0.2c-0.7-0.4-1.8-1.4-3.1-2.9c-2.2-2.5-3.4-3.2-3.4-2.2
		c0,1.1,0.5,2.1,1.4,2.9c1.8,1.5,2,3.6,0.4,6.2c-1.6,2.6-3.7,3.9-6.5,4c-1.5,0.1-3.4,1.1-5.5,2.9c-2.2,1.9-3.5,3.7-4.1,5.5
		c-0.5,1.4-1.4,2.1-2.9,2.3c-0.8,0.1-1.4,0.4-1.8,1.1c-0.4,0.6-0.8,1.8-1.2,3.6c-0.6,2.6-1.3,4.4-2.3,5.4c-1,1-2.4,1.5-4.1,1.4
		c-3-0.2-5-0.1-5.8,0.2c-0.8,0.3-1.4,1.2-1.7,2.5c-0.4,1.8-0.9,3.1-1.6,4c-0.6,1-0.8,1.9-0.4,2.8c0.4,1,0.2,1.4-0.5,1.4
		c-0.6,0-1,0.6-1,1.9c0,1.4-0.9,2.3-2.6,2.6c-2.3,0.6-3.8,1-4.3,1.4c-0.6,0.4-1,1.3-1.3,2.8c-0.3,1.8-2.4,4.4-6.1,7.6
		c-3.6,3-5.2,4.8-4.8,5.2c0.5,0.5,0.3,1.3-0.7,2.5c-0.9,1.2-1.8,1.7-2.7,1.7c-1.2,0-1.8,0.4-1.8,1.2c0.1,3.1-0.4,4.7-1.6,4.7
		c-0.8,0-1.9,1.3-3.4,3.8s-2.2,4.5-2.2,5.8c0,1.3,0.5,2.1,1.4,2.5c1,0.4,1.4,1,1.4,1.9c0,1.1,0.9,2,2.6,2.6c1.8,0.6,3.2,0.6,4.4,0
		c1.4-0.7,2.5-0.9,3.5-0.5c1.1,0.4,2.3-0.1,3.5-1.4c1.3-1.3,2.6-1.9,4.1-1.9s2.6-0.4,3.5-1.3c0.6-0.4,1.3-0.4,2,0
		c0.7,0.4,1.3,1.2,1.9,2.3c0.5,1.2,0.7,2.2,0.4,3.2c-0.7,3.2-2.1,5.3-4.1,6.4c-2,1.1-4.3,0.9-7-0.4c-1.8-0.9-3.2-1.3-4.2-1.3
		c-1,0-1.7-0.5-2.2-1.6c-0.4-1-0.8-1.4-1.3-1.4c-0.6,0-1.5,1.4-2.6,4.3s-1.8,5.5-2.2,8.1c-0.4,3-1.2,5.1-2.5,6.1
		c-1.2,0.8-1.8,2.2-1.8,4.2c0,1.9-0.4,2.9-1.1,2.9c-0.7,0-0.9,0.9-0.5,2.6c0.4,1.7-0.2,3.6-1.9,5.9c-1.7,2.1-2.7,3.9-3,5.5
		c-0.3,1.6-1.1,3-2.3,4.2c-1,1-2.1,2.7-3.5,5.3c-0.8,1.5-2,2.8-3.7,3.8c-1.7,1-3.1,1.4-4.2,1c-0.9-0.3-1.6,0-2.3,0.8
		c-0.6,0.9-0.6,1.6,0,2.3c0.7,0.7,0,2.1-2,4.2c-2.1,2.1-3.1,3.4-3.1,4.1c0,0.6-0.5,0.8-1.4,0.4c-1-0.4-1.6,0-1.6,1.3
		c0,0.8-0.5,1.6-1.4,2.3c-1,0.7-1.8,1-2.4,0.7c-0.3-0.2-1.1,1-2.3,3.4c-0.9,1.8-1.8,2.9-2.8,3.4c-1,0.5-2.7,0.6-5.1,0.4
		c-1.2-0.2-2,0.4-2.4,1.8c-0.3,1.3-1.1,1.9-2.3,1.9c-1,0-1.8,0.5-2.3,1.6c-0.4,1-1.4,1.4-3,1.4c-1.6,0-2.5,0.2-2.8,0.7
		c-0.6,1.3-2.2,2.6-4.8,4c-2.6,1.4-5,2.1-7,2.2c-3,0.2-5,0.5-5.9,1c-1.1,0.6-2.5,0.4-4.2-0.4c-1.7-0.8-2.7-2.6-3.1-5.4
		c-0.4-3-0.2-4.8,0.5-5.6c0.9-1,1.2-2.4,0.8-4.4c-0.2-1.2-0.2-2,0-2.3c0.2-0.4,0.6-0.5,1.4-0.5c0.7,0,1.2-0.1,1.3-0.4
		c0.2-0.3,0.1-0.8-0.1-1.5c-0.4-1.3-0.1-3,1-5c1-2,1.3-3,1-3c-0.4,0,0.4-1,2.4-3c2.1-2.1,3.1-3.6,3.1-4.7c0.1-1.4,0.9-4.2,2.4-8.4
		c1.5-4.2,2.7-6.9,3.5-8c1.1-1.4,2.7-2.6,4.7-3.4c0.9-0.4,1.6-0.8,2.1-1.2c0.5-0.4,0.7-0.7,0.5-1c-0.4-0.6,0.6-2.3,3-5.3
		c2.3-2.9,3.5-4.7,3.5-5.4c0-0.9,0.7-2.3,2.2-4.1c1.5-1.9,2.6-2.8,3.3-2.8c0.9,0,1.5-0.8,1.9-2.5c0.2-1,0.6-1.7,1-2
		c0.4-0.3,1.3-0.3,2.5-0.2c1.3,0.2,2.1,0.1,2.4-0.1c0.3-0.2,0.5-0.9,0.5-2c0-1.6,1.7-4,5.2-7.2c3.6-3.1,5.6-4.7,5.9-4.7
		c0.6,0,0.6-0.5,0.1-1.6c-0.4-0.9-0.2-2.2,0.7-4.1c0.9-1.8,2-3.3,3.2-4.3c1.1-0.9,1.8-2.3,2-4.2c0.2-1.9-0.1-3.4-0.9-4.6
		c-2.6-3.3-2.4-6.2,0.7-8.8c1.4-1.1,2.3-1.7,2.9-1.8c0.6-0.1,1.5,0.2,2.7,0.8c1.8,1,2.5,2.4,2.3,4.2c-0.2,1.8,0.2,2.6,1.2,2.6
		c1,0,1.6-0.5,1.6-1.4c0-1,0.6-1.8,1.8-2.4c1.2-0.6,3-3.4,5.5-8.4c2.5-4.9,4.4-7.4,5.9-7.7c1.3-0.2,2.1-0.9,2.4-2.3
		c0.3-1.4,0.8-2.4,1.4-3c1.5-1.3,2.9-4,4.1-8.2c0.4-1.4,2-3.3,4.7-5.9c2.7-2.6,5.2-6.2,7.4-10.8c2.3-4.8,3.9-7.2,4.7-7.2
		c0.6,0,1.7-0.8,3.2-2.4c1.5-1.6,2.2-2.8,2.2-3.5c0-0.6,0.4-1,1.3-1c1.3,0,3.5-2.1,6.7-6.3c3.2-4.2,4.8-7.2,4.8-8.9
		c0-0.9,2-2.8,6.1-5.6s6.2-5,6.4-6.2c0.4-4.6,1.3-7.8,2.6-9.4c0.8-1,1.4-2,1.9-3.2c0.4-1.1,1.1-1.7,2-1.7c1,0,1.6-0.7,1.8-2.2
		c0.3-1.7,1.5-3,3.6-4c2.2-1.2,3.7-2.5,4.4-4c0.7-1.5,1.8-2.2,3.2-1.9c1.1,0.2,2-0.1,2.7-0.8c0.7-0.7,1.1-1.8,1.4-3.4
		c0.2-1.5,1-3.2,2.3-5.2c1.3-1.9,2.5-3.2,3.6-3.7c1.4-0.6,2.2-1.3,2.2-2.2c0-0.8,2.4-3.6,7.1-8.3c4.7-4.7,8-7.5,9.7-8.4
		c1.9-1,3.1-2.2,3.5-3.4c0.4-1.3,1.1-1.9,2.2-1.9c0.9,0,2.4-1.1,4.7-3.4c2.1-2.2,4.6-3.7,7.6-4.3c5.8-1.4,9.2-1,10.2,1.4
		c1.1,2.5,2.1,2.7,2.9,0.6c0.2-0.4,0.3-0.7,0.4-0.8c0.1-0.2,0.2-0.2,0.4-0.2c0.2,0,0.3,0.1,0.5,0.3c0.2,0.2,0.4,0.5,0.8,1
		c1,1.2,1.4,1.4,1.4,0.7c0.1-1.5,0.8-1.8,2.3-0.8C227.8,25.8,228.7,26.8,229.5,28.3z M76.7,224.9c0.6,0,1-0.4,1-1.1
		c0-0.6-0.3-0.8-1-0.4c-0.7,0.4-1.1,0.3-1.1-0.4c0-0.7,0.4-1.3,1.1-1.7c0.8-0.5,1.1-1,0.8-1.5c-0.3-0.5-1.2-1.2-2.8-2.1
		c-1.9-1.1-3.2-1.6-3.8-1.6c-0.6,0.1-1.8,0.8-3.5,2.3c-1.9,1.6-3.3,2.4-4.1,2.4c-1,0-1.4,0.8-1.4,2.4c0,1.6-0.5,2.8-1.4,3.6
		c-1,0.8-1.4,1.6-1.4,2.5c0,1-0.8,1.8-2.4,2.5c-1.4,0.6-2.3,1.6-2.9,2.9c-0.6,1.3-0.4,2.4,0.4,3.2c0.8,0.8,1.1,1.8,0.9,2.9
		c-0.2,1.2-0.8,2.1-1.7,2.8c-1.6,1.1-3.1,2.9-4.4,5.4c-0.5,0.9-0.6,1.3-0.2,1.3c0.5,0,0.4,0.6-0.4,1.9c-0.8,1.3-2.1,1.9-3.8,1.9
		c-1.8,0-3.4,0.8-4.7,2.3c-1.3,1.5-2.6,4-3.8,7.4c-0.8,2.2-1.5,3.6-2.1,4.4c-0.6,0.8-1.3,1.3-2.2,1.4c-1.6,0.3-2.5,1.1-2.8,2.3
		c-0.2,1.2-0.7,1.6-1.4,1.3c-0.6-0.2-1,0.2-1.4,1.2c-0.6,1.6-1.1,2.8-1.4,3.5c-0.9,1.6-0.7,3,0.5,4.2c1.1,1.1,2.1,1,3-0.5
		c0.4-0.7,1.2-1,2.3-0.8c1.1,0.2,2.1,0.2,2.9,0c0.8-0.1,2-1,3.7-2.8c1.7-1.8,2.5-3.1,2.5-3.9c0-0.9,0.9-1.3,2.6-1.3
		c1.6,0,3-0.4,4.3-1.3c1.3-0.8,1.9-1.8,1.9-2.8c0-0.7,0.4-1.4,1.2-2c0.8-0.6,1.8-1,3.1-1.2c1.1-0.2,2.1-0.6,3.1-1.2
		c0.9-0.6,1.4-1.3,1.4-1.9c0-0.9,0.4-1.3,1.1-1.3c0.6,0,1-0.5,1-1.4c0-1,0.3-1.4,0.8-1.4c0.6,0,1.1,0.6,1.4,1.7
		c0.2,1,0.4,0.9,0.6-0.4c0-0.2,0-0.4,0-0.6c0.2-1.9,0.5-3,1.1-3.4c0.7-0.5,0.9-1.5,0.5-3c-0.3-1.7,0-2.7,1-3c1-0.5,1.4-1,1-1.4
		c-0.2-0.6-0.1-0.8,0.5-0.8c0.7,0,1.1-0.6,1.1-1.9c0-1.2,1-2.9,2.9-5.2c1.9-2.2,2.8-3.4,2.5-3.6c-0.3-0.3,0.2-1.7,1.4-4.2
		c1.3-2.4,1.9-4.3,1.9-5.8C75.7,225.6,76,224.9,76.7,224.9z M79.3,196.1c0.4-0.4,0.5-1,0.2-1.9c-0.3-0.8-0.7-0.8-1.2,0
		c-0.6,0.9-0.6,1.6,0,2C78.6,196.5,78.9,196.4,79.3,196.1z M82.5,224.9c-0.6,0-0.9,0.1-0.8,0.4c0,0.3,0.5,0.6,1.4,1
		c0.7,0.3,1.1,0.3,1.1,0c0-0.1,0-0.2-0.1-0.4C83.6,225.2,83.1,224.9,82.5,224.9z M151.6,179.6c0.6-1.1,1-1.7,1.3-1.7
		c0.3,0,0.9,0.4,1.9,1.3c1.3,1.1,1.9,2.5,1.8,4.1c-0.1,1.6-0.8,3.1-2.2,4.3c-5.8,5.2-9.5,7.8-11.3,7.8c-1.4,0-2.5,0.6-3.2,1.9
		c-0.7,1.4-1.6,2-2.5,2s-3,1.3-6.1,4c-3,2.7-5.1,3.9-6.4,3.5c-1.2-0.2-2,0.1-2.4,1c-0.4,1-1.2,1.5-2.5,1.3c-1.2-0.2-2.3-0.9-3.2-2.2
		c-0.6-0.9-1.1-1.8-1.3-2.6c-0.2-0.9-0.3-1.6-0.1-2.2c0.2-0.6,0.6-0.8,1.3-0.8c1,0,1.6-0.3,1.6-1c0-0.6,0.4-1,1.3-1
		c0.9,0,1.8-0.5,2.6-1.6c0.9-1,1.9-1.4,3-1.1c1.1,0.3,2.1,0,2.9-1c0.7-0.9,1.8-1.3,3.4-1.3c1.4,0,2.4-0.5,2.9-1.6
		c0.4-1,1.2-1.4,2.5-1.4c1.4,0,2-0.7,2-2c0-0.6,0.1-1,0.2-1.3c0.2-0.3,0.4-0.3,0.7-0.2c0.6,0.4,1,0.3,1-0.2c0-0.6,1.6-1.6,4.9-3.2
		C148.9,182.8,150.8,181.2,151.6,179.6z M159.1,107.4c0.6-1,0.6-1.4,0-1.4c-0.5,0-1,0.4-1.6,1.1c-0.7,1-0.8,1.4-0.2,1.4
		C158.1,108.5,158.7,108.2,159.1,107.4z M222.8,43.9l0.4-5.9h-6.4c-2.9-0.1-4.8,0-5.7,0.3c-0.9,0.3-1.9,1-2.9,2.2
		c-1.4,1.7-2.4,3.1-2.9,4.3c-0.5,1-1.1,1.6-1.9,1.6c-1,0-1.7,0.7-2.3,2.2c-0.5,1.3-1.8,3-3.9,5.3c-2.1,2.2-3.5,3.4-4.1,3.4
		c-0.6,0-1,0.5-1,1.4c0,0.9-0.5,1.5-1.4,1.9c-1,0.4-1.4,1.1-1.4,2c0,1-0.4,1.6-1.1,1.6c-0.6,0-0.9,0.9-0.7,2.6
		c0.2,1.8-0.4,2.8-1.8,3c-1.4,0.2-2.3,1.3-2.6,3.1c-0.3,1.8-1.7,3.4-4.1,4.9c-2.3,1.4-3.5,2.8-3.5,4.2c0,1.4-1.3,3.3-4,5.6
		c-2.6,2.4-4.1,4.6-4.3,6.5c-0.5,4.1-2.1,7-4.8,8.9c-0.9,0.9-1.1,1.4-0.6,1.4c1.1,0,2.2-0.5,3.1-1.4s1.8-1.4,2.5-1.4s1.8-1,3.2-2.9
		c1.4-1.8,3.3-3.5,5.9-5.3c2.6-1.8,4.5-2.7,5.6-2.7c1.1,0,2.1-0.4,2.9-1.2c0.8-0.8,1.2-1.8,1.2-2.9c0-1.2,0.8-2.2,2.4-2.9
		c1.7-0.8,2.6-1.9,2.8-3.2c0.2-1.4,1-2.2,2.4-2.4c1.4-0.2,2.6-1.2,3.4-3.1c1-2,1.8-3,2.6-3c0.4,0,0.7,0,0.8-0.1
		c0.1-0.1,0.1-0.2,0.1-0.4c-0.1-0.2-0.3-0.5-0.6-0.9c-0.5-0.6-0.7-1.1-0.7-1.6c0-0.5,0.5-1.2,1.3-2.1c1.5-1.8,2.8-3.1,3.7-3.7
		c1-0.6,2-1,3.1-1c1.5,0,2.4-0.4,2.6-1.2c0.3-0.9,1-0.8,2,0.1c0.6,0.6,1.1,0.8,1.5,0.7s0.7-0.6,1.1-1.4c0.6-1.2,0.8-2.3,0.5-3.2
		c-0.3-0.9,0.5-1.8,2.5-2.6c1.9-0.8,2.9-1.7,2.9-2.6c0-0.8,0.3-1.4,1-1.7C222.1,49.9,222.5,47.8,222.8,43.9z"/>
	<path style="fill:#E6007E;" d="M152.2,183.5c0.6-1,1-0.8,1.2,0.4c0.2,1,0.1,2.1-0.2,3.4c-0.4,1.4-1.3,2.4-2.6,3
		c-1.4,0.6-2.5,0.4-3.4-0.6c-1-1-1.1-2.3-0.5-3.8c0.6-1.5,1.6-2.1,2.9-1.7C150.9,184.4,151.8,184.2,152.2,183.5z M183.8,159.9
		c0.3,1.3-0.7,2.5-3,3.7c-2.4,1.4-3.6,2.2-3.6,2.6c0,0.6-1.1,2-3.2,4c-1.9,1.8-3.4,3.8-4.4,5.8c-0.6,1.1-2.5,2.9-5.6,5.2
		c-3.1,2.4-5.1,3.5-5.9,3.5c-0.4,0-1.2-0.7-2.5-2.2c-1.3-1.5-1.9-2.5-1.9-3.1c0-0.6,0.5-0.7,1.6-0.2c1,0.4,1.4-0.1,1.4-1.4
		c0-1.3,0.3-1.9,1-1.9c0.6,0,1.1-0.8,1.6-2.3c0.2-0.6,0.6-1.4,1.4-2.2c0.8-0.8,1.6-1.4,2.6-1.9c2.2-1.1,3.4-2,3.4-2.8
		c0-0.8,0.8-1.8,2.5-2.9c1.6-1.2,3-1.7,4.1-1.7c0.9,0,1.5-0.2,1.8-0.5c0.3-0.3,0.5-1,0.5-1.9c0-1.6,0.9-2.9,2.6-3.8
		c2.1-1.1,3.8-2.4,5.2-3.8c1.4-1.4,1.9-2.6,1.6-3.4c-0.3-0.9-0.1-1.3,0.7-1.3c0.8,0,1.6-0.8,2.4-2.5c0.7-1.6,1.4-2.4,2.2-2.4
		s0.9-0.4,0.5-1.1c-0.4-0.7,0.1-1.2,1.4-1.6c1.4-0.3,2-0.9,2-1.8c0-1,0.4-1.6,1.2-1.8c2.2-0.7,4-0.7,5.2-0.1
		c1.2,0.7,1.7,1.9,1.4,3.5c-0.3,1.7-1.4,3.2-3.4,4.6c-2.3,1.6-3.4,2.6-3.2,3.1c0.2,0.6-0.7,1.7-2.7,3.5c-2,1.8-3.6,2.9-5,3.5
		c-1.6,0.6-2.2,1.4-1.8,2.4c0.3,1,0,1.4-0.8,1.4C183.9,158.1,183.5,158.7,183.8,159.9z M262.2,186.9c1.8,0,3.4-0.6,4.7-1.9
		c0.9-0.9,1.8-1.5,2.9-1.9c1-0.4,1.9-0.5,2.6-0.2c0.7,0.2,1,0.8,1,1.6c0,0.6-0.1,1.1-0.4,1.4c-0.3,0.3-0.7,0.4-1.3,0.4
		c-0.5-0.1-1,0.1-1.4,0.7c-0.5,0.5-0.9,1.2-1.2,2.1c-0.7,1.8-1.4,2.8-2,2.8c-0.7,0-1.1,0.6-1.1,1.8c0,1.4-0.8,2.7-2.5,4.1
		c-1.6,1.4-3.5,2.3-5.6,2.6c-2.5,0.4-3.7,0.9-3.7,1.6c0,0.6-0.6,0.8-1.8,0.8c-1.1,0-2.2,1-3.2,2.9c-1,1.9-2.9,3.1-5.6,3.5
		c-2.6,0.4-5.2,1.8-7.9,4.1c-2.7,2.2-4.4,3.4-4.9,3.4c-0.6,0-1.1,0.4-1.4,1.3c-0.4,1-2.5,1.6-6.2,2c-3.2,0.4-5.3,0.7-6.2,1
		c-0.9,0.3-2.4,1.1-4.5,2.3c-2,1.3-3.6,1.6-4.9,0.8c-1.3-0.7-2.2-1-2.8-0.8c-0.6,0.2-1.4-0.1-2.6-0.7c-1.2-0.6-2.1-0.6-2.8,0
		c-0.7,0.7-2.1,0.6-4.2-0.5c-2.2-1-3.7-1.6-4.3-1.6c-0.7,0-2.3-1.1-4.6-3.4c-2.4-2.2-3.7-3.9-4.1-4.9c-0.5-1.2-0.2-2.7,0.8-4.6
		c1.3-2.6,1.6-3.8,0.8-3.8c-0.2,0-0.4,0-0.6,0.1c-0.8,0.2-1.2-0.2-1.2-1c0-0.7,0.1-1.8,0.2-3.2c0.1-1.3,0.9-1.9,2.5-1.9
		c1.6,0,2.5-0.3,2.7-0.9c0.2-0.6,0-2.1-0.7-4.4c-0.8-2.6-1-4.4-0.5-5.5c0.2-0.6,0.9-2,2-4.2c0.5-1,1-1.7,1.5-2
		c0.5-0.3,1.4-0.4,2.6-0.2c1.1,0.2,1.9,0.1,2.5-0.2c0.5-0.3,0.9-0.9,1.3-1.9c0.6-1.7,0.8-3,0.4-3.8c-0.4-1,0-1.6,1.1-2
		c1-0.5,1.6-1.1,1.6-1.9c0-0.8,1.5-2.4,4.4-4.9c3-2.5,4.4-4.1,4.4-4.9c0-0.9,0.5-1.5,1.4-1.9c1.2-0.5,2.4-1.8,3.6-4
		c1.3-2.2,2.8-3.6,4.4-4.1c2.6-0.6,3.1-3.2,1.4-7.6c-0.5-1.4-0.3-2.8,0.4-4.3c0.8-1.5,1.7-2.3,2.8-2.3c1,0,1.2-0.8,0.8-2.5
		c-0.4-1.6-1.2-2.4-2.4-2.4c-1.1,0-1.9-0.5-2.4-1.6c-0.8-2.2-2.7-1.7-5.6,1.6c-4,4.6-7.2,5.6-9.7,3.1c-1.4-1.4-1.6-2.7-0.7-4
		c0.8-1.2,2-2.2,3.6-3c1.5-0.7,2.3-2,2.3-3.8c0-1.8,0.5-3.3,1.4-4.6c1-1.2,1.6-3,2-5.5c0.5-2.6,1.3-4.4,2.5-5.5
		c1.3-1.1,1.9-2.1,1.9-3c0-0.7,0.7-1.8,2.2-3.2c1.4-1.4,3.1-2.6,4.9-3.7c1.4-0.8,3.2-1.2,5.2-1.1c2,0.1,3.6,0.6,4.7,1.4
		c1.4,1.2,2,3,1.8,5.4c-0.2,2.4-1.2,4.4-3,6.1c-2,1.8-3,3.2-3,4c0,0.9-0.6,1.8-1.8,2.9c-3.1,2.9-3.3,5-0.6,6.5
		c1.5,0.9,2.9,1,4.1,0.5c1-0.5,2-0.8,3.2-1c2.8-0.4,4.5-0.7,5.2-0.8c2.6-0.5,4.5-0.4,5.8,0.4c1.5,0.8,2.6,0.7,3.4-0.2
		c2.1-2.8,4.4-2.9,7-0.4c1.4,1.4,2.2,2.7,2.3,3.7c0.1,1-0.5,2.1-1.7,3.1c-1.1,1-1.6,2.5-1.3,4.4c0.2,1.8-0.1,3.2-1.1,4.2
		c-1,1-1.8,2.3-2.2,3.8c-0.5,1.7-1.1,3-1.9,4c-0.9,1-1.7,2.7-2.4,5c-0.7,2.3-1.8,4.1-3.1,5.3c-1.3,1.1-1.9,2.1-1.9,3
		c0,0.7-0.2,1.2-0.7,1.6c-0.5,0.3-1.7,1.9-3.7,4.8c-1.7,2.5-2.9,4.1-3.7,4.8c-0.8,0.7-1.6,0.9-2.4,0.6c-0.7-0.2-1.6,0.3-2.5,1.5
		c-1,1.2-2.3,3.5-4.1,6.9c-3,5.9-5.4,8.9-7.1,8.9c-0.8,0-2.1,1.1-3.8,3.4c-1.8,2.2-3.1,3.2-4,2.9c-0.9-0.3-1.8,0.4-2.9,2.2
		c-1,1.8-1.9,4.3-2.5,7.4c-1.4,6.4-1.9,9.9-1.7,10.3c0.1,0.2,0.8,0.4,2,0.4c1.8,0,2.6,0.4,2.6,1.1c0.2,0.7,1,1.1,2.2,1.1
		c1.2,0,2.7-0.4,4.4-1.2c1.7-0.8,2.8-1.7,3.5-2.6c0.6-0.8,1.3-1.2,2.3-1.2c1,0,2.4-1,4.1-3c1.8-2,3.4-3.2,5-3.5
		c1.6-0.3,2.8-0.8,3.6-1.4c1-0.8,2-1.1,3.1-0.8c1,0.2,2.2-0.3,3.5-1.3c1.3-1,2.3-2.3,3.1-4c0.6-1.4,1.8-2.2,3.5-2.5
		c1.7-0.3,3,0.1,3.9,1.2c2,2.2,3,2.1,3-0.5c0-1.3,0.4-1.9,1.1-1.9c0.6,0,1-0.4,1-1.1c0-1,1-2.2,3-3.6
		C259.2,187.6,260.8,186.9,262.2,186.9z M251.6,133.5c-0.3,0-0.5,0.3-0.5,1c0,0.6,0.4,1,1.1,1c0.6,0,0.8-0.3,0.4-1
		C252.2,133.8,251.9,133.5,251.6,133.5z"/>
	<path style="fill:#E6007E;" d="M363.2,174c1.4,1.3,2,2.2,2,2.8c0,0.6-0.8,1.3-2.3,2.1c-1.5,0.8-2.5,1.8-3,3.1
		c-0.5,1.2-1.4,1.8-2.6,1.8c-1.3,0-3,0.7-5.3,2c-2.2,1.4-3.7,1.8-4.3,1.4c-0.7-0.4-1.4,0.2-2.2,1.9c-0.7,1.6-1.9,2.6-3.5,3.1
		c-1.5,0.4-2.3,1-2.3,1.9c0,0.9-0.4,1.5-1.3,1.7c-0.8,0.3-1.8,0.1-2.8-0.4c-1.2-0.6-2-0.1-2.4,1.3c-0.3,1.2-1.1,2.4-2.5,3.7
		c-1.3,1.3-2.4,1.9-3.3,1.9c-0.6,0-2.1,1-4.6,3c-2.4,1.9-3.9,2.9-4.4,2.9c-0.5,0-2,0.8-4.6,2.5c-2.6,1.7-4.7,2.5-6.4,2.5
		c-1.1,0-2.9,0.3-5.3,1c-2.4,0.6-4,1.2-4.7,1.7c-0.1,0.1,0,0.3,0.1,0.7c0.2,0.4,0.4,0.7,0.8,1.1c0.6,0.8,0.7,1.2,0.1,1.2
		c-0.3,0-1.2-0.1-2.8-0.4c-2.5-0.4-4.1-0.9-4.9-1.6c-0.7-0.6-1.3,0-1.8,1.8c-0.4,1.7-1,3-1.9,3.8c-0.6,0.6-2.1,1.3-4.4,1.9
		c-2.3,0.6-3.8,0.8-4.6,0.6c-1.5-0.3-3.1-0.5-4.8-0.6c-1.5-0.1-2.8-0.5-3.9-1.1c-1.1-0.7-2.7-2.1-4.7-4.1c-3.4-3.4-4.8-5.4-4.3-6
		c0.4-0.6,0-1.2-1.3-1.9c-0.9-0.5-1.3-1-1.4-1.7c0-0.6,0.3-2.4,1.1-5.4c1.2-4.1,2.3-6.4,3.4-7c1.1-0.6,1.7-1.6,1.7-3.2
		c0-1.7,0.4-2.6,1.2-2.9c0.9-0.3,0.8-0.8-0.1-1.4c-0.6-0.4-0.9-0.9-0.9-1.5c0-0.6,0.5-1.6,1.3-3.1c1.3-2.3,2.2-3.5,2.9-3.5
		c0.4,0,0.5-0.7,0.2-2c-0.9-3.6,1.2-6.7,6.2-9.2c2.3-1.2,3.7-2.1,4.2-2.7c0.5-0.6,0.7-1.8,0.7-3.5c0-5.6,2.6-10.7,7.8-15.3
		c2.8-2.3,4.3-4.2,4.6-5.8c0.2-1.5,0.7-3,1.3-4.3c0.8-1.8,1.3-3,1.4-3.7c0.2-1,1.4-1.8,3.4-2.3c1.4-0.3,2.8-1,4.2-2
		c1.4-1,1.9-1.8,1.6-2.3c-0.2-0.4,0.1-1.2,1-2.4c0.8-1.1,3.5-1.8,8-2.2c4.4-0.3,6.7-0.8,7-1.4c0.2-0.7,0.8-1,1.7-1
		c0.9,0.1,1.6,0.5,2.3,1.2c0.6,0.6,0.5,2.1-0.3,4.3c-0.8,2.2-1.5,3.4-2.3,3.4c-0.6,0-0.7,1-0.1,2.9c0.4,1.6,0.5,3.2,0.2,4.7
		c-0.2,1.5-0.7,2.3-1.3,2.3c-0.5,0-1.3,1-2.5,2.9c-1.3,2-2.5,3.1-3.7,3.2c-1.4,0.2-2.2,1.7-2.6,4.4c-0.5,3-1.2,5.3-2.2,7
		c-0.6,1-1.3,2.6-2,4.6c-0.4,1.2-1.1,1.6-2.2,1.2c-0.9-0.3-2,0.1-3.4,1.3c-1.4,1.2-2,2.3-2,3.4c0,0.9-0.3,1.5-1,1.8
		c-0.5,0.2-0.9,1.2-1.2,2.8c-0.3,1.8-1.2,2.9-2.5,3.5c-1.4,0.6-2.2,1.3-2.2,2.3c0,0.9-0.6,1.5-1.9,1.8c-1.4,0.3-2,1-2,2
		c0,1-1,2.6-3,4.9c-1.2,1.4-1.9,2.3-2.2,2.9c-0.2,0.6-0.1,1.2,0.4,1.9c0.5,0.6,0.5,1.2,0.2,1.8c-0.4,0.6-1.4,1.7-3.1,3.1
		c-1.9,1.6-3.1,2.8-3.5,3.7c-0.4,0.9-0.6,2.5-0.6,4.9c0,2.2,0.2,3.8,0.5,4.7c0.3,0.9,1.1,1.9,2.4,3.1c1.3,1.1,2.2,1.8,2.9,2
		c0.6,0.2,1.4,0,2.2-0.5c1.3-0.9,2.2-0.8,2.9,0.2c0.6,0.6,0.9,0.3,1-0.8c0-1.5,0.5-2.1,1.4-1.8c1,0.3,1.6,0,1.9-0.8
		c0.3-1,1-1.4,2-1.4c1,0,1.6-0.3,1.6-0.8c0-0.6,0.7-1,2.2-1.4c1.5-0.5,3-1.4,4.4-2.6c1.5-1.4,3.2-2.2,5.2-2.6c2-0.4,3.7-1.6,5.2-3.6
		c1-1.4,1.6-2.1,1.9-2.2c0.3-0.1,0.8,0.2,1.3,0.9c0.6,0.9,1.2,1.2,1.7,0.9c0.5-0.3,0.7-1.1,0.7-2.5c0-0.5,0.1-0.8,0.4-1.1
		c0.2-0.2,0.5-0.3,0.7-0.1c0.6,0.4,1.2-0.2,2-1.9c0.8-1.7,2-2.7,3.5-3c0.9-0.2,1.3,0.2,1.3,1c0,1-0.4,1.6-1.2,1.8
		c-0.3,0.2-0.3,0.2,0.1,0.2c0.4,0,1.1-0.1,2-0.2c2.3-0.3,4.2-1.3,5.5-2.9c1.4-1.5,3.3-3,5.9-4.4c2.6-1.4,4.5-1.9,5.6-1.6
		c1.1,0.3,1.7,0.2,1.7-0.4c0-0.6,1-2,3.1-4.1c1.4-1.4,2.4-2.2,2.9-2.4c0.5-0.2,1,0.2,1.6,1.1c0.7,0.9,1.2,1.1,1.3,0.6
		c0.2-0.3,0.4-1.1,0.6-2.4c0.3-2.2,1.2-3.6,2.5-4c1.2-0.2,1.8,0,1.8,0.7c0,0.9,0.3,0.8,0.8-0.1C360.8,172.4,361.8,172.6,363.2,174z
		 M334.5,95.6c-1.7-0.7-2.4-1.6-2-2.5c0.3-1,1.6-1.9,3.7-2.8c2.6-1,4-1.8,4.3-2.4c0.3-0.8,1-0.4,2,1.3c0.7,1.2,1.1,2.2,1.1,3.1
		c0,1.1-0.3,1.9-1,2.3c-0.6,0.4-1,1.2-1,2.3c0,1-0.7,2-2,2.9c-0.8,0.6-1.4,0.8-1.7,0.7c-0.3-0.1-0.6-0.7-0.8-1.6
		C336.7,97.1,335.8,96,334.5,95.6z M365.1,170.2c-0.5,0.2-0.9,0.4-1.1,0.5c-0.3,0.1-0.5,0-0.5-0.2c-0.1-0.2-0.1-0.5,0-1
		c0.1-0.5,0.2-1.2,0.5-2c0.5-1.5,1.1-2.3,1.9-2.3c0.6,0,1,0.3,1.1,1c0.1,0.7,0,1.4-0.4,2.3C366.3,169.3,365.8,169.8,365.1,170.2z
		 M366,171.7c0.5-0.5,1-0.5,1.5-0.1c0.5,0.4,0.8,1.1,0.8,2c0,0.9-0.5,1.3-1.4,1.3c-0.7,0-1.2-0.4-1.4-1.1
		C365.2,173.1,365.4,172.4,366,171.7z M372,164c0.2,0.9-0.2,1.2-1.3,1c-1.2-0.3-1.9-0.9-2.2-1.7c-0.2-0.9,0.2-1.2,1.3-1
		C371,162.7,371.8,163.2,372,164z M373.2,167.1c0.3,0,0.6,0,0.7,0.1c0.2,0.1,0.2,0.2,0.2,0.5c0,0.2-0.1,0.5-0.2,0.9
		c-0.2,0.4-0.4,0.9-0.7,1.5c-0.9,1.6-1.7,2.2-2.4,1.7c-0.3-0.2-0.5-0.7-0.5-1.3c0-1,0.5-1.4,1.4-1.4c1,0,1.4-0.3,1-1
		C372.3,167.5,372.5,167.1,373.2,167.1z"/>
	<path style="fill:#E6007E;" d="M469.9,174.6c0.7,0.5,1.1,1,1.3,1.4c0.1,0.5,0,1.3-0.3,2.4c-0.6,1.9-1.2,2.9-1.8,2.9
		c-0.6,0-1.6,0.9-3,2.6c-1.4,1.6-3.2,2.7-5.5,3.4c-2.3,0.6-4,1.4-4.9,2.4c-0.2,0.2-0.6,0.8-1.1,1.6c-0.5,0.8-1,1.5-1.4,1.9
		c-0.4,0.4-0.9,0.5-1.5,0.2c-1-0.7-1.8-1-2.6-0.7c-0.8,0.2-2.1,1.4-4,3.4c-0.2,0.2-0.5,0.5-0.7,0.9c-0.2,0.4-0.4,0.7-0.5,1
		c-0.2,0.3-0.4,0.5-0.8,0.8c-0.4,0.2-0.8,0.4-1.4,0.6l0.1,0.1c-0.8,0.8-1.4,1.2-1.9,1.2c-0.8,0-1.8,0.6-2.9,1.7
		c-0.8,0.7-1.5,1.1-2.1,1.1c-0.6,0-1.5-0.2-2.7-0.7c-0.5-0.2-1-0.3-1.4-0.4c-0.5-0.1-0.8-0.1-1.1-0.1c-0.2,0-0.4,0.1-0.4,0.3
		c0,0.6-0.8,0.8-2.3,0.8c-1.5,0-2.6,0.3-3.2,1c-0.6,0.6-1.8,0.7-3.6,0.4c-1.8-0.3-2.8-0.8-2.8-1.4c0-0.6-0.6-0.8-1.8-0.8
		c-1.4,0-2.5-0.6-3.2-1.7c-0.7-1.2-0.9-2.7-0.5-4.5c0.4-2.2,0.1-3.6-0.8-4.4c-0.9-0.8-2.5-1-4.7-0.6c-2,0.4-3.6,0.7-4.9,0.8
		c-1.2,0.2-3.1,0.9-5.7,2.2c-2.6,1.3-3.9,2.2-3.9,2.6c0,0.5-0.6,0.7-1.9,0.7c-1.2,0-2,0.7-2.4,2c-0.3,1.4-1.2,2.2-2.5,2.5
		c-0.6,0.1-1,0.3-1.4,0.7c-0.4,0.4-0.6,0.8-0.6,1.2c0,1-0.4,1.4-1.1,1.4s-1.4,0.8-1.9,2.4c-0.6,1.7-1.3,2.5-2,2.5s-2.2,0.8-4.4,2.5
		c-2.2,1.7-4.5,2.6-7.1,2.8c-2.6,0.2-4.4,0.9-5.4,2.3c-1.2,1.5-2.6,2.3-4.3,2.3s-3.2,0.4-4.4,1.1c-1.4,0.7-2.6,0.6-3.7-0.5
		c-1.2-1-2.3-1.6-3.4-1.6c-1,0-2.2-1.2-3.4-3.5c-1.2-2.3-2.5-3.5-3.8-3.5c-1,0-1.6-0.2-1.9-0.7c-0.3-0.4-0.4-1.5-0.3-3.1
		c0.2-3.9,1.2-8.1,3.1-12.5c1.9-4.4,4.2-7.8,7-10.3c1.8-1.7,2.6-3.8,2.6-6.4c0-2.5,0.6-4.5,1.7-6.1c1.1-1.6,2.7-2.4,4.7-2.6
		c1.4-0.1,2.2-0.4,2.5-0.8c0.3-0.5,0.5-1.6,0.5-3.4c0.2-2.6,0.7-4.2,1.7-4.7c1-0.6,1.8-1.9,2.2-4.1c0.3-1.9,1.1-3.5,2.3-4.9
		c1.2-1.3,2.3-1.7,3.2-1.1c0.5,0.3,0.8,0.4,0.8,0.2c0-0.2-0.1-0.4-0.2-0.6c-0.5-0.8,0.2-1.7,2.2-2.6c1.4-0.7,2.4-1.6,3.2-2.8
		c0.8-1.1,1-1.9,0.5-2.4c-0.3-0.3-1.2-0.1-2.5,0.6c-0.9,0.5-1.4,0.7-1.7,0.5s-0.4-0.7-0.4-1.7c0-1.5,0.9-3.5,2.8-5.9
		c1.8-2.4,3.3-3.6,4.4-3.6c0.7,0,1.2-0.2,1.3-0.6c0.2-0.4,0.1-1.2-0.1-2.3c-0.4-2-0.1-4.2,0.9-6.5c1-2.3,2.1-3.5,3.4-3.5
		c1.6,0,2.4-0.4,2.5-1.1c0.1-0.6-0.4-0.9-1.6-1.1c-1.5-0.2-2.4-0.9-2.6-1.9c0-0.6,0.3-0.9,1-1c1.4,0,2.8-2,4.1-6
		c0.4-1,2-1.8,4.8-2.3c2.7-0.4,5-1.1,6.7-2c3.4-1.8,5.5-1.9,6.4-0.5c0.4,0.6,1.2,1,2.4,1c1,0,1.9,0.5,2.9,1.4c1,1,1.6,2,1.7,3.1
		c0.2,1.3-0.9,3.6-3.2,6.8c-2.3,3.3-4,5-5.1,5.2c-1,0.1-1.5,0.3-1.6,0.6c-0.1,0.3,0.1,0.9,0.7,1.7c0.8,1.4,0.7,2.4-0.2,3.2
		c-1,0.7-2.2,2.7-3.8,6c-1.6,3.3-2.7,5.4-3.2,6.5c-0.6,1-1,1.9-1.4,2.9c-2,5.3-3.8,8.2-5.4,8.6c-1.3,0.3-1.9,1.2-1.9,2.5
		c0,1.9-0.9,4.4-2.6,7.4c-1.7,3-3.4,4.9-5,5.8c-2.2,1.1-3.2,2.1-3.2,3c0,0.9-0.4,1.3-1.1,1.3c-0.6,0-0.8,0.6-0.4,1.9
		c0.4,1.3-0.1,3-1.4,5.3c-1.4,2.2-2,4.1-2,5.6c0,1.5-1,3.3-2.9,5.4c-2.1,2.2-3.7,4.6-4.9,7c-1,1.8-1.6,3-1.6,3.4
		c0,0.4,0.5,0.9,1.4,1.3c1.3,0.6,2.4,0.3,3.5-0.7c1.1-1.1,2.6-1.7,4.3-1.7c1.8,0,3.4-0.8,5-2.4c1.7-1.7,3.1-2.5,4.2-2.5
		c1.2,0,2.6-0.5,4.2-1.6c1.6-1,2.4-1.4,2.4-1c0,0.5,1.2-0.7,3.7-3.5c0.2-0.2,2.6-2.7,7-7.4c2.2-2.3,3.1-3.6,2.8-4
		c-0.4-0.4,0.1-1.4,1.4-3c1.3-1.6,1.9-3.2,1.9-4.8c0-1.6,0.5-2.6,1.4-3c0.9-0.4,1.7-1.7,2.5-3.9c0.8-2.2,0.9-3.9,0.5-5.2
		c-0.5-1.4-0.1-3.1,1-5c1.2-1.9,2.6-3.2,4.4-4c2-0.8,2.8-1.7,2.5-2.6c-0.4-0.9,0.6-2.4,2.9-4.4c2.3-2.1,3.5-4,3.5-5.9
		c0-1.8,0.6-3.2,1.9-4c1.2-0.8,1.6-2,1.3-3.7c-0.4-2,0.1-4,1.4-6.1c1.4-2.1,2.8-3.1,4.4-3c1.8,0.1,2.8-0.5,3.2-1.8
		c0.4-1.3,0.8-1.9,1.3-1.9c0.6,0,1.6-0.7,3.2-2.2c1.8-1.6,3.8-3,6-4.3c2.2-1.2,4-1.9,5.2-2c1.5-0.2,2.8-0.6,4-1.2
		c1.3-0.7,3-0.2,5.3,1.7c1.7,1.4,2.6,2.2,2.7,2.6c0.1,0.4-0.3,1.1-1.1,2.2c-1,1.4-2.7,2.4-5,3.2c-1.8,0.6-5.3,3.4-10.5,8.2
		c-5.1,4.8-7.7,7.9-7.7,9.1c0,0.6-0.8,1.8-2.4,3.4c-1.7,1.7-2.5,2.9-2.5,3.6c0,1,0.8,0.9,2.5-0.2c1.6-1,2.4-2.2,2.4-3.5
		c0-0.8,0.2-1.2,0.5-1.3c0.4-0.1,1.2,0.1,2.6,0.5c3.2,1,4.7,0.6,4.4-1c-0.1-0.2-0.2-0.4-0.2-0.6c-0.4-1-0.3-1.4,0.2-1.4
		c0.5,0,1.4-0.5,2.8-1.6c0.9-0.6,1.3-1.1,1.4-1.4c0-0.3-0.2-0.6-0.8-1c-0.6-0.4-0.9-0.9-0.9-1.4c0-0.5,0.5-1.5,1.3-2.8
		c1.4-2.5,2.6-4,3.5-4.7c0.9-0.6,2-0.8,3.4-0.4c4.2,1.1,5.7,3.6,4.4,7.3c-1.3,3.9-4.1,7.2-8.5,10c-1.4,0.9-2.2,1.6-2.6,2.2
		c-0.4,0.6-0.4,1.3-0.2,2.2c0.2,0.9,0.1,1.8-0.5,2.6c-0.6,0.9-1.8,2.2-3.8,4c-3.3,2.7-4.9,4.4-4.9,5c0,1-0.7,2.6-2,5
		c-1.4,2.4-2.6,4-3.6,4.9c-1.5,1.2-2.3,2.4-2.3,3.5c0,1-0.9,2.2-2.8,3.4c-1.8,1.2-4.5,3.5-8.3,7c-5.8,5.4-7.2,8.7-4.2,9.9
		c1,0.4,1.4,1.1,1.4,2.2c0,1,0.3,1.4,1,1.4c0.6,0,1,0.5,1,1.4c0,0.8,1,1.8,2.9,3c2,1.2,3.5,1.8,4.5,1.8c0.9,0,1.5-0.3,1.9-0.8
		c0.4-0.6,1.2-0.7,2.5-0.4c0.6-0.9,1.4-1.6,2.2-2.2s1.8-1,2.9-1.3c1.1-0.2,2-0.4,2.7-0.5s1.7-0.2,2.9-0.3c1.2-0.1,2-0.1,2.4-0.1
		c2.2-0.2,3.7-0.5,4.7-0.8c1-0.3,1.5-0.5,1.6-0.7c0.1-0.2,0-0.5-0.1-0.8c-0.2-0.4-0.2-0.7,0-0.9c0.5-0.9,1.7-1.8,3.7-2.8
		c2-1,3-1.9,3-2.6c0-0.8,1.5-2.1,4.4-4c2.6-1.7,4.4-2.7,5.6-2.9C467.4,173.5,468.6,173.8,469.9,174.6z M421.8,146.8
		c-0.9,0.1-1.7,0.6-2.3,1.6c-0.7,1-1.1,2.1-1.1,3.5c-0.1,1.4,1,2,3.4,1.7c2.7-0.4,4.8-1.6,6.2-3.5c0.8-1.1,2-1.5,3.7-1.2
		c1,0.2,1.6,0.3,1.9,0.1c0.3-0.2,0.5-0.6,0.5-1.4c0-1.3-0.6-2.7-1.9-4.3l-1.9-2.3l-1.2,2.6c-0.6,1.3-1.4,2.1-2.2,2.5
		C426.1,146.5,424.4,146.8,421.8,146.8z"/>
	<path style="fill:#E6007E;" d="M543,181.4c0.2,1.4-0.6,2.6-2.2,3.8c-1.4,1-2.2,2-2.2,2.9c0.1,1-0.5,2.3-1.7,3.7
		c-1.2,1.4-2.5,2.3-3.7,2.6c-1.6,0.4-2.5,1.4-2.8,3c-0.2,1.8-1,2.7-2.4,2.8c-1.6,0.2-2.6,0.7-2.9,1.5c-0.3,0.8-0.1,2.2,0.7,4
		c1,1.9,1.5,2.8,1.6,2.6c0-0.2,0.2-0.3,0.6-0.3c0.4,0,0.9,0.2,1.6,0.4c1.2,0.6,1.8,0.6,1.8,0.2c0-0.2-0.1-0.4-0.2-0.8
		c-0.6-1-0.4-1.6,0.4-1.6c0.7-0.1,1.7,0.4,3,1.3c1.3,1,2,1.8,2,2.5c0.1,0.6-0.9,1.5-2.9,2.5c-2,1-3.3,1.4-4,1.1
		c-0.7-0.4-2.6-0.5-5.5-0.4c-2.6,0.2-5.5,0-8.6-0.6c-2.2-0.4-4.3-0.4-6.3,0.1s-3.2,1.2-3.5,2.2c-0.2,0.8-1.5,1.1-3.8,1
		c-1.2-0.1-2.1,0-2.6,0.1c-0.5,0.2-0.7,0.4-0.7,0.8c0.1,0.3,0,0.6-0.4,0.8c-0.3,0.2-0.7,0.2-1.2,0.1c-1.1-0.3-2.1,0-3,0.8
		c-0.9,0.9-2.2,1.3-4,1.3c-1.8,0-3.6,1-5.3,3.1c-1.8,2.3-3.6,3.5-5.2,3.6c-0.7,0-1.1-0.3-1.1-1c-0.1-0.9-1-1.5-2.8-2
		c-1.8-0.4-3-0.3-3.5,0.4c-0.9,1-1.8,1.5-2.9,1.3c-1-0.2-1.7-0.8-2-2c-0.4-1.4-1.3-2.1-2.6-2.3c-1-0.1-2.1-0.8-3.3-2.3
		c-1.2-1.4-1.8-2.8-2-4.2c-0.1-1.3-1.8-2.3-5-3c-0.8-0.2-1.3-0.7-1.6-1.6c-0.3-0.9-0.5-2.9-0.5-5.9c-0.2-7.6,1.6-13.6,5.5-18
		c1.4-1.6,2.3-3.6,2.6-6c0.3-2.3,1-3.8,2-4.4c1.1-0.7,1.7-1.4,1.7-2c-0.1-0.7,1.1-3.2,3.5-7.3c2.4-4.2,4.3-6.9,5.5-8.2
		c1.5-1.5,2.3-2.6,2.3-3.4s1.2-1.8,3.5-3.2c1-0.6,1.9-1.3,2.8-2.3c0.9-1,1.4-1.8,1.7-2.4c0.6-1.8,2-2.9,4.2-3.5
		c1.4-0.4,2.4-0.9,3-1.6c0.6-0.7,1.3-2,2-3.9c1.1-3.1,2.8-5.2,4.9-6.4c2.1-1.1,4.3-2.9,6.5-5.2c2.3-2.4,4.1-4.8,5.3-7.3
		c1.1-2.2,2.7-3.8,4.8-4.9c2.1-1.1,5.6-2,10.5-2.8c3.2-0.5,6-1.2,8.5-2.2c4.1-1.8,9.3-2.1,15.7-1c3.3,0.6,5.4,1,6.3,1.4
		c0.9,0.4,1.4,1,1.5,1.8c0,0.6,0.9,1.7,2.8,3.2c1.8,1.5,2.8,2.6,2.8,3.1c0,0.6,0.6,1.2,1.8,1.9c0.8,0.5,1.2,1,1.3,1.5
		c0,0.5-0.3,1.7-0.9,3.7c-1,2.8-1.3,4.8-1,5.9c0.3,1.3,0.1,1.9-0.7,1.9c-0.2,0-0.7,0-1.3-0.1c-0.6,0-1.1-0.1-1.4-0.1
		c-1,0-1.6-1-1.8-3.1c-0.2-2.1-1.8-4.5-4.6-7.2c-1.8-1.8-3.2-2.8-4-3.1c-0.8-0.3-1.9-0.3-3.2,0.1c-1.8,0.5-3.8,2-6,4.6
		c-1.9,2.3-4.1,3.6-6.5,3.8c-2.5,0.2-4.3,1.2-5.4,3c-1,1.8-2.1,2.7-3.1,2.9c-0.8,0-1.7,0.8-2.8,2.3c-1,1.4-2,2.2-2.8,2.2
		c-0.9,0-1.8,0.8-2.9,2.3c-1,1.4-1.2,2-0.8,2c0.8-0.1-0.2,1.9-2.9,5.9c-0.6,0.9-1.3,1.8-1.9,2.6c-1.6,2-2.6,3.9-2.9,5.6
		c-0.3,1.6-0.6,2.4-1,2.4c-0.8,0.1-1.4,1.3-1.9,3.8c-0.4,2.4-0.5,4.5-0.1,6.2c0.4,1.6,0.5,2.7,0.3,3.4c-0.2,0.7-0.9,1.6-2.2,2.7
		c-1.9,1.7-3.1,2.2-3.6,1.6c-0.7-1-2.8-1.6-6.4-1.6c-0.6,0-0.9-0.8-1-2.3c-0.1-1.6,0.1-2.6,0.6-3.2c0.3-0.4,0.6-1,0.8-1.9
		c0.2-0.9,0.3-1.7,0.2-2.4c-0.1-0.7-0.3-1.1-0.6-1.1c-1.6,0.1-2.4,0.3-2.4,0.6c0,0.2,0.1,0.4,0.2,0.6c0.5,0.6-0.1,1.4-1.7,2.3
		c-1.2,0.6-2.1,1.6-2.6,2.8c-0.6,1.2-0.6,2.3,0,3.1c0.5,0.6,0.3,1.9-0.4,3.7c-0.8,1.8-1.6,2.9-2.5,3.2c-1,0.5-1.7,1.5-2,3.1
		c-0.3,1.7-0.8,2.5-1.3,2.5c-0.6,0.1-1.3,1.2-2.1,3.3c-0.8,2.1-1.1,3.9-1,5.3c0.1,1.5-0.2,3.3-0.8,5.2c-0.6,2-1.4,3.3-2.2,3.9
		c-1,0.7-1.2,1.9-0.8,3.5c0.4,1.6,1.4,3.1,2.8,4.3c1.2,1,2.3,1.7,3.3,1.9c1,0.2,2.8,0.1,5.5-0.2c4.1-0.5,6.4-0.6,7.1-0.5
		c0.8,0.1,2.2-0.4,4.2-1.4c2-1,3-1.8,2.9-2.4c0-0.6,0.8-0.8,2.4-0.6c1.8,0.3,2.8-0.2,3.1-1.4c0.2-1,1-2.2,2.3-3.5
		c1.1-1,1.5-2,1.2-2.9c-0.3-0.9-1-0.7-2.2,0.6c-0.7,0.9-1.2,1.3-1.5,1.4c-0.3,0-0.8-0.4-1.6-1.3c-2.8-3-4.6-6-5.3-9
		c-0.8-3-0.5-5.8,0.9-8.4c1.2-2,1.6-3.4,1.3-4.3c-0.2-0.6,0.3-0.6,1.3-0.1c0.3,0.2,0.8,0.5,1.3,0.8c4.1,2.4,6.6,6.8,7.7,13.3
		c0.4,2.7,1,4.6,1.7,5.6c0.2,0.2,0.7,0.5,1.3,0.7c0.6,0.2,1.4,0.3,2.2,0.4c0.8,0,1.6,0,2.3,0c0.7,0,1.3-0.2,1.8-0.4
		c0.5-0.2,0.7-0.5,0.7-0.8c-0.1-0.8,0.6-2,1.9-3.6c1.4-1.6,2.4-2.4,3.2-2.5c0.8-0.1,2.4-1.5,4.8-4.3c2.4-2.8,3.6-4.5,3.5-5.3
		c0-0.7,1.1-1.6,3.2-2.8c1.5-0.8,2.5-1.5,2.9-2.2c0.4-0.7,0.5-1.6,0.2-2.7c-0.2-0.8,0.5-2.6,1.9-5.3c1.4-2.8,2.4-4.1,2.9-4
		c0.3,0.1,0.5,0,0.6-0.3c0.1-0.3,0-0.6-0.1-0.9c-0.4-0.7,0-1.9,1.3-3.5c1.2-1.6,2.3-2.4,3.3-2.5c0.8-0.2,1.1-1.6,0.8-4.2
		c-0.4-3.8,0.4-7.5,2.5-11c2-3.5,4.7-5.7,7.9-6.8c1.2-0.4,2.2-0.1,2.9,0.8c0.8,0.9,1.2,2.2,1.2,3.8c0,1.6-0.3,3.3-1,5.2
		c-0.6,1.3-0.8,2.7-0.6,4.2c0.1,1.4-0.8,2.5-2.8,3.4c-1.8,0.9-2.8,1.6-2.8,2.2c0,0.6-0.8,0.9-2.3,0.7c-1.7-0.2-2.6,0.2-2.9,1.1
		c-0.2,1,0.1,1.2,1.1,0.7c0.8-0.4,1.2-0.1,1.2,0.8c0,0.4,0,1-0.1,1.8c-0.3,2.2-0.9,3.8-1.7,4.8c-0.9,1-1.2,2-1.1,2.9
		c0.1,1-0.7,2.1-2.3,3.3c-1.6,1.2-2.7,1.4-3.2,0.7c-0.6-0.9-1.1-0.5-1.4,1.2c-0.3,1.6-0.4,2.8-0.2,3.6c0.2,0.7-0.3,1.2-1.3,1.3
		C543.3,179.6,542.9,180.2,543,181.4z M584.5,181.1c1.2,2.5,0.2,4.5-3,6c-1.5,0.7-2.2,1.6-2,2.5c0.2,0.9-0.9,2-3.2,3.4
		c-2.1,1.3-3.1,2.2-3.1,2.8c0,0.6-0.5,0.9-1.4,1.1c-1,0.2-1.7,0.7-1.9,1.6c-0.2,1-1.9,2.1-4.9,3.5c-3,1.4-5,2.4-6,3.1
		c-0.9,0.6-2.1,1-3.6,1.2c-1.4,0.2-2.3,0.7-2.5,1.7c-0.3,1-1.1,1.6-2.3,1.6c-1.2,0-1.9-0.5-2-1.5c-0.1-0.8-0.2-1.2-0.3-1.1
		c-0.1,0-0.4,0.5-0.9,1.3c-0.5,0.9-0.9,1.3-1.4,1.3c-0.4,0-1.3-0.5-2.6-1.5c-1.8-1.3-2.6-2.5-2.5-3.7c0.1-1.2,1.1-1.9,3.1-2.1
		c2.2-0.2,3.8-0.6,4.9-1.1c1.1-0.5,2.5-1.5,4.2-2.9c2.1-1.9,3.4-2.9,4.1-2.9c0.5,0,1.5-1,3.1-2.9c2.2-2.9,5-3.5,8.3-1.8
		c0.8,0.4,1.2,0.3,1.2-0.4c0-0.7,0.3-1,0.8-0.7c0.2,0.1,0.5,0,0.7-0.3c0.2-0.3,0.4-0.7,0.5-1.4c0.2-1.5,0.9-2.1,2-1.7
		c1,0.3,1.8-0.3,2.4-1.8c0.6-1.4,1.5-2.6,2.9-3.6c1.6-1,2.8-1.4,3.5-1.3C583.3,179.4,583.9,180,584.5,181.1z"/>
	<path style="fill:#E6007E;" d="M739,4.6c3.4,3.2,5,5.6,4.8,7.1c-0.1,0.4-0.4,0.6-0.8,0.6c-0.6,0-0.7,0.8-0.2,2.5
		c0.4,1.7,0.2,2.5-0.5,2.5c-0.6,0-1,0.5-1,1.6c0,1.2-1.2,3.1-3.6,5.6c-2.4,2.6-3.6,4.2-3.6,5c0,0.8-0.5,1.2-1.4,1.2
		s-1.4,0.4-1.4,1.1c0.1,1-0.9,2.5-2.9,4.4c-2,1.9-3.7,2.9-5.2,3.2s-2.2,0.6-2.4,1.1c-0.2,0.5,0.1,1.5,0.8,3c0.6,1.1,0.2,2.2-1,3.2
		c-4.1,4-8.1,8.4-12,13.3c-3.8,4.6-6.4,7-7.6,7.2c-0.7,0-1.5,0.5-2.4,1.6c-0.9,1-1.8,1.2-2.6,0.7c-0.9-0.5-0.8-1.3,0.1-2.4
		c1-1.1,1.8-1.7,2.4-1.7c0.7,0,1.4-1,2.2-3.1c0.7-2.1,1.6-3.3,2.8-3.7c1.1-0.4,1.5-1,1.1-1.9c-0.4-0.8,0-1.6,1.3-2.5
		c1.4-1,2.6-2.4,3.4-4.3c1-2.2,3-5.1,6.2-8.8c3.3-3.7,5.1-6.2,5.5-7.7c0.4-1.7,1.7-3.7,3.9-6.1c2.2-2.4,4-3.6,5.3-3.8
		c1-0.2,1.6-0.4,1.9-0.7c0.3-0.3,0.4-1,0.4-2c-0.2-1.8,0.4-3.6,1.6-5.2c1-1.4,1.3-2.9,1.1-4.7s-1-3.1-2.2-4c-1-0.7-2.7,0.2-5.2,2.8
		c-2.5,2.5-4.2,3.6-5.2,3.4c-0.6-0.2-1-0.1-1.2,0.1s-0.3,0.7-0.2,1.4c0.2,1.4-0.3,2.2-1.3,2.2c-1,0-2.2,0.9-3.5,2.6
		c-1.3,1.7-2.7,2.6-4.2,2.8c-1.5,0.2-2.3,0.4-2.3,0.8c0,0.5-0.9,1.4-2.8,2.9c-1.9,1.5-3,2.8-3.4,4c-0.3,1.2-0.7,1.8-1.2,1.8
		c-0.6,0.1-2,1.4-4.2,3.8c-2.2,2.5-3.3,4-3.2,4.6c0,0.5-0.9,1-2.6,1.6c-1.9,0.6-4.3,3.4-7.2,8.4s-5,8-6.5,8.9
		c-1.4,0.8-2,1.4-1.8,1.9c0.3,0.9-0.3,2.4-1.9,4.4c-1.6,2.1-2.9,3.3-4,3.6c-1.8,0.5-2.9,1.2-3.1,2.3c-1.2,3.8-3.1,7.2-5.8,10.3
		c-1.5,1.7-2.7,3.5-3.5,5.5c-0.7,1.9-1.5,3.1-2.4,3.5c-1,0.4-1.4,1.1-1.4,2c0,1-0.4,1.4-1.3,1.4c-0.8,0-1.4,0.8-1.9,2.4
		c-0.6,2.2-1.8,4.6-3.7,7.1c-1.9,2.5-3.6,3.9-4.9,4.3c-1.9,0.5-3.9,2.6-6,6.4c-2.2,3.8-3,6-2.6,6.6c0.5,0.6-0.1,1.6-1.7,2.8
		c-1.6,1.1-2.3,2.6-2.2,4.6c0.1,1.3,0.3,2,0.5,2.2c0.3,0.2,1,0,2.1-0.5c1.6-0.7,4.6-3.7,9.1-8.9c4.4-5.1,7.4-8,9.1-8.5
		c1.8-0.6,2.8-1.3,3-2.3c0.3-1,1.1-1.5,2.3-1.3c1.2,0.2,1.8-0.2,1.8-1c0-0.9,0.1-1.6,0.2-2c0.2-0.5,0.2-1,0-1.6
		c-0.2-0.7,0.3-1.7,1.4-2.8c1.1-1.2,1.9-1.7,2.6-1.5c0.3,0.2,0.7,0,1.1-0.6c0.4-0.6,0.7-1.2,1-2c0.6-1.9,1.6-3,3-3.1
		c1.3-0.2,2.1-0.6,2.5-1.2c0.4-0.9,0.9-1.2,1.5-1c0.6,0.2,1.1,0.8,1.5,1.9c0.6,1.3-0.3,3.2-2.6,5.6c-2.3,2.5-3.8,3.7-4.3,3.7
		c-0.6,0-1.1,0.9-1.7,2.6c-0.6,1.8-1.5,2.5-2.9,2.3c-1.2-0.2-1.8,0.1-1.8,1c0,0.6-0.4,1.5-1.3,2.7c-0.8,1.2-1.7,2.3-2.7,3.2
		c-1,0.9-1.6,1.3-1.9,1c-0.3,0.1-0.5,0.4-0.6,1c0.1,0.7-0.7,1.7-2.2,2.8c-1.6,1.2-2.8,1.7-3.7,1.5c-0.2-0.1-0.3,0-0.4,0.4
		c-0.1,0.3-0.2,0.7-0.2,1.2c0,1.1-0.7,2.6-2.2,4.3c-2.4,2.9-4.3,4.7-5.6,5.5c-1.4,0.8-3.5,1.3-6.4,1.6c-2.8,0.2-4.4,0.5-4.9,0.7
		c-0.4,0.2-0.5,1-0.2,2.3c0.6,2.3-0.7,5.8-3.9,10.6c-3.2,4.7-6.6,8-10,9.7c-2.8,1.5-5.1,3.4-7,5.8c-2.1,2.7-3.5,4.1-4.3,4.1
		c-1.8,0.2-2.8,3.2-3,9c-0.2,2.9-0.7,4.9-1.7,6c-0.9,1-1.3,2-1.3,2.9c0,0.8-1.3,2.2-4,4.1c-2.8,2-4.7,3.7-5.7,5.2
		c-1,1.4-1.3,2.9-0.9,4.4c0.3,1.3,0.2,3.2-0.5,5.8c-0.6,2.6-1.4,4.2-2.3,4.8c-0.8,0.9-1,1.9-0.5,3.1c0.5,1.2,1.5,2.3,3.1,3.4
		c1.6,1,3.2,1.5,4.7,1.4c1.8-0.2,4.8-1.1,9-2.9c4.2-1.8,7.4-3.4,9.4-4.9c2.2-1.7,4.6-2.9,7.1-3.7c2.6-0.9,4.3-1.9,5-3
		c0.8-1.2,1.5-1.4,2-0.6c0.6,0.8,1.8,0.4,3.6-1.2c1.8-1.5,2.8-2.7,2.8-3.6c0-0.7,0-1.3,0.1-1.7c0-0.4,0.1-0.7,0.2-1
		c0.1-0.2,0.2-0.4,0.4-0.4c0.2,0,0.4,0.1,0.7,0.2c0.3,0.2,0.5,0.1,0.7-0.1c0.1-0.2,0.1-0.6-0.1-1.3c-0.2-1.1,0.2-2.5,1.2-4
		c1-1.6,2.1-2.4,3.1-2.5c0.8,0,1.6-0.7,2.5-2c0.9-1.4,2.8-2.4,5.7-3.2c2.9-0.8,4.8-0.8,5.7,0.1c0.9,1,1.2,2,0.8,3.2
		c-0.3,1.2-1.2,2.2-2.6,3c-1.8,1-2.6,1.8-2.6,2.4c0,0.6-0.5,1-1.6,1c-0.9,0-1.8,0.6-2.8,1.9c-0.4,0.6-0.7,1-1,1.2
		c-0.2,0.2-0.5,0.2-0.7,0.1c-0.2-0.1-0.6-0.5-1.1-1c-1.8-2.1-2.7-2.1-2.5-0.1c0,1-0.4,1.6-1.3,1.6c-0.9,0-1.1,0.9-0.6,2.6
		c0.3,1,0.4,1.7,0.2,2c-0.2,0.3-0.6,0.3-1.3,0.1c-0.8-0.2-1.2-0.2-1.2,0.1c0,0.1,0,0.2,0.1,0.2c0.6,0.7-1.3,2.8-5.6,6.1
		c-0.8,0.6-1.1,1-0.8,1c0.8-0.2,1.2,0.1,1.2,1.1c0.1,1.9-0.7,3.7-2.3,5.4c-0.3,0.3-0.6,0.6-1,0.8c-1.3,0.9-2.5,1.2-3.6,0.8
		c-1-0.4-1.7,0.1-1.9,1.4s-1.3,2-3.1,2c-1.8,0-4,0.9-6.4,2.8c-2.6,2-4.9,3.2-7,3.7c-2.3,0.6-3.8,1.2-4.6,1.9
		c-0.9,0.7-2.8,0.8-5.8,0.2c-3-0.6-4.8-0.7-5.3-0.4c-0.6,0.4-2-0.1-4.4-1.6c-1.6-0.9-2.8-1.4-3.5-1.6c-0.8-0.2-1.8,0-3.2,0.5
		c-3.3,1.2-5.5,0.2-6.7-2.9c-0.6-1.6-1.4-2.8-2.3-3.7c-0.7-0.7-1.1-1.3-1.1-1.8c0-0.5,0.3-1.3,1-2.4c1.4-2.3,2-5.9,1.8-10.7
		c0-1,0.5-2.1,1.4-3.2c0.8-1,1.7-2.8,2.6-5.4c0.9-2.5,1.8-4.3,2.6-5.5c1-1.2,1-2.4,0.2-3.7c-0.9-1.4-1.2-2.7-1.1-3.7
		c0.2-1,0.9-2.4,2.3-4.1c2.6-3.4,4.2-5.6,4.8-6.7c0.6-1.1,0.7-2.1,0.4-2.9c-0.4-1.3,1.3-3.7,5.2-7.3s5.6-6.2,5.3-7.7
		c-0.2-1.5,0.1-2.5,1.1-3c1-0.4,1.4-1,1.4-1.9c0-0.8,0.8-1.5,2.3-2c1.7-0.5,3.1-2.2,4.3-5.3c1.2-3.1,2-4.7,2.5-4.7
		c0.8-0.1,1.8-0.9,2.9-2.3c1.2-1.5,1.9-2.9,2.1-4.1c0.3-1.8,1.1-3,2.3-3.8c1.3-0.8,1.8-1.9,1.7-3.4c-0.1-1.3,0.2-2.4,1-3.3
		c0.7-0.9,1.6-1.4,2.6-1.5c0.8-0.1,1.8-1.1,2.9-3.1c1.2-2,1.7-3.5,1.6-4.7c0-0.8,0.6-1.3,1.7-1.4c1.2-0.1,1.6-0.9,1.2-2.5
		c-0.3-1.2,0.1-2.9,1.2-5.2c1.1-2.3,2.2-3.5,3.1-3.5c0.6,0,2-0.9,4.1-2.6c2.2-1.8,3.5-2.8,4.1-2.8c0.8,0,0.8-1,0.1-3
		c-0.5-1.3-0.7-2.1-0.5-2.5c0.1-0.4,0.7-0.8,1.7-1.1c1.6-0.5,2.6-1.4,2.9-2.6c0.3-1.4,0.8-2,1.3-2c0.6,0,1.7-1.4,3.5-4.3
		c1.3-2.1,2.1-3.5,2.3-4.3c0.3-0.8,0.4-1.7,0.3-2.7c0-0.8,0.5-0.8,1.6,0c0.6,0.5,1.1,0.7,1.3,0.7c0.2,0,0.3-0.4,0.2-1
		c0-1,0.6-1.8,1.8-2.2c1.4-0.4,1.9-1.9,1.7-4.4c-0.1-1.6,0-2.7,0.4-3.4c0.3-0.7,1.1-1.4,2.3-2.2c1.8-1.3,3.1-1.8,3.8-1.4
		c0.2,0.2,0.5,0.1,0.8-0.3c0.3-0.4,0.5-0.8,0.6-1.4c0.2-0.8,0.4-1.3,0.8-1.5c0.4-0.2,1.1-0.2,2-0.1c0.9,0.2,1.5,0.2,1.9,0
		c0.4-0.2,0.6-0.5,0.5-1.1c0-1,0.6-1.5,1.8-1.7c1.4-0.2,2-0.8,1.9-1.9c-0.2-1.1,0.2-2.2,1.2-3.1c1-1,1.5-2.1,1.3-3.2
		c-0.1-1.1,0.2-2.5,0.8-4c0.6-1.6,1.3-2.6,2.1-3.2c0.6-0.5,2-0.8,4.2-1c1.3-0.1,2.3-0.4,3.1-1c0.8-0.6,1.6-1.7,2.6-3.4
		c1.6-2.8,2.6-4.2,3-4.2c0.5,0,1.5-0.9,3.1-2.6c1.6-1.8,3.2-2.6,4.9-2.4c1.1,0.1,1.8,0,2.1-0.2c0.3-0.2,0.4-1,0.3-2.2
		c-0.1-1,0.1-2,0.7-2.8c0.5-0.8,1.5-1.8,3.1-2.9c2.6-1.8,4.1-2.6,4.3-2.4c0.2,0.3,1.1-0.2,2.5-1.7c1.3-1.3,2.2-1.9,2.9-1.8
		c0.8,0.2,1.7-0.3,2.6-1.4c1-1.2,2.6-1.8,4.6-1.8c2,0,3-0.3,3-0.8c0-0.5,2-0.6,6.1-0.5c2.8,0.1,4.7,0.4,5.8,0.8
		C735.3,1.4,736.9,2.6,739,4.6z M669.7,164.4c1.3-0.8,2.7-1.2,4.3-1.2c1.6,0,2.6,0.4,3,1.3c0.3,0.6,0.1,1.2-0.7,2
		c-0.8,0.8-1.6,1.3-2.6,1.4c-0.5,0-1.1,0.4-1.9,1.2c-0.7,0.7-1.2,0.8-1.3,0.2c-0.1-0.2-0.2-0.1-0.4,0.4c-0.2,0.3-0.3,0.8-0.4,1.3
		c-0.3,1.7-0.9,2.5-1.7,2.5c-0.7,0-1.5,0.7-2.4,2c-0.8,1.3-1.9,1.8-3.4,1.6c-1.4-0.2-2.2,0.3-2.4,1.6c-0.2,0.6-0.4,1-0.6,1.2
		c-0.2,0.2-0.5,0.3-0.8,0.2c-0.7-0.3-1.6,0.1-2.5,1.2c-0.7,0.9-1.2,1.3-1.6,1.2c-0.3-0.1-1-0.6-1.9-1.7c-0.6-0.7-1.1-1.3-1.4-1.8
		c-0.3-0.5-0.5-0.9-0.5-1.1c0-0.3,0.1-0.5,0.4-0.7c0.3-0.2,0.7-0.2,1.4-0.2c1.3-0.2,2.1-0.5,2.4-1.1c0.2-0.5,1.3-1,3.1-1.7
		c1.7-0.6,3.2-1.6,4.6-3.1C665.2,168,667.7,165.7,669.7,164.4z M674.9,88.7c0.5,0,1,0.1,1.7,0.4c0.6,0.2,1.1,0.6,1.5,1
		c0.4,0.4,0.5,0.7,0.3,0.8c-0.3,0.5-1.2,0.2-2.5-0.7C675,89.4,674.7,89,674.9,88.7z M682.6,84.9c1.4,0.4,1.4,1,0,1.8
		c-1,0.5-2.2,0.8-3.7,0.8c-1.2,0.1-1.9,0-2.1-0.2c-0.2-0.2-0.1-0.6,0.4-1.3C678.3,84.5,680.1,84.1,682.6,84.9z M684,80.8
		c0.6,0.3,0.8,0.8,0.4,1.6c-0.3,0.6-0.8,0.7-1.4,0.4c-0.6-0.3-0.8-0.8-0.5-1.4C682.7,80.6,683.2,80.5,684,80.8z M689.8,73.2
		c1.3-0.2,2-0.1,2.2,0.2c0.2,0.3,0.2,1.4,0.1,3.1c-0.2,1.8-0.7,3.4-1.6,4.6c-0.9,1.2-2,1.8-3.2,1.9c-1,0.1-1.7-0.9-2.1-3
		c-0.4-2.1-0.1-3.6,0.7-4.7C686.9,74.2,688.2,73.5,689.8,73.2z"/>
	<path style="fill:#E6007E;" d="M734.6,181.4c0.2,1.4-0.6,2.6-2.2,3.8c-1.4,1-2.2,2-2.2,2.9c0.1,1-0.5,2.3-1.7,3.7
		c-1.2,1.4-2.5,2.3-3.7,2.6c-1.6,0.4-2.5,1.4-2.8,3c-0.2,1.8-1,2.7-2.4,2.8c-1.6,0.2-2.6,0.7-2.9,1.5c-0.3,0.8-0.1,2.2,0.7,4
		c1,1.9,1.5,2.8,1.6,2.6c0-0.2,0.2-0.3,0.6-0.3c0.4,0,0.9,0.2,1.6,0.4c1.2,0.6,1.8,0.6,1.8,0.2c0-0.2-0.1-0.4-0.2-0.8
		c-0.6-1-0.4-1.6,0.4-1.6c0.7-0.1,1.7,0.4,3,1.3c1.3,1,2,1.8,2,2.5c0.1,0.6-0.9,1.5-2.9,2.5c-2,1-3.3,1.4-4,1.1
		c-0.7-0.4-2.6-0.5-5.5-0.4c-2.6,0.2-5.5,0-8.6-0.6c-2.2-0.4-4.3-0.4-6.3,0.1s-3.2,1.2-3.5,2.2c-0.2,0.8-1.5,1.1-3.8,1
		c-1.2-0.1-2.1,0-2.6,0.1c-0.5,0.2-0.7,0.4-0.7,0.8c0.1,0.3,0,0.6-0.4,0.8c-0.3,0.2-0.7,0.2-1.2,0.1c-1.1-0.3-2.1,0-3,0.8
		c-0.9,0.9-2.2,1.3-4,1.3c-1.8,0-3.6,1-5.3,3.1c-1.8,2.3-3.6,3.5-5.2,3.6c-0.7,0-1.1-0.3-1.1-1c-0.1-0.9-1-1.5-2.8-2
		c-1.8-0.4-3-0.3-3.5,0.4c-0.9,1-1.8,1.5-2.9,1.3c-1-0.2-1.7-0.8-2-2c-0.4-1.4-1.3-2.1-2.6-2.3c-1-0.1-2.1-0.8-3.3-2.3
		c-1.2-1.4-1.8-2.8-2-4.2c-0.1-1.3-1.8-2.3-5-3c-0.8-0.2-1.3-0.7-1.6-1.6c-0.3-0.9-0.5-2.9-0.5-5.9c-0.2-7.6,1.6-13.6,5.5-18
		c1.4-1.6,2.3-3.6,2.6-6c0.3-2.3,1-3.8,2-4.4c1.1-0.7,1.7-1.4,1.7-2c-0.1-0.7,1.1-3.2,3.5-7.3c2.4-4.2,4.3-6.9,5.5-8.2
		c1.5-1.5,2.3-2.6,2.3-3.4s1.2-1.8,3.5-3.2c1-0.6,1.9-1.3,2.8-2.3c0.9-1,1.4-1.8,1.7-2.4c0.6-1.8,2-2.9,4.2-3.5
		c1.4-0.4,2.4-0.9,3-1.6c0.6-0.7,1.3-2,2-3.9c1.1-3.1,2.8-5.2,4.9-6.4c2.1-1.1,4.3-2.9,6.5-5.2c2.3-2.4,4.1-4.8,5.3-7.3
		c1.1-2.2,2.7-3.8,4.8-4.9c2.1-1.1,5.6-2,10.5-2.8c3.2-0.5,6-1.2,8.5-2.2c4.1-1.8,9.3-2.1,15.7-1c3.3,0.6,5.4,1,6.3,1.4
		c0.9,0.4,1.4,1,1.5,1.8c0,0.6,0.9,1.7,2.8,3.2c1.8,1.5,2.8,2.6,2.8,3.1c0,0.6,0.6,1.2,1.8,1.9c0.8,0.5,1.2,1,1.3,1.5
		c0,0.5-0.3,1.7-0.9,3.7c-1,2.8-1.3,4.8-1,5.9c0.3,1.3,0.1,1.9-0.7,1.9c-0.2,0-0.7,0-1.3-0.1c-0.6,0-1.1-0.1-1.4-0.1
		c-1,0-1.6-1-1.8-3.1c-0.2-2.1-1.8-4.5-4.6-7.2c-1.8-1.8-3.2-2.8-4-3.1c-0.8-0.3-1.9-0.3-3.2,0.1c-1.8,0.5-3.8,2-6,4.6
		c-1.9,2.3-4.1,3.6-6.5,3.8c-2.5,0.2-4.3,1.2-5.4,3c-1,1.8-2.1,2.7-3.1,2.9c-0.8,0-1.7,0.8-2.8,2.3c-1,1.4-2,2.2-2.8,2.2
		c-0.9,0-1.8,0.8-2.9,2.3c-1,1.4-1.2,2-0.8,2c0.8-0.1-0.2,1.9-2.9,5.9c-0.6,0.9-1.3,1.8-1.9,2.6c-1.6,2-2.6,3.9-2.9,5.6
		c-0.3,1.6-0.6,2.4-1,2.4c-0.8,0.1-1.4,1.3-1.9,3.8c-0.4,2.4-0.5,4.5-0.1,6.2c0.4,1.6,0.5,2.7,0.3,3.4c-0.2,0.7-0.9,1.6-2.2,2.7
		c-1.9,1.7-3.1,2.2-3.6,1.6c-0.7-1-2.8-1.6-6.4-1.6c-0.6,0-0.9-0.8-1-2.3c-0.1-1.6,0.1-2.6,0.6-3.2c0.3-0.4,0.6-1,0.8-1.9
		c0.2-0.9,0.3-1.7,0.2-2.4c-0.1-0.7-0.3-1.1-0.6-1.1c-1.6,0.1-2.4,0.3-2.4,0.6c0,0.2,0.1,0.4,0.2,0.6c0.5,0.6-0.1,1.4-1.7,2.3
		c-1.2,0.6-2.1,1.6-2.6,2.8c-0.6,1.2-0.6,2.3,0,3.1c0.5,0.6,0.3,1.9-0.4,3.7c-0.8,1.8-1.6,2.9-2.5,3.2c-1,0.5-1.7,1.5-2,3.1
		c-0.3,1.7-0.8,2.5-1.3,2.5c-0.6,0.1-1.3,1.2-2.1,3.3c-0.8,2.1-1.1,3.9-1,5.3c0.1,1.5-0.2,3.3-0.8,5.2c-0.6,2-1.4,3.3-2.2,3.9
		c-1,0.7-1.2,1.9-0.8,3.5c0.4,1.6,1.4,3.1,2.8,4.3c1.2,1,2.3,1.7,3.3,1.9c1,0.2,2.8,0.1,5.5-0.2c4.1-0.5,6.4-0.6,7.1-0.5
		c0.8,0.1,2.2-0.4,4.2-1.4c2-1,3-1.8,2.9-2.4c0-0.6,0.8-0.8,2.4-0.6c1.8,0.3,2.8-0.2,3.1-1.4c0.2-1,1-2.2,2.3-3.5
		c1.1-1,1.5-2,1.2-2.9c-0.3-0.9-1-0.7-2.2,0.6c-0.7,0.9-1.2,1.3-1.5,1.4c-0.3,0-0.8-0.4-1.6-1.3c-2.8-3-4.6-6-5.3-9
		c-0.8-3-0.5-5.8,0.9-8.4c1.2-2,1.6-3.4,1.3-4.3c-0.2-0.6,0.3-0.6,1.3-0.1c0.3,0.2,0.8,0.5,1.3,0.8c4.1,2.4,6.6,6.8,7.7,13.3
		c0.4,2.7,1,4.6,1.7,5.6c0.2,0.2,0.7,0.5,1.3,0.7c0.6,0.2,1.4,0.3,2.2,0.4c0.8,0,1.6,0,2.3,0c0.7,0,1.3-0.2,1.8-0.4
		c0.5-0.2,0.7-0.5,0.7-0.8c-0.1-0.8,0.6-2,1.9-3.6c1.4-1.6,2.4-2.4,3.2-2.5c0.8-0.1,2.4-1.5,4.8-4.3c2.4-2.8,3.6-4.5,3.5-5.3
		c0-0.7,1.1-1.6,3.2-2.8c1.5-0.8,2.5-1.5,2.9-2.2c0.4-0.7,0.5-1.6,0.2-2.7c-0.2-0.8,0.5-2.6,1.9-5.3c1.4-2.8,2.4-4.1,2.9-4
		c0.3,0.1,0.5,0,0.6-0.3c0.1-0.3,0-0.6-0.1-0.9c-0.4-0.7,0-1.9,1.3-3.5c1.2-1.6,2.3-2.4,3.3-2.5c0.8-0.2,1.1-1.6,0.8-4.2
		c-0.4-3.8,0.4-7.5,2.5-11c2-3.5,4.7-5.7,7.9-6.8c1.2-0.4,2.2-0.1,2.9,0.8c0.8,0.9,1.2,2.2,1.2,3.8c0,1.6-0.3,3.3-1,5.2
		c-0.6,1.3-0.8,2.7-0.6,4.2c0.1,1.4-0.8,2.5-2.8,3.4c-1.8,0.9-2.8,1.6-2.8,2.2c0,0.6-0.8,0.9-2.3,0.7c-1.7-0.2-2.6,0.2-2.9,1.1
		c-0.2,1,0.1,1.2,1.1,0.7c0.8-0.4,1.2-0.1,1.2,0.8c0,0.4,0,1-0.1,1.8c-0.3,2.2-0.9,3.8-1.7,4.8c-0.9,1-1.2,2-1.1,2.9
		c0.1,1-0.7,2.1-2.3,3.3c-1.6,1.2-2.7,1.4-3.2,0.7c-0.6-0.9-1.1-0.5-1.4,1.2c-0.3,1.6-0.4,2.8-0.2,3.6c0.2,0.7-0.3,1.2-1.3,1.3
		C734.9,179.6,734.5,180.2,734.6,181.4z M776.1,181.1c1.2,2.5,0.2,4.5-3,6c-1.5,0.7-2.2,1.6-2,2.5c0.2,0.9-0.9,2-3.2,3.4
		c-2.1,1.3-3.1,2.2-3.1,2.8c0,0.6-0.5,0.9-1.4,1.1c-1,0.2-1.7,0.7-1.9,1.6c-0.2,1-1.9,2.1-4.9,3.5c-3,1.4-5,2.4-6,3.1
		c-0.9,0.6-2.1,1-3.6,1.2c-1.4,0.2-2.3,0.7-2.5,1.7c-0.3,1-1.1,1.6-2.3,1.6c-1.2,0-1.9-0.5-2-1.5c-0.1-0.8-0.2-1.2-0.3-1.1
		c-0.1,0-0.4,0.5-0.9,1.3c-0.5,0.9-0.9,1.3-1.4,1.3c-0.4,0-1.3-0.5-2.6-1.5c-1.8-1.3-2.6-2.5-2.5-3.7c0.1-1.2,1.1-1.9,3.1-2.1
		c2.2-0.2,3.8-0.6,4.9-1.1c1.1-0.5,2.5-1.5,4.2-2.9c2.1-1.9,3.4-2.9,4.1-2.9c0.5,0,1.5-1,3.1-2.9c2.2-2.9,5-3.5,8.3-1.8
		c0.8,0.4,1.2,0.3,1.2-0.4c0-0.7,0.3-1,0.8-0.7c0.2,0.1,0.5,0,0.7-0.3c0.2-0.3,0.4-0.7,0.5-1.4c0.2-1.5,0.9-2.1,2-1.7
		c1,0.3,1.8-0.3,2.4-1.8c0.6-1.4,1.5-2.6,2.9-3.6c1.6-1,2.8-1.4,3.5-1.3C774.9,179.4,775.5,180,776.1,181.1z"/>
	<path style="fill:#E6007E;" d="M878.5,148.2c0.2-0.2,0.4-0.1,0.4,0.1c-0.1,0.2-0.6,0.8-1.4,1.8c-1.7,1.8-2.6,3.6-2.8,5.4
		c-0.2,2.6-1.7,4.4-4.4,5.4c-0.6,0.2-1,0.8-1.2,1.9c-0.1,0.7-1.6,2.6-4.4,5.5c-2.9,3-5.9,5.8-9.1,8.5c-1.7,1.4-3.2,3.1-4.6,5.2
		c-1.3,2-2.9,3.5-4.9,4.4c-1.8,0.9-3,2.4-3.6,4.6c-0.6,2.3-1.9,4.1-3.7,5.4c-1.8,1.3-2.8,2.3-2.8,3.1c0,0.6-0.8,1.6-2.5,2.9
		c-1.7,1.3-3.2,2.3-4.7,2.8c-0.7,0.2-1.1,0.5-1.1,0.9c0,0.4,0.1,0.9,0.5,1.7c0.8,1.5,2.1,2.6,3.9,3.1c1.8,0.6,3.6,0.5,5.5-0.1
		c1.2-0.4,2.4-0.7,3.5-0.8c1.2-0.2,2.1-0.2,2.8-0.1c0.7,0.1,1,0.4,1,0.8c0,0.6,0.8,1,2.3,1.2c1.4,0.2,2.2,0.8,2.2,1.8
		c0,0.4-0.1,0.7-0.4,1c-0.2,0.3-0.5,0.4-0.8,0.3c-0.4-0.1-0.7,0-1,0.3s-0.4,0.7-0.4,1.3c0,1.8-2.3,3.3-7,4.4
		c-4.6,1.1-8.1,1-10.5-0.3c-0.9-0.4-2.3-0.9-4.2-1.4c-1.7-0.5-3.1-1.5-4.3-3.1c-0.9-1.3-1.3-2.2-1.4-2.8c0-0.6,0.3-1.6,1.1-3
		c1.2-2.1,2-4.4,2.4-7c0.3-1.5,0.8-3.1,1.6-4.7c0.7-1.6,1.5-3,2.2-4c0.8-1,1.4-1.4,1.9-1.3c0.3,0.1,0.6,0,0.8-0.3
		c0.2-0.3,0.3-0.7,0.4-1.3c0.1-0.8,0-1.2-0.1-1.3c-0.2-0.1-0.6,0.1-1.2,0.6c-1,0.8-1.6,1-2,0.6c-0.5-0.5-1.2,0-2,1.3
		c-0.9,1.3-1.8,1.9-2.8,1.9c-0.4,0-0.7,0.1-1,0.2c-0.3,0.2-0.4,0.3-0.3,0.5c0.6,3.4-0.5,5.3-3.2,5.9c-2,0.4-3.2,1.1-3.6,2.2
		c-0.5,1.1-1.4,2.2-2.6,3.4c-0.3,0.3-0.9,0.8-1.7,1.4c-0.8,0.6-1.3,1-1.6,1.3c-0.7,0.7-1.4,1.1-2,1.1c-0.9,0-2.9,1.1-6.1,3.4
		c-3.4,2.3-5.7,3.5-7,3.5c-1.3,0-1.9,0.7-1.9,2c0,1.3-0.5,1.9-1.4,1.9c-1,0-1.4-0.3-1.4-1c0-1-0.9-1.4-2.6-1c-1.4,0.4-2.3,1.1-2.6,2
		c-0.2,0.9-0.6,1.4-1.2,1.6c-0.6,0.2-1.8,0.2-3.8,0.1c-3-0.2-4.6,0-5,0.4c-0.5,0.5-1.3,0.5-2.5,0s-1.8-1-1.8-1.7
		c0-0.8-0.9-1.4-2.8-1.9c-4.2-1-5.6-2.3-4.1-4.1c0.7-0.9,0.9-1.5,0.4-1.9c-0.4-0.4-1.6-0.6-3.4-0.7c-1.5-0.1-2.3-0.3-2.4-0.7
		c0-0.2,0.1-0.4,0.4-0.6c0.7-0.9,1-4,1-9.2c-0.1-3,0.6-6.7,2.1-11.2c1.5-4.5,2.7-6.7,3.8-6.7c0.6,0,1.1-0.7,1.6-2
		c0.5-1.4,2-2.9,4.4-4.6c2-1.4,3.7-3,5-5c1.4-2,1.8-3.4,1.2-4.3c-0.2-0.4-0.2-0.6,0-0.6c0.2,0,0.4,0.1,0.6,0.2
		c0.6,0.4,0.9,0.3,0.8-0.2c0-0.2-0.1-0.5-0.2-1c-0.5-1.4-0.4-2.2,0.4-2.6c0.7-0.4,1.1-1.3,1.1-2.6c0-0.6,0.1-1.1,0.3-1.3
		c0.2-0.2,0.5-0.3,1-0.1c0.5,0.2,0.9-0.1,1.3-0.7c0.4-0.6,0.8-1.8,1.2-3.4c0.6-2.7,1.3-4.6,2-5.6c0.7-1,1.7-1.5,3-1.5
		c1.4,0,2.5-1,3.5-3.1c1-2,1.1-3.5,0.3-4.5c-0.8-1-0.6-2.3,0.7-4.1c1.2-1.6,2.7-3,4.4-4.1c7.8-4.7,11.7-8,11.7-10
		c0-0.6,0.8-1.4,2.5-2.2c1.6-0.7,2.4-1.4,2.4-1.9c0-1,1.5-2.7,4.6-4.9c3-2.2,4.9-3,5.5-2.3c0.3,0.3,0.9,0,1.7-1
		c0.8-0.9,1.5-1.4,2-1.4c0.5-0.1,1.6,0.3,3.2,1.1c2.9,1.4,4.2,4,3.8,8c-0.3,4-2.2,8.1-5.5,12.4c-2.2,2.8-3.4,4.7-3.4,5.6
		c0,0.8-0.8,2-2.4,3.7c-1.6,1.7-2.8,2.5-3.5,2.5c-0.7,0-1.1,0.6-1.1,1.8c0,1.2-1.6,4.3-4.9,9.2c-3.3,5-4.9,8-4.9,9.2
		c0,1-0.7,2.7-2,4.9c-1.4,2.2-2.4,3.4-3,3.4c-0.6,0-3.1,1.9-7.4,5.8c-2.3,2.2-3.2,3.2-2.6,3.2c0.4,0,0.2,0.2-0.5,0.6
		c-0.2,0.1-0.5,0.2-0.8,0.4c-1.5,0.6-2.3,1.4-2.3,2.2c0,0.8,0.3,0.7,1-0.2c0.5-0.7,0.8-0.8,1-0.4c0,0.9-0.3,1.5-0.8,1.7
		c-0.5,0.3-1.1,0.1-1.7-0.4c-0.8-0.7-1.4-0.7-1.9,0.1c-0.2,0.4-0.3,0.6-0.2,0.7c0.1,0.1,0.3,0,0.6-0.2c0.8-0.4,1.2-0.1,1.2,0.8
		c0,1-0.5,1.6-1.4,1.6c-1,0-1.6,0.4-1.6,1.3c0,1-0.6,2-1.9,3.1c-1.4,1.2-2,2.4-2,3.5c0,1.2-0.4,2-1.1,2.3c-0.7,0.4-1.7,0.2-2.9-0.4
		c-1-0.6-1.5-0.8-1.6-0.7c-0.1,0.1,0.1,0.6,0.7,1.7c0.6,1.1,0.6,1.6,0.2,1.6c-0.6-0.4-1.2,0.1-1.7,1.4c-0.4,1.3-1,1.9-1.7,1.9
		c-0.6,0-0.6,0.5,0.1,1.4c0.8,1.1,1.1,2.4,1,3.8c-0.2,2.1,0.4,3.6,1.9,4.5c1.5,0.9,3.4,1.1,5.8,0.6c2.3-0.5,4.4-1.7,6.4-3.5
		c4.1-3.9,7.1-5.9,9-5.9c1,0,2.8-1.5,5.4-4.4c2.7-3,4.8-4.4,6.4-4.4c1.6,0,5.2-2.7,10.7-8.2c4.6-4.5,7.5-7.5,8.8-9
		c1.3-1.5,2-2.7,2-3.5c0-0.6,1.4-1.6,4.2-3c3-1.4,5.2-3.2,6.8-5.3c1.6-2.2,3.4-3.5,5.5-4c1.9-0.4,2.7-1.2,2.4-2.5
		c-0.2-1.1,0.2-2.2,1.4-3.1c1.2-0.8,2.4-2.2,3.7-4.1c1.2-1.8,2.2-2.6,2.9-2.6c0.6,0,3-2.2,7.1-6.6c4.1-4.4,6.4-7.2,6.8-8.3
		c0.3-1,2.4-3.6,6.4-7.7c3.9-4,6.7-6,8.3-6c1.6,0,2.6-0.4,3-1.1c0.4-0.6,1.5-1,3.4-1c1.4,0,2.2,0.2,2.4,0.7c0.2,0.4,0.2,1.8,0,4
		c-0.3,3.1-0.9,5-1.8,5.8c-0.9,0.7-1.8,2.5-2.6,5.3c-0.9,2.9-2.2,4.6-4,5.3c-1.8,0.6-2.8,1.2-2.8,1.6c0,0.5-1,1.3-2.9,2.4
		c-2,1.1-3,2-3,2.8C877.3,148.5,877.7,148.6,878.5,148.2z M779.8,158.6c-0.7,0-1.1-0.3-1.1-1c0-0.6,0.2-1,0.5-1c0.2,0,0.6,0.3,1,1
		C780.6,158.3,780.4,158.6,779.8,158.6z M784.3,216.9c0.2,0,0.4-0.3,0.4-1c0-0.6-0.3-1-1-1c-0.7,0-0.9,0.3-0.5,1
		C783.6,216.6,783.9,216.9,784.3,216.9z M832.3,189.7c0.4-1,0.4-1.4,0.1-1.4c-0.2,0.1-0.6,0.4-1,1.1c-0.4,0.7-0.5,1.2-0.2,1.4
		c0.1,0.1,0.2,0.1,0.3,0c0.1-0.1,0.3-0.2,0.4-0.4C832.1,190.2,832.2,190,832.3,189.7z M869.9,199.8c0.8-0.2,1.2,0,1.2,0.8
		c0,1-0.3,1.4-0.8,1.4c-0.5,0-1,1-1.6,3.1c-0.4,1.7-1.2,2.8-2.5,3.5c-1.2,0.6-3.3,1-6.3,1.2c-2.2,0.1-3.4,0.8-3.8,2
		c-0.4,1.3-1,1.8-1.8,1.6c-0.8-0.2-1.3-1-1.4-2.5c-0.2-1.2,0.3-2.7,1.4-4.4c1.1-1.8,2.2-2.6,3.1-2.6c0.8,0,1.8-0.6,3.1-1.9
		c1.4-1.4,2.5-2,3.5-2c1,0,1.4-0.3,1.4-1c0-0.4,0.2-0.7,0.5-0.8c0.3-0.2,0.7-0.1,1.1,0.1c0.4,0.2,0.7,0.5,1,0.9
		C868.4,199.9,869,200.1,869.9,199.8z M874.1,196.8c0.6-0.6,1.2-0.7,2-0.5c0.8,0.2,1.2,0.7,1.2,1.4c0,1-0.5,1.4-1.4,1.4
		c-0.9,0-1.5-0.3-1.9-0.8C873.6,197.8,873.6,197.3,874.1,196.8z M877.3,193.2c-0.6,0-1-0.3-1-1c0-0.7,0.3-1.1,1-1.1
		c0.6,0,1,0.4,1,1.1C878.3,192.9,878,193.2,877.3,193.2z M888.5,185c0.6,0.2,1.1,0.2,1.6,0.1c0.5-0.1,1-0.2,1.4-0.4
		c0.4-0.2,0.8-0.2,1.1,0c0.3,0.2,0.6,0.5,0.7,1.1c0.2,0.6-0.9,2-3.4,4.1c-2.5,2.1-4.6,3.7-6.2,4.6c-1.7,1.1-2.9,1.5-3.7,1.2
		c-0.8-0.2-1.2-1.5-1.3-3.7c-0.1-2.2,0.2-3.6,1-4.1c0.6-0.3,2.1-0.9,4.5-1.9C886.6,185.3,888,184.9,888.5,185z M894,175.2
		c0.6-0.6,1.6-1,3-1.3c1.4-0.3,2.8-0.4,4-0.4c1.2,0.1,1.9,0.4,1.9,0.8c0,0.6-0.8,1.4-2.5,2.5c-1.7,1.1-2.3,2.2-1.9,3.2
		c0.2,0.6,0.3,0.9,0.1,1c-0.2,0.1-0.7,0.1-1.4-0.1c-1.4-0.3-2.7,0-4.1,1c-1,0.7-1.6,1-1.7,0.8c-0.1-0.2,0-1,0.3-2.6
		C892,178.2,892.8,176.6,894,175.2z"/>
	<path style="fill:#E6007E;" d="M983.9,196.8c0.6-0.3,1-0.2,1.3,0.5c0.3,0.6-0.1,1.3-1.2,2.3c-1.1,1-2.2,1.4-3.1,1.4
		c-0.9,0-2.6,0.8-5.2,2.3c-1.5,1-2.4,1.7-2.8,2.2c-0.3,0.5-0.3,1.1,0.1,1.9c0.8,1.5,0.3,3-1.4,4.5c-1.8,1.5-3.9,2.2-6.5,2.2
		c-1.7,0-2.8,0.2-3.5,0.5c-0.6,0.4-1.3,1.1-1.9,2.3c-0.9,1.8-1.9,2.9-3.1,3.4c-1.2,0.5-2.1,0.2-2.6-0.9c-0.6-1-1.2-1.2-2-0.6
		c-0.9,0.7-2.5,1.3-4.8,1.7c-2.6,0.5-4.2,1.2-4.9,2.2c-1,1.1-2.3,2.1-4.1,2.9c-1.8,0.8-3.1,1-4,0.7c-1-0.4-2.4-0.4-4,0
		c-1.5,0.4-2.2,1.3-2.2,2.8c0.2,1.5-0.4,2.4-1.8,2.6c-1.4,0.3-4.5,1.6-9.1,3.8c-3.2,1.5-5.4,2.4-6.5,2.7c-1.1,0.3-2.3,0.1-3.6-0.4
		c-1.4-0.6-3-0.7-4.6-0.5c-1.6,0.2-2.8,0.8-3.4,1.7c-0.3,0.6-2.3,0.5-6.1-0.3c-3.7-0.8-5.6-1.5-5.6-2.1c0-0.6-0.8-0.8-2.5-0.8
		c-1.6,0-2.4-0.3-2.4-1c0-0.6-0.4-0.9-1.3-0.7c-0.2,0-0.5-0.1-0.7-0.4c-0.2-0.3-0.3-0.7-0.4-1.3c-0.1-0.6-0.1-1.4-0.1-2.3
		c0-2.9-0.6-4.7-1.7-5.5c-1-0.8-1.5-1.9-1.3-3.4c0.2-1.5,1-2.9,2.3-4.4c1.3-1.3,1.8-2.4,1.4-3.4c-0.2-0.6-0.1-0.8,0.4-0.8
		c0.3-0.1,0.9,0,1.7,0.2c1.7,0.4,3,0.2,4-0.6c1-0.8,2.4-1.2,4.4-1.2s3.2-0.5,3.5-1.4c0.3-1,1.6-1.4,4-1.4c2.3,0,3.5,0.5,3.5,1.5
		c0,1,0.7,1.6,2,1.6c1.3,0,2.1,0.5,2.5,1.4c0.2,0.6,0.5,1,1.1,1.3c0.6,0.3,1.1,0.3,1.6,0.2c0.5-0.2,0.7-0.5,0.7-1
		c0-1,0.8-1.3,2.5-0.8c1.3,0.3,2.2,0.9,2.6,1.8c0.5,0.8,1,1.4,1.6,1.7c0.6,0.3,1.1,0.4,1.5,0.1c0.4-0.2,0.6-0.8,0.6-1.6
		c0-1,1.4-2.7,4.1-5.1c2.8-2.4,4.6-3.4,5.6-3.2c1.4,0.3,3.5-1.2,6.2-4.7c2.7-3.4,3.6-5.6,2.7-6.6c-0.6-0.6-1-2.2-1.4-4.9
		c-0.3-1.8-0.4-3.1-0.1-3.7c0.2-0.6,0.9-1.4,2-2.3c1.1-0.9,1.7-1.5,1.9-1.8c0.1-0.3-0.2-0.8-0.9-1.4c-1-0.8-1.3-3.1-1-6.8
		c0.1-0.8,0.2-1.7,0.2-2.8c0.1-1,0.2-1.9,0.2-2.5c0.1-0.6,0.1-1,0.1-1.2c0-2,0-3.8-0.1-5.5c-0.2-3.2,0.3-5.6,1.4-7.3
		c1.2-1.7,1.6-3.3,1.2-4.9c-0.2-1-0.6-1.7-1.2-1.9c-0.6-0.2-1.6-0.3-3.2-0.2c-2.5,0.2-3.6,0.6-3.4,1.4c0.3,0.8,0.1,1.4-0.6,1.8
		c-0.7,0.5-0.9,1-0.5,1.6c0.4,0.6,0,1.9-1.3,3.9c-1.2,2-2.3,2.9-3.1,2.9c-0.9,0-2.1,0.9-3.7,2.6c-1,1-2,1.7-2.9,2.1
		c-0.9,0.4-2.3,0.5-4.3,0.5c-2.4,0-3.8,0.3-4.2,0.9c-0.4,0.6,0.1,1.7,1.4,3.4c0.6,0.8,0.2,1.4-1,1.8c-1.2,0.4-3.1,1.9-5.8,4.4
		c-2.7,2.6-4.6,3.8-5.6,3.8c-1.1,0-1.7,0.5-1.7,1.6c0,1-0.9,2.2-2.7,3.8c-1.8,1.6-3.3,2.4-4.4,2.4c-1.4,0-2.2-0.7-2.2-2
		c0-1.4,0.7-2.5,2.2-3.5c3.4-2.2,5-4.1,5-5.8c0-0.9,2-3.3,5.9-7.3c4-4,6.4-6,7.3-6c0.7,0,1.7-0.7,2.9-2c1.1-1.3,2.6-2.3,4.6-3
		c2-0.8,3.5-1.9,4.4-3.4c1-1.6,2.2-2.4,3.5-2.4c1.4,0,2-0.7,2-2c0-1.3,0.3-1.9,1-1.9c0.6,0,1-0.4,1-1.3c0-0.9,0.8-1.8,2.5-2.6
		c1.6-0.9,2.4-1.7,2.4-2.4c0-0.8,0.6-1.9,1.9-3.2c1.3-1.3,2.6-2.3,4-3.1c1.8-1,3.2-2.7,4.3-5.2c1.2-2.6,2.3-4,3.2-4
		c0.9,0,1.3-0.4,1.3-1.2c0-0.7,1.5-2.6,4.4-5.5c1.8-1.8,3.3-2.9,4.3-3.5c1-0.6,2.4-0.9,4-1c2.6-0.2,4.2-0.5,4.7-1
		c1-1,3.2-0.7,6.8,0.8c1.5,0.6,2.5,1.1,2.8,1.7c0.4,0.6,0.5,1.6,0.5,3.1c0,1.4-0.2,2.5-0.5,3.1c-0.4,0.6-1.1,1.2-2.1,1.8
		c-1.8,1-3.4,2.1-4.7,3.5c-1.4,1.4-2.5,2-3.5,2c-1,0-2.3,0.8-4.1,2.5c-1.8,1.7-2.9,3.2-3.3,4.4c-0.5,1.3-1.3,2.1-2.5,2.5
		c-1.4,0.4-1.6,1-0.8,1.9c0.7,0.8,1.5,3.8,2.5,8.9c0.9,5.2,1.3,9,1.1,11.6c-0.2,2.6,0.2,4.2,1,4.8c0.9,0.8,1.3,1.9,1.1,3.4
		c-0.1,1.5-0.7,2.8-1.9,4c-1.2,1.4-1.8,2.7-1.9,4c0,1.3,0.5,2.3,1.6,2.9c0.7,0.4,1.1,0.8,1.1,1.2c0,0.4-0.2,1.2-0.8,2.3
		c-1,1.8-1,3.1-0.2,4c0.8,1,0.4,2.1-1.3,3.4c-1.7,1.3-2.4,2.2-2.3,2.8c0.2,1,0,2.2-0.7,3.8c-0.7,1.6-1.4,2.4-2,2.4
		c-0.8,0-1.6,0.7-2.4,2.2c-0.7,1.4-0.5,2.8,0.6,4c1,1.2,2.1,1.6,3.1,1.3c1-0.3,2.5,0,4.6,1.1l3.1,1.4l-2.3-1.9
		c-1.4-1.3-2.2-2.1-2.2-2.4c0-0.4,1.8-0.9,5.5-1.6c3.6-0.7,5.7-0.9,6.3-0.5c0.6,0.4,1.3-0.2,2-1.9c0.6-1.8,2.3-3.2,4.9-4.2
		c2.6-1,4-2,4.3-3.1c0.2-0.8,0.5-0.9,0.7-0.2c0.1,0.2,0.2,0.4,0.4,0.8c0.2,0.6,0.4,1,0.7,1.4C983.4,196.9,983.7,197,983.9,196.8z
		 M910.4,224.8c1.4-2.2,1.7-3.9,1-5.3c-1.1-2.2-2.8-2.3-4.9-0.1c-0.9,0.9-1.9,1.3-3.1,1.4c-1.2,0-4-0.4-8.5-1.3
		c-0.7-0.1-1.3-0.3-1.9-0.8c-0.5-0.4-0.8-0.9-0.8-1.3c0-1-0.2-1.4-0.6-1.3c-0.7,0-1.3,0.9-1.8,2.6c-0.5,1.8-1,2.9-1.6,3.2
		c-0.4,0.2-0.8,1-1.1,2.4c-0.2,0.8,0.1,1.3,0.8,1.6c0.7,0.2,2.8,0.4,6.1,0.6c4.1,0.2,7.7,0.6,10.9,1c1.5,0.2,2.6,0.2,3.2-0.1
		C908.8,227.1,909.5,226.3,910.4,224.8z M999,176.6c0.5,0.1,0.8,0.5,0.9,1.2s0.1,1.6-0.1,2.5c-0.2,1-0.4,1.8-0.5,2.4
		c-0.2,0.6-0.3,1.1-0.4,1.4c-0.6,1.6-1.6,1.6-3.1,0.1c-0.6-0.6-0.8-0.4-0.8,0.5c0,0.4,0.1,1.2,0.2,2.5c0.3,2.4,0.3,3.6-0.1,3.6
		c-0.2,0-0.6-0.2-1.2-0.6c-0.8-0.5-1.4-0.6-1.9-0.5c-0.5,0.2-1.2,0.7-2,1.6c-0.6,0.6-1.3,1.1-1.9,1.3c-0.6,0.2-1.2,0.2-1.6,0
		c-0.4-0.2-0.6-0.7-0.6-1.4s0.6-0.9,1.8-0.6c0.7,0.2,1.2,0.1,1.4-0.2c0.2-0.3,0.3-1,0.2-2.1c-0.2-1.9,0-2.9,0.6-2.9
		c0.5,0,1.2-1.2,2.3-3.5c0.5-1.9,1-3.1,1.4-3.5c0.6-0.5,1.4-0.9,2.6-1.4C997.4,176.7,998.3,176.6,999,176.6z"/>
</g>
</svg>
