<?xml version="1.0" encoding="utf-8"?>
<!-- Generator: Adobe Illustrator 30.4.0, SVG Export Plug-In . SVG Version: 9.03 Build 0)  -->
<svg version="1.0" id="Layer_1" xmlns="http://www.w3.org/2000/svg" xmlns:xlink="http://www.w3.org/1999/xlink" x="0px" y="0px"
	 viewBox="0 0 1000 265.9" style="enable-background:new 0 0 1000 265.9;" xml:space="preserve">
<g>
	<path style="fill:#F9D500;" d="M175.6,162.7c0.2,0.6,0.7,1.3,1.4,1.9c0.5,0.5,0.7,0.9,0.6,1.2c-0.1,0.3-0.5,0.8-1.3,1.4
		c-1.2,0.9-2.2,1.1-3,0.6c-0.6-0.2-1.2-0.3-1.9-0.2c-0.7,0.1-1.3,0.4-1.8,0.8c-0.5,0.4-0.6,0.8-0.3,1.2c0.4,0.6,0.1,1.5-0.9,2.7
		c-1,1.2-2,1.9-3.1,2.1c-1.1,0.2-2.3,0.8-3.6,1.8c-1.3,1-2,1.7-1.9,2.2c0.2,1.7-0.9,3.2-3.1,4.3c-1.2,0.6-2.8,1.5-4.8,2.7
		c-1.5,1-2.9,1.5-4,1.5s-1.8,0.3-2.1,0.8c-0.3,0.5-1.5,0.7-3.7,0.7c-2,0-3.6,0.5-5,1.6c-1,0.8-2,1.3-3,1.4c-1,0.1-1.6-0.1-2-0.7
		c-0.3-0.5-0.8-0.3-1.6,0.6c-0.4,0.6-0.8,0.9-1,1c-0.2,0-0.7-0.3-1.3-0.9c-0.9-0.9-1.9-1.1-3-0.6c-1.2,0.4-2.8,0.7-4.6,0.8
		c-2,0.1-3.4,0.4-4.1,0.7c-0.9,0.4-1.7,0.3-2.6-0.4c-1-0.7-1.8-1-2.3-0.7c-0.6,0.2-1.1,0-1.4-0.8c-0.4-0.8-1-1-2-0.7
		c-1,0.3-1.9,0.1-2.7-0.6c-0.8-0.7-1.9-1-3.2-1c-1.4,0-2.4-0.8-3.1-2.4c-0.8-1.7-2-3-3.6-3.7c-1.7-0.8-2.5-1.5-2.4-2.1
		c0-0.3,0.3-0.5,0.9-0.5c0.7,0,0.7-0.2-0.1-0.7c-0.4-0.3-0.7-0.6-0.7-0.9c0-0.3,0.1-0.8,0.5-1.4c0.6-1.1,0.6-1.8,0.1-2.2
		c-0.5-0.4-0.2-1.5,0.7-3.5c1-2,1.5-3.3,1.5-4c0-0.6,0.5-1.9,1.6-4c1-2,1.5-3.5,1.5-4.5c0-0.6,0.2-1.5,0.6-2.6
		c0.4-1.1,0.9-2,1.4-2.8c0.5-0.8,0.9-1.1,1.1-1c0.1,0.1,0.2,0,0.3-0.1c0.1-0.1,0.2-0.3,0.2-0.6c0.1-0.2,0.1-0.5,0.1-0.8
		c0-1.3,0.2-2.1,0.7-2.4c0.6-0.3,0.8-0.9,0.8-1.8c0-1,1.7-3.2,5.1-6.6c3.4-3.3,5.6-5,6.6-5c0.3,0,0.6-0.2,0.8-0.5
		c0.2-0.3,0.3-0.7,0.3-1.1c0-0.6,0.1-1,0.3-1.1c0.2-0.1,0.6-0.1,1.2,0.1c0.6,0.2,1,0.2,1.2,0.1c0.2-0.1,0.1-0.4,0-0.9
		c-0.4-0.8-0.2-1.2,0.4-1.2c0.6,0,0.8-0.5,0.8-1.5c0-0.9,0.5-1.6,1.6-1.9c1-0.3,1.5-1,1.5-1.9c0-1,0.4-1.7,1.3-2
		c0.9-0.4,1.9-1.2,3-2.5c1-1.2,2.2-2,3.6-2.5c1.4-0.5,2.4-0.4,3.1,0.2c0.6,0.5,1.8,0.4,3.6-0.3c1.9-0.7,2.8-1.4,2.8-2
		c0-0.6,0.5-0.7,1.6-0.5c1,0.2,2.2,0.1,3.4-0.6c2.1-1,3.9-1.1,5.5-0.1c0.5,0.2,1.5,0.2,3-0.3c1.7-0.4,3.4-0.3,5,0.4
		c0.5,0.2,0.9,0.4,1.3,0.5c0.4,0.2,0.7,0.2,1,0.2s0.4,0,0.4-0.1c0-0.3,0.4-0.1,1.2,0.6c0.7,0.6,1.4,1,2.1,1.1c0.1,0,0.4,0,0.8,0.1
		c0.4,0.1,0.7,0.1,0.8,0.1c0.6,0.1,1.2,1.4,1.8,3.8c0.6,2.4,0.8,4.8,0.8,7.2c-0.1,2.1-0.2,3.4-0.5,3.9s-1,1-2.2,1.5
		c-1.7,0.7-2.6,1.3-2.6,1.8s-0.4,0.8-1.1,0.8s-1.1,0.5-1.1,1.5c0,0.8-0.7,1.7-2.2,2.6c-1.4,0.9-2.4,1.1-2.7,0.6
		c-0.2-0.4-1.2-1-3-1.9c-1.2-0.6-1.9-1.1-2.2-1.5c-0.3-0.5-0.5-1.3-0.5-2.5c0-1.9,0.8-3.7,2.4-5.4c1.6-1.7,3.1-2.4,4.5-1.9
		c2.1,0.7,3.5,1,4.2,0.9c0.7-0.1,1-0.6,1-1.4c0-1.2-0.6-2.4-1.8-3.5c-1.2-1.2-2.7-1.6-4.5-1.3c-1.7,0.3-2.7,0.2-3-0.2
		c-0.2-0.4-1.1-0.6-2.4-0.5c-1.4,0.1-2.7,0.4-4,1c-1.5,0.7-3.6,2.3-6.4,5c-2.9,2.8-5.5,4.6-7.8,5.5c-2.2,0.9-3.3,1.8-3.3,2.7
		c0,0.7-0.4,1.3-1.2,1.7c-0.9,0.4-1.5,1.2-2,2.5c-0.5,1.2-1.8,3.2-3.8,6.1c-2,2.9-3.4,4.6-4,5c-0.6,0.3-1.1,0.4-1.8,0.2
		c-0.6-0.2-0.9,0.1-0.9,0.7c0,0.7-0.4,1.1-1.1,1.1c-0.8,0-1.2,0.4-1.2,1.1s-0.6,1.8-1.8,3.1c-1.2,1.3-2.2,2.7-2.9,4.2
		c-0.7,1.5-1.4,2.3-2.2,2.6c-1,0.3-1.5,1.1-1.6,2.3c-0.1,1.2,0.3,2.6,1.1,4.2c1,1.8,1.5,3.4,1.5,4.6c0,1.1,0.6,2.2,1.7,3.4
		c1.1,1.2,2.2,1.8,3.2,1.8c1.2,0,2.3,0.5,3.4,1.5c1.1,1,1.9,1.4,2.4,1.1c0.4-0.2,0.6-0.1,0.6,0.3c0,0.7,0.6,1,1.8,0.6
		c0.9-0.2,1.5-0.7,1.8-1.5c0.5-0.9,0.8-1.2,0.9-0.7c0.1,0.7,0.8,1,2.2,0.9c1.4-0.1,2.5-0.4,3.5-1.1c0.9-0.7,1.8-1.1,2.6-1.1
		c0.7,0,1.4-0.4,2.1-1.3c0.6-0.3,1-0.3,1-0.1c0,0.7,0.4,1.4,1.2,2.1c0.4,0.4,0.7,0.6,0.9,0.5c0.2-0.1,0.2-0.5,0.2-1.2
		c0-0.7,0.2-1.1,0.6-1.3s1.4-0.3,2.9-0.3c2.3,0,4.4-0.7,6.2-2.1c1.6-1.2,3.3-2.2,5.2-2.9c1.9-0.7,3.4-0.9,4.6-0.7
		c1.2,0.2,1.8,0,1.8-0.6c0-0.4,1.1-1.4,3.2-2.9c2.1-1.5,3.5-2.2,4.1-2.2c0.2,0,1-0.6,2.2-1.8c0.7-0.7,1.5-1.4,2.5-2
		c1-0.6,1.8-0.9,2.5-1.1C175,162.3,175.4,162.4,175.6,162.7z M117.4,184c0,0.5,0.2,0.7,0.7,0.7c0.5,0,0.7-0.2,0.7-0.7
		c0-0.5-0.2-0.7-0.7-0.7C117.6,183.2,117.4,183.5,117.4,184z M182,160.2c0.2,0.2,0.2,1,0,2.2c-0.2,1.2-1,1.8-2.1,1.8
		c-1.5,0-2.3-0.4-2.4-1.2c-0.1-0.4,0.2-0.8,0.6-1.1c0.6-0.4,0.8-0.6,0.5-0.6c-0.4,0-0.5-0.3-0.2-0.8c0.2-0.4,0.8-0.7,1.8-0.7
		S181.7,159.9,182,160.2z"/>
	<path style="fill:#F9D500;" d="M306.2,35.9c0.9,0.9,1.7,1.9,2.4,3.2c0.6,1.3,0.9,2.3,0.8,3.1c-0.3,1.8-1.7,4.7-4.1,8.8
		c-1.2,2-1.8,3.4-1.8,4.2c0,1-0.4,1.8-1.1,2.2c-0.7,0.4-1.6,0.4-2.8,0.1c-1-0.3-1.6-0.4-1.8-0.3c-0.2,0.1-0.1,0.6,0,1.4
		c0.2,0.7,0.1,1.4-0.2,1.9c-0.3,0.5-1.1,1.2-2.3,2.1c-2,1.5-3.3,2.9-3.9,4.3c-0.4,1-0.8,1.6-1.2,1.8c-0.4,0.2-1.3,0.2-2.8-0.1
		c-1.7-0.2-2.6-0.2-2.6,0c0,0.1,0.1,0.3,0.4,0.6c0.7,0.7,1,1.2,0.9,1.6c-0.1,0.4-0.5,0.7-1.4,1c-1,0.3-1.3,0.8-1,1.6
		c0.2,0.6-0.2,1.7-1.2,3.3c-0.7,0.9-1.4,1.6-2,1.9c-0.7,0.4-1.8,0.7-3.3,0.9c-1.5,0.2-2.5,0.5-3,0.7c-0.5,0.2-0.7,0.7-0.7,1.3
		c0,0.8-0.2,1.2-0.7,1.2c-0.6,0-1-0.5-1.2-1.4c0-0.1,0-0.2,0-0.4c-0.1-1.8,0.8-4.2,2.9-7.3c2.1-3.1,3.6-4.4,4.6-4.1
		c0.7,0.2,1.3,0,1.6-0.7c0.4-0.9,0.9-1.3,1.5-1.3c0.7,0,1.3-0.5,1.8-1.5c0.4-0.9,1.5-1.9,3.4-3c1.8-1.1,3.1-2.4,4-4
		c0.9-1.5,1.8-2.5,3-2.8c1.1-0.3,1.7-1,1.7-1.9c0-0.9,1-2.6,3-5.4c1.4-1.8,2.2-3,2.4-3.8c0.3-0.7,0.3-1.7,0-2.9
		c-0.3-1.7-0.7-2.8-1.2-3.3c-0.6-0.6-1.6-0.8-2.9-0.6c-1.3,0.2-2.3,0.8-2.8,1.6c-0.7,1-1.5,1.6-2.3,1.6c-0.6,0-1.7,0.5-3.1,1.5
		c-1.6,1-2.7,1.7-3.3,1.9c-0.9,0.3-1.9,1.5-3.1,3.5c-1.3,2.2-2.3,3.4-3.1,3.8c-0.7,0.4-1.5,1.5-2.4,3.3c-0.8,1.7-1.8,2.6-2.9,2.8
		c-1,0.2-2.1,1.4-3.2,3.7c-1.1,2.3-2.1,3.6-2.9,4c-0.8,0.3-2.3,1.6-4.4,3.7c-2.1,2.2-3.2,3.5-3.2,4c0,0.5-0.7,1.9-2.2,4.2
		c-1.5,2.3-2.2,3.7-2.2,4.2c0,0.7-0.7,2.2-2,4.3c-1.3,2.2-2.4,3.5-3.3,4.2c-1.2,0.9-2.4,1.3-3.7,1.3c-0.8,0-1.3,0.2-1.5,0.6
		c-0.2,0.4-0.4,1.3-0.5,2.9c-0.1,2.2-0.6,3.8-1.7,4.6c-1,0.8-1.3,1.4-1,1.7c0.4,0.4,1.1,0.1,2.3-0.7c1.2-0.8,1.8-1.6,1.8-2.2
		c0-0.9,0.3-1.4,1-1.5c0.6-0.2,1.5,0.1,2.4,0.7c1.2,0.8,1.9,1.7,1.9,2.7c0,0.5-0.2,0.7-0.6,0.7c-0.4,0-1,0.8-2,2.3
		c-1.1,1.7-2.5,3-4.2,4.1c-1.9,1.1-2.9,2-2.9,2.6c0,0.8-1.6,1.5-4.9,2c-1,0.1-1.5,0.5-1.5,1c0,0.7-0.3,1.3-0.8,1.8
		c-0.5,0.6-1.1,0.8-1.7,0.8c-0.9,0.1-2.7,1.4-5.3,4.2c-1.8,1.8-2.4,2.8-1.8,2.8s0.9,0.4,0.9,1.1c0,0.8,0.8,1.1,2.3,0.9
		c1.5-0.1,2.3-0.3,2.3-0.6c0-0.2,0.6-1.1,1.8-2.6c0.8-0.9,1.4-1.5,1.8-1.6c0.4-0.2,0.9,0,1.6,0.4c0.7,0.4,1.2,0.6,1.6,0.4
		c0.4-0.2,1-0.7,1.8-1.7c1.2-1.5,2.1-2.2,2.8-2.1c1.5,0.2,2.7,0.4,3.4,0.5c1.5,0.1,2.5,0.4,2.8,0.7c0.3,0.3,0.2,0.8-0.3,1.5
		c-0.4,0.5-0.5,0.8-0.3,1s0.8,0.4,1.8,0.6c4.3,0.9,5.1,3.8,2.3,8.7c-0.3,0.6-0.8,1.6-1.5,3.2c-0.6,1.4-1.3,2.1-2.2,2.1
		s-1.8,0.9-2.6,2.6c-1.2,2.6-1.5,5-0.7,7c0.4,1.1,0.2,2-0.6,2.7c-1.7,1.4-3.4,3.1-5.1,5.1c-1.8,2-2.6,3.2-2.6,3.7
		c0,0.7-0.6,1.6-1.9,2.8c-1.2,1.1-1.8,2-1.8,2.8s-0.6,1.8-1.7,3.2c-1.8,2.3-3,4.2-3.6,5.8c-0.6,1.6-0.8,3.6-0.6,6
		c0.1,3.1,0.5,4.8,1,5.3c0.4,0.4,0.6,0.4,0.6,0c0-0.2-0.1-0.5-0.2-0.9c-0.2-0.8-0.3-1.2,0-1.3c0.2-0.1,1.1,0.1,2.6,0.5
		c2,0.5,3.2,0.5,3.6-0.1c0.3-0.5,2.1-1,5.4-1.4c3.3-0.4,5.4-1,6.3-1.8c0.9-0.8,2.2-1.3,3.8-1.4c2.3-0.2,3.8-0.4,4.5-0.7
		c0.7-0.3,1.2-0.8,1.4-1.6c0.2-0.9,0.9-1.5,2-1.8c0.5-0.1,0.9-0.3,1.1-0.4s0.3-0.3,0.2-0.5c-0.2-0.4,0.2-1,1.3-1.8
		c1.1-0.8,2.3-1.3,3.4-1.5c1.2-0.2,2.2-0.8,3-1.6c0.6-0.6,1.1-0.9,1.3-0.9c0.3,0,0.6,0.3,1.1,0.8c0.7,0.7,0.8,1.3,0.3,1.7
		c-0.4,0.2-0.8,0.9-1.2,1.8c-0.4,0.9-0.9,1.4-1.5,1.4c-0.7,0-1.8,0.9-3.5,2.7c-1.7,1.8-3,2.8-3.7,2.8s-2.2,1.2-4.3,3.7
		c-1.5,1.8-3.4,3.3-5.6,4.5c-2.2,1.2-4.2,1.8-6,1.9c-0.8,0-1.7,0.6-2.8,1.9c-1.1,1.5-2.6,2.6-4.6,3.3c-2,0.7-4,0.9-6.2,0.6
		c-2.5-0.4-3.9-0.7-4.1-1c-0.3-0.4-0.9-0.5-1.9-0.2c-1,0.3-1.6,0.8-1.8,1.4c-0.3,0.7-0.9,1-1.9,1c-1,0-1.7-0.3-2.4-1
		c-0.6-0.7-1.3-1.1-2.1-1.1c-0.7,0-1-0.2-0.6-0.6c0.2-0.4-0.2-1-1.2-1.8c-1-0.8-1.8-1-2.3-0.7c-0.2,0.1-0.3-0.1-0.4-0.4
		c-0.1-0.5-0.1-1.1,0-1.9c0.2-1.7-0.1-2.7-0.7-3c-0.9-0.3-1.2-0.9-1.1-1.9c0.1-1,0.6-1.6,1.6-2.1c1.1-0.5,1.7-1.8,1.8-4.1
		c0.1-2.1,0.6-3.6,1.8-4.6c1-0.9,1.6-1.7,1.6-2.2c0-0.6,0.2-0.9,0.6-0.9c0.4,0,0.8-0.7,1-2.2s1-2.4,2.3-2.8c1.2-0.4,2.3-1,3.1-1.9
		c0.6-0.7,0.9-1.2,0.9-1.5c0-0.3-0.4-0.8-1-1.5c-0.7-0.9-1-1.7-0.9-2.6c0.2-0.9,0.7-1.3,1.5-1.3c0.7,0,1.4-0.5,1.9-1.5
		c0.6-1,1.1-1.6,1.6-1.6c0.6,0,1.8-1,3.4-2.9c1.7-1.9,2.5-3.2,2.5-3.9c0-0.5,0.1-0.7,0.2-0.7c0.1,0,0.1,0,0.2,0.1
		c0.2,0.2,0.6,0,1.2-0.5c0.6-0.5,1.2-1.1,1.7-1.8c0.5-0.7,0.7-1.2,0.6-1.5c-0.1-0.2,0.1-0.5,0.4-0.7c0.3-0.2,0.8-0.4,1.2-0.6
		c1.3-0.4,1.9-1.1,1.9-2.3c0-1.2,0.6-2,1.7-2.3c0.8-0.2,1.2-0.4,1.2-0.6c0-0.2-0.6-1-1.8-2.1c-1.3-1.3-2.3-2-3-2.2
		c-0.7-0.2-1.5,0.2-2.3,1c-0.8,0.8-1.9,1.1-3.4,0.9s-2.4-0.1-2.8,0.4c-0.4,0.6-1,0.8-1.8,0.8c-1,0-2,0.6-3.1,1.8
		c-1.2,1.3-2,1.9-2.4,1.9c-0.3,0-1.2,0.6-2.6,1.9s-2.4,1.9-2.9,1.9c-0.6,0-1.3,0.5-2.2,1.6c-0.9,1-1.7,1.6-2.2,1.6
		c-0.7,0-1.4,0.6-2.2,1.9c-0.8,1.3-1.6,1.9-2.3,1.9c-0.8,0-1.8,0.4-3,1.2c-1.3,0.8-2.4,1.1-3.3,0.9c-0.9-0.2-1.5,0.3-1.8,1.7
		c-0.3,1.2-1,2.4-2,3.6c-1,1.2-1.4,2.2-1,3.2c0.2,0.8-0.1,1.8-1,3c-0.9,1.2-1.6,1.7-2.3,1.3c-0.4-0.2-1.1,0.3-2.2,1.6
		c-1.1,1.3-1.6,2.3-1.6,3c0,0.7-0.4,1.1-1.3,1.3c-0.9,0.2-1.8,1.7-2.7,4.3c-0.8,2.6-1.6,3.9-2.4,3.9c-0.7,0-1,0.4-1,1.2
		c0,0.8-0.6,1.4-1.9,1.9c-1.2,0.4-2.6,1.6-4.2,3.4c-1.5,1.8-2.7,2.7-3.4,2.7c-0.7,0-0.8,0.6-0.5,1.9c0.2,0.8,0.2,1.4,0,1.7
		c-0.2,0.3-0.8,0.6-1.6,1c-1.4,0.5-2.2,1.1-2.6,1.8c-0.3,0.4-0.7,0.6-1.1,0.6c-0.4-0.1-0.8-0.3-1.2-0.8c-0.4-0.5-0.6-1.1-0.6-1.8
		c0-1.2,0.6-2.3,1.8-3.1c1.2-0.9,2.1-1.8,2.7-2.9c0.4-0.7,0.5-1,0.4-1c-0.2,0-0.8,0.4-1.9,1.3c-0.4,0.3-1.6,1.2-3.7,2.7
		c-1,0.7-1.6,1.2-1.7,1.3c-0.4,0.5-1.1,0.5-2.2,0c-1.1-0.5-1.6-1-1.6-1.7c0-0.9-0.3-1.5-0.8-1.8c-0.5-0.3-0.5-0.8,0-1.4
		c0.6-0.6,0.8-1.2,0.8-1.8c0-0.7,0.6-1.7,1.7-3c2.8-3,4.2-4.8,4.2-5.3c0-0.3,0.5-1,1.5-2.1c1-1.1,1.5-2.1,1.5-2.9
		c0-0.9,0.6-1.7,1.7-2.5c1.2-0.9,2.6-2.4,4-4.5c2.8-4.1,4.8-5.9,6.1-5.4c0.6,0.2,1.2-0.2,1.8-1.3c0.6-1.2,1.1-1.6,1.6-1.2
		c0.2,0.1,0.4,0,0.7-0.2c0.3-0.3,0.5-0.7,0.7-1.2c0.4-1.4,1.1-2,2.1-2c1,0,2.2-1.2,3.7-3.6c1.7-2.6,3.1-4.6,4.4-6
		c1.4-1.5,2.1-2.6,2.1-3.2c0-0.6,0.1-1.2,0.2-1.9c0.1-0.7,1.2-1.3,3.1-1.6c1.8-0.3,2.9-0.7,3.2-1.2c0.4-0.5,0.2-1.1-0.6-2
		c-0.6-0.6-0.8-1-0.7-1.5c0.1-0.4,0.6-1.2,1.5-2.4c1.4-1.8,2.2-2.7,2.6-2.7c0.4,0,0.8-0.7,1.1-2c0.3-1.4,0.7-2.4,1.2-3
		c0.5-0.6,1.1-0.8,1.8-0.6c0.7,0.3,1.3-0.2,1.8-1.4c0.9-2.3,2.7-4.9,5.6-7.7c1.5-1.5,2.3-2.6,2.3-3.1c0-1.1,0.6-2.4,1.7-3.9
		s2.4-2.6,4-3.5c1.6-0.9,3-1.9,4.2-3s1.8-2,1.8-2.6c0-0.7,3.5-4.7,10.6-12c3.4-3.5,5.1-5.5,5.1-6.1s3.5-4.4,10.4-11.6
		c7-7.1,10.4-11.4,10.4-12.6c0-1.2,0.9-2.5,2.8-3.8c1.9-1.4,3.2-2,3.8-2c0.6,0,1.7-0.9,3.5-2.6c1.8-1.8,2.7-2.9,2.7-3.4
		c0-0.6,0.5-1.4,1.5-2.4c1-1,1.8-1.5,2.4-1.5c0.9,0,1.3-0.2,1.3-0.7c0-0.6,0.5-0.8,1.5-0.8c1,0,1.5,0.2,1.5,0.7
		c0.1,0.5,0.9,0.2,2.2-0.8c1.5-1.1,2.6-1.5,3.3-1.3c0.7,0.2,1.4,0.2,2.1-0.3c0.7-0.4,1.1-0.6,1.4-0.5c0.1,0,0.2,0.1,0.5,0.2
		c0.3,0.1,0.6,0.3,1.1,0.4c0.5,0.2,0.9,0.3,1.2,0.5c1.7,0.6,2.5,1.4,2.5,2.3C304.5,34.1,305.1,35,306.2,35.9z M213.3,136.4
		c0.2-0.3,0.3-0.8,0.1-1.4c-0.2-0.6-0.6-0.6-0.9,0c-0.4,0.7-0.4,1.2,0,1.5C212.7,136.8,213,136.8,213.3,136.4z M226,124.8
		c-0.5-1.4-1.6-1.4-3.2,0c-0.7,0.6-0.9,0.8-0.7,0.8c0.1,0,0.2,0,0.3-0.1c0.6-0.3,1.3-0.2,2.1,0.4c0.7,0.6,1.2,0.7,1.5,0.5
		C226.3,126.1,226.3,125.6,226,124.8z M253.4,96.4c0.4-0.8,0.8-1.2,1.3-1.2c0.2,0,0.4,0.1,0.4,0.4c0,0.2-0.2,0.6-0.5,1.2
		c-0.3,0.6-0.6,0.9-0.9,1.1c-0.3,0.2-0.4,0.1-0.5-0.1C253.2,97.5,253.2,97,253.4,96.4z M267.8,88.4c-0.7,0.5-1,1.1-0.6,1.8
		c0.1,0.4,0.1,0.7-0.1,0.9c-0.2,0.2-0.7,0.2-1.3,0.2c-1.3,0-2.1,0.3-2.4,0.8c-0.3,0.5-0.9,0.7-1.7,0.7c-0.9,0-1.6,0.6-2,1.7
		c-1,2.2-2.1,2.4-3.2,0.6c-0.4-0.7-0.6-1.3-0.4-1.8c0.2-0.5,0.9-1.4,2.2-2.7c1.7-1.7,3.1-3.4,4.2-5c1-1.4,2-1.9,3-1.6
		c0.2,0.1,0.6,0.2,1.3,0.3c0.7,0.2,1.1,0.3,1.4,0.3c0.7,0.1,1,0.7,0.9,1.6C269,87.2,268.5,87.9,267.8,88.4z M279.3,160.3
		c0.4-0.4,0.9-0.2,1.3,0.6c1,1.5,0.9,2.2-0.4,2.2c-0.3,0-0.6,0.1-0.8,0.3c-0.2,0.2-0.4,0.5-0.4,0.8c0,0.7-0.3,1.2-1,1.5
		c-0.6,0.2-1.8,0.3-3.7,0.2c-1.9-0.1-3-0.3-3.2-0.6c-0.4-0.4-0.4-1,0.2-1.8c0.6-0.8,1.3-1.3,2.1-1.6c1.2-0.3,2.1-0.8,2.7-1.6
		c0.6-0.7,1.2-0.9,1.8-0.4C278.5,160.5,279,160.6,279.3,160.3z"/>
	<path style="fill:#F9D500;" d="M272,161.3c0.4-0.7,0.7-0.6,0.9,0.3c0.1,0.7,0.1,1.6-0.2,2.6c-0.3,1.1-1,1.9-2,2.3
		c-1,0.4-1.9,0.3-2.6-0.5c-0.7-0.8-0.9-1.8-0.4-2.9s1.2-1.6,2.2-1.3C271,162,271.7,161.8,272,161.3z M296.2,143.2
		c0.2,1-0.5,1.9-2.3,2.9c-1.8,1-2.8,1.7-2.8,2c0,0.5-0.8,1.5-2.5,3c-1.5,1.4-2.6,2.9-3.4,4.4c-0.5,0.9-1.9,2.2-4.3,4
		c-2.4,1.8-3.9,2.7-4.6,2.7c-0.3,0-1-0.6-1.9-1.7c-1-1.1-1.5-1.9-1.5-2.4c0-0.5,0.4-0.6,1.2-0.2c0.7,0.3,1.1-0.1,1.1-1.1
		c0-1,0.2-1.5,0.7-1.5c0.4,0,0.8-0.6,1.2-1.8c0.1-0.5,0.5-1,1.1-1.7c0.6-0.6,1.2-1.1,2-1.5c1.7-0.9,2.6-1.6,2.6-2.1
		c0-0.6,0.6-1.4,1.9-2.3c1.3-0.9,2.3-1.3,3.2-1.3c0.7,0,1.1-0.1,1.4-0.4c0.2-0.2,0.4-0.7,0.4-1.5c0-1.2,0.7-2.2,2-3
		c1.6-0.9,2.9-1.8,4-3c1.1-1.1,1.5-2,1.2-2.6c-0.2-0.7-0.1-1,0.6-1c0.6,0,1.2-0.6,1.8-1.9c0.6-1.2,1.1-1.8,1.7-1.8s0.7-0.3,0.4-0.8
		c-0.3-0.6,0.1-1,1.1-1.2c1-0.2,1.6-0.7,1.6-1.4c0-0.7,0.3-1.2,0.9-1.4c1.7-0.6,3.1-0.6,4,0c1,0.5,1.3,1.4,1.1,2.7
		c-0.2,1.3-1.1,2.5-2.6,3.5c-1.8,1.2-2.6,2-2.5,2.4c0.1,0.4-0.6,1.3-2.1,2.7c-1.5,1.4-2.8,2.2-3.8,2.7c-1.2,0.5-1.7,1.1-1.4,1.8
		c0.2,0.7,0,1.1-0.6,1.1C296.3,141.8,296,142.3,296.2,143.2z M356.5,163.9c1.4,0,2.6-0.5,3.6-1.5c0.7-0.7,1.4-1.2,2.2-1.5
		c0.8-0.3,1.5-0.4,2-0.2c0.5,0.2,0.8,0.6,0.8,1.2c0,0.5-0.1,0.9-0.3,1.1c-0.2,0.2-0.5,0.3-1,0.3c-0.4-0.1-0.7,0.1-1.1,0.5
		s-0.7,0.9-0.9,1.6c-0.6,1.4-1.1,2.1-1.6,2.1c-0.6,0-0.8,0.5-0.8,1.4c0,1-0.6,2.1-1.9,3.2c-1.3,1.1-2.7,1.7-4.3,2
		c-1.9,0.3-2.9,0.7-2.9,1.2c0,0.4-0.5,0.6-1.4,0.6c-0.9,0-1.7,0.7-2.5,2.2c-0.8,1.5-2.2,2.4-4.3,2.7c-2,0.3-4,1.4-6.1,3.1
		c-2.1,1.7-3.4,2.6-3.8,2.6c-0.5,0-0.9,0.3-1.1,1c-0.3,0.7-1.9,1.3-4.8,1.6c-2.5,0.3-4,0.6-4.8,0.8c-0.7,0.2-1.9,0.8-3.5,1.8
		c-1.5,1-2.8,1.2-3.8,0.6c-1-0.6-1.7-0.8-2.1-0.6c-0.4,0.1-1.1-0.1-2-0.6c-0.9-0.5-1.6-0.5-2.1,0c-0.6,0.6-1.6,0.4-3.2-0.4
		c-1.7-0.8-2.8-1.2-3.3-1.2c-0.6,0-1.7-0.9-3.6-2.6c-1.8-1.7-2.9-3-3.2-3.8c-0.4-0.9-0.2-2.1,0.6-3.5c1-2,1.2-3,0.6-3
		c-0.1,0-0.3,0-0.5,0.1c-0.6,0.1-0.9-0.1-0.9-0.7c0-0.6,0.1-1.4,0.2-2.5c0.1-1,0.7-1.5,1.9-1.5c1.2,0,1.9-0.2,2.1-0.7
		c0.2-0.5,0-1.6-0.5-3.4c-0.6-2-0.7-3.4-0.4-4.2c0.2-0.4,0.7-1.5,1.6-3.2c0.4-0.8,0.8-1.3,1.2-1.6c0.4-0.2,1.1-0.3,2-0.2
		c0.9,0.1,1.5,0.1,1.9-0.1c0.4-0.2,0.7-0.7,1-1.4c0.5-1.3,0.6-2.3,0.3-3c-0.3-0.7,0-1.3,0.8-1.6c0.8-0.4,1.2-0.9,1.2-1.5
		c0-0.6,1.1-1.9,3.4-3.8c2.3-1.9,3.4-3.2,3.4-3.8c0-0.7,0.4-1.2,1.1-1.5c0.9-0.4,1.8-1.4,2.8-3c1-1.7,2.1-2.8,3.4-3.1
		c2-0.5,2.4-2.4,1.1-5.8c-0.4-1-0.3-2.2,0.3-3.3c0.6-1.2,1.3-1.8,2.2-1.8c0.7,0,1-0.6,0.6-1.9c-0.3-1.2-0.9-1.8-1.8-1.8
		c-0.9,0-1.5-0.4-1.8-1.2c-0.6-1.7-2.1-1.3-4.3,1.2c-3.1,3.5-5.6,4.3-7.5,2.4c-1-1-1.2-2.1-0.6-3c0.6-0.9,1.5-1.7,2.8-2.3
		c1.2-0.6,1.8-1.5,1.8-3c0-1.4,0.4-2.5,1.1-3.5c0.7-0.9,1.3-2.3,1.6-4.2c0.4-2,1-3.4,1.9-4.2c1-0.9,1.5-1.6,1.5-2.3
		c0-0.6,0.6-1.4,1.7-2.4c1.1-1.1,2.4-2,3.8-2.8c1.1-0.6,2.4-0.9,4-0.8c1.5,0.1,2.7,0.4,3.6,1.1c1.1,0.9,1.6,2.3,1.4,4.2
		s-1,3.4-2.3,4.7c-1.5,1.4-2.3,2.4-2.3,3c0,0.7-0.5,1.4-1.4,2.2c-2.4,2.2-2.6,3.9-0.5,5c1.2,0.7,2.2,0.8,3.1,0.4
		c0.7-0.4,1.6-0.6,2.5-0.7c2.2-0.3,3.5-0.5,4-0.6c2-0.4,3.4-0.3,4.4,0.3c1.2,0.6,2,0.6,2.6-0.2c1.6-2.2,3.4-2.2,5.4-0.3
		c1.1,1.1,1.7,2.1,1.8,2.9c0.1,0.8-0.4,1.6-1.3,2.4c-0.9,0.8-1.2,1.9-1,3.4c0.2,1.4-0.1,2.5-0.8,3.2c-0.8,0.8-1.4,1.8-1.7,3
		c-0.4,1.3-0.9,2.3-1.5,3c-0.7,0.8-1.3,2.1-1.8,3.9c-0.6,1.8-1.4,3.1-2.4,4.1c-1,0.9-1.5,1.6-1.5,2.3c0,0.6-0.2,1-0.6,1.2
		c-0.4,0.2-1.3,1.5-2.9,3.7c-1.3,1.9-2.2,3.1-2.9,3.7c-0.6,0.6-1.2,0.7-1.8,0.5c-0.6-0.2-1.2,0.2-1.9,1.2c-0.7,1-1.8,2.7-3.1,5.3
		c-2.3,4.6-4.2,6.8-5.4,6.8c-0.6,0-1.6,0.9-3,2.6c-1.4,1.7-2.4,2.5-3,2.2c-0.7-0.2-1.4,0.3-2.2,1.7c-0.8,1.4-1.4,3.3-1.9,5.7
		c-1,4.9-1.5,7.6-1.3,7.9c0.1,0.2,0.6,0.3,1.6,0.3c1.4,0,2,0.3,2,0.8c0.2,0.6,0.8,0.8,1.7,0.8c1,0,2.1-0.3,3.4-0.9
		c1.3-0.6,2.2-1.3,2.7-2c0.4-0.6,1-0.9,1.8-0.9c0.8,0,1.8-0.8,3.1-2.3c1.4-1.5,2.6-2.4,3.9-2.7c1.2-0.2,2.2-0.6,2.8-1.1
		c0.7-0.6,1.5-0.8,2.4-0.6c0.8,0.1,1.7-0.2,2.7-1c1-0.8,1.8-1.8,2.4-3.1c0.5-1,1.4-1.7,2.7-1.9c1.3-0.2,2.3,0.1,3,0.9
		c1.5,1.7,2.3,1.6,2.3-0.4c0-1,0.3-1.5,0.8-1.5c0.5,0,0.7-0.3,0.7-0.8c0-0.7,0.8-1.7,2.3-2.8C354.2,164.4,355.4,163.9,356.5,163.9z
		 M348.4,122.9c-0.2,0-0.4,0.2-0.4,0.7c0,0.5,0.3,0.7,0.8,0.7c0.5,0,0.6-0.2,0.3-0.7C348.8,123.1,348.6,122.9,348.4,122.9z"/>
	<path style="fill:#E6007E;" d="M428.1,159.7c0.1,1-0.4,2-1.7,3c-1.1,0.8-1.7,1.5-1.7,2.2c0.1,0.8-0.4,1.7-1.3,2.8
		c-1,1.1-1.9,1.7-2.8,2c-1.2,0.3-1.9,1.1-2.1,2.3c-0.2,1.4-0.8,2.1-1.8,2.1c-1.2,0.1-2,0.5-2.2,1.2c-0.2,0.6-0.1,1.7,0.6,3.1
		c0.7,1.5,1.1,2.2,1.2,2c0-0.2,0.2-0.3,0.5-0.2c0.3,0,0.7,0.1,1.2,0.3c0.9,0.4,1.4,0.5,1.4,0.2c0-0.1-0.1-0.3-0.2-0.6
		c-0.4-0.8-0.3-1.2,0.3-1.2c0.6-0.1,1.3,0.3,2.3,1c1,0.7,1.5,1.4,1.6,1.9c0.1,0.5-0.7,1.1-2.2,1.9c-1.5,0.8-2.6,1.1-3,0.8
		c-0.6-0.3-2-0.4-4.2-0.3c-2,0.1-4.2,0-6.6-0.5c-1.7-0.3-3.3-0.3-4.8,0.1c-1.6,0.4-2.5,0.9-2.7,1.7c-0.2,0.6-1.2,0.9-3,0.7
		c-0.9-0.1-1.6,0-2,0.1c-0.4,0.1-0.6,0.3-0.5,0.6c0.1,0.2,0,0.4-0.3,0.6c-0.2,0.2-0.6,0.2-0.9,0c-0.9-0.2-1.6,0-2.3,0.6
		c-0.7,0.7-1.7,1-3,1c-1.4,0-2.8,0.8-4.1,2.4c-1.4,1.8-2.7,2.7-4,2.8c-0.6,0-0.8-0.2-0.8-0.7c-0.1-0.7-0.8-1.2-2.2-1.5
		c-1.4-0.3-2.3-0.2-2.7,0.3c-0.7,0.8-1.4,1.1-2.2,1c-0.8-0.1-1.3-0.6-1.6-1.6c-0.3-1-1-1.6-2-1.8c-0.8-0.1-1.6-0.6-2.5-1.8
		c-0.9-1.1-1.4-2.2-1.5-3.2c-0.1-1-1.4-1.8-3.9-2.3c-0.6-0.1-1-0.5-1.2-1.2c-0.2-0.7-0.4-2.2-0.4-4.6c-0.2-5.8,1.2-10.5,4.2-13.8
		c1.1-1.2,1.8-2.8,2-4.6c0.2-1.8,0.8-2.9,1.6-3.4c0.9-0.6,1.3-1.1,1.3-1.6c-0.1-0.6,0.8-2.4,2.7-5.6c1.9-3.2,3.3-5.3,4.2-6.3
		c1.2-1.2,1.8-2,1.8-2.6s0.9-1.4,2.7-2.5c0.7-0.4,1.4-1,2.1-1.8s1.1-1.4,1.3-1.8c0.5-1.4,1.6-2.2,3.2-2.7c1-0.3,1.8-0.7,2.3-1.2
		c0.5-0.5,1-1.5,1.6-3c0.9-2.4,2.1-4,3.8-4.9c1.6-0.9,3.3-2.2,5-4c1.8-1.8,3.1-3.7,4.1-5.6c0.9-1.7,2.1-2.9,3.7-3.7
		c1.6-0.8,4.3-1.6,8-2.2c2.5-0.4,4.6-0.9,6.6-1.7c3.1-1.4,7.2-1.6,12.1-0.7c2.5,0.4,4.1,0.8,4.8,1.1c0.7,0.3,1.1,0.8,1.2,1.4
		c0,0.5,0.7,1.3,2.1,2.5c1.4,1.2,2.1,2,2.1,2.4c0,0.4,0.5,0.9,1.4,1.5c0.6,0.4,0.9,0.8,1,1.2c0,0.4-0.2,1.3-0.7,2.8
		c-0.7,2.2-1,3.7-0.7,4.5c0.2,1,0.1,1.5-0.6,1.5c-0.2,0-0.5,0-1,0c-0.5,0-0.8,0-1.1,0c-0.7,0-1.2-0.8-1.4-2.4
		c-0.2-1.6-1.4-3.4-3.5-5.5c-1.4-1.4-2.4-2.2-3-2.4c-0.6-0.2-1.4-0.2-2.5,0.1c-1.4,0.4-2.9,1.5-4.6,3.5c-1.5,1.8-3.1,2.8-5,3
		c-1.9,0.2-3.3,1-4.2,2.3c-0.8,1.4-1.6,2.1-2.4,2.2c-0.6,0-1.3,0.6-2.1,1.8c-0.8,1.1-1.5,1.7-2.1,1.7c-0.7,0-1.4,0.6-2.2,1.8
		c-0.7,1-1,1.6-0.6,1.6c0.6-0.1-0.1,1.4-2.2,4.5c-0.5,0.7-1,1.4-1.5,2c-1.2,1.5-2,3-2.2,4.3c-0.2,1.2-0.5,1.8-0.7,1.8
		c-0.6,0.1-1.1,1-1.4,2.9c-0.3,1.9-0.4,3.5,0,4.8c0.3,1.2,0.4,2.1,0.2,2.6c-0.2,0.5-0.7,1.2-1.7,2.1c-1.5,1.3-2.4,1.7-2.8,1.2
		c-0.6-0.8-2.2-1.2-4.9-1.2c-0.4,0-0.7-0.6-0.7-1.8c-0.1-1.2,0.1-2,0.5-2.4c0.2-0.3,0.4-0.8,0.6-1.5c0.2-0.7,0.2-1.3,0.1-1.8
		c-0.1-0.6-0.2-0.8-0.5-0.8c-1.2,0.1-1.8,0.2-1.8,0.5c0,0.1,0.1,0.3,0.2,0.5c0.4,0.5-0.1,1.1-1.3,1.8c-0.9,0.5-1.6,1.2-2,2.2
		c-0.4,1-0.4,1.7,0,2.4c0.4,0.5,0.3,1.4-0.3,2.8c-0.6,1.4-1.2,2.2-1.9,2.4c-0.8,0.4-1.3,1.2-1.6,2.4c-0.2,1.3-0.6,1.9-1,1.9
		c-0.5,0.1-1,0.9-1.6,2.5c-0.6,1.6-0.8,3-0.8,4.1c0.1,1.2-0.2,2.5-0.6,4c-0.5,1.5-1,2.5-1.7,3c-0.7,0.6-0.9,1.5-0.6,2.7
		c0.3,1.3,1.1,2.4,2.2,3.3c0.9,0.8,1.8,1.3,2.5,1.4c0.8,0.2,2.2,0.1,4.2-0.1c3.1-0.4,5-0.5,5.4-0.4c0.6,0.1,1.7-0.3,3.2-1.1
		c1.5-0.8,2.3-1.4,2.2-1.8c0-0.5,0.6-0.6,1.8-0.5c1.4,0.2,2.2-0.1,2.4-1.1c0.2-0.8,0.8-1.7,1.8-2.7c0.9-0.8,1.2-1.5,0.9-2.2
		c-0.2-0.7-0.8-0.5-1.7,0.5c-0.6,0.7-0.9,1-1.2,1.1c-0.2,0-0.6-0.3-1.2-1c-2.2-2.3-3.5-4.6-4.1-6.9c-0.6-2.3-0.4-4.5,0.7-6.5
		c0.9-1.5,1.3-2.6,1-3.3c-0.1-0.4,0.2-0.5,1-0.1c0.2,0.2,0.6,0.4,1,0.6c3.1,1.8,5.1,5.3,5.9,10.2c0.3,2.1,0.7,3.5,1.3,4.3
		c0.2,0.2,0.5,0.4,1,0.5s1,0.2,1.7,0.3c0.6,0,1.2,0,1.8,0c0.6,0,1-0.1,1.4-0.3s0.6-0.4,0.6-0.6c-0.1-0.6,0.4-1.5,1.5-2.8
		c1-1.2,1.9-1.9,2.5-1.9c0.6-0.1,1.8-1.2,3.7-3.3c1.8-2.1,2.7-3.5,2.7-4.1c0-0.6,0.8-1.3,2.5-2.1c1.2-0.6,1.9-1.2,2.2-1.7
		c0.3-0.5,0.4-1.2,0.2-2.1c-0.1-0.6,0.4-2,1.4-4.1c1.1-2.1,1.8-3.2,2.3-3.1c0.2,0.1,0.4,0,0.5-0.2s0-0.4-0.1-0.7
		c-0.3-0.6,0-1.4,1-2.7c1-1.2,1.8-1.9,2.5-1.9c0.6-0.1,0.8-1.2,0.6-3.2c-0.3-3,0.3-5.8,1.9-8.4c1.6-2.7,3.6-4.4,6-5.2
		c0.9-0.3,1.7-0.1,2.3,0.6c0.6,0.7,0.9,1.7,0.9,2.9c0,1.2-0.2,2.6-0.8,4c-0.4,1-0.6,2.1-0.5,3.2c0.1,1-0.6,1.9-2.1,2.6
		c-1.4,0.7-2.1,1.2-2.1,1.7c0,0.5-0.6,0.7-1.8,0.6c-1.3-0.1-2,0.2-2.2,0.8c-0.2,0.7,0.1,0.9,0.8,0.6c0.6-0.3,0.9-0.1,0.9,0.6
		c0,0.3,0,0.8-0.1,1.4c-0.2,1.7-0.7,3-1.3,3.7c-0.7,0.8-1,1.5-0.8,2.2c0.1,0.8-0.5,1.6-1.8,2.5c-1.2,0.9-2.1,1.1-2.5,0.5
		c-0.5-0.7-0.9-0.4-1.1,0.9c-0.2,1.2-0.3,2.2-0.2,2.8c0.1,0.6-0.2,0.9-1,1C428.3,158.3,428,158.8,428.1,159.7z M459.9,159.4
		c0.9,1.9,0.2,3.4-2.3,4.6c-1.2,0.6-1.7,1.2-1.6,1.9c0.1,0.7-0.7,1.5-2.5,2.6c-1.6,1-2.4,1.7-2.4,2.1c0,0.4-0.4,0.7-1.1,0.8
		c-0.8,0.1-1.3,0.5-1.5,1.2c-0.2,0.7-1.4,1.6-3.8,2.7c-2.3,1-3.8,1.8-4.6,2.4c-0.7,0.5-1.6,0.8-2.8,0.9c-1.1,0.1-1.8,0.6-1.9,1.3
		c-0.2,0.8-0.8,1.2-1.8,1.2c-1,0-1.5-0.4-1.5-1.2c-0.1-0.6-0.1-0.9-0.2-0.9c-0.1,0-0.3,0.4-0.7,1c-0.4,0.7-0.7,1-1.1,1
		c-0.3,0-1-0.4-2-1.2c-1.4-1-2-1.9-1.9-2.8c0.1-0.9,0.9-1.4,2.4-1.6c1.7-0.2,2.9-0.5,3.8-0.9c0.9-0.4,1.9-1.2,3.2-2.3
		c1.6-1.5,2.6-2.2,3.1-2.2c0.4,0,1.2-0.7,2.4-2.2c1.7-2.2,3.8-2.7,6.4-1.4c0.6,0.3,0.9,0.2,0.9-0.3c0-0.6,0.2-0.7,0.6-0.6
		c0.2,0.1,0.4,0,0.5-0.2c0.2-0.2,0.3-0.6,0.4-1.1c0.2-1.2,0.7-1.6,1.6-1.3c0.8,0.2,1.4-0.2,1.8-1.4c0.4-1.1,1.2-2,2.2-2.8
		c1.2-0.7,2.1-1.1,2.7-1C459,158.1,459.5,158.6,459.9,159.4z"/>
	<path style="fill:#E6007E;" d="M553.2,166.6c0-0.7,0.5-1.1,1.4-1.2c1-0.1,1.6,0.1,2,0.7c0.4,0.6,0.4,1.3,0,2.3
		c-0.4,1-0.9,1.5-1.4,1.5c-0.7,0-1.2,0.6-1.5,1.8c-0.3,1.1-1.4,2.2-3.2,3.4c-1.8,1.2-3.4,1.6-4.5,1.4c-0.9-0.1-1.4,0.1-1.4,0.4
		c0.1,0.2,0.1,0.3,0,0.5c-0.2,0.1-0.4,0.2-0.7,0.2c-0.7,0-1.8,0.9-3.2,2.6c-1.8,2.3-2.8,3-3.1,2c-0.1-0.2-0.1-0.7-0.1-1.3
		c0-1.2-0.3-1.8-0.8-1.8c-0.6,0-0.6,0.6-0.3,1.8c0.3,1.2,0.2,2.5-0.5,3.8s-1.4,2-2.2,2c-1,0-1.6,0.5-1.9,1.6
		c-0.3,1.1-1.2,1.5-2.7,1.2c-1.6-0.3-3.5,0.2-5.7,1.5c-4.2,2.4-6.6,2.3-7-0.3c-0.1-0.8-0.2-1.2-0.5-1.2c-0.2,0-0.8,0.2-1.6,0.8
		c-0.8,0.5-1.4,0.7-1.8,0.7c-0.4,0-1.2-0.3-2.2-0.8c-1.5-0.7-2.3-1.6-2.3-2.7c0-1.1-0.3-2.2-0.8-3.1c-0.6-1-0.6-1.8-0.2-2.4
		c0.4-0.6,0.5-2.7,0.2-6.6c-0.2-3,0.1-4.5,1.1-4.5c0.7,0,1.4-0.5,1.9-1.6c0.6-1,0.7-1.5,0.4-1.5c-0.1,0,0-0.2,0.4-0.7
		c0.4-0.5,1-1.1,1.7-1.8c1.7-1.7,2.9-3.7,3.6-6.2c0.7-2.4,1.6-4.5,2.8-6.2c1.2-1.7,1.8-3.1,1.8-4.1c0-0.8,0.5-1.8,1.6-3.1
		c1-1.3,2.3-3.4,3.9-6.4c1.4-2.6,2.4-4.5,3.3-5.6c0.8-1.1,1.6-1.6,2.4-1.6c0.7,0,1-0.5,1-1.5c0-1,0.6-1.8,1.7-2.4
		c1-0.6,1.4-1.2,1.1-2c-0.3-0.9,0-1.7,1-2.6c0.9-0.9,1.4-1.5,1.4-2c0-0.5-0.4-1-1.2-1.5c-0.6-0.3-1.2-0.5-1.8-0.5
		c-0.6,0-1,0.1-1.4,0.4c-0.4,0.3-0.5,0.6-0.4,1.1c0.2,0.7-0.2,1.3-1.4,1.8c-1.2,0.6-2.5,0.8-3.9,0.6c-1.4-0.1-2.5,0.2-3.6,0.8
		c-1,0.7-1.5,1.5-1.5,2.5c0,0.9-0.3,1.4-0.8,1.4c-0.6,0-1.6,0.8-3.1,2.3c-1,1-1.7,1.6-2.1,1.7c-0.4,0.2-0.9,0-1.3-0.4
		c-0.5-0.4-0.9-0.5-1.2-0.3c-0.3,0.2-0.9,0.7-1.6,1.6s-1.4,1.5-1.8,1.7c-0.5,0.2-1.3,0.2-2.3,0c-1-0.2-1.7-0.2-2,0s-0.7,0.6-1,1.4
		c-0.4,0.9-1,1.5-1.9,1.8c-0.9,0.3-2.4,0.4-4.3,0.2c-0.4-0.1-0.7,0-1,0.2c-0.3,0.2-0.4,0.4-0.3,0.6c0.2,1.9,0,2.8-0.6,2.7
		c-0.5-0.1-1.3,0-2.4,0.5c-1.1,0.5-1.6,0.8-1.6,1.2c0,0.5-1.5,2.4-4.4,5.7c-2.9,3.3-4.6,4.9-5,4.9c-0.7,0-1.8,0.7-3,2
		c-1.3,1.4-1.9,2.4-1.9,3.1c0,0.9-0.4,1.7-1.2,2.4c-0.7,0.6-1.1,1.3-1.1,1.9c0,0.7-0.6,1.5-1.9,2.4c-1.3,0.9-2,1.7-2.1,2.5
		c-0.5,2.5-1.3,3.8-2.5,3.8c-0.7,0-1,0.4-1,1.1c0,0.6-1.4,2.2-4.1,4.8c-2.7,2.6-4.4,4-5,4c-0.5,0-1.5,1.3-3,3.8
		c-1,1.7-1.8,2.8-2.4,3.2c-0.6,0.4-1.5,0.6-3,0.6c-4,0-6-2.1-6-6.4c0-2.2,0.4-3.6,1.2-4.2c0.7-0.6,1.1-1.2,1.1-1.8
		c0-0.6,0.6-1.5,1.7-3c2.6-3.3,4.6-6.6,6.2-10.2c0.8-1.7,1.4-2.5,1.9-2.5c0.6,0,0.8-0.5,0.8-1.6c0-1,0.4-1.6,1.1-1.9
		c0.7-0.2,1.1-1.6,1.1-4.1c0-1.5,0.2-2.7,0.6-3.5c0.4-0.8,1.2-1.8,2.5-3.2c2.1-2.1,3.5-3.1,4.3-3c0.5,0.1,0.8-0.1,1.1-0.4
		c0.2-0.3,0.4-0.8,0.5-1.6c0.1-0.9,0.3-1.4,0.6-1.7c0.3-0.3,1-0.4,1.9-0.4c1.5,0,2.3-0.5,2.6-1.4c0.3-1,1.4-1.6,3.1-1.9
		c1.2-0.2,2-0.5,2.2-0.8c0.2-0.3,0.2-0.9,0-1.8c-1.2-4.4-0.8-7.1,1-8.3c1.1-0.7,1.7-1.4,1.7-2.1c0-0.7,0.5-1.4,1.5-2
		c1-0.7,1.5-1.4,1.5-2.1s0.3-1.4,1-2.1c0.7-0.6,1.2-0.8,1.6-0.4c0.2-0.1,0.4-0.3,0.5-0.7c0-1.2,0.4-2.3,1.2-3.4
		c0.8-1.1,1.7-1.9,2.7-2.4c1.5-0.6,2.2-1,2.2-1.5c0-0.4,1.1-1.3,3.2-2.8c2.1-1.4,3.3-2.4,3.5-2.9c0.2-0.4,1-0.4,2.6-0.1
		c1.4,0.3,2.7,0.5,4,0.6c0.6,0.1,1,0.3,1.2,0.6c0.2,0.3,0.2,1.1,0.1,2.2c-0.1,2-0.2,3.5-0.2,4.7c-0.1,1.4-0.6,2.2-1.8,2.6
		c-1.4,0.4-2.4,1-3.1,1.8s-0.9,1.4-0.4,2c0.4,0.4,0.6,1,0.6,1.7c0,0.7-0.1,1.3-0.3,1.8c-0.2,0.5-0.6,0.8-1,0.7
		c-0.7-0.1-1.4,0.2-2.3,0.9c-0.9,0.8-1.5,1-1.8,0.6c-0.2-0.2-0.3-0.1-0.4,0.3c-0.1,0.2-0.1,0.6-0.1,1c0,1.2-0.4,2.2-1.3,2.8
		c-0.9,0.7-1.1,1-0.6,1c0.6,0,1.4-0.5,2.2-1.5c0.9-1,1.7-1.6,2.4-1.6c0.7,0,2.3-0.7,4.8-2c2.4-1.3,3.9-2.3,4.4-3
		c0.6-0.8,1.9-1,4.2-0.7c1.8,0.2,3.1,0.2,3.7-0.1c0.6-0.3,1.3-1.2,2-2.7c0.7-1.4,1.5-2.1,2.4-2.1c0.9,0,2.2-0.7,3.8-2.2
		c1.5-1.4,2.3-1.8,2.3-1.3s0.8,0,2.3-1.7c0.1-0.1,0.2-0.2,0.3-0.4c1.2-1.4,2.1-2.1,2.6-2.4c0.5-0.2,1.5-0.2,2.9,0.1
		c1.9,0.4,3.6,0.3,5.2-0.3c1.5-0.6,3.1-0.9,4.8-0.9c1.7,0,2.6,0.3,2.9,0.9c0.7,2.1,1.2,6,1.3,11.6c0.1,2.1-0.5,3.8-1.6,5.3
		c-1.2,1.5-2,2.8-2.4,3.9c-0.2,0.4-0.6,0.9-1.3,1.5c-0.7,0.6-1.4,1-2,1.3c-1.5,0.6-2.5,1.2-3,1.9c-0.4,0.6-0.8,1.9-1,3.6
		c-0.4,3.1-1.5,4.7-3.4,4.7c-0.9,0-1.6,0.3-1.9,0.9c-0.2,0.3-0.3,0.5-0.1,0.5c0.1,0,0.3-0.1,0.6-0.2c0.4-0.2,0.6-0.2,0.6,0.1
		c-0.1,0.2-0.2,0.6-0.3,1.1c-0.2,0.9-0.7,1.8-1.3,2.8c-0.5,0.7-0.6,1.4-0.3,2.1c0.2,0.8-0.1,1.4-1.1,1.7c-1,0.2-1.4,0.8-1.1,1.7
		c0.3,0.9-0.2,1.9-1.7,3.1c-1.4,1.2-2.5,2.5-3.1,3.9c-0.7,1.5-1.8,2.1-3.3,1.9c-1.5-0.1-2.5,0.2-2.9,0.9c-2.1,4-3.6,7.7-4.5,11.2
		c-0.6,2.1-1,3.3-1.5,3.6c-0.4,0.3-0.5,1.1-0.1,2.5c0.4,1.5,0.5,2.5,0.3,3c-0.1,0.3-0.1,0.5,0,0.6c0.2,0.1,0.4,0,0.7-0.1
		c0.7-0.3,1.2,0,1.6,0.9c0.3,0.8,1.3,1,3,0.7c1.7-0.3,2.7-0.2,2.9,0.5c0.2,0.4,0.8,0.5,1.5,0.3c0.8-0.2,1.6-0.6,2.4-1.2
		c0.8-0.6,1.2-1.1,1.2-1.6c0-0.9,0.4-1.6,1.1-2.1s1.7-0.8,2.9-0.8c1.5,0,2.3-0.3,2.6-1c0.2-0.7,1-1.1,2.3-1.1c1.4,0,2.2-0.3,2.5-0.9
		c0.4-0.6,0.7-0.6,1.1-0.1c0.4,0.7,0.8,0.9,1.2,0.8s0.5-0.6,0.3-1.4c-0.3-1,0.5-2.4,2.4-4c2.1-1.8,3.5-3.1,4.2-3.9
		c0.9-0.9,1.8-1.1,2.9-0.6c0.4,0.2,0.6,0.3,0.8,0.4c0.2,0.1,0.3,0.1,0.5,0.1c0.1,0,0.2-0.1,0.2-0.2
		C553.1,167.1,553.2,166.9,553.2,166.6z M558,166.5c0.4-1.1,0.7-1.3,1-0.5c0.2,0.7-0.1,1.5-1,2.3c-0.6,0.6-0.9,0.8-0.9,0.6
		c-0.1-0.1-0.1-0.1,0-0.2c0.1-0.1,0.2-0.2,0.3-0.6c0.1-0.3,0.2-0.6,0.4-0.9C557.9,167.1,558,166.8,558,166.5z M566.6,160.3
		c0.2,1.7-0.6,3.1-2.3,4.1c-1.6,0.9-2.8,0.8-3.5-0.4c-0.1-0.2-0.2-0.5-0.3-0.7c-0.3-1-0.1-1.6,0.6-1.6c0.6,0,1.3-0.6,1.9-1.9
		c0.4-0.8,0.9-1.3,1.4-1.5c0.5-0.2,1-0.1,1.4,0.2C566.3,158.8,566.6,159.4,566.6,160.3z"/>
	<path style="fill:#E6007E;" d="M633.1,154c1,1,1.6,1.7,1.5,2.2c0,0.5-0.6,1-1.8,1.6c-1.2,0.6-1.9,1.4-2.3,2.4c-0.4,0.9-1,1.4-2,1.4
		c-1,0-2.3,0.5-4.1,1.6c-1.7,1-2.8,1.4-3.3,1.1c-0.6-0.3-1.1,0.2-1.7,1.5c-0.6,1.2-1.4,2-2.7,2.4c-1.2,0.3-1.8,0.8-1.8,1.5
		c0,0.7-0.3,1.1-1,1.3c-0.6,0.2-1.4,0.1-2.2-0.3c-0.9-0.4-1.5-0.1-1.8,1c-0.2,0.9-0.9,1.9-1.9,2.9c-1,1-1.9,1.5-2.5,1.5
		c-0.4,0-1.6,0.8-3.5,2.3c-1.8,1.5-3,2.2-3.4,2.2c-0.4,0-1.5,0.6-3.5,1.9c-2,1.3-3.6,1.9-4.9,1.9c-0.9,0-2.2,0.2-4.1,0.7
		c-1.9,0.5-3.1,0.9-3.6,1.3c-0.1,0.1,0,0.2,0.1,0.5c0.1,0.3,0.3,0.6,0.6,0.9c0.5,0.6,0.5,0.9,0.1,0.9c-0.2,0-1-0.1-2.1-0.3
		c-1.9-0.3-3.2-0.7-3.8-1.2c-0.6-0.4-1,0-1.4,1.4c-0.3,1.3-0.8,2.3-1.5,3c-0.5,0.5-1.6,1-3.4,1.5c-1.8,0.5-2.9,0.6-3.6,0.5
		c-1.2-0.2-2.4-0.4-3.7-0.5c-1.2-0.1-2.2-0.4-3-0.9c-0.8-0.5-2-1.6-3.6-3.2c-2.6-2.6-3.7-4.1-3.3-4.6c0.3-0.4,0-0.9-1-1.5
		c-0.7-0.4-1-0.8-1.1-1.3c0-0.5,0.3-1.9,0.9-4.2c0.9-3.1,1.8-4.9,2.6-5.4c0.9-0.4,1.3-1.3,1.3-2.5c0-1.3,0.3-2,0.9-2.2
		c0.7-0.2,0.6-0.6-0.1-1.1c-0.5-0.3-0.7-0.7-0.7-1.2c0-0.5,0.4-1.2,1-2.4c1-1.8,1.7-2.7,2.2-2.7c0.3,0,0.4-0.5,0.2-1.6
		c-0.7-2.8,0.9-5.1,4.8-7.1c1.8-0.9,2.9-1.6,3.2-2.1c0.4-0.5,0.6-1.4,0.6-2.7c0-4.3,2-8.2,6-11.7c2.2-1.8,3.3-3.3,3.5-4.4
		c0.2-1.2,0.5-2.3,1-3.3c0.6-1.4,1-2.3,1.1-2.9c0.2-0.8,1-1.4,2.6-1.8c1.1-0.2,2.2-0.8,3.2-1.6c1-0.8,1.4-1.4,1.2-1.8
		c-0.2-0.3,0.1-0.9,0.7-1.8c0.6-0.9,2.7-1.4,6.2-1.7c3.4-0.2,5.2-0.6,5.4-1.1c0.2-0.6,0.6-0.8,1.3-0.7c0.7,0.1,1.3,0.4,1.8,0.9
		c0.4,0.5,0.4,1.6-0.2,3.3c-0.6,1.7-1.2,2.6-1.8,2.6c-0.5,0-0.5,0.7-0.1,2.2c0.3,1.2,0.4,2.4,0.2,3.6c-0.2,1.2-0.5,1.8-1,1.8
		c-0.4,0-1,0.7-1.9,2.2c-1,1.5-1.9,2.4-2.9,2.5c-1,0.2-1.7,1.3-2,3.4c-0.4,2.3-0.9,4.1-1.7,5.4c-0.5,0.8-1,2-1.6,3.5
		c-0.3,0.9-0.9,1.2-1.7,0.9c-0.7-0.2-1.5,0.1-2.6,1s-1.6,1.8-1.6,2.6c0,0.7-0.2,1.1-0.7,1.4c-0.4,0.2-0.7,0.9-0.9,2.1
		c-0.2,1.4-0.9,2.2-1.9,2.7c-1.1,0.4-1.7,1-1.7,1.8c0,0.7-0.5,1.1-1.5,1.4c-1,0.2-1.6,0.8-1.6,1.6c0,0.7-0.8,2-2.3,3.8
		c-0.9,1-1.5,1.8-1.7,2.3c-0.2,0.5-0.1,0.9,0.3,1.4c0.4,0.4,0.4,0.9,0.1,1.4c-0.3,0.5-1.1,1.3-2.4,2.4c-1.5,1.2-2.4,2.2-2.7,2.9
		c-0.3,0.7-0.5,1.9-0.5,3.8c0,1.7,0.1,2.9,0.4,3.6c0.2,0.7,0.9,1.5,1.8,2.4c1,0.9,1.7,1.4,2.2,1.5c0.5,0.2,1,0,1.7-0.4
		c1-0.7,1.7-0.6,2.2,0.2c0.4,0.4,0.7,0.2,0.7-0.6c0-1.2,0.4-1.6,1.1-1.4c0.7,0.2,1.2,0,1.5-0.6c0.2-0.7,0.8-1.1,1.6-1.1
		c0.8,0,1.2-0.2,1.2-0.6c0-0.4,0.6-0.8,1.7-1.1c1.2-0.4,2.3-1,3.4-2c1.2-1,2.5-1.7,4-2c1.5-0.3,2.9-1.2,4-2.8c0.7-1,1.2-1.6,1.5-1.7
		c0.2-0.1,0.6,0.1,1,0.7c0.5,0.7,0.9,0.9,1.3,0.7c0.4-0.2,0.6-0.8,0.6-1.9c0-0.4,0.1-0.6,0.3-0.8c0.2-0.2,0.4-0.2,0.6-0.1
		c0.4,0.3,1-0.2,1.6-1.5c0.6-1.3,1.5-2.1,2.7-2.3c0.7-0.1,1,0.1,1,0.7c0,0.7-0.3,1.2-0.9,1.4c-0.2,0.1-0.2,0.2,0.1,0.2
		s0.8-0.1,1.6-0.2c1.8-0.2,3.2-1,4.2-2.2c1-1.2,2.6-2.3,4.6-3.4c2-1.1,3.4-1.5,4.3-1.2c0.9,0.2,1.3,0.2,1.3-0.3
		c0-0.5,0.8-1.5,2.4-3.1c1.1-1.1,1.8-1.7,2.2-1.8c0.4-0.1,0.8,0.2,1.2,0.8c0.6,0.7,0.9,0.8,1,0.5c0.1-0.2,0.3-0.9,0.5-1.8
		c0.2-1.7,0.9-2.7,1.9-3c0.9-0.2,1.4,0,1.4,0.6c0,0.7,0.2,0.6,0.6-0.1C631.2,152.7,632,152.9,633.1,154z M611,93.7
		c-1.3-0.6-1.8-1.2-1.6-1.9s1.2-1.4,2.9-2.1c2-0.8,3.1-1.4,3.3-1.8c0.2-0.6,0.8-0.3,1.6,1c0.6,0.9,0.8,1.7,0.8,2.4
		c0,0.9-0.2,1.4-0.7,1.8c-0.5,0.3-0.7,0.9-0.7,1.8c0,0.8-0.5,1.5-1.6,2.2c-0.6,0.4-1,0.6-1.3,0.5c-0.2-0.1-0.5-0.5-0.6-1.2
		C612.7,94.9,612,94.1,611,93.7z M634.5,151c-0.4,0.2-0.7,0.3-0.9,0.4c-0.2,0.1-0.4,0-0.4-0.1c-0.1-0.2-0.1-0.4,0-0.8
		c0.1-0.4,0.2-0.9,0.4-1.6c0.4-1.2,0.9-1.8,1.5-1.8c0.5,0,0.8,0.3,0.9,0.8c0.1,0.5,0,1.1-0.3,1.8C635.4,150.3,635,150.8,634.5,151z
		 M635.2,152.2c0.4-0.4,0.8-0.4,1.2,0c0.4,0.3,0.6,0.8,0.6,1.5c0,0.7-0.4,1-1.1,1c-0.6,0-0.9-0.3-1.1-0.9
		C634.6,153.3,634.8,152.7,635.2,152.2z M639.8,146.3c0.2,0.7-0.2,0.9-1,0.7c-0.9-0.2-1.5-0.7-1.7-1.3c-0.2-0.7,0.2-0.9,1-0.7
		C639.1,145.3,639.6,145.7,639.8,146.3z M640.7,148.7c0.2,0,0.4,0,0.6,0.1c0.1,0.1,0.2,0.2,0.2,0.4s-0.1,0.4-0.2,0.7
		c-0.1,0.3-0.3,0.7-0.6,1.2c-0.7,1.2-1.3,1.7-1.8,1.3c-0.2-0.2-0.4-0.5-0.4-1c0-0.7,0.4-1.1,1.1-1.1c0.8,0,1-0.2,0.7-0.7
		C640.1,149,640.2,148.7,640.7,148.7z"/>
	<path style="fill:#009FE3;" d="M693.1,162.7c0.2,0.6,0.7,1.3,1.4,1.9c0.5,0.5,0.7,0.9,0.6,1.2c-0.1,0.3-0.5,0.8-1.3,1.4
		c-1.2,0.9-2.2,1.1-3,0.6c-0.6-0.2-1.2-0.3-1.9-0.2c-0.7,0.1-1.3,0.4-1.8,0.8c-0.5,0.4-0.6,0.8-0.3,1.2c0.4,0.6,0.1,1.5-0.9,2.7
		c-1,1.2-2,1.9-3.1,2.1c-1.1,0.2-2.3,0.8-3.6,1.8c-1.3,1-2,1.7-1.9,2.2c0.2,1.7-0.9,3.2-3.1,4.3c-1.2,0.6-2.8,1.5-4.8,2.7
		c-1.5,1-2.9,1.5-4,1.5s-1.8,0.3-2.1,0.8c-0.3,0.5-1.5,0.7-3.7,0.7c-2,0-3.6,0.5-5,1.6c-1,0.8-2,1.3-3,1.4c-1,0.1-1.6-0.1-2-0.7
		c-0.3-0.5-0.8-0.3-1.6,0.6c-0.4,0.6-0.8,0.9-1,1c-0.2,0-0.7-0.3-1.3-0.9c-0.9-0.9-1.9-1.1-3-0.6c-1.2,0.4-2.8,0.7-4.6,0.8
		c-2,0.1-3.4,0.4-4.1,0.7c-0.9,0.4-1.7,0.3-2.6-0.4c-1-0.7-1.8-1-2.3-0.7c-0.6,0.2-1.1,0-1.4-0.8c-0.4-0.8-1-1-2-0.7
		c-1,0.3-1.9,0.1-2.7-0.6c-0.8-0.7-1.9-1-3.2-1c-1.4,0-2.4-0.8-3.1-2.4c-0.8-1.7-2-3-3.6-3.7c-1.7-0.8-2.5-1.5-2.4-2.1
		c0-0.3,0.3-0.5,0.9-0.5c0.7,0,0.7-0.2-0.1-0.7c-0.4-0.3-0.7-0.6-0.7-0.9c0-0.3,0.1-0.8,0.5-1.4c0.6-1.1,0.6-1.8,0.1-2.2
		c-0.5-0.4-0.2-1.5,0.7-3.5c1-2,1.5-3.3,1.5-4c0-0.6,0.5-1.9,1.6-4c1-2,1.5-3.5,1.5-4.5c0-0.6,0.2-1.5,0.6-2.6
		c0.4-1.1,0.9-2,1.4-2.8c0.5-0.8,0.9-1.1,1.1-1c0.1,0.1,0.2,0,0.3-0.1c0.1-0.1,0.2-0.3,0.2-0.6c0.1-0.2,0.1-0.5,0.1-0.8
		c0-1.3,0.2-2.1,0.7-2.4c0.6-0.3,0.8-0.9,0.8-1.8c0-1,1.7-3.2,5.1-6.6c3.4-3.3,5.6-5,6.6-5c0.3,0,0.6-0.2,0.8-0.5
		c0.2-0.3,0.3-0.7,0.3-1.1c0-0.6,0.1-1,0.3-1.1c0.2-0.1,0.6-0.1,1.2,0.1c0.6,0.2,1,0.2,1.2,0.1c0.2-0.1,0.1-0.4,0-0.9
		c-0.4-0.8-0.2-1.2,0.4-1.2c0.6,0,0.8-0.5,0.8-1.5c0-0.9,0.5-1.6,1.6-1.9c1-0.3,1.5-1,1.5-1.9c0-1,0.4-1.7,1.3-2
		c0.9-0.4,1.9-1.2,3-2.5c1-1.2,2.2-2,3.6-2.5c1.4-0.5,2.4-0.4,3.1,0.2c0.6,0.5,1.8,0.4,3.6-0.3c1.9-0.7,2.8-1.4,2.8-2
		c0-0.6,0.5-0.7,1.6-0.5c1,0.2,2.2,0.1,3.4-0.6c2.1-1,3.9-1.1,5.5-0.1c0.5,0.2,1.5,0.2,3-0.3c1.7-0.4,3.4-0.3,5,0.4
		c0.5,0.2,0.9,0.4,1.3,0.5c0.4,0.2,0.7,0.2,1,0.2s0.4,0,0.4-0.1c0-0.3,0.4-0.1,1.2,0.6c0.7,0.6,1.4,1,2.1,1.1c0.1,0,0.4,0,0.8,0.1
		c0.4,0.1,0.7,0.1,0.8,0.1c0.6,0.1,1.2,1.4,1.8,3.8c0.6,2.4,0.8,4.8,0.8,7.2c-0.1,2.1-0.2,3.4-0.5,3.9s-1,1-2.2,1.5
		c-1.7,0.7-2.6,1.3-2.6,1.8s-0.4,0.8-1.1,0.8s-1.1,0.5-1.1,1.5c0,0.8-0.7,1.7-2.2,2.6c-1.4,0.9-2.4,1.1-2.7,0.6
		c-0.2-0.4-1.2-1-3-1.9c-1.2-0.6-1.9-1.1-2.2-1.5c-0.3-0.5-0.5-1.3-0.5-2.5c0-1.9,0.8-3.7,2.4-5.4c1.6-1.7,3.1-2.4,4.5-1.9
		c2.1,0.7,3.5,1,4.2,0.9c0.7-0.1,1-0.6,1-1.4c0-1.2-0.6-2.4-1.8-3.5c-1.2-1.2-2.7-1.6-4.5-1.3c-1.7,0.3-2.7,0.2-3-0.2
		c-0.2-0.4-1.1-0.6-2.4-0.5c-1.4,0.1-2.7,0.4-4,1c-1.5,0.7-3.6,2.3-6.4,5c-2.9,2.8-5.5,4.6-7.8,5.5c-2.2,0.9-3.3,1.8-3.3,2.7
		c0,0.7-0.4,1.3-1.2,1.7c-0.9,0.4-1.5,1.2-2,2.5c-0.5,1.2-1.8,3.2-3.8,6.1c-2,2.9-3.4,4.6-4,5c-0.6,0.3-1.1,0.4-1.8,0.2
		c-0.6-0.2-0.9,0.1-0.9,0.7c0,0.7-0.4,1.1-1.1,1.1c-0.8,0-1.2,0.4-1.2,1.1s-0.6,1.8-1.8,3.1c-1.2,1.3-2.2,2.7-2.9,4.2
		c-0.7,1.5-1.4,2.3-2.2,2.6c-1,0.3-1.5,1.1-1.6,2.3c-0.1,1.2,0.3,2.6,1.1,4.2c1,1.8,1.5,3.4,1.5,4.6c0,1.1,0.6,2.2,1.7,3.4
		c1.1,1.2,2.2,1.8,3.2,1.8c1.2,0,2.3,0.5,3.4,1.5c1.1,1,1.9,1.4,2.4,1.1c0.4-0.2,0.6-0.1,0.6,0.3c0,0.7,0.6,1,1.8,0.6
		c0.9-0.2,1.5-0.7,1.8-1.5c0.5-0.9,0.8-1.2,0.9-0.7c0.1,0.7,0.8,1,2.2,0.9c1.4-0.1,2.5-0.4,3.5-1.1c0.9-0.7,1.8-1.1,2.6-1.1
		c0.7,0,1.4-0.4,2.1-1.3c0.6-0.3,1-0.3,1-0.1c0,0.7,0.4,1.4,1.2,2.1c0.4,0.4,0.7,0.6,0.9,0.5c0.2-0.1,0.2-0.5,0.2-1.2
		c0-0.7,0.2-1.1,0.6-1.3s1.4-0.3,2.9-0.3c2.3,0,4.4-0.7,6.2-2.1c1.6-1.2,3.3-2.2,5.2-2.9c1.9-0.7,3.4-0.9,4.6-0.7
		c1.2,0.2,1.8,0,1.8-0.6c0-0.4,1.1-1.4,3.2-2.9c2.1-1.5,3.5-2.2,4.1-2.2c0.2,0,1-0.6,2.2-1.8c0.7-0.7,1.5-1.4,2.5-2
		c1-0.6,1.8-0.9,2.5-1.1C692.4,162.3,692.9,162.4,693.1,162.7z M634.8,184c0,0.5,0.2,0.7,0.7,0.7c0.5,0,0.7-0.2,0.7-0.7
		c0-0.5-0.2-0.7-0.7-0.7C635.1,183.2,634.8,183.5,634.8,184z M699.4,160.2c0.2,0.2,0.2,1,0,2.2c-0.2,1.2-1,1.8-2.1,1.8
		c-1.5,0-2.3-0.4-2.4-1.2c-0.1-0.4,0.2-0.8,0.6-1.1c0.6-0.4,0.8-0.6,0.5-0.6c-0.4,0-0.5-0.3-0.2-0.8c0.2-0.4,0.8-0.7,1.8-0.7
		S699.1,159.9,699.4,160.2z"/>
	<path style="fill:#009FE3;" d="M820.4,23.9c2.6,2.5,3.9,4.3,3.7,5.4c-0.1,0.3-0.3,0.5-0.6,0.5c-0.5,0-0.6,0.6-0.2,1.9
		c0.3,1.3,0.2,1.9-0.4,1.9c-0.5,0-0.7,0.4-0.7,1.2c0,0.9-0.9,2.4-2.8,4.3c-1.8,2-2.8,3.3-2.8,3.9c0,0.6-0.4,0.9-1.1,0.9
		s-1.1,0.3-1.1,0.8c0.1,0.8-0.7,1.9-2.2,3.4c-1.5,1.4-2.9,2.3-4,2.4s-1.7,0.5-1.8,0.8c-0.1,0.4,0.1,1.1,0.6,2.3
		c0.4,0.9,0.2,1.7-0.7,2.5c-3.1,3.1-6.2,6.5-9.2,10.2c-3,3.6-4.9,5.4-5.8,5.5c-0.6,0-1.2,0.4-1.8,1.2c-0.7,0.7-1.4,0.9-2,0.6
		c-0.7-0.4-0.6-1,0.1-1.8c0.7-0.9,1.4-1.3,1.8-1.3c0.6,0,1.1-0.8,1.7-2.4c0.6-1.6,1.3-2.6,2.1-2.9c0.9-0.3,1.1-0.8,0.8-1.5
		c-0.3-0.6,0-1.3,1-1.9c1.1-0.7,2-1.8,2.6-3.3c0.7-1.7,2.3-3.9,4.8-6.7c2.5-2.8,3.9-4.8,4.2-5.9c0.3-1.3,1.3-2.8,3-4.7
		c1.7-1.8,3.1-2.8,4.1-2.9c0.7-0.1,1.2-0.3,1.5-0.6c0.2-0.2,0.3-0.8,0.3-1.6c-0.1-1.4,0.3-2.7,1.2-4c0.7-1,1-2.3,0.8-3.6
		c-0.2-1.4-0.7-2.4-1.7-3.1c-0.7-0.6-2.1,0.2-4,2.1c-1.9,1.9-3.2,2.8-4,2.6c-0.4-0.1-0.7-0.1-0.9,0.1s-0.2,0.6-0.2,1.1
		c0.1,1.1-0.2,1.7-1,1.7c-0.8,0-1.7,0.7-2.7,2c-1,1.3-2.1,2-3.2,2.1c-1.2,0.1-1.8,0.3-1.8,0.6c0,0.4-0.7,1.1-2.1,2.2
		c-1.5,1.2-2.3,2.2-2.6,3c-0.2,0.9-0.6,1.4-0.9,1.4c-0.4,0.1-1.5,1-3.2,3c-1.7,1.9-2.6,3.1-2.5,3.5c0,0.4-0.7,0.8-2,1.2
		c-1.5,0.4-3.3,2.6-5.5,6.5s-3.9,6.2-5,6.8c-1,0.6-1.5,1.1-1.4,1.5c0.2,0.7-0.2,1.8-1.4,3.4c-1.2,1.6-2.2,2.5-3.1,2.8
		c-1.4,0.4-2.2,1-2.4,1.8c-0.9,2.9-2.4,5.5-4.4,7.9c-1.2,1.3-2.1,2.7-2.7,4.2c-0.6,1.5-1.2,2.4-1.8,2.7c-0.7,0.3-1.1,0.8-1.1,1.6
		s-0.3,1.1-1,1.1c-0.6,0-1.1,0.6-1.5,1.8c-0.4,1.7-1.4,3.5-2.9,5.4c-1.5,1.9-2.7,3-3.8,3.3c-1.5,0.4-3,2-4.6,4.9
		c-1.7,3-2.3,4.6-2,5.1c0.4,0.5-0.1,1.2-1.3,2.1c-1.2,0.9-1.8,2-1.7,3.5c0.1,1,0.2,1.6,0.4,1.7c0.2,0.2,0.8,0,1.6-0.4
		c1.2-0.6,3.6-2.8,7-6.8c3.4-3.9,5.7-6.1,7-6.6c1.4-0.4,2.1-1,2.3-1.8c0.2-0.8,0.8-1.1,1.8-1c0.9,0.1,1.4-0.1,1.4-0.7
		c0-0.7,0.1-1.2,0.2-1.6c0.1-0.4,0.1-0.8,0-1.2c-0.1-0.6,0.2-1.3,1.1-2.2c0.8-0.9,1.5-1.3,2-1.2c0.2,0.1,0.5,0,0.8-0.5
		c0.3-0.4,0.6-1,0.7-1.6c0.4-1.5,1.2-2.3,2.3-2.4c1-0.1,1.6-0.4,1.9-0.9c0.3-0.7,0.7-0.9,1.2-0.8c0.5,0.2,0.8,0.6,1.2,1.4
		c0.4,1-0.2,2.4-2,4.3c-1.8,1.9-2.9,2.9-3.3,2.9s-0.9,0.7-1.3,2c-0.4,1.4-1.2,1.9-2.2,1.8c-0.9-0.2-1.4,0.1-1.4,0.7
		c0,0.4-0.3,1.1-1,2.1c-0.6,1-1.3,1.8-2.1,2.5s-1.2,1-1.5,0.8c-0.2,0.1-0.4,0.3-0.5,0.7c0.1,0.6-0.5,1.3-1.7,2.2
		c-1.2,0.9-2.1,1.3-2.8,1.2c-0.1-0.1-0.2,0-0.3,0.3c-0.1,0.2-0.1,0.6-0.1,0.9c0,0.9-0.6,2-1.7,3.3c-1.8,2.2-3.3,3.6-4.3,4.2
		c-1,0.6-2.7,1-4.9,1.2c-2.2,0.2-3.4,0.4-3.7,0.6c-0.3,0.2-0.4,0.8-0.1,1.8c0.5,1.8-0.5,4.5-3,8.1c-2.5,3.6-5.1,6.1-7.7,7.5
		c-2.2,1.2-3.9,2.6-5.4,4.4c-1.6,2.1-2.7,3.1-3.3,3.1c-1.4,0.1-2.1,2.4-2.3,6.9c-0.1,2.2-0.6,3.8-1.3,4.6c-0.7,0.8-1,1.5-1,2.2
		c0,0.6-1,1.7-3,3.1c-2.2,1.5-3.6,2.9-4.4,4c-0.8,1.1-1,2.2-0.7,3.4c0.2,1,0.1,2.5-0.4,4.4c-0.5,2-1.1,3.2-1.8,3.7
		c-0.6,0.7-0.7,1.5-0.4,2.4s1.2,1.8,2.4,2.6c1.2,0.8,2.4,1.2,3.6,1.1c1.4-0.1,3.7-0.9,6.9-2.2s5.7-2.6,7.2-3.8
		c1.7-1.3,3.5-2.2,5.4-2.9c2-0.7,3.3-1.4,3.9-2.3c0.6-0.9,1.1-1.1,1.6-0.5c0.4,0.6,1.4,0.3,2.8-0.9c1.4-1.2,2.1-2.1,2.1-2.8
		c0-0.6,0-1,0-1.3c0-0.3,0.1-0.6,0.1-0.7c0.1-0.2,0.2-0.3,0.3-0.3c0.2,0,0.3,0.1,0.5,0.2c0.2,0.1,0.4,0.1,0.5,0c0.1-0.2,0.1-0.5,0-1
		c-0.2-0.9,0.1-1.9,0.9-3.1c0.8-1.2,1.6-1.8,2.4-1.9c0.6,0,1.3-0.5,1.9-1.6c0.7-1,2.1-1.9,4.4-2.5c2.2-0.6,3.7-0.6,4.4,0.1
		c0.7,0.7,0.9,1.6,0.6,2.5s-0.9,1.7-2,2.3c-1.4,0.8-2,1.4-2,1.8c0,0.5-0.4,0.7-1.2,0.7c-0.7,0-1.4,0.5-2.1,1.5
		c-0.3,0.5-0.6,0.8-0.7,0.9c-0.2,0.1-0.4,0.1-0.6,0c-0.2-0.1-0.5-0.4-0.8-0.8c-1.4-1.6-2.1-1.6-1.9-0.1c0,0.8-0.3,1.2-1,1.2
		c-0.7,0-0.8,0.7-0.5,2c0.2,0.8,0.3,1.3,0.2,1.5c-0.1,0.2-0.5,0.2-1,0c-0.6-0.2-0.9-0.2-0.9,0.1c0,0.1,0,0.1,0.1,0.2
		c0.4,0.6-1,2.1-4.3,4.7c-0.6,0.5-0.8,0.7-0.6,0.7c0.6-0.2,0.9,0.1,0.9,0.8c0.1,1.5-0.5,2.9-1.8,4.2c-0.2,0.2-0.5,0.5-0.7,0.6
		c-1,0.7-1.9,0.9-2.8,0.6c-0.8-0.3-1.3,0.1-1.5,1.1c-0.2,1-1,1.6-2.4,1.6c-1.4,0-3,0.7-4.9,2.1c-2,1.5-3.8,2.5-5.4,2.9
		c-1.8,0.4-3,0.9-3.5,1.5c-0.7,0.6-2.2,0.6-4.4,0.2c-2.3-0.4-3.7-0.5-4.1-0.3c-0.4,0.3-1.6-0.1-3.4-1.2c-1.2-0.7-2.1-1.1-2.7-1.2
		c-0.6-0.1-1.4,0-2.4,0.4c-2.5,0.9-4.2,0.2-5.2-2.2c-0.5-1.2-1.1-2.2-1.8-2.9c-0.6-0.6-0.8-1-0.8-1.4s0.2-1,0.7-1.8
		c1-1.8,1.5-4.5,1.4-8.2c0-0.8,0.4-1.6,1.1-2.5c0.6-0.7,1.3-2.1,2-4.2c0.7-1.9,1.4-3.3,2-4.2c0.7-0.9,0.8-1.9,0.2-2.9
		c-0.7-1.1-1-2-0.8-2.8c0.1-0.8,0.7-1.8,1.8-3.2c2-2.6,3.3-4.3,3.7-5.1c0.4-0.8,0.5-1.6,0.3-2.3c-0.3-1,1-2.9,4-5.6s4.3-4.7,4.1-5.9
		c-0.2-1.2,0.1-1.9,0.8-2.3c0.7-0.3,1.1-0.8,1.1-1.5c0-0.6,0.6-1.1,1.8-1.6c1.3-0.4,2.4-1.7,3.3-4.1c0.9-2.4,1.6-3.6,1.9-3.6
		c0.6-0.1,1.4-0.7,2.3-1.8c0.9-1.1,1.4-2.2,1.6-3.2c0.2-1.4,0.8-2.3,1.8-3c1-0.6,1.4-1.5,1.3-2.6c-0.1-1,0.2-1.8,0.7-2.5
		c0.6-0.7,1.2-1.1,2-1.2c0.6-0.1,1.4-0.8,2.3-2.4c0.9-1.5,1.3-2.7,1.2-3.6c0-0.6,0.4-1,1.3-1.1c0.9-0.1,1.2-0.7,0.9-1.9
		c-0.2-0.9,0.1-2.3,0.9-4c0.9-1.8,1.7-2.7,2.4-2.7c0.5,0,1.5-0.7,3.1-2c1.7-1.4,2.7-2.1,3.1-2.1c0.6,0,0.6-0.8,0.1-2.3
		c-0.4-1-0.5-1.6-0.4-1.9c0.1-0.3,0.5-0.6,1.3-0.8c1.2-0.4,2-1,2.2-2c0.2-1,0.6-1.6,1-1.6s1.3-1.1,2.7-3.3c1-1.6,1.6-2.7,1.8-3.3
		c0.2-0.6,0.3-1.3,0.2-2.1c0-0.6,0.4-0.6,1.2,0c0.5,0.4,0.8,0.5,1,0.5c0.2,0,0.2-0.3,0.1-0.8c0-0.8,0.5-1.4,1.4-1.7
		c1-0.3,1.5-1.4,1.3-3.4c-0.1-1.2,0-2.1,0.3-2.6s0.8-1.1,1.8-1.7c1.4-1,2.4-1.4,3-1.1c0.2,0.1,0.4,0,0.6-0.2
		c0.2-0.3,0.4-0.6,0.5-1.1c0.1-0.6,0.3-1,0.6-1.2c0.3-0.2,0.8-0.2,1.6,0c0.7,0.1,1.2,0.1,1.5,0c0.3-0.1,0.4-0.4,0.4-0.8
		c0-0.7,0.5-1.2,1.4-1.3c1-0.1,1.5-0.6,1.5-1.5c-0.1-0.9,0.2-1.7,0.9-2.4c0.8-0.8,1.1-1.6,1-2.5c-0.1-0.9,0.1-1.9,0.6-3.1
		c0.5-1.2,1-2,1.6-2.4c0.5-0.4,1.6-0.6,3.2-0.7c1-0.1,1.8-0.3,2.4-0.7c0.6-0.4,1.2-1.3,2-2.6c1.2-2.2,2-3.2,2.3-3.2
		c0.4,0,1.2-0.7,2.4-2c1.2-1.4,2.5-2,3.8-1.8c0.9,0.1,1.4,0,1.6-0.2c0.2-0.2,0.3-0.7,0.2-1.7c-0.1-0.8,0.1-1.5,0.5-2.1
		c0.4-0.6,1.2-1.4,2.4-2.2c2-1.4,3.1-2,3.3-1.8c0.2,0.2,0.8-0.2,1.9-1.3c1-1,1.7-1.4,2.2-1.4c0.6,0.1,1.3-0.2,2-1.1
		c0.8-0.9,2-1.4,3.5-1.4c1.5,0,2.3-0.2,2.3-0.6c0-0.4,1.6-0.5,4.7-0.4c2.2,0.1,3.6,0.3,4.5,0.6C817.6,21.4,818.8,22.3,820.4,23.9z
		 M767.2,146.6c1-0.6,2.1-0.9,3.3-0.9s2,0.3,2.3,1c0.2,0.4,0.1,1-0.5,1.6c-0.6,0.6-1.2,1-2,1.1c-0.4,0-0.9,0.3-1.5,0.9
		c-0.6,0.6-0.9,0.6-1,0.2c-0.1-0.2-0.2-0.1-0.3,0.3c-0.1,0.2-0.2,0.6-0.3,1c-0.2,1.3-0.7,1.9-1.3,1.9c-0.6,0-1.2,0.5-1.8,1.6
		c-0.6,1-1.5,1.4-2.6,1.2c-1-0.2-1.7,0.2-1.8,1.2c-0.1,0.4-0.3,0.7-0.5,0.9c-0.2,0.2-0.4,0.2-0.6,0.2c-0.6-0.2-1.2,0.1-1.9,0.9
		c-0.6,0.7-1,1-1.2,0.9c-0.2-0.1-0.7-0.5-1.5-1.3c-0.5-0.6-0.9-1-1.1-1.4c-0.2-0.4-0.4-0.7-0.4-0.9c0-0.2,0.1-0.4,0.3-0.5
		c0.2-0.1,0.6-0.2,1.1-0.2c1-0.1,1.6-0.4,1.8-0.8c0.2-0.4,1-0.8,2.4-1.3c1.3-0.4,2.5-1.2,3.5-2.4
		C763.7,149.4,765.6,147.6,767.2,146.6z M771.2,88.5c0.4,0,0.8,0.1,1.3,0.3c0.5,0.2,0.9,0.4,1.2,0.7c0.3,0.3,0.4,0.5,0.2,0.6
		c-0.2,0.4-0.9,0.2-1.9-0.6C771.3,89,771,88.6,771.2,88.5z M777.1,85.5c1,0.3,1,0.8,0,1.4c-0.7,0.4-1.7,0.6-2.9,0.6
		c-0.9,0.1-1.5,0-1.6-0.1c-0.2-0.2,0-0.5,0.3-1C773.8,85.2,775.2,84.9,777.1,85.5z M778.1,82.4c0.5,0.2,0.6,0.6,0.3,1.2
		c-0.2,0.4-0.6,0.5-1.1,0.3c-0.5-0.2-0.6-0.6-0.4-1.1C777.2,82.2,777.6,82.1,778.1,82.4z M782.7,76.6c1-0.1,1.6-0.1,1.7,0.2
		c0.2,0.2,0.2,1,0,2.4c-0.1,1.4-0.5,2.6-1.2,3.5c-0.7,0.9-1.5,1.4-2.4,1.5c-0.8,0.1-1.3-0.7-1.6-2.3c-0.3-1.6-0.1-2.8,0.5-3.6
		C780.4,77.3,781.4,76.7,782.7,76.6z"/>
	<path style="fill:#009FE3;" d="M814.2,132.7c-0.4,0-0.6,0.4-0.5,1.2c0.1,0.9-0.3,1.6-1.3,2.1c-1,0.6-1.7,1.1-2,1.5
		c-0.3,0.4-0.7,0.5-1.3,0.2c-0.6-0.4-1.3-0.4-2,0c-0.7,0.4-1.2,1-1.4,1.8c-0.3,1-0.8,1.5-1.4,1.5c-0.4,0-0.6-0.3-0.6-0.9
		c0-0.4-0.3-0.1-0.8,0.7c-0.3,0.5-0.6,1.1-0.9,1.8c-0.7,1.4-1.2,2.3-1.7,2.7c-0.5,0.4-1.1,0.6-2,0.6c-1.4,0-2.1,0.2-2.1,0.6
		c0,0.5-0.6,1.2-1.8,2.2s-2.2,1.4-2.9,1.4c-0.9,0-1.4,0.5-1.8,1.5c-0.3,1-1.1,1.6-2.5,1.9c-1.2,0.3-2.3,0.7-3.3,1.2
		c-0.9,0.4-1.7,0.6-2.5,0.6c-0.7,0-2.4,0.5-5.2,1.4c-2.8,0.9-4.4,1.3-4.9,1.1c-0.6-0.2-0.9,0-0.9,0.5c0,0.5-1,1-3,1.6
		c-1.7,0.4-3.2,1.4-4.7,2.9c-1.4,1.5-2.3,3-2.6,4.6c-0.4,1.7-0.8,2.9-1.1,3.7c-0.4,1.1-0.3,2,0.4,2.6c0.7,0.6,1.1,1.6,1.1,3
		c0,1.4,0.3,2.3,0.8,2.6c0.5,0.3,0.6,0.7,0.4,1.1c-0.1,0.2,0,0.5,0.5,0.9c0.4,0.4,1,0.8,1.7,1.1c1.2,0.6,2,0.8,2.6,0.9
		c0.6,0,1.3-0.2,2.2-0.7c2.3-1.1,5.3-0.9,8.8,0.6c0.5,0.2,0.8,0.3,1,0.1c0.2-0.2,0.3-0.5,0.3-1.1c0-1.9,0.8-2.5,2.4-1.7
		c0.9,0.5,1.5,0.3,2-0.6c0.4-0.9,1.1-1.2,1.9-0.8c0.7,0.3,1.4,0.1,2-0.6c0.6-0.7,1.3-1,2-0.7c0.9,0.3,1.9,0.3,3-0.1
		c1.2-0.4,1.9-1,2.1-1.8c0.3-1,0.9-1.4,1.7-1.4c0.8,0.1,1.6,0.6,2.4,1.7c0.9,1.2,1.6,1.3,1.9,0.3c0.1-0.5,0.3-1.4,0.5-2.8
		c0.1-0.7,0.2-1.2,0.5-1.5c0.3-0.2,0.8-0.3,1.4-0.2c1.2,0.2,1.9-0.1,2.2-0.9c0.4-0.8,1.4-1.6,3-2.3c3.2-1.4,5.3-1.5,6.3-0.6
		c0.7,0.8,0.1,2-1.8,3.5c-1.6,1.3-2.7,1.9-3.3,1.9c-0.4,0-0.8,0.5-1.2,1.4c-0.4,1.4-2.9,2.9-7.3,4.5c-4.4,1.6-7,1.8-7.7,0.8
		c-0.4-0.6-0.9-0.2-1.4,1.2c-0.2,0.6-0.5,1.1-0.8,1.5c-0.3,0.4-0.6,0.5-0.8,0.5c-0.7-0.1-1.8,0.3-3.1,1.2c-1.4,0.9-3.2,1.4-5.4,1.4
		s-3.3,0.3-3.1,0.8c0,0.2-0.2,0.3-0.5,0.5c-0.3,0.1-0.8,0.2-1.4,0.3c-0.6,0.1-1.4,0.1-2.2,0.1c-2.6,0-4.2,0.2-4.6,0.6
		c-0.4,0.4-1.1,0.6-2.1,0.8c-1.1,0.2-2.2,0.5-3.1,0.8c-1,0.3-1.8,0.3-2.4-0.1c-0.8-0.4-2.2-0.6-4.2-0.5c-1.3,0.1-2.3,0-2.9-0.3
		c-0.6-0.2-1.3-0.8-2-1.6c-0.4-0.4-1-1.1-1.9-2.1c-0.9-1-1.4-1.5-1.6-1.7c-1.1-1.2-1.7-2.1-1.7-2.6c0-0.5-0.3-0.7-0.8-0.7
		c-0.5,0-0.9-0.4-1.2-1.3c-0.4-0.9-0.9-1.8-1.7-2.7c-0.5-0.6-0.7-1.2-0.7-1.8c0-0.6,0.3-1.7,0.9-3.4c0.8-2.6,1.2-4.4,1.2-5.2
		c0-0.9,0.7-2.1,2-3.8c1.4-1.7,2.1-3.7,2.3-6c0.2-2.4,0.8-4,1.8-4.8c1-0.8,2.1-2.3,3.2-4.5c1-2.2,2.4-3.7,4-4.4c1.7-0.7,2.6-2,3-3.9
		c0.4-1.8,0.7-3,0.9-3.4c0.5-0.7,1.5-1.6,2.9-2.5c1.4-1,2.3-1.3,2.6-1.2c0.2,0.1,0.9-0.1,2.1-0.7c1.1-0.6,2.2-1.2,3.2-1.9
		c1-0.7,1.4-1.2,1.2-1.3c-0.4-0.4-0.2-1.3,0.8-2.7c1-1.4,1.8-2.1,2.4-2.1c1,0,2.4-0.7,4-2.2c1.4-1.2,3.5-2.4,6.3-3.6
		c2.8-1.2,4.8-1.7,6-1.6c0.7,0.1,2.1-0.2,4-0.9c1.9-0.7,3.5-1.4,4.8-2.1c0.9-0.5,1.5-0.7,2-0.7c0.5-0.1,1.2,0.3,2,1.1
		c0.9,0.8,1.3,1.4,1.3,1.9c0,0.5,0.2,0.7,0.7,0.7c0.6,0,0.7-0.2,0.4-0.7c-0.2-0.3,0.2-0.5,1-0.6c0.4-0.1,0.8-0.1,1.4-0.1
		c2,0,3.7,0.6,5.1,1.8c1.5,1.3,2.5,1.9,2.9,1.9c0.4,0,0.6,1.3,0.5,3.8c-0.1,2.6-0.6,4.3-1.7,5.2c-1.2,0.9-2.1,2.2-2.7,3.7
		C815.2,131.8,814.7,132.7,814.2,132.7z M811.7,125.7c0.4-0.4,0.7-0.7,0.9-1.1s0.2-0.6,0-0.8c-0.2-0.2-0.5-0.3-0.9-0.3
		c-0.7,0-1.6-0.8-2.9-2.3c-1.2-1.5-1.9-2.1-2.3-1.8s-1.7,0.6-4.1,0.7c-2.3,0.1-3.7,0.5-4.2,1.3c-0.5,0.9-2.3,2.5-5.5,4.8
		c-3.2,2.4-5.1,3.6-5.7,3.6c-0.6,0-1.2,0.6-1.7,1.8c-0.4,1.2-1.5,2.1-3.1,2.9c-1.4,0.6-2.6,1.3-3.6,2s-1.6,1.3-1.6,1.7
		s-0.8,1.6-2.3,3.7c-1.5,2-2.2,3.4-2.2,4.2c0,0.7-0.4,1.6-1.3,2.6c-0.6,0.7-0.9,1.2-0.8,1.4c0.1,0.3,0.6,0.8,1.5,1.7
		c1.4,1.2,2.1,1.6,2.2,1.2c0.1-0.4,0.8-0.7,1.9-0.9c1.2-0.2,2.1-0.6,2.6-1.1c0.6-0.6,1.2-0.9,1.8-0.9c0.7,0,1.7-0.4,3-1.1
		c1-0.6,1.5-1,1.5-1.2c-0.4,0-0.3-0.4,0.4-1.2c0.7-0.8,1.4-1.1,2.3-0.8c0.9,0.2,1.4,0.1,1.7-0.6c0.2-0.5,1-1.1,2.5-1.9
		c1.4-0.7,2.7-1.6,4.2-2.7c1.6-1.2,2.9-2.1,3.8-2.7c1.3-0.9,2.7-2.1,4.3-3.8c1.6-1.7,2.9-2.5,4-2.4c0.6,0.1,1,0,1.2-0.4
		c0.3-0.4,0.5-1,0.7-2C810.6,127.5,811.1,126.3,811.7,125.7z M836.1,151.4c2.1-0.5,3.1-0.2,3.1,0.8c0.1,1-0.8,2-2.7,2.8
		c-0.3,0.1-0.6,0.2-1,0.4c-2.3,0.7-3.8,1.5-4.4,2.4c-0.7,0.9-1.4,1.4-2,1.4c-0.7,0-1.1,0.3-1.1,1c0,0.6-1.2,1.5-3.7,2.6
		c-2.5,1.2-3.9,2-4.2,2.5c-0.3,0.5-1.1,0.7-2.5,0.7c-0.9,0-1.4-0.1-1.3-0.3c0-0.1,0.1-0.1,0.2-0.2c0.7-0.2,0.9-0.6,0.6-1
		c-0.2-0.4,0.3-0.9,1.6-1.6c1.2-0.7,1.8-1.3,1.8-1.9c0-0.7,0.4-0.9,1.1-0.6c0.8,0.4,1.2,0.2,1.2-0.4c0-0.6,0.4-0.7,1.1-0.4
		c0.4,0.1,0.6,0.1,0.7,0c0.1-0.1,0.1-0.3,0-0.7s0-0.7,0.4-1.1c0.4-0.3,1-0.7,1.9-1c1.7-0.6,2.6-1.1,2.6-1.6c0-0.4,0.5-0.5,1.6-0.3
		c0.7,0.2,1.6,0,2.4-0.6c0.9-0.6,1.3-1.3,1.3-2C834.8,151.9,835.2,151.6,836.1,151.4z"/>
	<path style="fill:#009FE3;" d="M894.4,171.5c0.4-0.2,0.8-0.1,1,0.4c0.2,0.4-0.1,1-0.9,1.8s-1.7,1.1-2.4,1.1c-0.7,0-2,0.6-4,1.8
		c-1.2,0.7-1.9,1.3-2.1,1.7s-0.2,0.9,0.1,1.5c0.6,1.2,0.2,2.3-1.1,3.5c-1.4,1.1-3,1.7-5,1.7c-1.3,0-2.2,0.1-2.7,0.4
		c-0.5,0.3-1,0.9-1.5,1.8c-0.7,1.4-1.5,2.2-2.4,2.6c-0.9,0.4-1.6,0.2-2-0.7c-0.4-0.8-1-1-1.6-0.5c-0.7,0.6-1.9,1-3.7,1.3
		c-2,0.4-3.2,0.9-3.8,1.7c-0.7,0.9-1.8,1.6-3.2,2.2c-1.4,0.6-2.4,0.8-3.1,0.6c-0.8-0.3-1.8-0.3-3,0c-1.2,0.3-1.7,1-1.7,2.1
		c0.1,1.2-0.3,1.8-1.4,2c-1.1,0.2-3.4,1.2-7,3c-2.5,1.2-4.1,1.9-5,2.1c-0.9,0.2-1.8,0.1-2.8-0.3c-1.1-0.4-2.3-0.6-3.6-0.4
		c-1.3,0.2-2.1,0.6-2.6,1.3c-0.2,0.4-1.8,0.4-4.7-0.2c-2.9-0.6-4.3-1.1-4.3-1.6c0-0.4-0.6-0.6-1.9-0.6c-1.2,0-1.8-0.2-1.8-0.7
		c0-0.5-0.3-0.7-1-0.6c-0.2,0-0.4-0.1-0.5-0.3c-0.2-0.2-0.3-0.6-0.3-1c-0.1-0.5-0.1-1.1-0.1-1.8c0-2.2-0.4-3.6-1.3-4.2
		c-0.8-0.6-1.1-1.5-1-2.6c0.2-1.1,0.8-2.3,1.8-3.4c1-1,1.4-1.8,1.1-2.6c-0.2-0.4-0.1-0.6,0.3-0.6c0.2-0.1,0.7,0,1.3,0.2
		c1.3,0.3,2.3,0.2,3-0.5c0.7-0.6,1.9-0.9,3.4-0.9c1.5,0,2.4-0.4,2.7-1.1c0.2-0.7,1.3-1.1,3-1.1s2.7,0.4,2.7,1.2
		c0,0.8,0.5,1.2,1.6,1.2c1,0,1.6,0.4,1.9,1.1c0.1,0.4,0.4,0.8,0.8,1s0.8,0.3,1.2,0.1c0.4-0.1,0.6-0.4,0.6-0.7c0-0.8,0.6-1,1.9-0.6
		c1,0.2,1.7,0.7,2,1.4c0.4,0.6,0.8,1,1.2,1.3c0.5,0.2,0.8,0.3,1.2,0.1s0.5-0.6,0.5-1.2c0-0.8,1.1-2.1,3.2-3.9
		c2.1-1.8,3.6-2.6,4.3-2.4c1.1,0.2,2.7-1,4.8-3.6c2.1-2.6,2.8-4.3,2.1-5.1c-0.4-0.4-0.8-1.7-1.1-3.8c-0.2-1.4-0.3-2.4-0.1-2.9
		c0.2-0.5,0.7-1.1,1.6-1.8c0.9-0.7,1.3-1.1,1.4-1.4c0.1-0.2-0.1-0.6-0.7-1.1c-0.7-0.6-1-2.4-0.7-5.3c0.1-0.6,0.1-1.3,0.2-2.1
		c0.1-0.8,0.1-1.4,0.2-1.9c0.1-0.5,0.1-0.8,0.1-0.9c0-1.5,0-3-0.1-4.2c-0.1-2.5,0.2-4.3,1.1-5.6c0.9-1.3,1.2-2.6,0.9-3.8
		c-0.2-0.8-0.5-1.3-0.9-1.5s-1.3-0.2-2.5-0.2c-1.9,0.1-2.8,0.5-2.6,1.1c0.2,0.6,0.1,1.1-0.5,1.4c-0.6,0.4-0.7,0.8-0.4,1.2
		c0.3,0.5,0,1.5-1,3c-1,1.5-1.7,2.3-2.4,2.3c-0.7,0-1.6,0.7-2.9,2c-0.8,0.8-1.6,1.3-2.3,1.6c-0.7,0.3-1.8,0.4-3.3,0.4
		c-1.8,0-2.9,0.2-3.2,0.7c-0.3,0.5,0.1,1.3,1.1,2.6c0.4,0.6,0.2,1.1-0.7,1.4c-0.9,0.3-2.4,1.4-4.4,3.4c-2.1,2-3.5,3-4.3,3
		c-0.9,0-1.3,0.4-1.3,1.2c0,0.7-0.7,1.7-2.1,3c-1.4,1.2-2.5,1.8-3.4,1.8c-1.1,0-1.7-0.5-1.7-1.6c0-1,0.6-1.9,1.7-2.7
		c2.6-1.7,3.9-3.1,3.9-4.4c0-0.7,1.5-2.6,4.6-5.6c3-3.1,4.9-4.6,5.6-4.6c0.6,0,1.3-0.5,2.2-1.6c0.9-1,2-1.8,3.5-2.3
		c1.5-0.6,2.7-1.5,3.4-2.6c0.8-1.2,1.7-1.8,2.7-1.8c1,0,1.6-0.5,1.6-1.6c0-1,0.2-1.5,0.7-1.5c0.5,0,0.7-0.3,0.7-1
		c0-0.7,0.6-1.4,1.9-2c1.2-0.7,1.8-1.3,1.8-1.8c0-0.6,0.5-1.4,1.5-2.4c1-1,2-1.8,3-2.4c1.4-0.7,2.5-2.1,3.3-4c0.9-2,1.8-3,2.5-3
		c0.7,0,1-0.3,1-0.9c0-0.6,1.1-2,3.4-4.2c1.4-1.4,2.5-2.2,3.3-2.7c0.8-0.4,1.8-0.7,3-0.7c2-0.1,3.2-0.4,3.6-0.7
		c0.7-0.7,2.5-0.5,5.3,0.6c1.2,0.4,1.9,0.9,2.2,1.3c0.3,0.4,0.4,1.2,0.4,2.4c0,1.1-0.1,1.9-0.4,2.4c-0.3,0.5-0.8,1-1.6,1.4
		c-1.4,0.7-2.6,1.6-3.6,2.7c-1,1-1.9,1.6-2.7,1.6s-1.8,0.6-3.2,1.9c-1.4,1.3-2.2,2.4-2.5,3.4c-0.4,1-1,1.6-1.9,1.9
		c-1,0.3-1.3,0.8-0.6,1.5c0.6,0.6,1.2,2.9,1.9,6.9c0.7,4,1,6.9,0.9,8.9c-0.1,2,0.1,3.2,0.7,3.7c0.7,0.6,1,1.5,0.9,2.6
		c-0.1,1.1-0.6,2.2-1.4,3.1c-0.9,1-1.4,2.1-1.4,3.1c0,1,0.4,1.8,1.2,2.3c0.6,0.3,0.8,0.6,0.9,0.9c0,0.3-0.2,0.9-0.6,1.8
		c-0.7,1.4-0.8,2.4-0.2,3c0.6,0.7,0.3,1.6-1,2.6c-1.3,1-1.9,1.7-1.8,2.1c0.2,0.7,0,1.7-0.6,3c-0.6,1.2-1.1,1.8-1.6,1.8
		c-0.6,0-1.2,0.6-1.8,1.7c-0.6,1.1-0.4,2.1,0.5,3c0.8,0.9,1.6,1.3,2.4,1c0.7-0.2,1.9,0,3.5,0.8l2.4,1.1l-1.8-1.5
		c-1.1-1-1.7-1.6-1.7-1.8c0-0.3,1.4-0.7,4.2-1.2c2.8-0.5,4.4-0.7,4.8-0.4c0.5,0.3,1-0.2,1.6-1.5c0.5-1.4,1.8-2.4,3.8-3.2
		c2-0.7,3.1-1.5,3.3-2.4c0.2-0.6,0.4-0.7,0.6-0.2c0.1,0.1,0.2,0.3,0.3,0.6c0.1,0.4,0.3,0.8,0.6,1.1
		C894,171.6,894.2,171.6,894.4,171.5z M837.9,193c1-1.7,1.3-3,0.7-4.1c-0.9-1.7-2.1-1.8-3.8-0.1c-0.7,0.7-1.5,1-2.4,1.1
		c-0.9,0-3.1-0.3-6.6-1c-0.6-0.1-1-0.3-1.4-0.6c-0.4-0.3-0.6-0.7-0.6-1c0-0.7-0.2-1.1-0.5-1c-0.6,0-1,0.7-1.4,2
		c-0.4,1.4-0.8,2.2-1.2,2.5c-0.3,0.1-0.6,0.7-0.8,1.8c-0.1,0.6,0.1,1,0.6,1.2c0.6,0.2,2.1,0.3,4.7,0.5c3.1,0.2,5.9,0.4,8.4,0.7
		c1.2,0.2,2,0.2,2.4-0.1C836.7,194.8,837.3,194.1,837.9,193z M906.1,156c0.4,0.1,0.6,0.4,0.7,0.9c0.1,0.6,0.1,1.2-0.1,1.9
		c-0.2,0.7-0.3,1.4-0.4,1.8c-0.1,0.5-0.2,0.9-0.3,1.1c-0.4,1.2-1.2,1.3-2.4,0.1c-0.4-0.4-0.6-0.3-0.6,0.4c0,0.3,0.1,1,0.2,1.9
		c0.2,1.8,0.2,2.8-0.1,2.8c-0.2,0-0.5-0.2-0.9-0.5c-0.6-0.4-1.1-0.5-1.5-0.4c-0.4,0.1-0.9,0.5-1.6,1.2c-0.5,0.5-1,0.8-1.5,1
		c-0.5,0.2-0.9,0.2-1.2,0s-0.5-0.6-0.5-1.1s0.5-0.7,1.4-0.5c0.6,0.1,0.9,0.1,1.1-0.1c0.2-0.2,0.2-0.8,0.2-1.6
		c-0.1-1.5,0-2.2,0.5-2.2c0.4,0,1-0.9,1.8-2.7c0.4-1.5,0.7-2.4,1.1-2.7c0.4-0.4,1.1-0.7,2-1.1C904.8,156.1,905.5,155.9,906.1,156z"
		/>
</g>
</svg>
