<?xml version="1.0" encoding="utf-8"?>
<!-- Generator: Adobe Illustrator 30.4.0, SVG Export Plug-In . SVG Version: 9.03 Build 0)  -->
<svg version="1.0" id="Layer_1" xmlns="http://www.w3.org/2000/svg" xmlns:xlink="http://www.w3.org/1999/xlink" x="0px" y="0px"
	 viewBox="0 0 240 240" style="enable-background:new 0 0 240 240;" xml:space="preserve">
<path style="fill:#000C0F;" d="M119.9-0.2c-25.4,0-46.1,21.4-46.1,47.9c0,11.7,4.1,22.5,10.8,30.8l17.1,18.2l10.9-27.2l-3.4-3.5
	l-4.6-4.8c-2.8-3.8-4.4-8.5-4.4-13.5c0-11.8,8.8-21.4,19.6-21.4s19.6,9.6,19.6,21.4c0,4.9-1.5,9.7-4.4,13.5l-8,8.3l10.9,27.2
	L155,78.5c6.8-8.3,10.8-19.1,10.8-30.8C166,21.2,145.3-0.2,119.9-0.2z"/>
<polygon style="fill:#E5007E;" points="119.9,115.1 133,102 119.9,69.2 106.8,102 "/>
<polygon style="fill:#050C0F;" points="137.7,132.9 170.5,119.8 137.7,106.7 124.6,119.8 "/>
<path style="fill:#000C0F;" d="M239.9,119.8c0,25.4-21.4,46.1-47.9,46.1c-11.7,0-22.5-4.1-30.8-10.8L143,138l27.2-10.9l3.5,3.4
	l4.8,4.6c3.8,2.8,8.5,4.4,13.5,4.4c11.8,0,21.4-8.8,21.4-19.6s-9.6-19.6-21.4-19.6c-4.9,0-9.7,1.5-13.5,4.4l-8.3,8L143,101.8
	l18.2-17.1c8.3-6.8,19.1-10.8,30.8-10.8C218.5,73.7,239.9,94.4,239.9,119.8z"/>
<polygon style="fill:#000C0F;" points="119.9,124.5 106.8,137.6 106.8,239.8 133,239.8 133,137.6 "/>
<polygon style="fill:#000C0F;" points="139.6,144.2 139.6,239.6 165.9,239.6 165.9,170.5 "/>
<polygon style="fill:#050C0F;" points="102.1,106.7 69.3,119.8 102.1,132.9 115.2,119.8 "/>
<path style="fill:#000C0F;" d="M-0.1,119.8c0,25.4,21.4,46.1,47.9,46.1c11.7,0,22.5-4.1,30.8-10.8L96.8,138l-27.2-10.9l-3.5,3.4
	l-4.8,4.6c-3.8,2.8-8.5,4.4-13.5,4.4c-11.8,0-21.4-8.8-21.4-19.6s9.6-19.6,21.4-19.6c4.9,0,9.7,1.5,13.5,4.4l8.3,8l27.2-10.9
	L78.6,84.6c-8.3-6.8-19.1-10.9-30.8-10.9C21.3,73.7-0.1,94.4-0.1,119.8z"/>
<polygon style="fill:#000C0F;" points="100.2,144.2 100.2,239.6 73.9,239.6 73.9,170.5 "/>
</svg>
