<?xml version="1.0" encoding="utf-8"?>
<!-- Generator: Adobe Illustrator 30.4.0, SVG Export Plug-In . SVG Version: 9.03 Build 0)  -->
<svg version="1.0" id="Layer_1" xmlns="http://www.w3.org/2000/svg" xmlns:xlink="http://www.w3.org/1999/xlink" x="0px" y="0px"
	 viewBox="0 0 1000 190.2" style="enable-background:new 0 0 1000 190.2;" xml:space="preserve">
<g>
	<path style="fill:#F5C500;" d="M80.7,133.5c-1,0.6-2.1,1.6-2.3,2.4c-0.2,0.8-1.1,1.4-2,1.4c-0.9,0-2.7,0.7-4.1,1.6
		s-2.9,1.4-3.3,1.1c-0.4-0.3-1.2,0.4-1.7,1.5c-0.5,1.1-1.7,2.1-2.6,2.4c-1,0.2-1.8,0.9-1.8,1.4c0,1.3-1.6,1.8-3.2,1
		c-1-0.5-1.4-0.2-1.8,1c-0.6,1.9-3.1,4.3-4.4,4.3c-0.5,0-2,1-3.5,2.2c-1.4,1.2-3,2.3-3.4,2.3c-0.4,0-2,0.9-3.5,1.9
		c-1.5,1-3.7,1.9-4.8,1.9c-1.7,0-6.6,1.3-7.8,2c-0.2,0.1,0.2,0.7,0.7,1.4c0.9,1.1,0.7,1.2-2,0.7c-1.6-0.3-3.4-0.8-3.8-1.2
		c-0.6-0.5-1,0-1.4,1.3c-0.3,1.1-0.9,2.4-1.5,3c-1,1-5.7,2.3-6.9,1.9c-0.4-0.1-2.1-0.3-3.6-0.4c-2.4-0.2-3.6-0.9-6.7-4.1
		c-2.1-2.1-3.6-4.2-3.3-4.6s-0.2-1.1-1-1.5c-1.4-0.7-1.4-0.9-0.2-5.4c0.7-2.6,1.8-5,2.5-5.4c0.7-0.4,1.3-1.5,1.3-2.5
		c0-1,0.4-2,0.9-2.2c0.7-0.3,0.7-0.6-0.1-1.1c-0.9-0.7-0.9-1.1,0.4-3.5c0.8-1.5,1.8-2.7,2.1-2.7c0.4,0,0.5-0.7,0.3-1.6
		c-0.7-2.8,0.8-5.1,4.7-7.1c3.5-1.8,3.8-2.1,3.8-4.8c0-4,2.3-8.5,6-11.7c1.7-1.5,3.3-3.5,3.5-4.5c0.2-1,0.7-2.5,1-3.3
		c0.4-0.8,0.9-2.1,1.1-2.8c0.2-0.7,1.4-1.5,2.5-1.8c2.3-0.5,4.9-2.5,4.4-3.2c-0.2-0.3,0.2-1.1,0.7-1.8c0.7-1,2.3-1.4,6.2-1.7
		c2.8-0.2,5.3-0.7,5.4-1.1c0.4-1.1,2.1-1,3,0.2c0.8,1.1-0.8,5.9-2,5.9c-0.4,0-0.4,0.9-0.1,2.2c0.7,2.4,0.2,5.3-0.8,5.3
		c-0.3,0-1.2,1-1.9,2.2c-0.7,1.2-2,2.3-2.9,2.5c-1.2,0.2-1.7,1-2.1,3.4c-0.3,1.8-1,4.2-1.7,5.3c-0.6,1.1-1.3,2.7-1.6,3.5
		c-0.3,0.9-0.9,1.2-1.6,1c-1.3-0.5-4.1,2-4.1,3.6c0,0.6-0.3,1.2-0.7,1.3c-0.4,0.1-0.9,1.1-1,2.1c-0.2,1-1,2.2-1.9,2.6
		c-0.9,0.4-1.6,1.2-1.6,1.8c0,0.6-0.7,1.2-1.5,1.4c-0.8,0.2-1.5,0.9-1.5,1.5s-1,2.3-2.3,3.8c-1.9,2.1-2.1,2.8-1.4,3.7
		c0.7,0.9,0.3,1.6-2.2,3.8c-2.9,2.5-3.1,2.9-3.1,6.7c0,3.5,0.3,4.2,2.3,6c2,1.8,2.5,1.9,3.8,1.1c1.3-0.8,1.7-0.8,2.3,0.2
		c0.6,0.9,0.7,0.8,0.7-0.6c0-1.2,0.3-1.7,1.1-1.4c0.6,0.2,1.3-0.1,1.5-0.7c0.2-0.6,0.9-1.1,1.6-1.1c0.6,0,1.2-0.3,1.2-0.7
		c0-0.4,0.8-0.9,1.7-1.1s2.5-1.1,3.4-2c0.9-0.9,2.7-1.8,4-2c1.3-0.3,3-1.4,3.9-2.7c1.4-2,1.7-2.1,2.5-1c1,1.4,1.9,0.9,1.9-1.2
		c0-0.8,0.3-1.2,0.8-1s1.1-0.4,1.6-1.4c0.9-2,3.7-3.3,3.7-1.6c0,0.5-0.4,1.2-0.9,1.4c-0.5,0.2,0.2,0.2,1.7,0
		c1.5-0.2,3.3-1.2,4.2-2.2c2-2.3,7.1-5,8.9-4.6c0.7,0.2,1.3,0,1.3-0.3c0-0.4,1.1-1.8,2.4-3.1c2.2-2.3,2.4-2.3,3.4-1.1
		c0.9,1.2,1,1.1,1.5-1.3c0.3-1.7,1-2.8,1.9-3c0.8-0.2,1.4,0,1.5,0.5c0,0.6,0.2,0.6,0.6-0.1c0.5-0.7,1-0.6,2.3,0.6
		C83,131.7,83,132.2,80.7,133.5z M60.3,65.5c1.7-0.6,3.2-1.5,3.3-1.9c0.4-1,2.4,1.8,2.4,3.4c0,0.7-0.3,1.5-0.8,1.8
		c-0.4,0.3-0.8,1-0.8,1.8s-0.7,1.7-1.5,2.2c-1.3,0.8-1.6,0.7-1.9-0.8c-0.2-0.9-1.2-2.1-2.1-2.5C56.4,68.5,56.9,66.8,60.3,65.5z
		 M81.5,124.6c0.3-0.9,0.9-1.7,1.5-1.7c1.5,0,1,3-0.6,3.9C81,127.5,80.8,127.2,81.5,124.6z M84.8,129.4c0,0.6-0.5,1.1-1.1,1.1
		c-1.1,0-1.6-1.6-0.7-2.5C83.8,127.3,84.8,128.1,84.8,129.4z M86.7,122.8c-0.7-0.1-1.5-0.7-1.7-1.3c-0.2-0.6,0.1-0.9,1-0.8
		c0.7,0.1,1.5,0.7,1.7,1.3C87.9,122.7,87.6,122.9,86.7,122.8z M88.6,126.7c-0.9,1.7-2.2,1.9-2.2,0.3c0-0.6,0.5-1.1,1.2-1.1
		c0.6,0,1-0.3,0.7-0.8c-0.3-0.4-0.1-0.8,0.3-0.8C89.6,124.4,89.6,124.9,88.6,126.7z"/>
	<path style="fill:#F5C500;" d="M169.2,141.9c0.7,1.1-0.3,3.8-1.5,3.8c-0.5,0-1.2,0.8-1.5,1.8c-0.6,2.2-5.4,5.2-7.8,4.8
		c-0.9-0.2-1.5,0-1.3,0.3c0.2,0.4-0.1,0.6-0.7,0.6c-0.6,0-2.1,1.2-3.3,2.6c-2.5,3.1-3.2,3.3-3.2,0.8c0-1-0.3-1.9-0.8-1.9
		c-0.4,0-0.6,0.8-0.3,1.7c0.6,2.5-0.8,5.8-2.6,5.8c-0.8,0-1.7,0.7-2,1.6c-0.4,1.3-0.9,1.5-2.7,1.2c-1.6-0.3-3.2,0.1-5.6,1.5
		c-4.1,2.3-6.7,2.2-7-0.2c-0.2-1.6-0.3-1.6-2-0.5c-1.6,1.1-2,1.1-4.1,0c-1.4-0.7-2.3-1.8-2.3-2.7c0-0.8-0.4-2.2-0.8-3.1
		c-0.5-0.8-0.5-1.9-0.2-2.4c0.6-0.8,0.7-2.2,0.2-6.6c-0.3-3.4,0-4.5,1.1-4.5c0.6,0,1.5-0.7,1.9-1.5c0.4-0.8,0.6-1.5,0.3-1.5
		c-0.3,0,0.7-1.1,2.1-2.5c1.6-1.5,3-3.9,3.6-6.1c0.6-2,1.8-4.8,2.8-6.2c1-1.4,1.8-3.2,1.8-4c0-0.8,0.7-2.2,1.5-3.1
		c0.8-1,2.6-3.8,3.9-6.4c2.6-5.2,4.2-7.2,5.7-7.2c0.6,0,1-0.7,1-1.5c0-0.8,0.7-1.9,1.6-2.3c1-0.5,1.4-1.3,1.1-2
		c-0.3-0.7,0.2-1.8,1.1-2.6c1.9-1.7,1.9-2.6,0.3-3.5c-1.7-0.9-4-0.2-3.6,1c0.5,1.4-2.4,2.8-5.2,2.5c-2.7-0.3-5.1,1.3-5.1,3.3
		c0,0.7-0.4,1.3-0.8,1.3c-0.4,0-1.8,1-3.1,2.3c-1.9,1.9-2.5,2.1-3.4,1.3c-0.9-0.8-1.4-0.6-2.9,1.2c-1.5,1.8-2.1,2.1-4.1,1.7
		c-2-0.4-2.5-0.2-3.1,1.4c-0.7,1.8-2.3,2.3-6.3,2c-0.7-0.1-1.3,0.3-1.2,0.8c0.2,1.7,0,2.8-0.6,2.7c-1-0.3-4,1-4,1.7
		c0,1-8.4,10.6-9.3,10.6c-1.5,0-5,3.6-5,5.1c0,0.8-0.5,1.9-1.1,2.4c-0.6,0.5-1.1,1.4-1.1,1.9c0,0.5-0.9,1.6-1.9,2.4
		c-1.1,0.8-2,1.9-2.2,2.5c-0.5,2.3-1.4,3.8-2.4,3.8c-0.6,0-1.1,0.5-1.1,1.1c0,1.1-8,8.8-9.1,8.8c-0.4,0-1.7,1.7-3,3.8
		c-2.2,3.5-2.5,3.8-5.3,3.8c-4.1,0-6-2-6-6.3c0-2,0.4-3.7,1.1-4.3c0.6-0.5,1.1-1.3,1.1-1.8c0-0.5,0.8-1.8,1.7-3
		c2.1-2.5,4.7-6.8,6.2-10.1c0.6-1.4,1.5-2.5,1.9-2.5c0.4,0,0.8-0.7,0.8-1.5c0-0.8,0.5-1.7,1.1-2c0.8-0.3,1.1-1.5,1.1-4
		c0-3.2,0.4-4,3-6.7c1.6-1.7,3.6-3,4.3-2.9c1,0.1,1.5-0.5,1.6-2c0.2-1.7,0.6-2.1,2.4-2.1c1.5,0,2.3-0.5,2.6-1.4
		c0.3-0.9,1.5-1.6,3.2-1.9c2.5-0.5,2.7-0.7,2.2-2.5c-1.1-4.1-0.7-7.2,1-8.3c0.9-0.6,1.6-1.6,1.6-2.1s0.7-1.5,1.5-2
		c0.8-0.5,1.5-1.5,1.5-2.2c0-1.4,1.8-3.2,2.5-2.4c0.3,0.3,0.5-0.1,0.5-0.7c0-2.4,1.7-5,3.9-5.9c1.2-0.5,2.2-1.2,2.2-1.5
		s1.4-1.5,3.2-2.7c1.8-1.2,3.3-2.5,3.5-2.8c0.2-0.4,1.3-0.4,2.6-0.1c1.3,0.3,3,0.6,3.9,0.6c1.2,0.1,1.5,0.6,1.4,2.8
		c-0.1,1.5-0.2,3.6-0.2,4.7c-0.1,1.4-0.6,2.2-1.7,2.5c-2.7,0.8-4.4,2.7-3.5,3.8c1.1,1.3,0.5,4.5-0.7,4.2c-0.6-0.1-1.6,0.3-2.3,0.9
		c-0.7,0.6-1.5,0.9-1.8,0.7c-0.3-0.3-0.5,0.3-0.5,1.2s-0.6,2.2-1.3,2.7c-0.7,0.6-1,1-0.5,1c0.5,0,1.4-0.7,2.2-1.5
		c0.8-0.8,1.8-1.5,2.3-1.5c1.4,0,8.1-3.6,9.1-5c0.7-0.9,1.7-1.1,4.2-0.7c3.7,0.5,4.4,0.2,5.7-2.8c0.5-1.2,1.5-2.1,2.4-2.1
		c0.8,0,2.5-1,3.8-2.2c1.3-1.2,2.3-1.8,2.3-1.3c0,0.5,1.1-0.4,2.5-2c2.4-2.7,2.7-2.8,5.5-2.2c2,0.5,3.6,0.4,5.2-0.3
		c3-1.3,7.1-1.3,7.6,0c0.5,1.3,1.2,7.4,1.3,11.6c0.1,2.3-0.4,3.8-1.6,5.3c-0.9,1.2-2,2.9-2.4,3.8c-0.4,0.9-1.9,2.2-3.3,2.8
		c-3.1,1.3-3.5,1.9-4,5.6c-0.4,3.3-1.5,4.7-3.4,4.7c-0.8,0-1.6,0.4-1.9,0.9c-0.4,0.6-0.2,0.7,0.4,0.3c0.7-0.4,0.8-0.1,0.4,1.2
		c-0.3,1-0.9,2.2-1.3,2.7c-0.4,0.5-0.5,1.5-0.3,2.1c0.3,0.8,0,1.3-1.1,1.6c-1.1,0.3-1.4,0.8-1.1,1.7c0.3,0.9-0.3,2-1.7,3.1
		c-1.2,1-2.6,2.7-3.2,3.9c-0.8,1.6-1.5,2-3.3,1.9c-1.4-0.1-2.5,0.3-2.8,1c-1.9,3.7-3.8,8.3-4.5,11.1c-0.4,1.8-1.1,3.4-1.5,3.6
		s-0.4,1.4-0.1,2.5c0.3,1.1,0.4,2.5,0.3,3c-0.2,0.6,0.1,0.8,0.8,0.5c0.6-0.2,1.3,0.1,1.6,0.8c0.4,1,1.1,1.2,3.1,0.8
		c1.7-0.3,2.7-0.2,2.9,0.4c0.4,1.3,5.1-0.9,5.1-2.4c0-1.8,1.6-3,4-3c1.2,0,2.3-0.5,2.5-1c0.2-0.6,1.3-1,2.3-1c1.1,0,2.2-0.4,2.5-0.9
		c0.4-0.7,0.7-0.7,1.1-0.1c0.9,1.4,1.8,0.9,1.4-0.6c-0.3-1,0.5-2.2,2.5-4c1.6-1.4,3.4-3.1,4.2-3.9c1.1-1.1,1.6-1.2,2.9-0.5
		c1.3,0.7,1.6,0.6,1.6-0.3C165.8,141,168.5,140.7,169.2,141.9z M171.7,141.8c0.2,0.6-0.2,1.6-1,2.3c-0.7,0.7-1.2,0.9-1,0.5
		c0.2-0.4,0.6-1.4,1-2.3C171.1,141.2,171.4,141,171.7,141.8z M179.3,135.9c0.4,3.7-5.2,6.4-6.1,2.9c-0.2-0.9,0-1.5,0.5-1.5
		c0.5,0,1.4-0.9,2-1.9C176.9,133,179,133.3,179.3,135.9L179.3,135.9z"/>
	<path style="fill:#F5C500;" d="M274.6,60.6c0.2,1.3-0.1,1.7-1.3,1.7c-0.9,0-1.6,0.4-1.5,0.9c0,0.6-0.8,0.7-2.4,0.4
		c-6.7-1.2-19.6,1.2-22.4,4.1c-1,1.1-2,1.4-3.4,1.2c-1.4-0.3-1.9-0.1-1.9,0.7c0,0.6-1.2,2.6-2.8,4.4c-1.6,1.8-3,4.3-3.2,5.5
		c-0.2,1.2-0.9,2.2-1.5,2.2c-0.6,0-1.5,0.8-1.9,1.7c-0.6,1.1-0.6,1.5,0,1.1c0.4-0.3,0.8-0.2,0.8,0.2c0,0.4-0.7,0.9-1.5,1.2
		c-0.8,0.2-1.5,1-1.5,1.8c0,1.3-4.6,6.5-5.9,6.6c-0.4,0-0.4,0.5-0.2,1.1c0.3,0.6,0.3,2,0.1,3c-0.5,2.1-3.1,2.7-4.9,1.1
		c-0.8-0.7-0.9-0.4-0.4,2.1c0.6,2.9,0.5,3.2-2.2,5.1c-1.5,1.2-2.8,2.7-2.9,3.5c-0.3,2.4-3.7,6.6-3.8,5.8c-0.1-0.4-4.3,3.5-4.8,4.9
		c-0.7,1.8-1.5,2.5-2.7,2.6c-1,0-2.4,0.6-3.1,1.2c-0.8,0.6-1.7,1-2,0.8c-0.3-0.2-0.4,0.3-0.2,1.1c0.2,0.8,0,1.9-0.6,2.5
		c-0.6,0.6-1.2,1.7-1.5,2.4c-0.3,0.7-1.1,1.6-1.8,1.9c-2,0.8-6.8,5.2-6.8,6.3c0,0.5-0.4,1.2-1,1.5c-0.6,0.4-1.6,2-2.3,3.7
		c-0.7,1.7-1.7,3.6-2.3,4.3c-0.7,0.9-0.8,1.8-0.1,3.3c0.5,1.1,0.9,2.8,0.9,3.8c0,1.3,0.8,2.2,2.5,3c2.2,1.1,2.5,1.1,3.3-0.1
		c0.5-0.7,1.2-1.3,1.7-1.3c1.3,0,6.1-2.7,6.1-3.4c0-0.3,0.8-0.6,1.8-0.7c1.1,0,2.2-0.7,2.6-1.5c0.6-1.2,1.3-1.4,3.6-1.2
		c1.9,0.2,3.7-0.2,5.2-1c1.3-0.7,3-1.3,3.9-1.3c0.9,0,1.5-0.5,1.5-1.2c0-0.6,0.3-1.1,0.7-1.2c0.4,0,0.5-0.5,0.2-1.2
		c-0.3-0.8,0-1.3,1.1-1.6c0.9-0.3,1.6-0.8,1.6-1.1c0-0.4,0.5-0.7,1.1-0.7c0.6,0,1.4-0.9,1.8-1.8c0.7-2,2.1-2.8,5-2.9
		c1,0,1.7-0.3,1.5-0.6c-0.7-1,1.3-3.1,3.5-3.8c2-0.6,2.1-0.5,1.8,1.4c-0.3,1.8-0.2,1.9,0.9,1c0.7-0.6,2.2-1.6,3.4-2.2
		c1.2-0.6,3.3-2.7,4.7-4.5c1.4-1.8,3.2-3.3,3.9-3.3c0.7,0,1.4-0.6,1.7-1.2c0.2-0.6,0.8-1.2,1.3-1.2c0.5,0,0.7,0.2,0.4,0.5
		c-0.3,0.3-0.1,1.1,0.3,1.8c0.6,1,0.3,1.7-1.1,3.1c-1,1-1.8,2.3-1.8,2.8c0,0.6-0.6,1-1.4,1c-0.8,0-1.9,0.6-2.6,1.2
		c-0.6,0.6-1.4,1.2-1.8,1.2c-0.4,0-0.9,0.5-1.1,1.2c-0.2,0.6-0.9,1.2-1.5,1.2c-0.6,0-1.3,0.6-1.5,1.2c-0.2,0.6-0.8,1.2-1.2,1.2
		c-1,0-2.9,2-2.9,2.9c0,0.3-1.7,1.5-3.7,2.6c-2,1.1-3.7,2.2-3.7,2.6c0,0.3-0.6,0.6-1.4,0.7c-1,0-1.5,0.8-1.8,2.3
		c-0.2,1.4-1,2.4-2,2.8c-0.9,0.3-3.1,2.1-5,4c-2.4,2.4-4,3.5-5.5,3.5c-1.6,0.1-2.4,0.6-2.9,2c-0.5,1.1-1.5,2-2.4,2
		c-0.9,0.1-2.6,0.8-3.8,1.6c-3.8,2.6-4.3,2.7-5.6,1.2c-1.2-1.4-1.2-1.4-2.9,0.5c-1.4,1.6-1.8,1.8-2.4,1c-0.6-0.8-0.9-0.8-1.9,0.3
		c-0.9,1-1.6,1.1-2.7,0.6c-0.8-0.4-2.8-0.8-4.4-0.9c-4.3-0.3-8.2-2.9-8.3-5.6c0-1.3-0.8-2.7-1.8-3.5c-1-0.8-1.6-1.8-1.3-2.2
		c0.2-0.4,0.1-1-0.3-1.2c-1-0.6-1.3-8.7-0.3-8.7c0.4,0,0.5-1.2,0.2-2.8c-0.4-2.1-0.3-2.6,0.4-2.2c1.4,0.8,3.9-2.3,2.8-3.3
		c-0.6-0.5-0.6-1.1-0.1-1.8c0.4-0.6,0.9-1.9,1.2-3.1c0.2-1.1,1.1-2.5,1.9-2.9c0.8-0.5,1.5-1.4,1.4-2c-0.1-1.6,3.5-8,4.5-8
		c0.5,0,3.4-1.4,4.3-2.3c0.9-0.9,2.4-2.1,3.4-2.6c1.2-0.7,1.6-1.5,1.4-2.9c-0.2-1.3,0.2-2.3,1.1-3c0.8-0.6,5.2-1.3,5.4-2.3
		c0.3-1,1.6-3.1,2.9-4.6c1.3-1.6,3-4,3.8-5.5c0.8-1.6,2.1-2.8,3.1-3c1.7-0.3,2.6-1.9,3.2-5.6c0.5-2.8,2.8-5.7,5.8-7.2
		c2-1,2.8-2.1,3.4-4.4c0.4-1.7,1.4-3.4,2.1-3.8c0.7-0.4,1.9-2,2.5-3.5c0.7-1.5,2-3.1,2.9-3.6c1-0.5,1.7-1.2,1.7-1.6
		c0-0.4-0.4-0.4-0.9,0c-1.6,1.2-12.5,1.1-13.9-0.1c-1.5-1.4-0.8-3.6,1.1-3.7c0.8,0,1.6-0.4,1.8-0.8c0.7-1.3,4.8-1,6.3,0.4
		c1.1,1,1.8,1.2,3.1,0.5c1.3-0.6,1.9-0.6,2.4,0.2c0.6,0.8,0.7,0.8,0.7,0.1c0-0.6,0.5-0.8,1.4-0.6c1,0.3,1.9-0.3,3.1-2
		c2.4-3.3,4.2-7,4.2-8.5c0-1.2,5.5-6.9,6.8-6.9c0.3,0,0.5-0.6,0.5-1.4c0-0.8,0.7-2.1,1.6-3c2.6-2.6,3.4-3.9,2.9-4.4
		c-0.3-0.3,0.1-0.3,0.8,0c1,0.4,1.3,0,1.3-1.5c-0.1-1.7,2.9-6.6,4.5-7.3c0.3-0.1,0.5-0.8,0.5-1.4c0-0.6,0.5-1.3,1-1.6
		c0.6-0.3,1.7-1.7,2.5-3.1c0.8-1.5,2.5-3.2,3.9-3.8c3.4-1.6,4.1-1.5,5.4,0.7c0.7,1.3,1.3,1.6,1.6,1.1c0.3-0.5,0.9-0.9,1.3-0.9
		c0.6,0,0.6,0.3,0.1,0.9c-0.6,0.7-0.3,1,1.1,1c2.7,0.1,2.9,0.6,1.2,3.6c-0.8,1.5-1.5,3.1-1.5,3.6c0,0.4-0.8,1.5-1.8,2.4
		c-1,0.9-2.5,2.9-3.2,4.5c-0.8,1.6-2,3.2-2.7,3.4c-1.2,0.4-5.9,10-5.8,11.9c0,0.4-0.6,1.2-1.3,1.7c-1.4,1.1-5.5,7.5-5,8
		c0.2,0.1,4.2,0.3,9,0.4C274.3,58.7,274.3,58.7,274.6,60.6L274.6,60.6z M206.6,149.1c0.4,0,0.8,0.3,0.8,0.7c0,0.4-0.3,0.8-0.7,0.8
		c-0.4,0-0.8-0.3-0.8-0.7C205.8,149.4,206.1,149.1,206.6,149.1z M237.2,127.1c2.2-1.4,3.4-1.3,2.9,0.2c-1,3-5.3,5.9-5.4,3.6
		C234.7,129.3,235.3,128.3,237.2,127.1L237.2,127.1z"/>
	<path style="fill:#F5C500;" d="M234.2,139.8c-0.5,2.2-3.2,3.2-4.6,1.8c-1.5-1.6,0-4.7,1.9-4.2c0.8,0.2,1.7,0,2-0.4
		C234.3,135.7,234.8,137.7,234.2,139.8z M255.4,121.7c-1.5,0.8-2.7,1.7-2.7,2.1c0,0.3-1.1,1.7-2.5,3c-1.4,1.3-2.9,3.3-3.5,4.4
		c-0.9,1.8-7.3,6.7-8.8,6.7c-0.7,0-3.4-3.2-3.4-4c0-0.4,0.5-0.5,1.1-0.2c0.8,0.3,1.1,0,1.1-1.1c0-0.8,0.3-1.5,0.7-1.5
		c0.4,0,0.9-0.8,1.2-1.7s1.6-2.4,3-3.1c1.4-0.8,2.6-1.7,2.6-2.1c0-1.2,3.3-3.5,5.1-3.6c1.3,0,1.7-0.5,1.7-1.9c0-1.3,0.7-2.2,2.1-3
		c3.1-1.6,5.6-4.3,5.2-5.5c-0.2-0.6,0-1.1,0.6-1.1c0.5,0,1.4-0.9,1.9-1.9c0.5-1,1.2-1.9,1.7-1.9s0.6-0.4,0.3-0.8
		c-0.3-0.4,0.2-1,1.1-1.2c0.9-0.2,1.6-0.9,1.6-1.4c0-0.5,0.4-1.2,0.9-1.4c5.1-2.1,7.2,3,2.5,6.2c-1.4,1-2.5,2-2.5,2.4
		c0.2,0.9-3.9,4.5-6,5.3c-1.2,0.4-1.6,1.1-1.3,1.8c0.3,0.7,0,1.2-0.7,1.2c-0.7,0-1,0.5-0.8,1.4C258,119.9,257.3,120.7,255.4,121.7z
		 M321.4,138c2.1-2.1,5-2.4,5-0.4c0,1-0.5,1.5-1.3,1.4c-0.8-0.1-1.6,0.8-2,2.1c-0.4,1.2-1.1,2.2-1.6,2.2c-0.4,0-0.8,0.6-0.8,1.4
		c0,2-3,4.5-6.2,5.1c-1.6,0.3-2.8,0.8-2.8,1.2c0,0.4-0.6,0.7-1.3,0.7c-0.7,0-1.9,1-2.6,2.2c-0.9,1.6-2,2.3-4.3,2.7
		c-1.8,0.3-4.2,1.5-6.1,3.1c-1.7,1.4-3.4,2.6-3.8,2.6s-0.9,0.5-1.2,1.1c-0.3,0.7-2.1,1.3-4.8,1.6c-4.9,0.5-5,0.6-8.2,2.6
		c-1.8,1.1-2.6,1.2-3.8,0.6c-0.8-0.4-1.8-0.7-2.1-0.6c-0.3,0.1-1.2-0.2-2-0.6c-0.9-0.5-1.6-0.5-2.2,0.1c-0.6,0.6-1.5,0.5-3.3-0.4
		c-1.3-0.7-2.8-1.2-3.3-1.2c-1.1,0-6.1-4.7-6.7-6.4c-0.3-0.7,0-2.3,0.6-3.5c1.4-2.7,1.4-3.1,0.2-2.8c-0.5,0.1-0.9-0.2-0.9-0.8
		c0-0.5,0.1-1.6,0.2-2.5c0.1-1,0.7-1.5,1.9-1.5c2.5,0,2.7-0.4,1.7-4c-0.5-1.7-0.7-3.7-0.4-4.3c0.3-0.6,1-2.1,1.5-3.2
		c0.8-1.6,1.4-2,3.1-1.8c1.8,0.2,2.3-0.1,2.9-1.6c0.4-1,0.5-2.3,0.3-3c-0.2-0.7,0.1-1.3,0.8-1.6c0.7-0.3,1.2-0.9,1.2-1.4
		s1.5-2.2,3.4-3.7c1.9-1.5,3.4-3.2,3.4-3.8c0-0.6,0.5-1.2,1.1-1.4c0.6-0.2,1.9-1.6,2.7-3.1c0.9-1.5,2.4-2.9,3.4-3.1
		c2-0.5,2.4-2.5,1.1-5.8c-0.8-2,0.7-5.1,2.5-5.1c0.6,0,0.9-0.7,0.6-1.9c-0.2-1.2-0.9-1.9-1.8-1.9c-0.8,0-1.6-0.5-1.9-1.1
		c-0.7-1.7-2.1-1.4-4.3,1.2c-3,3.3-5.7,4.2-7.5,2.4c-1.2-1.2-1.3-1.7-0.5-3c0.5-0.9,1.8-1.9,2.7-2.4c1.2-0.5,1.7-1.4,1.8-2.9
		c0-1.2,0.5-2.7,1.1-3.5c0.6-0.8,1.3-2.7,1.5-4.3c0.3-1.6,1.1-3.5,1.9-4.2c0.8-0.7,1.5-1.8,1.5-2.3c0-1.1,2.6-3.6,5.4-5.2
		c2.2-1.3,5.9-1.1,7.6,0.3c2.2,1.8,1.7,6.2-0.9,8.8c-1.2,1.2-2.3,2.6-2.3,3c0,0.5-0.6,1.5-1.4,2.2c-2.3,2-2.4,3.9-0.4,5
		c1,0.5,2.3,0.7,3.1,0.3c0.8-0.3,1.9-0.6,2.5-0.7c0.6-0.1,2.4-0.4,3.9-0.7c1.8-0.4,3.3-0.3,4.5,0.3c1.4,0.7,1.9,0.7,2.5-0.2
		c1.6-2.1,3.5-2.2,5.4-0.3c2.2,2.2,2.3,3.5,0.5,5.2c-0.9,0.8-1.3,2-1.1,3.4c0.2,1.3-0.1,2.6-0.8,3.2c-0.6,0.6-1.4,1.9-1.7,3
		c-0.3,1-1,2.4-1.5,3c-0.5,0.6-1.3,2.4-1.8,3.9c-0.5,1.5-1.5,3.3-2.4,4.1c-0.8,0.7-1.5,1.8-1.5,2.3c0,0.5-0.3,1.1-0.6,1.2
		c-0.3,0.1-1.6,1.8-2.8,3.7c-2.6,3.9-3.4,4.6-4.7,4.2c-1.1-0.4-2.5,1.3-5.1,6.4c-2.5,4.8-4.1,6.8-5.4,6.8c-0.5,0-1.9,1.2-3,2.6
		c-1.1,1.4-2.5,2.4-3,2.2c-1.4-0.5-3.2,2.7-4.2,7.4c-1.9,8.9-1.9,8.2,0.3,8.2c1.1,0,2,0.3,2,0.8c0,1.9,6.3,0.2,7.8-2.1
		c0.3-0.5,1.1-0.9,1.7-0.9c0.6,0,2-1,3.2-2.3c1.1-1.3,2.9-2.4,3.8-2.6c1-0.2,2.2-0.7,2.8-1.2c0.6-0.5,1.6-0.7,2.4-0.6
		c1.5,0.3,3.8-1.5,5.1-4.1c1-2.1,4.3-2.7,5.7-1c1.3,1.6,2.3,1.5,2.3-0.3c0-0.8,0.3-1.5,0.8-1.5c0.4,0,0.8-0.4,0.8-0.8
		c0-1.5,4.1-4.5,6.2-4.5C319,139.5,320.6,138.8,321.4,138z M309.4,99.4c0,0.4,0.4,0.8,0.8,0.8c0.4,0,0.6-0.3,0.3-0.8
		c-0.3-0.4-0.6-0.8-0.8-0.8C309.5,98.7,309.4,99,309.4,99.4z"/>
	<path style="fill:#E6007E;" d="M389.3,135.4c0.1,0.8-0.7,2.1-1.6,2.9c-1,0.8-1.8,1.8-1.7,2.3c0.1,1.5-2.3,4.3-4.1,4.8
		c-1.2,0.3-1.9,1.1-2,2.3c-0.2,1.3-0.8,2-1.9,2.1c-2.5,0.3-2.9,1.5-1.6,4.3c0.7,1.4,1.2,2.3,1.2,2c0-0.3,0.8-0.3,1.7,0.1
		c1.4,0.6,1.6,0.6,1.1-0.5c-0.3-0.7-0.2-1.2,0.3-1.3c1.1-0.1,3.8,2,3.9,3c0.1,1-4.2,3.2-5.2,2.7c-0.4-0.2-2.3-0.3-4.3-0.3
		c-2,0.1-4.9-0.1-6.6-0.4c-3.4-0.6-7.2,0.2-7.6,1.7c-0.2,0.7-1.1,0.9-2.9,0.8c-1.8-0.1-2.6,0.1-2.5,0.7c0,0.6-0.4,0.8-1.2,0.6
		c-0.7-0.2-1.7,0.1-2.3,0.7c-0.6,0.6-1.9,1-3.1,1c-1.4,0-2.6,0.7-4,2.5c-1.9,2.4-4.7,3.5-4.8,2c-0.1-1.4-3.9-2.3-4.8-1.2
		c-1.3,1.6-3.4,1.3-3.8-0.5c-0.2-1-1-1.7-2-1.8c-1.6-0.1-3.9-2.9-4.1-5c-0.1-1.1-1.3-1.8-3.9-2.3c-1.2-0.3-1.4-1-1.6-5.8
		c-0.2-6,1.1-10.4,4.2-13.8c1-1.1,1.9-3.1,2-4.6c0.1-1.4,0.9-3,1.6-3.5c0.7-0.5,1.3-1.2,1.3-1.5c-0.1-1.1,5-9.9,6.9-11.9
		c1-1,1.8-2.2,1.7-2.6c0-0.4,1.2-1.5,2.7-2.5c1.5-0.9,3-2.6,3.4-3.6c0.5-1.3,1.5-2.2,3.3-2.6c2.1-0.6,2.8-1.3,3.9-4.3
		c0.9-2.6,2-3.9,3.8-4.9c3.2-1.7,7.2-5.9,9.1-9.6c1.7-3.3,4.2-4.5,11.6-5.8c2.4-0.4,5.4-1.2,6.6-1.7c3.3-1.3,7.2-1.6,12-0.8
		c5,0.8,5.8,1.2,5.9,2.5c0,0.5,1,1.7,2.1,2.6c1.1,0.9,2.1,1.9,2.1,2.3c0,0.4,0.7,1.1,1.4,1.6c1.3,0.8,1.3,1,0.3,3.9
		c-0.6,1.7-0.9,3.7-0.7,4.5c0.2,0.8,0,1.4-0.6,1.4c-0.5,0-1.5,0-2.1,0c-0.7,0-1.2-0.9-1.4-2.5c-0.2-1.7-1.2-3.3-3.4-5.5
		c-2.9-2.7-3.4-3-5.5-2.3c-1.3,0.4-3.4,2-4.6,3.4c-1.7,2.1-2.9,2.8-5,3c-2.1,0.2-3.1,0.8-4.1,2.3c-0.8,1.2-1.8,2.1-2.3,2.2
		c-0.5,0-1.5,0.8-2.2,1.7c-0.7,0.9-1.6,1.7-2.1,1.7s-1.4,0.8-2.1,1.7c-0.7,0.9-1,1.6-0.7,1.6c0.7-0.1-1.3,3.5-3.6,6.5
		c-1.1,1.4-2.1,3.3-2.2,4.3c-0.2,1-0.5,1.9-0.8,1.9c-1.2,0.1-2.1,5-1.4,7.6c0.6,2.5,0.5,3-1.5,4.7c-1.4,1.3-2.4,1.7-2.8,1.2
		c-0.5-0.7-2.5-1.1-4.9-1.1c-0.8,0-1-3.3-0.2-4.2c0.8-1,1-4.1,0.3-4.1c-1.8,0-2.1,0.2-1.6,0.9c0.3,0.4-0.3,1.2-1.3,1.7
		c-1.8,1-2.9,3.3-2,4.5c0.7,1-0.9,4.7-2.2,5.3c-0.7,0.3-1.3,1.4-1.5,2.4c-0.2,1-0.6,1.9-1,2c-1,0.1-2.7,4.4-2.5,6.6
		c0.2,2.3-1,6-2.2,6.9c-1.5,1.1-0.7,4.2,1.5,6.1c1.8,1.5,2.7,1.7,6.8,1.3c2.6-0.3,5-0.4,5.4-0.4c1.2,0.2,5.5-2.1,5.4-2.9
		c0-0.4,0.8-0.6,1.9-0.5c1.4,0.2,2,0,2.3-1.1c0.2-0.8,1-2,1.8-2.7c0.7-0.7,1.2-1.7,0.9-2.3c-0.3-0.7-0.7-0.6-1.6,0.5
		c-1.2,1.4-1.3,1.4-2.4,0.1c-4.2-4.5-5.5-9.5-3.4-13.3c0.7-1.3,1.1-2.8,1-3.3c-0.2-0.6,0.6-0.4,2.1,0.5c2.9,1.8,5.2,5.7,5.9,10.2
		c0.3,1.9,0.9,3.9,1.3,4.4c0.9,1.1,6.4,1,6.3-0.1c-0.1-1.2,2.8-4.6,4-4.7c1.2-0.1,6.4-6.2,6.3-7.4c0-0.4,1.1-1.3,2.5-2.1
		c2.3-1.2,2.8-2.1,2.4-3.8c-0.3-1.2,2.8-7.3,3.7-7.2c0.5,0.1,0.7-0.4,0.4-0.9c-0.5-1.1,2-4.4,3.5-4.6c0.5,0,0.8-1.3,0.6-3.3
		c-0.5-5.9,3-11.9,7.9-13.6c2.7-0.9,4.1,3.4,2.4,7.5c-0.4,0.9-0.6,2.3-0.5,3.2c0.1,1.1-0.5,1.9-2,2.6c-1.2,0.5-2.2,1.3-2.1,1.7
		c0,0.4-0.8,0.6-1.8,0.5c-1.1-0.1-2,0.3-2.2,0.9c-0.2,0.7,0.1,0.9,0.8,0.5c0.9-0.5,1.1-0.1,0.8,2c-0.2,1.4-0.8,3.1-1.3,3.7
		c-0.5,0.6-0.9,1.6-0.9,2.2c0.1,1.6-3.4,4.2-4.2,3.1c-0.5-0.6-0.8-0.4-1.1,0.9c-0.2,1-0.3,2.2-0.2,2.7c0.1,0.5-0.3,1-1,1
		C389.7,133.9,389.2,134.6,389.3,135.4L389.3,135.4z M418.7,139.7c-0.9,0.4-1.6,1.3-1.6,1.9c0.1,0.6-1,1.8-2.4,2.6
		c-1.4,0.8-2.5,1.8-2.5,2.1c0,0.4-0.5,0.7-1.1,0.8c-0.6,0.1-1.3,0.6-1.5,1.2c-0.2,0.6-1.9,1.8-3.7,2.7c-1.9,0.8-4,1.9-4.6,2.3
		c-0.7,0.4-1.9,0.9-2.8,0.9c-0.8,0.1-1.7,0.7-1.9,1.3c-0.5,1.6-3.2,1.7-3.3,0.1c-0.1-1.2-0.2-1.2-0.9,0.1c-0.8,1.3-1,1.2-3.1-0.3
		c-2.7-1.9-2.5-4,0.5-4.4c3.4-0.4,4.6-0.9,7-3.2c1.3-1.2,2.7-2.2,3.2-2.2c0.4,0,1.5-1,2.4-2.2c1.6-2.1,4-2.6,6.3-1.4
		c0.6,0.3,1,0.2,0.9-0.3c0-0.5,0.2-0.7,0.6-0.5c0.4,0.2,0.8-0.4,1-1.3c0.2-1.1,0.7-1.5,1.5-1.3c0.8,0.2,1.5-0.3,1.9-1.4
		c0.3-1,1.3-2.2,2.2-2.7c2.5-1.5,3.4-1.4,4.3,0.3C422,137,421.2,138.5,418.7,139.7z"/>
	<path style="fill:#E6007E;" d="M568.2,14.7l-0.4,3.9c-0.2,2.2-0.8,4.2-1.3,4.5c-2.7,1.7-5.9,4.8-5.9,5.9c0,1.6-4.2,6.6-5.9,7.2
		c-0.7,0.2-1.8,1.6-2.3,3c-0.5,1.4-2,4-3.4,5.6c-4.5,5.6-5.1,6.4-5.1,8c0,1.8-2.1,4.5-4,5.2c-0.8,0.3-1.3,1.2-1.3,2.4
		c0,1.6-0.3,1.9-2.3,1.9c-1.2,0-2.3,0.3-2.3,0.8s-0.8,1.1-1.8,1.5c-1,0.4-2.5,2.1-3.5,4.1c-0.9,1.9-2,3.5-2.4,3.5
		c-0.4,0-0.9,0.6-1.2,1.3c-0.3,0.7-1.6,2.4-3,3.7c-1.4,1.3-2.5,2.9-2.5,3.6c0,0.8-0.6,1.2-1.8,1.2c-1.1,0-2.6,0.9-3.8,2.3
		c-1.1,1.3-2.3,2.1-2.7,1.9c-0.9-0.5-1.9,2.3-1.2,3.4c0.8,1.2-1.3,4.5-3.2,5.3c-0.9,0.4-1.7,1.1-1.7,1.7s-1.1,1.3-2.4,1.5
		c-2,0.4-2.3,0.7-2,2.2c0.2,0.9,0.2,3-0.1,4.7c-0.4,2.6-0.9,3.1-3,3.6c-1.4,0.4-2.3,1-2,1.4c0.3,0.4-0.2,1.5-1.1,2.3
		c-0.9,0.8-1.6,2-1.6,2.5c0,0.6-0.6,1.2-1.4,1.5c-0.7,0.2-1.4,1.1-1.5,2c-0.1,0.9-0.6,2-1.2,2.5c-2.3,1.8-5.1,6.4-4.7,7.5
		c0.3,0.7-0.2,1.6-1.3,2.4c-1,0.7-1.5,1.2-1.2,1.2c0.3,0-0.3,0.9-1.3,1.9c-1,1.1-1.7,2.4-1.5,2.9c0.4,1.1-3.3,5.8-4.7,5.8
		c-1.2,0-1.3,1.4-0.3,4c0.6,1.5,0.3,2.4-1.6,5c-1.3,1.7-2.8,3.1-3.4,3.1c-2.3,0-0.7,2.6,2.2,3.7c3.5,1.3,5.7,1,6.6-1
		c0.4-1,1.9-2.4,3.2-3c1.3-0.7,3.2-1.7,4.3-2.3c1-0.6,3.2-1.6,4.9-2.3c1.6-0.7,3.5-2,4-2.8c0.6-0.8,1.5-1.3,2.1-1.1
		c0.6,0.2,0.9,0,0.6-0.7c-0.5-1.3,2.9-4.9,4.6-4.9c0.6,0,1.5-0.7,1.9-1.5c0.4-0.8,2.7-2.4,5.1-3.6c2.4-1.2,5.4-3.1,6.8-4.3
		c2.5-2.2,4.7-2.3,4.7-0.1c0,0.6-0.5,1.4-1.1,1.6c-0.6,0.2-1.1,0.8-0.9,1.3c0.2,1.1-3.5,4.7-5.6,5.4c-0.8,0.2-1.4,0.9-1.4,1.4
		c0,0.5-0.8,1.7-1.8,2.6c-1.3,1.3-2.3,1.6-3.8,1.2c-1.5-0.4-2-0.2-2,0.6c0,0.6-0.5,1.5-1.1,2.1c-0.6,0.5-1.1,1.5-1.1,2.2
		c0,1.7-2.5,3.1-4.4,2.6c-1.2-0.3-1.8,0.1-2.5,1.6c-0.5,1.1-1.5,2-2.2,2c-1.4,0-3.3,1.9-4,3.9c-0.2,0.7-1.6,1.4-3.1,1.7
		c-1.7,0.3-2.8,1-3,2c-0.3,1-1,1.5-2.5,1.5c-1.1,0-2.5,0.5-2.9,1.2c-0.5,0.7-2.2,1.2-4.4,1.3c-2,0.1-3.6,0.4-3.6,0.7
		c0,1-3.7,0.6-4.3-0.5c-0.3-0.6-1.5-1.2-2.5-1.3c-1.5-0.2-1.9-0.8-2.1-2.5c-0.1-1.2-0.6-2.6-0.9-3.1c-0.4-0.4-0.6-2.9-0.5-5.4
		c0.1-3.4,0.6-5.3,1.9-6.9c0.9-1.2,1.7-3.1,1.7-4c0-1,1.1-2.7,2.5-4.1c2.6-2.4,3.9-4.5,5.1-7.6l0.7-1.9l-2.2,1.8
		c-1.2,1-2.2,2.2-2.3,2.8c-0.1,1.4-2.3,3.8-3.5,3.8c-0.5,0-1.6,0.9-2.4,1.9c-1.1,1.6-1.8,1.8-3.5,1.4c-1.5-0.4-2-1-2-2.3
		c0-1-0.6-2.1-1.3-2.6c-1-0.6-1.1-0.9-0.4-1.2c0.5-0.2,2.2-1.6,3.7-3c1.5-1.4,3.3-2.6,3.9-2.6c0.6,0,1.8-0.6,2.5-1.3
		c1.2-1,1.7-1.1,3.4-0.3c2.6,1.2,2.9,0.8,0.9-1.4c-1.2-1.3-1.4-2.1-0.9-2.9c0.4-0.6,1-1.1,1.4-1.1c0.4,0,1-0.6,1.3-1.5
		c0.4-1.1,1-1.4,2.1-1.2c1,0.3,1.5,0,1.5-0.8c0-1.5,2.2-3.2,4.3-3.2c1.9,0,3.2-1.9,2.7-3.9c-0.2-0.8,0-1.4,0.5-1.4
		c0.5,0,0.6-0.6,0.3-1.2c-0.3-0.7,0-1.5,0.7-1.9c0.7-0.4,1.4-1.7,1.7-3.1c0.3-1.3,1.3-3,2.1-3.7c1.9-1.6,1-2.9-1.1-1.6
		c-2.2,1.4-3.6,1.1-5.6-0.9l-1.8-1.8l-3.7,1.7c-2,0.9-3.9,2.3-4.2,3c-0.3,0.7-2,1.9-3.8,2.7c-1.8,0.8-5,3-7,4.9
		c-4.1,3.8-5.9,4.6-7.4,3.4c-1.3-1.1-3.3,0.5-2.9,2.3c0.2,0.7-0.6,2-1.9,3.1c-1.2,1-2.5,2.6-2.8,3.6c-0.3,0.9-1.7,2.2-3.1,2.8
		c-2,0.8-2.6,1.5-2.6,3.1c0,2.4-3.3,7.1-5,7.1c-1.4,0-4,2.9-4,4.6c0,2.2-6.3,9.7-8.2,9.7c-2,0-2.2,0.9-0.6,2.3
		c0.6,0.5,1.1,1.5,1.1,2.1c0,1.4,2.2,3.1,4,3.2c0.8,0,1.5-0.8,1.8-1.9c0.4-1.7,0.8-1.9,2.7-1.5c1.9,0.4,2.8-0.1,6.1-3
		c2.1-1.9,5.2-3.8,6.7-4.2c1.6-0.4,2.8-1,2.8-1.3c0-0.3,0.7-1,1.6-1.5c1.3-0.8,1.8-0.8,2.7,0c1,0.8,1.1,0.7,0.9-0.5
		c-0.4-2,2.6-2.4,4.9-0.6c1.8,1.3,1.8,1.4,0.3,2.1c-0.8,0.4-2.3,2.4-3.3,4.3c-1.4,2.8-2.4,3.7-4.6,4.4c-1.6,0.5-3.3,1.2-3.8,1.7
		c-0.5,0.4-0.9,0.5-0.9,0.1c0-0.4-0.5,0.1-1.2,1c-0.6,0.9-2.5,2.1-4.1,2.5c-1.8,0.5-3.2,1.6-3.7,2.7c-0.9,2-4.1,3.5-6.1,2.9
		c-0.8-0.3-1.5,0-1.8,0.7c-0.6,1.6-3.7,1.4-6-0.4c-1.1-0.8-2.3-1.5-2.8-1.5c-0.5,0-1.9-1-3.1-2.2c-2.1-2.1-2.2-2.5-2.2-8.8
		c0-3.6-0.3-6.9-0.7-7.3c-1.1-1.1,0.9-7.8,3.2-10.8c1.1-1.4,1.9-2.9,1.9-3.2c0-1.2,6.3-6.2,7.7-6.2c0.8,0,1.4-0.6,1.4-1.3
		c0-0.7,0.1-2,0.2-2.8c0.1-1.1,0.8-1.6,2.8-1.9c2.1-0.3,2.7-0.8,2.9-2.3c0.1-1,0.8-2.5,1.5-3.2c0.7-0.7,1.7-1.8,2.2-2.5
		c0.5-0.7,1.3-1,1.6-0.8c0.3,0.2,0.8-0.1,1.1-0.7c0.6-1.6,3.5-1.4,3.6,0.2c0.1,0.7,0.1,1.6,0,1.8c0,0.3,1.3,0.5,2.9,0.4
		c3.3-0.1,3.9-1.3,1.6-2.9c-2.3-1.6-1.7-6,1.2-8.5c2.2-1.9,4.3-2.7,6.8-2.9c0.5,0,0.9-0.4,0.9-0.8c0-0.4,1.1-0.6,2.3-0.4
		c2,0.3,2.4,0.1,3.1-1.8c0.4-1.2,1.4-2.3,2.2-2.6c1.8-0.6,6.3,0.8,7.6,2.4c0.8,1,1.1,0.8,2.2-1.2l1.2-2.4l2,1.6c1.1,0.9,2,2.3,2,3.1
		c0,0.8,0.4,1.5,0.8,1.5s0.6-0.6,0.4-1.3c-0.5-1.7,0.6-3.4,2.3-3.7c1.8-0.3,5.5,1.1,7.5,2.9c1.5,1.4,1.6,1.4,3-0.2
		c0.8-0.9,2.4-2.1,3.6-2.7c1.3-0.7,2.3-1.9,2.6-3.4c0.2-1.2,1-2.6,1.8-3c0.7-0.4,1.5-1.8,1.8-3c0.3-1.3,0.8-2.1,1.2-1.9
		c0.4,0.2,1.2-0.6,1.7-1.8c0.6-1.2,1.4-2.3,1.9-2.3c0.5,0,1.9-1.4,3-3.2c1.1-1.8,2.5-3.5,3-3.8c1.1-0.7,2.1-1.8,5.1-5.5
		c1.2-1.5,3.2-3.7,4.3-4.8c1.1-1.1,2.1-2.4,2.1-2.9c0-0.5,0.3-1,0.8-1c0.4,0,0.8-0.5,0.8-1.1s0.7-1.5,1.5-1.9c0.8-0.4,2.2-2.1,3-3.7
		c0.8-1.6,4-5.6,7.2-9c3.1-3.3,5.7-6.4,5.7-6.9c0-0.5,0.3-0.8,0.6-0.8c0.3,0,1-1,1.6-2.3c0.6-1.3,1.8-2.5,2.8-2.7
		c1.1-0.3,1.8-1,1.8-1.8c0-0.7,0.5-1.5,1.1-1.8c0.6-0.2,1.1-1,1.1-1.6c0-0.6,0.5-1.2,1-1.2c0.6,0,1.2-0.7,1.4-1.5
		c0.2-0.9,1-1.5,2-1.5c0.9,0,1.6-0.4,1.6-0.8c0-0.5,1-0.6,2.6-0.3c1.5,0.3,2.8,0.2,3.1-0.3c0.3-0.5,1.5-0.8,2.7-0.8H568.2z"/>
	<path style="fill:#E6007E;" d="M594.2,111.4c-1,1.1-1.9,2.9-2,4.1c-0.2,1.9-1.6,3.5-3.5,4.2c-0.4,0.1-0.8,0.8-0.9,1.5
		c-0.2,1.1-5.6,6.7-10.4,10.8c-1,0.8-2.6,2.6-3.5,3.9c-0.9,1.3-2.6,2.9-3.7,3.4c-1.2,0.6-2.3,1.9-2.7,3.5c-0.4,1.4-1.7,3.2-2.9,4.1
		c-1.2,0.9-2.1,2-2.1,2.4c0,0.9-3.3,3.6-5.5,4.4c-1.1,0.4-1.2,0.8-0.5,2.1c1.2,2.3,4.4,3.3,7.2,2.3c2.8-1,5.6-1.1,5.6-0.1
		c0,0.4,0.8,0.8,1.7,0.9c0.9,0.1,1.7,0.8,1.7,1.4s-0.4,1-0.9,0.9c-0.5-0.1-0.9,0.5-0.9,1.2c0,2.8-9.9,5.1-13.4,3.2
		c-0.7-0.4-2.2-0.9-3.2-1.1c-1-0.2-2.5-1.3-3.3-2.4c-1.4-1.9-1.4-2.1-0.2-4.3c0.7-1.3,1.5-3.7,1.8-5.4c0.7-3.6,3.2-8.1,4.3-7.6
		c0.4,0.2,0.8-0.4,0.9-1.2c0.1-1.2-0.1-1.3-1-0.6c-0.6,0.5-1.3,0.7-1.6,0.4c-0.3-0.3-1,0.2-1.5,1c-0.6,0.8-1.5,1.5-2.1,1.5
		c-0.6,0-1.1,0.3-1,0.6c0.4,2.8-0.2,4-2.4,4.5c-1.3,0.3-2.5,1-2.8,1.7c-0.2,0.7-1.2,1.8-2,2.5c-0.9,0.7-2,1.7-2.5,2.1
		s-1.2,0.8-1.6,0.8s-2.5,1.2-4.6,2.6c-2.2,1.5-4.6,2.6-5.4,2.6c-0.9,0-1.4,0.5-1.4,1.5c0,0.8-0.5,1.5-1.1,1.5
		c-0.6,0-1.1-0.3-1.1-0.8c0-1.5-3.6-0.8-4,0.8c-0.4,1.3-0.9,1.5-3.8,1.4c-1.9-0.1-3.6,0-3.9,0.2c-0.7,0.7-3.4-0.3-3.4-1.3
		c0-0.5-0.9-1.2-2.1-1.5c-3.1-0.8-4.2-1.9-3.1-3.2c1.1-1.4,0.6-1.9-2.3-1.9c-1.7,0-2.1-0.3-1.6-1c0.7-0.9,0.8-1.7,0.7-7
		c-0.1-4.5,3-13.7,4.5-13.7c0.4,0,0.9-0.7,1.2-1.5c0.3-0.8,1.8-2.4,3.4-3.5c3.1-2,5.6-5.9,4.7-7.3c-0.3-0.5-0.1-0.6,0.5-0.2
		c0.7,0.4,0.8,0.2,0.5-1c-0.3-0.8-0.1-1.8,0.3-2c0.4-0.3,0.8-1.2,0.8-2c0-1,0.4-1.4,1.1-1.1c0.8,0.3,1.3-0.6,1.9-3.1
		c1-4.1,2-5.4,3.9-5.4c2,0,4.1-4.3,2.9-5.8c-0.7-0.9-0.6-1.5,0.6-3.1c0.8-1.1,2.4-2.5,3.4-3.2c5.9-3.6,8.9-6.2,8.9-7.6
		c0-0.4,0.8-1.2,1.9-1.7c1-0.5,1.9-1.2,1.9-1.5c0-1.6,6.8-6.4,7.7-5.5c0.2,0.2,0.8-0.2,1.3-0.8c1.2-1.4,1.4-1.4,3.9-0.2
		c4.4,2.1,3.9,9-1.3,15.6c-1.5,1.9-2.6,3.8-2.6,4.4c0,1.2-3.3,4.8-4.4,4.8c-0.5,0-0.9,0.6-0.9,1.3c0,0.7-1.7,3.9-3.8,7.2
		c-2.1,3.2-3.8,6.4-3.8,7.1c0,1.6-2.9,6.4-3.9,6.4c-0.8,0-1.5,0.5-5.7,4.3c-1.5,1.4-2.4,2.5-2.1,2.5c0.4,0-0.1,0.4-1,0.7
		c-0.9,0.4-1.7,1.1-1.7,1.7c0,0.7,0.2,0.6,0.7-0.2c0.4-0.6,0.7-0.8,0.7-0.3c0,1.4-0.9,1.9-1.9,1c-0.7-0.6-1.1-0.5-1.5,0.1
		c-0.4,0.6-0.2,0.7,0.3,0.4c0.5-0.3,0.9-0.1,0.9,0.6c0,0.6-0.5,1.2-1.1,1.2c-0.6,0-1.1,0.5-1.1,1c0,0.6-0.7,1.6-1.5,2.4
		c-0.8,0.8-1.5,2-1.5,2.7c0,1.9-1.2,2.4-3.1,1.4c-1.5-0.8-1.5-0.7-0.7,0.8c0.5,1,0.6,1.5,0.1,1.2c-0.4-0.3-1,0.2-1.3,1
		c-0.3,0.8-0.8,1.5-1.3,1.5c-0.5,0-0.5,0.4,0.1,1.1c0.5,0.6,0.8,1.9,0.7,2.9c-0.6,4.9,6.3,5.6,10.8,1.2c2.8-2.8,5.4-4.4,7-4.4
		c0.6,0,2.4-1.5,4.1-3.4c1.9-2.1,3.7-3.4,4.8-3.4c1.2,0,3.9-2.1,8.2-6.3c7.2-7,8.3-8.4,8.3-9.6c0-0.5,1.4-1.5,3.2-2.3
		c1.8-0.8,4.1-2.6,5.3-4.1c1.1-1.4,3-2.8,4.3-3.1c1.7-0.4,2.1-0.8,1.8-1.9c-0.2-0.8,0.2-1.8,1.1-2.4c0.8-0.6,2.1-2,2.8-3.1
		c0.7-1.1,1.7-2.1,2.2-2.1c1,0,10.2-9.7,10.7-11.4c0.2-0.7,2.4-3.3,4.9-5.9c3.1-3.2,5.1-4.7,6.4-4.7c1,0,2.1-0.3,2.3-0.8
		c0.3-0.4,1.4-0.8,2.6-0.8c2.1,0,2.1,0.1,1.8,3.6c-0.2,2-0.8,4-1.3,4.4c-0.6,0.4-1.5,2.3-2,4.1c-0.7,2.4-1.5,3.4-3.1,4
		c-1.1,0.4-2.1,1-2.1,1.3c0,0.3-1,1.1-2.3,1.9c-1.2,0.7-2.3,1.7-2.3,2.1c0,0.4,0.4,0.5,0.9,0.2C595.6,109.6,595.2,110.3,594.2,111.4
		z M518.6,117.2c0-0.4,0.1-0.8,0.3-0.8c0.2,0,0.5,0.3,0.8,0.8c0.3,0.4,0.1,0.8-0.3,0.8C518.9,117.9,518.6,117.6,518.6,117.2z
		 M523.1,161.8c0-0.4-0.4-0.8-0.8-0.8s-0.6,0.3-0.3,0.8c0.3,0.4,0.6,0.8,0.8,0.8C523,162.5,523.1,162.2,523.1,161.8z M559,141.4
		c-0.3,0.4-0.3,1-0.1,1.2c0.2,0.2,0.6-0.2,0.8-0.8C560.2,140.5,559.7,140.2,559,141.4z M589.4,150.1c0,0.6-0.3,1.1-0.6,1.1
		c-0.3,0-0.9,1.1-1.2,2.4c-0.7,2.6-2.2,3.4-6.7,3.5c-1.7,0.1-2.5,0.5-2.9,1.6c-0.6,1.9-2.2,1.5-2.5-0.6c-0.3-1.8,2-5.4,3.5-5.4
		c0.5,0,1.6-0.7,2.5-1.5c0.8-0.8,2-1.5,2.6-1.5c0.6,0,1.1-0.3,1.1-0.8c0-1,1.3-1,1.9,0.1c0.3,0.4,0.9,0.6,1.4,0.5
		C589,149.2,589.4,149.6,589.4,150.1z M594.2,147.8c0,0.6-0.5,1.1-1.1,1.1c-1.3,0-2.1-1.1-1.4-1.8
		C592.6,146.3,594.2,146.7,594.2,147.8z M593.4,143.6c0-0.4,0.3-0.8,0.8-0.8c0.4,0,0.8,0.3,0.8,0.8c0,0.4-0.3,0.8-0.8,0.8
		C593.8,144.4,593.4,144.1,593.4,143.6z M602.7,138.2c1.8,0.5,3.1-1.3,3.7,0.6c0.4,1.2-5.9,5.7-7.4,6.7c-1.1,0.7-2.4,1.1-2.8,1
		c-1.2-0.4-1.4-5.3-0.3-6C596.4,140.1,601.9,137.9,602.7,138.2L602.7,138.2z M613.8,130c0,0.4-0.9,1.2-1.9,1.9
		c-1.2,0.8-1.8,1.7-1.5,2.4c0.3,0.9,0.1,1.1-1,0.8c-0.8-0.2-2.2,0.1-3.1,0.8c-1.6,1.1-1.6,1.1-1.1-1.4c0.3-1.4,1.1-3.1,1.8-3.8
		C608.2,129.3,613.8,128.8,613.8,130z"/>
	<path style="fill:#E6007E;" d="M677.4,140.4c1,1,0.9,1.3-0.6,2.6c-1.3,1-2.1,1.2-3.1,0.7c-1.6-0.8-4.7,0.5-3.9,1.7
		c0.8,1.2-1.7,4.2-3.9,4.8c-2.3,0.6-5.7,3-5.6,4c0.2,1.7-0.8,3.1-3.1,4.3c-1.4,0.7-3.6,1.9-4.8,2.7s-3,1.4-3.9,1.5
		c-0.9,0-1.9,0.4-2.1,0.8c-0.3,0.4-1.9,0.8-3.6,0.8c-2,0-3.9,0.6-5.1,1.5c-2.1,1.6-4.2,1.9-4.9,0.7c-0.3-0.5-0.9-0.3-1.5,0.6
		c-0.9,1.3-1.1,1.3-2.3,0.1c-1-0.9-1.7-1.1-3.1-0.6c-1,0.4-3.1,0.7-4.6,0.8c-1.6,0.1-3.4,0.4-4.1,0.8c-0.7,0.4-1.8,0.2-2.6-0.4
		c-0.8-0.6-1.8-0.9-2.3-0.7c-0.5,0.2-1.1-0.2-1.3-0.9c-0.3-0.8-1-1.1-2-0.7c-0.9,0.3-2.1,0.1-2.7-0.5c-0.6-0.5-2.1-1-3.2-1
		c-1.5,0-2.3-0.6-3.1-2.5c-0.6-1.3-2.2-3-3.6-3.6c-2.5-1.2-3.3-2.6-1.5-2.6c0.7,0,0.7-0.2-0.1-0.7c-0.8-0.5-0.8-1-0.1-2.4
		c0.7-1.2,0.7-1.8,0.1-2.2c-0.6-0.3-0.4-1.4,0.7-3.5c0.8-1.6,1.5-3.4,1.5-4s0.7-2.3,1.5-4c0.8-1.6,1.5-3.6,1.5-4.5
		c0-2.1,2.4-6.9,3.1-6.4c0.3,0.2,0.6-0.5,0.6-1.5c0-1,0.3-2.1,0.8-2.4c0.4-0.3,0.8-1,0.8-1.7c0-2.1,9.6-11.5,11.8-11.5
		c0.6,0,1.1-0.7,1.1-1.6c0-1.2,0.3-1.5,1.5-1.1c1.2,0.4,1.4,0.2,1.1-0.7c-0.2-0.7-0.1-1.2,0.4-1.2s0.8-0.7,0.8-1.5
		c0-0.8,0.7-1.7,1.5-1.9c0.8-0.3,1.5-1.1,1.5-2c0-0.8,0.6-1.7,1.3-2c0.7-0.3,2.1-1.4,3-2.5c1.9-2.3,5.2-3.4,6.6-2.2
		c1.1,0.9,6.5-1,6.5-2.3c0-0.5,0.7-0.7,1.5-0.4c0.8,0.2,2.4-0.1,3.5-0.6c1.8-0.9,4-1,5.4-0.1c0.4,0.2,1.7,0.1,3-0.3
		c1.7-0.5,3.1-0.4,5,0.4c1.4,0.6,2.6,0.9,2.6,0.6c0-0.3,0.6,0,1.2,0.5c0.7,0.6,1.6,1.1,2.1,1.1c0.5,0,1.2,0.1,1.6,0.2
		c1.2,0.2,2.6,6.1,2.5,10.9c-0.1,4.2-0.2,4.4-2.6,5.4c-1.4,0.6-2.5,1.4-2.5,1.9c0,0.4-0.5,0.8-1.1,0.8c-0.6,0-1.1,0.7-1.1,1.5
		c0,1.6-4.2,4.3-4.9,3.1c-0.2-0.4-1.6-1.2-3.1-1.9c-2.3-1.1-2.7-1.6-2.6-4.1c0-3.9,4.1-8.3,6.9-7.4c4.3,1.3,5.2,1.2,5.2-0.6
		c0-1-0.8-2.6-1.8-3.5c-1.5-1.4-2.4-1.6-4.5-1.2c-1.4,0.3-2.8,0.2-3.1-0.2c-0.5-0.8-3.9-0.6-6.5,0.5c-1,0.4-3.9,2.7-6.3,4.9
		c-2.4,2.3-5.9,4.8-7.7,5.6c-2,0.8-3.4,1.9-3.4,2.6c0,0.7-0.5,1.4-1.1,1.7s-1.6,1.4-2.1,2.5c-1,2.4-6.5,10.1-7.7,11
		c-0.4,0.3-1.2,0.4-1.8,0.2c-0.5-0.2-0.9,0.2-0.9,0.8c0,0.6-0.5,1.1-1.1,1.1c-0.6,0-1.1,0.5-1.1,1.1c0,0.6-0.8,2-1.9,3.1
		c-1,1.1-2.3,3-2.8,4.2c-0.5,1.2-1.5,2.4-2.2,2.6c-2,0.6-2.2,3.3-0.6,6.5c0.8,1.6,1.5,3.6,1.5,4.6c0,2.2,2.8,5.2,4.9,5.2
		c0.9,0,2.4,0.7,3.4,1.5c0.9,0.8,2,1.3,2.4,1.1c0.4-0.2,0.7-0.1,0.7,0.2c0,1.4,2.9,0.8,3.6-0.8c0.4-0.9,0.8-1.2,0.8-0.7
		c0.1,1.3,3.9,1.1,5.7-0.2c0.8-0.6,2-1.1,2.6-1.1s1.5-0.6,2.1-1.3c0.9-1.2,1-1.2,1-0.1c0,0.7,0.5,1.7,1.2,2.2
		c0.9,0.8,1.1,0.7,1.1-0.7c0-1.4,0.4-1.6,3.5-1.6c2.7,0,4.1-0.5,6.2-2.2c3.2-2.5,7.3-4,9.7-3.5c1,0.2,1.7,0,1.7-0.6
		c0-0.8,6.2-5.1,7.3-5.1c0.2,0,1.2-0.9,2.2-1.9c2.1-2.3,5.8-3.9,6.2-2.7C676.2,138.9,676.8,139.7,677.4,140.4z M619.5,159.6
		c0-0.4-0.3-0.8-0.8-0.8c-0.4,0-0.8,0.3-0.8,0.8c0,0.4,0.3,0.8,0.8,0.8C619.1,160.4,619.5,160,619.5,159.6z M682.4,138.1
		c-0.3,1.4-0.8,1.9-2.1,1.9c-2.1,0-3.2-1.4-1.8-2.3c0.6-0.4,0.8-0.7,0.4-0.7c-0.3,0-0.4-0.4-0.1-0.8c0.5-0.8,2.9-1,3.5-0.4
		C682.6,136,682.6,137,682.4,138.1z"/>
	<path style="fill:#009FE3;" d="M779.2,60.6c0.2,1.3-0.1,1.7-1.3,1.7c-0.9,0-1.6,0.4-1.5,0.9c0,0.6-0.8,0.7-2.4,0.4
		c-6.7-1.2-19.6,1.2-22.4,4.1c-1,1.1-2,1.4-3.4,1.2c-1.4-0.3-1.9-0.1-1.9,0.7c0,0.6-1.2,2.6-2.8,4.4c-1.6,1.8-3,4.3-3.2,5.5
		c-0.2,1.2-0.9,2.2-1.5,2.2c-0.6,0-1.5,0.8-1.9,1.7c-0.6,1.1-0.6,1.5,0,1.1c0.4-0.3,0.8-0.2,0.8,0.2c0,0.4-0.7,0.9-1.5,1.2
		c-0.8,0.2-1.5,1-1.5,1.8c0,1.3-4.6,6.5-5.9,6.6c-0.4,0-0.4,0.5-0.2,1.1c0.3,0.6,0.3,2,0.1,3c-0.5,2.1-3.1,2.7-4.9,1.1
		c-0.8-0.7-0.9-0.4-0.4,2.1c0.6,2.9,0.5,3.2-2.2,5.1c-1.5,1.2-2.8,2.7-2.9,3.5c-0.3,2.4-3.7,6.6-3.8,5.8c-0.1-0.4-4.3,3.5-4.8,4.9
		c-0.7,1.8-1.5,2.5-2.7,2.6c-1,0-2.4,0.6-3.1,1.2c-0.8,0.6-1.7,1-2,0.8c-0.3-0.2-0.4,0.3-0.2,1.1c0.2,0.8,0,1.9-0.6,2.5
		c-0.6,0.6-1.2,1.7-1.5,2.4c-0.3,0.7-1.1,1.6-1.8,1.9c-2,0.8-6.8,5.2-6.8,6.3c0,0.5-0.4,1.2-1,1.5c-0.6,0.4-1.6,2-2.3,3.7
		c-0.7,1.7-1.7,3.6-2.3,4.3c-0.7,0.9-0.8,1.8-0.1,3.3c0.5,1.1,0.9,2.8,0.9,3.8c0,1.3,0.8,2.2,2.5,3c2.2,1.1,2.5,1.1,3.3-0.1
		c0.5-0.7,1.2-1.3,1.7-1.3c1.3,0,6.1-2.7,6.1-3.4c0-0.3,0.8-0.6,1.8-0.7c1.1,0,2.2-0.7,2.6-1.5c0.6-1.2,1.3-1.4,3.6-1.2
		c1.9,0.2,3.7-0.2,5.2-1c1.3-0.7,3-1.3,3.9-1.3c0.9,0,1.5-0.5,1.5-1.2c0-0.6,0.3-1.1,0.7-1.2c0.4,0,0.5-0.5,0.2-1.2
		c-0.3-0.8,0-1.3,1.1-1.6c0.9-0.3,1.6-0.8,1.6-1.1c0-0.4,0.5-0.7,1.1-0.7c0.6,0,1.4-0.9,1.8-1.8c0.7-2,2.1-2.8,5-2.9
		c1,0,1.7-0.3,1.5-0.6c-0.7-1,1.3-3.1,3.5-3.8c2-0.6,2.1-0.5,1.8,1.4c-0.3,1.8-0.2,1.9,0.9,1c0.7-0.6,2.2-1.6,3.4-2.2
		c1.2-0.6,3.3-2.7,4.7-4.5c1.4-1.8,3.2-3.3,3.9-3.3c0.7,0,1.4-0.6,1.7-1.2c0.2-0.6,0.8-1.2,1.3-1.2c0.5,0,0.7,0.2,0.4,0.5
		c-0.3,0.3-0.1,1.1,0.3,1.8c0.6,1,0.3,1.7-1.1,3.1c-1,1-1.8,2.3-1.8,2.8c0,0.6-0.6,1-1.4,1c-0.8,0-1.9,0.6-2.6,1.2
		c-0.6,0.6-1.4,1.2-1.8,1.2c-0.4,0-0.9,0.5-1.1,1.2c-0.2,0.6-0.9,1.2-1.5,1.2c-0.6,0-1.3,0.6-1.5,1.2c-0.2,0.6-0.8,1.2-1.2,1.2
		c-1,0-2.9,2-2.9,2.9c0,0.3-1.7,1.5-3.7,2.6c-2,1.1-3.7,2.2-3.7,2.6c0,0.3-0.6,0.6-1.4,0.7c-1,0-1.5,0.8-1.8,2.3
		c-0.2,1.4-1,2.4-2,2.8c-0.9,0.3-3.1,2.1-5,4c-2.4,2.4-4,3.5-5.5,3.5c-1.6,0.1-2.4,0.6-2.9,2c-0.5,1.1-1.5,2-2.4,2
		c-0.9,0.1-2.6,0.8-3.8,1.6c-3.8,2.6-4.3,2.7-5.6,1.2c-1.2-1.4-1.2-1.4-2.9,0.5c-1.4,1.6-1.8,1.8-2.4,1c-0.6-0.8-0.9-0.8-1.9,0.3
		c-0.9,1-1.6,1.1-2.7,0.6c-0.8-0.4-2.8-0.8-4.4-0.9c-4.3-0.3-8.2-2.9-8.3-5.6c0-1.3-0.8-2.7-1.8-3.5c-1-0.8-1.6-1.8-1.3-2.2
		c0.2-0.4,0.1-1-0.3-1.2c-1-0.6-1.3-8.7-0.3-8.7c0.4,0,0.5-1.2,0.2-2.8c-0.4-2.1-0.3-2.6,0.4-2.2c1.4,0.8,3.9-2.3,2.8-3.3
		c-0.6-0.5-0.6-1.1-0.1-1.8c0.4-0.6,0.9-1.9,1.2-3.1c0.2-1.1,1.1-2.5,1.9-2.9c0.8-0.5,1.5-1.4,1.4-2c-0.1-1.6,3.5-8,4.5-8
		c0.5,0,3.4-1.4,4.3-2.3s2.4-2.1,3.4-2.6c1.2-0.7,1.6-1.5,1.4-2.9c-0.2-1.3,0.2-2.3,1.1-3c0.8-0.6,5.2-1.3,5.4-2.3
		c0.3-1,1.6-3.1,2.9-4.6c1.3-1.6,3-4,3.8-5.5c0.8-1.6,2.1-2.8,3.1-3c1.7-0.3,2.6-1.9,3.2-5.6c0.5-2.8,2.8-5.7,5.8-7.2
		c2-1,2.8-2.1,3.4-4.4c0.4-1.7,1.4-3.4,2.1-3.8c0.7-0.4,1.9-2,2.5-3.5c0.7-1.5,2-3.1,2.9-3.6c1-0.5,1.7-1.2,1.7-1.6
		c0-0.4-0.4-0.4-0.9,0c-1.6,1.2-12.5,1.1-13.9-0.1c-1.5-1.4-0.8-3.6,1.1-3.7c0.8,0,1.6-0.4,1.8-0.8c0.7-1.3,4.8-1,6.3,0.4
		c1.1,1,1.8,1.2,3.1,0.5c1.3-0.6,1.9-0.6,2.4,0.2c0.6,0.8,0.7,0.8,0.7,0.1c0-0.6,0.5-0.8,1.4-0.6c1,0.3,1.9-0.3,3.1-2
		c2.4-3.3,4.2-7,4.2-8.5c0-1.2,5.5-6.9,6.8-6.9c0.3,0,0.5-0.6,0.5-1.4c0-0.8,0.7-2.1,1.6-3c2.6-2.6,3.4-3.9,2.9-4.4
		c-0.3-0.3,0.1-0.3,0.8,0c1,0.4,1.3,0,1.3-1.5c-0.1-1.7,3-6.6,4.5-7.3c0.3-0.1,0.5-0.8,0.5-1.4c0-0.6,0.5-1.3,1-1.6
		c0.6-0.3,1.7-1.7,2.5-3.1c0.8-1.5,2.5-3.2,3.9-3.8c3.4-1.6,4.1-1.5,5.4,0.7c0.7,1.3,1.3,1.6,1.6,1.1c0.3-0.5,0.9-0.9,1.3-0.9
		c0.6,0,0.6,0.3,0.1,0.9c-0.6,0.7-0.3,1,1.1,1c2.7,0.1,2.9,0.6,1.2,3.6c-0.8,1.5-1.5,3.1-1.5,3.6c0,0.4-0.8,1.5-1.8,2.4
		c-1,0.9-2.5,2.9-3.2,4.5c-0.8,1.6-2,3.2-2.7,3.4c-1.2,0.4-5.9,10-5.8,11.9c0,0.4-0.6,1.2-1.3,1.7c-1.4,1.1-5.5,7.5-5,8
		c0.2,0.1,4.2,0.3,9,0.4C778.8,58.7,778.9,58.7,779.2,60.6L779.2,60.6z M711.1,149.1c0.4,0,0.8,0.3,0.8,0.7c0,0.4-0.3,0.8-0.7,0.8
		c-0.4,0-0.8-0.3-0.8-0.7C710.4,149.4,710.7,149.1,711.1,149.1z M741.8,127.1c2.2-1.4,3.4-1.3,2.9,0.2c-1,3-5.3,5.9-5.4,3.6
		C739.2,129.3,739.9,128.3,741.8,127.1L741.8,127.1z"/>
	<path style="fill:#009FE3;" d="M808.9,133.5c-1,0.6-2.1,1.6-2.3,2.4c-0.2,0.8-1.1,1.4-2,1.4c-0.9,0-2.7,0.7-4.1,1.6
		c-1.4,0.9-2.9,1.4-3.3,1.1c-0.4-0.3-1.2,0.4-1.7,1.5c-0.5,1.1-1.7,2.1-2.6,2.4c-1,0.2-1.8,0.9-1.8,1.4c0,1.3-1.6,1.8-3.2,1
		c-1-0.5-1.4-0.2-1.8,1c-0.6,1.9-3.1,4.3-4.4,4.3c-0.5,0-2,1-3.5,2.2s-3,2.3-3.4,2.3c-0.4,0-2,0.9-3.5,1.9c-1.5,1-3.7,1.9-4.8,1.9
		c-1.7,0-6.6,1.3-7.8,2c-0.2,0.1,0.2,0.7,0.7,1.4c0.9,1.1,0.7,1.2-2,0.7c-1.6-0.3-3.4-0.8-3.8-1.2c-0.6-0.5-1,0-1.4,1.3
		c-0.3,1.1-0.9,2.4-1.5,3c-1,1-5.7,2.3-6.9,1.9c-0.4-0.1-2.1-0.3-3.6-0.4c-2.4-0.2-3.6-0.9-6.7-4.1c-2.1-2.1-3.6-4.2-3.3-4.6
		c0.2-0.4-0.2-1.1-1-1.5c-1.4-0.7-1.4-0.9-0.2-5.4c0.7-2.6,1.8-5,2.5-5.4c0.7-0.4,1.3-1.5,1.3-2.5c0-1,0.4-2,0.9-2.2
		c0.7-0.3,0.7-0.6-0.1-1.1c-0.9-0.7-0.9-1.1,0.4-3.5c0.8-1.5,1.8-2.7,2.1-2.7c0.4,0,0.5-0.7,0.3-1.6c-0.7-2.8,0.8-5.1,4.7-7.1
		c3.5-1.8,3.8-2.1,3.8-4.8c0-4,2.3-8.5,6-11.7c1.7-1.5,3.3-3.5,3.5-4.5c0.2-1,0.7-2.5,1-3.3c0.4-0.8,0.9-2.1,1.1-2.8
		c0.2-0.7,1.4-1.5,2.5-1.8c2.3-0.5,4.9-2.5,4.4-3.2c-0.2-0.3,0.2-1.1,0.7-1.8c0.7-1,2.3-1.4,6.2-1.7c2.8-0.2,5.3-0.7,5.4-1.1
		c0.4-1.1,2.1-1,3,0.2c0.8,1.1-0.8,5.9-2,5.9c-0.4,0-0.4,0.9-0.1,2.2c0.7,2.4,0.2,5.3-0.8,5.3c-0.3,0-1.2,1-1.9,2.2
		c-0.7,1.2-2,2.3-2.9,2.5c-1.2,0.2-1.7,1-2.1,3.4c-0.3,1.8-1,4.2-1.7,5.3c-0.6,1.1-1.3,2.7-1.6,3.5c-0.3,0.9-0.9,1.2-1.6,1
		c-1.3-0.5-4.1,2-4.1,3.6c0,0.6-0.3,1.2-0.7,1.3c-0.4,0.1-0.9,1.1-1,2.1c-0.2,1-1,2.2-1.9,2.6c-0.9,0.4-1.6,1.2-1.6,1.8
		c0,0.6-0.7,1.2-1.5,1.4c-0.8,0.2-1.5,0.9-1.5,1.5s-1,2.3-2.3,3.8c-1.9,2.1-2.1,2.8-1.4,3.7c0.7,0.9,0.3,1.6-2.2,3.8
		c-2.9,2.5-3.1,2.9-3.1,6.7c0,3.5,0.3,4.2,2.3,6c2,1.8,2.5,1.9,3.8,1.1c1.3-0.8,1.7-0.8,2.3,0.2c0.6,0.9,0.7,0.8,0.7-0.6
		c0-1.2,0.3-1.7,1.1-1.4c0.6,0.2,1.3-0.1,1.5-0.7c0.2-0.6,0.9-1.1,1.6-1.1c0.6,0,1.2-0.3,1.2-0.7c0-0.4,0.8-0.9,1.7-1.1
		s2.5-1.1,3.4-2c0.9-0.9,2.7-1.8,4-2c1.3-0.3,3-1.4,3.9-2.7c1.4-2,1.7-2.1,2.5-1c1,1.4,1.9,0.9,1.9-1.2c0-0.8,0.3-1.2,0.8-1
		c0.4,0.3,1.1-0.4,1.6-1.4c0.9-2,3.7-3.3,3.7-1.6c0,0.5-0.4,1.2-0.9,1.4c-0.5,0.2,0.2,0.2,1.7,0c1.5-0.2,3.3-1.2,4.2-2.2
		c2-2.3,7.1-5,8.9-4.6c0.7,0.2,1.3,0,1.3-0.3c0-0.4,1.1-1.8,2.4-3.1c2.2-2.3,2.4-2.3,3.4-1.1c0.9,1.2,1,1.1,1.5-1.3
		c0.3-1.7,1-2.8,1.9-3c0.8-0.2,1.4,0,1.5,0.5c0,0.6,0.2,0.6,0.6-0.1c0.5-0.7,1-0.6,2.3,0.6C811.2,131.7,811.2,132.2,808.9,133.5z
		 M788.4,65.5c1.7-0.6,3.2-1.5,3.3-1.9c0.4-1,2.4,1.8,2.4,3.4c0,0.7-0.3,1.5-0.8,1.8c-0.4,0.3-0.8,1-0.8,1.8s-0.7,1.7-1.5,2.2
		c-1.3,0.8-1.6,0.7-1.9-0.8c-0.2-0.9-1.2-2.1-2.1-2.5C784.5,68.5,785.1,66.8,788.4,65.5z M809.7,124.6c0.3-0.9,0.9-1.7,1.5-1.7
		c1.5,0,1,3-0.6,3.9C809.1,127.5,809,127.2,809.7,124.6z M813,129.4c0,0.6-0.5,1.1-1.1,1.1c-1.1,0-1.6-1.6-0.7-2.5
		C811.9,127.3,813,128.1,813,129.4z M814.9,122.8c-0.7-0.1-1.5-0.7-1.7-1.3c-0.2-0.6,0.1-0.9,1-0.8c0.7,0.1,1.5,0.7,1.7,1.3
		C816.1,122.7,815.7,122.9,814.9,122.8z M816.8,126.7c-0.9,1.7-2.2,1.9-2.2,0.3c0-0.6,0.5-1.1,1.2-1.1c0.6,0,1-0.3,0.7-0.8
		c-0.3-0.4-0.1-0.8,0.3-0.8C817.8,124.4,817.8,124.9,816.8,126.7z"/>
	<path style="fill:#009FE3;" d="M860.3,135.4c0.1,0.8-0.7,2.1-1.6,2.9c-1,0.8-1.8,1.8-1.7,2.3c0.1,1.5-2.3,4.3-4.1,4.8
		c-1.2,0.3-1.9,1.1-2,2.3c-0.2,1.3-0.8,2-1.9,2.1c-2.5,0.3-2.9,1.5-1.6,4.3c0.7,1.4,1.2,2.3,1.2,2c0-0.3,0.8-0.3,1.7,0.1
		c1.4,0.6,1.6,0.6,1.1-0.5c-0.3-0.7-0.2-1.2,0.3-1.3c1.1-0.1,3.8,2,3.9,3c0.1,1-4.2,3.2-5.2,2.7c-0.4-0.2-2.3-0.3-4.3-0.3
		c-2,0.1-4.9-0.1-6.6-0.4c-3.4-0.6-7.2,0.2-7.6,1.7c-0.2,0.7-1.1,0.9-2.9,0.8c-1.8-0.1-2.6,0.1-2.5,0.7c0,0.6-0.4,0.8-1.2,0.6
		c-0.7-0.2-1.7,0.1-2.3,0.7c-0.6,0.6-1.9,1-3.1,1c-1.4,0-2.6,0.7-4,2.5c-1.9,2.4-4.7,3.5-4.8,2c-0.1-1.4-3.9-2.3-4.8-1.2
		c-1.3,1.6-3.4,1.3-3.8-0.5c-0.2-1-1-1.7-2-1.8c-1.6-0.1-3.9-2.9-4.1-5c-0.1-1.1-1.3-1.8-3.9-2.3c-1.2-0.3-1.4-1-1.6-5.8
		c-0.2-6,1.1-10.4,4.2-13.8c1-1.1,1.9-3.1,2-4.6c0.1-1.4,0.9-3,1.6-3.5c0.7-0.5,1.3-1.2,1.3-1.5c-0.1-1.1,5-9.9,6.9-11.9
		c1-1,1.8-2.2,1.7-2.6c0-0.4,1.2-1.5,2.7-2.5c1.5-0.9,3-2.6,3.4-3.6c0.5-1.3,1.5-2.2,3.3-2.6c2.1-0.6,2.8-1.3,3.9-4.3
		c0.9-2.6,2-3.9,3.8-4.9c3.2-1.7,7.2-5.9,9.1-9.6c1.7-3.3,4.2-4.5,11.6-5.8c2.4-0.4,5.4-1.2,6.6-1.7c3.3-1.3,7.2-1.6,12-0.8
		c5,0.8,5.8,1.2,5.9,2.5c0,0.5,1,1.7,2.1,2.6c1.1,0.9,2.1,1.9,2.1,2.3c0,0.4,0.7,1.1,1.4,1.6c1.3,0.8,1.3,1,0.3,3.9
		c-0.6,1.7-0.9,3.7-0.7,4.5c0.2,0.8,0,1.4-0.6,1.4c-0.5,0-1.5,0-2.1,0c-0.7,0-1.2-0.9-1.4-2.5c-0.2-1.7-1.2-3.3-3.4-5.5
		c-2.9-2.7-3.4-3-5.5-2.3c-1.3,0.4-3.4,2-4.6,3.4c-1.7,2.1-2.9,2.8-5,3c-2.1,0.2-3.1,0.8-4.1,2.3c-0.8,1.2-1.8,2.1-2.3,2.2
		c-0.5,0-1.5,0.8-2.2,1.7c-0.7,0.9-1.6,1.7-2.1,1.7s-1.4,0.8-2.1,1.7c-0.7,0.9-1,1.6-0.7,1.6c0.7-0.1-1.3,3.5-3.6,6.5
		c-1.1,1.4-2.1,3.3-2.2,4.3c-0.2,1-0.5,1.9-0.8,1.9c-1.2,0.1-2.1,5-1.4,7.6c0.6,2.5,0.5,3-1.5,4.7c-1.4,1.3-2.4,1.7-2.8,1.2
		c-0.5-0.7-2.5-1.1-4.9-1.1c-0.8,0-1-3.3-0.2-4.2c0.8-1,1-4.1,0.3-4.1c-1.8,0-2.1,0.2-1.6,0.9c0.3,0.4-0.3,1.2-1.3,1.7
		c-1.8,1-2.9,3.3-2,4.5c0.7,1-0.9,4.7-2.2,5.3c-0.7,0.3-1.3,1.4-1.5,2.4c-0.2,1-0.6,1.9-1,2c-1,0.1-2.7,4.4-2.5,6.6
		c0.2,2.3-1,6-2.2,6.9c-1.5,1.1-0.7,4.2,1.5,6.1c1.8,1.5,2.7,1.7,6.8,1.3c2.6-0.3,5-0.4,5.4-0.4c1.2,0.2,5.5-2.1,5.4-2.9
		c0-0.4,0.8-0.6,1.9-0.5c1.4,0.2,2,0,2.3-1.1c0.2-0.8,1-2,1.8-2.7s1.2-1.7,0.9-2.3c-0.3-0.7-0.7-0.6-1.6,0.5
		c-1.2,1.4-1.3,1.4-2.4,0.1c-4.2-4.5-5.5-9.5-3.4-13.3c0.7-1.3,1.1-2.8,1-3.3c-0.2-0.6,0.6-0.4,2.1,0.5c2.9,1.8,5.2,5.7,5.9,10.2
		c0.3,1.9,0.9,3.9,1.3,4.4c0.9,1.1,6.4,1,6.3-0.1c-0.1-1.2,2.8-4.6,4-4.7c1.2-0.1,6.4-6.2,6.3-7.4c0-0.4,1.1-1.3,2.5-2.1
		c2.3-1.2,2.8-2.1,2.4-3.8c-0.3-1.2,2.8-7.3,3.7-7.2c0.5,0.1,0.7-0.4,0.4-0.9c-0.5-1.1,2-4.4,3.5-4.6c0.5,0,0.8-1.3,0.6-3.3
		c-0.5-5.9,3-11.9,7.9-13.6c2.7-0.9,4.1,3.4,2.4,7.5c-0.4,0.9-0.6,2.3-0.5,3.2c0.1,1.1-0.5,1.9-2,2.6c-1.2,0.5-2.2,1.3-2.1,1.7
		c0,0.4-0.8,0.6-1.8,0.5c-1.1-0.1-2,0.3-2.2,0.9c-0.2,0.7,0.1,0.9,0.8,0.5c0.9-0.5,1.1-0.1,0.8,2c-0.2,1.4-0.8,3.1-1.3,3.7
		c-0.5,0.6-0.9,1.6-0.9,2.2c0.1,1.6-3.4,4.2-4.2,3.1c-0.5-0.6-0.8-0.4-1.1,0.9c-0.2,1-0.3,2.2-0.2,2.7c0.1,0.5-0.3,1-1,1
		C860.7,133.9,860.2,134.6,860.3,135.4L860.3,135.4z M889.7,139.7c-0.9,0.4-1.6,1.3-1.6,1.9c0.1,0.6-1,1.8-2.4,2.6
		c-1.4,0.8-2.5,1.8-2.5,2.1c0,0.4-0.5,0.7-1.1,0.8c-0.6,0.1-1.3,0.6-1.5,1.2c-0.2,0.6-1.9,1.8-3.7,2.7c-1.9,0.8-4,1.9-4.6,2.3
		c-0.7,0.4-1.9,0.9-2.8,0.9c-0.8,0.1-1.7,0.7-1.9,1.3c-0.5,1.6-3.2,1.7-3.3,0.1c-0.1-1.2-0.2-1.2-0.9,0.1c-0.8,1.3-1,1.2-3.1-0.3
		c-2.7-1.9-2.5-4,0.5-4.4c3.4-0.4,4.6-0.9,7-3.2c1.3-1.2,2.7-2.2,3.2-2.2c0.4,0,1.5-1,2.4-2.2c1.6-2.1,4-2.6,6.3-1.4
		c0.6,0.3,1,0.2,0.9-0.3c0-0.5,0.2-0.7,0.6-0.5c0.4,0.2,0.8-0.4,1-1.3c0.2-1.1,0.7-1.5,1.5-1.3c0.8,0.2,1.5-0.3,1.9-1.4
		c0.3-1,1.3-2.2,2.2-2.7c2.5-1.5,3.4-1.4,4.3,0.3C893,137,892.2,138.5,889.7,139.7z"/>
	<path style="fill:#009FE3;" d="M988.5,141.9c0.7,1.1-0.3,3.8-1.5,3.8c-0.5,0-1.2,0.8-1.5,1.8c-0.6,2.2-5.4,5.2-7.8,4.8
		c-0.9-0.2-1.5,0-1.3,0.3c0.2,0.4-0.1,0.6-0.7,0.6c-0.6,0-2.1,1.2-3.3,2.6c-2.5,3.1-3.2,3.3-3.2,0.8c0-1-0.3-1.9-0.8-1.9
		c-0.4,0-0.6,0.8-0.3,1.7c0.6,2.5-0.8,5.8-2.6,5.8c-0.8,0-1.7,0.7-2,1.6c-0.4,1.3-0.9,1.5-2.7,1.2c-1.6-0.3-3.2,0.1-5.6,1.5
		c-4.1,2.3-6.7,2.2-7-0.2c-0.2-1.6-0.3-1.6-2-0.5c-1.6,1.1-2,1.1-4.1,0c-1.4-0.7-2.3-1.8-2.3-2.7c0-0.8-0.4-2.2-0.8-3.1
		c-0.5-0.8-0.5-1.9-0.2-2.4c0.6-0.8,0.7-2.2,0.2-6.6c-0.3-3.4,0-4.5,1.1-4.5c0.6,0,1.5-0.7,1.9-1.5c0.4-0.8,0.6-1.5,0.3-1.5
		c-0.3,0,0.7-1.1,2.1-2.5c1.6-1.5,3-3.9,3.6-6.1c0.6-2,1.8-4.8,2.8-6.2c1-1.4,1.8-3.2,1.8-4c0-0.8,0.7-2.2,1.5-3.1
		c0.8-1,2.6-3.8,3.9-6.4c2.6-5.2,4.2-7.2,5.7-7.2c0.6,0,1-0.7,1-1.5c0-0.8,0.7-1.9,1.6-2.3c1-0.5,1.4-1.3,1.1-2
		c-0.3-0.7,0.2-1.8,1.1-2.6c1.9-1.7,1.9-2.6,0.3-3.5c-1.7-0.9-4-0.2-3.6,1c0.5,1.4-2.4,2.8-5.2,2.5c-2.7-0.3-5.1,1.3-5.1,3.3
		c0,0.7-0.4,1.3-0.8,1.3s-1.8,1-3.1,2.3c-1.9,1.9-2.5,2.1-3.4,1.3c-0.9-0.8-1.4-0.6-2.9,1.2c-1.5,1.8-2.1,2.1-4.1,1.7
		c-2-0.4-2.5-0.2-3.1,1.4c-0.7,1.8-2.3,2.3-6.3,2c-0.7-0.1-1.3,0.3-1.2,0.8c0.2,1.7,0,2.8-0.6,2.7c-1-0.3-4,1-4,1.7
		c0,1-8.4,10.6-9.3,10.6c-1.5,0-5,3.6-5,5.1c0,0.8-0.5,1.9-1.1,2.4c-0.6,0.5-1.1,1.4-1.1,1.9c0,0.5-0.9,1.6-1.9,2.4
		c-1.1,0.8-2,1.9-2.2,2.5c-0.5,2.3-1.4,3.8-2.4,3.8c-0.6,0-1.1,0.5-1.1,1.1c0,1.1-8,8.8-9.1,8.8c-0.4,0-1.7,1.7-3,3.8
		c-2.2,3.5-2.5,3.8-5.3,3.8c-4.1,0-6-2-6-6.3c0-2,0.4-3.7,1.1-4.3c0.6-0.5,1.1-1.3,1.1-1.8c0-0.5,0.8-1.8,1.7-3
		c2.1-2.5,4.7-6.8,6.2-10.1c0.6-1.4,1.5-2.5,1.9-2.5c0.4,0,0.8-0.7,0.8-1.5c0-0.8,0.5-1.7,1.1-2c0.8-0.3,1.1-1.5,1.1-4
		c0-3.2,0.4-4,3-6.7c1.6-1.7,3.6-3,4.3-2.9c1,0.1,1.5-0.5,1.6-2c0.2-1.7,0.6-2.1,2.4-2.1c1.5,0,2.3-0.5,2.6-1.4
		c0.3-0.9,1.5-1.6,3.2-1.9c2.5-0.5,2.7-0.7,2.2-2.5c-1.1-4.1-0.7-7.2,1-8.3c0.9-0.6,1.6-1.6,1.6-2.1s0.7-1.5,1.5-2
		c0.8-0.5,1.5-1.5,1.5-2.2c0-1.4,1.8-3.2,2.5-2.4c0.3,0.3,0.5-0.1,0.5-0.7c0-2.4,1.7-5,3.9-5.9c1.2-0.5,2.2-1.2,2.2-1.5
		s1.4-1.5,3.2-2.7c1.8-1.2,3.3-2.5,3.5-2.8c0.2-0.4,1.3-0.4,2.6-0.1c1.3,0.3,3,0.6,3.9,0.6c1.2,0.1,1.5,0.6,1.4,2.8
		c-0.1,1.5-0.2,3.6-0.2,4.7c-0.1,1.4-0.6,2.2-1.7,2.5c-2.7,0.8-4.4,2.7-3.5,3.8c1.1,1.3,0.5,4.5-0.7,4.2c-0.6-0.1-1.6,0.3-2.3,0.9
		c-0.7,0.6-1.5,0.9-1.8,0.7c-0.3-0.3-0.5,0.3-0.5,1.2s-0.6,2.2-1.3,2.7c-0.7,0.6-1,1-0.5,1c0.5,0,1.4-0.7,2.2-1.5
		c0.8-0.8,1.8-1.5,2.3-1.5c1.4,0,8.1-3.6,9.1-5c0.7-0.9,1.7-1.1,4.2-0.7c3.7,0.5,4.4,0.2,5.7-2.8c0.5-1.2,1.5-2.1,2.4-2.1
		c0.8,0,2.5-1,3.8-2.2c1.3-1.2,2.3-1.8,2.3-1.3c0,0.5,1.1-0.4,2.5-2c2.4-2.7,2.7-2.8,5.5-2.2c2,0.5,3.6,0.4,5.2-0.3
		c3-1.3,7.1-1.3,7.6,0c0.5,1.3,1.2,7.4,1.3,11.6c0.1,2.3-0.4,3.8-1.6,5.3c-0.9,1.2-2,2.9-2.4,3.8c-0.4,0.9-1.9,2.2-3.3,2.8
		c-3.1,1.3-3.5,1.9-4,5.6c-0.4,3.3-1.5,4.7-3.4,4.7c-0.8,0-1.6,0.4-1.9,0.9c-0.4,0.6-0.2,0.7,0.4,0.3c0.7-0.4,0.8-0.1,0.4,1.2
		c-0.3,1-0.9,2.2-1.3,2.7c-0.4,0.5-0.5,1.5-0.3,2.1c0.3,0.8,0,1.3-1.1,1.6c-1.1,0.3-1.4,0.8-1.1,1.7c0.3,0.9-0.3,2-1.7,3.1
		c-1.2,1-2.6,2.7-3.2,3.9c-0.8,1.6-1.5,2-3.3,1.9c-1.4-0.1-2.5,0.3-2.8,1c-1.9,3.7-3.8,8.3-4.5,11.1c-0.4,1.8-1.1,3.4-1.5,3.6
		s-0.4,1.4-0.1,2.5c0.3,1.1,0.4,2.5,0.3,3c-0.2,0.6,0.1,0.8,0.8,0.5c0.6-0.2,1.3,0.1,1.6,0.8c0.4,1,1.1,1.2,3.1,0.8
		c1.7-0.3,2.7-0.2,2.9,0.4c0.4,1.3,5.1-0.9,5.1-2.4c0-1.8,1.6-3,4-3c1.2,0,2.3-0.5,2.5-1c0.2-0.6,1.3-1,2.3-1c1.1,0,2.2-0.4,2.5-0.9
		c0.4-0.7,0.7-0.7,1.1-0.1c0.9,1.4,1.8,0.9,1.4-0.6c-0.3-1,0.5-2.2,2.5-4c1.6-1.4,3.4-3.1,4.2-3.9c1.1-1.1,1.6-1.2,2.9-0.5
		c1.3,0.7,1.6,0.6,1.6-0.3C985.1,141,987.7,140.7,988.5,141.9z M990.9,141.8c0.2,0.6-0.2,1.6-1,2.3c-0.7,0.7-1.2,0.9-1,0.5
		c0.2-0.4,0.6-1.4,1-2.3C990.3,141.2,990.6,141,990.9,141.8z M998.5,135.9c0.4,3.7-5.2,6.4-6.1,2.9c-0.2-0.9,0-1.5,0.5-1.5
		c0.5,0,1.4-0.9,2-1.9C996.2,133,998.2,133.3,998.5,135.9L998.5,135.9z"/>
</g>
</svg>
