<?xml version="1.0" encoding="utf-8"?>
<!-- Generator: Adobe Illustrator 30.4.0, SVG Export Plug-In . SVG Version: 9.03 Build 0)  -->
<svg version="1.0" id="Layer_1" xmlns="http://www.w3.org/2000/svg" xmlns:xlink="http://www.w3.org/1999/xlink" x="0px" y="0px"
	 viewBox="0 0 240 240" style="enable-background:new 0 0 240 240;" xml:space="preserve">
<polygon style="fill:#070C0F;" points="90.3,124.5 77.2,137.6 77.2,239.6 103.4,239.6 103.4,137.6 "/>
<polygon style="fill:#F9D500;" points="72.5,106.7 39.8,119.8 72.5,132.9 85.6,119.8 "/>
<polygon style="fill:#070C0F;" points="70.6,144.2 70.6,239.5 44.4,239.5 44.4,170.4 "/>
<g>
	<polygon style="fill:#070C0F;" points="90.3,115.1 77.2,102 77.2,0 103.4,0 103.4,102 	"/>
	<polygon style="fill:#070C0F;" points="70.6,95.4 70.6,0.2 44.4,0.2 44.4,69.2 	"/>
</g>
<polygon style="fill:#070C0F;" points="149.3,124.5 162.4,137.6 162.4,239.6 136.2,239.6 136.2,137.6 "/>
<polygon style="fill:#F9D500;" points="167.1,106.7 199.8,119.8 167.1,132.9 154,119.8 "/>
<polygon style="fill:#070C0F;" points="169,144.2 169,239.5 195.2,239.5 195.2,170.4 "/>
<g>
	<polygon style="fill:#070C0F;" points="149.3,115.1 162.4,102 162.4,0 136.2,0 136.2,102 	"/>
	<polygon style="fill:#070C0F;" points="169,95.4 169,0.2 195.2,0.2 195.2,69.2 	"/>
</g>
</svg>
