<?xml version="1.0" encoding="utf-8"?>
<!-- Generator: Adobe Illustrator 30.4.0, SVG Export Plug-In . SVG Version: 9.03 Build 0)  -->
<svg version="1.0" id="Layer_1" xmlns="http://www.w3.org/2000/svg" xmlns:xlink="http://www.w3.org/1999/xlink" x="0px" y="0px"
	 viewBox="0 0 240 240" style="enable-background:new 0 0 240 240;" xml:space="preserve">
<path style="fill:#000C0F;" d="M120,0C94.6,0,73.9,21.4,73.9,47.9c0,11.7,4.1,22.5,10.8,30.8l17.1,18.2l10.9-27.2l-3.4-3.5l-4.6-4.8
	c-2.8-3.8-4.4-8.5-4.4-13.5c0-11.8,8.8-21.4,19.6-21.4c10.8,0,19.6,9.6,19.6,21.4c0,4.9-1.5,9.7-4.4,13.5l-8,8.3l10.9,27.2
	l17.1-18.2c6.8-8.3,10.8-19.1,10.8-30.8C166.1,21.4,145.4,0,120,0z"/>
<polygon style="fill:#E5007E;" points="120,115.3 133.1,102.2 120,69.4 106.9,102.2 "/>
<polygon style="fill:#009EE2;" points="137.8,133.1 170.6,120 137.8,106.9 124.7,120 "/>
<path style="fill:#000C0F;" d="M240,120c0,25.4-21.4,46.1-47.9,46.1c-11.7,0-22.5-4.1-30.8-10.8l-18.2-17.1l27.2-10.9l3.5,3.4
	l4.8,4.6c3.8,2.8,8.5,4.4,13.5,4.4c11.8,0,21.4-8.8,21.4-19.6c0-10.8-9.6-19.6-21.4-19.6c-4.9,0-9.7,1.5-13.5,4.4l-8.3,8l-27.2-10.9
	l18.2-17.1c8.3-6.8,19.1-10.8,30.8-10.8C218.6,73.9,240,94.6,240,120z"/>
<polygon style="fill:#000C0F;" points="120,124.7 106.9,137.8 106.9,240 133.1,240 133.1,137.8 "/>
<polygon style="fill:#000C0F;" points="139.7,144.4 139.7,239.8 166,239.8 166,170.7 "/>
<polygon style="fill:#F9D500;" points="102.2,106.9 69.4,120 102.2,133.1 115.3,120 "/>
<path style="fill:#000C0F;" d="M0,120c0,25.4,21.4,46.1,47.9,46.1c11.7,0,22.5-4.1,30.8-10.8l18.2-17.1l-27.2-10.9l-3.5,3.4
	l-4.8,4.6c-3.8,2.8-8.5,4.4-13.5,4.4c-11.8,0-21.4-8.8-21.4-19.6c0-10.8,9.6-19.6,21.4-19.6c4.9,0,9.7,1.5,13.5,4.4l8.3,8l27.2-10.9
	L78.7,84.8C70.4,78,59.6,73.9,47.9,73.9C21.4,73.9,0,94.6,0,120z"/>
<polygon style="fill:#000C0F;" points="100.3,144.4 100.3,239.8 74,239.8 74,170.7 "/>
</svg>
