<?xml version="1.0" encoding="utf-8"?>
<!-- Generator: Adobe Illustrator 30.4.0, SVG Export Plug-In . SVG Version: 9.03 Build 0)  -->
<svg version="1.0" id="Layer_1" xmlns="http://www.w3.org/2000/svg" xmlns:xlink="http://www.w3.org/1999/xlink" x="0px" y="0px"
	 viewBox="0 0 1600 128" style="enable-background:new 0 0 1600 128;" xml:space="preserve">
<g>
	<polygon style="fill:#FFFFFF;" points="94.9,39 128,5.9 178.2,5.9 178.2,39 	"/>
	<polygon style="fill:#FFFFFF;" points="128,122.1 94.9,89 178.2,89 178.2,122.1 	"/>
	<g>
		<polygon style="fill:#FFFFFF;" points="58.1,64 41.5,80.6 0,64 41.5,47.4 		"/>
		<polygon style="fill:#FFFFFF;" points="80.6,86.5 64,128 47.4,86.5 64,69.9 		"/>
		<polygon style="fill:#FFFFFF;" points="47.4,41.5 64,0 80.6,41.5 64,58.1 		"/>
	</g>
	<polygon style="fill:#FFFFFF;" points="69.9,64 86.5,47.4 215.7,47.4 215.7,80.6 86.5,80.6 	"/>
</g>
<rect x="163.8" y="5.9" style="fill:#FFFFFF;" width="1436.2" height="33.2"/>
<rect x="157.6" y="89" style="fill:#FFFFFF;" width="1442.4" height="33.2"/>
<rect x="178.2" y="47.4" style="fill:#FFFFFF;" width="1421.8" height="33.2"/>
</svg>
