<?xml version="1.0" encoding="utf-8"?>
<!-- Generator: Adobe Illustrator 30.4.0, SVG Export Plug-In . SVG Version: 9.03 Build 0)  -->
<svg version="1.0" id="Layer_1" xmlns="http://www.w3.org/2000/svg" xmlns:xlink="http://www.w3.org/1999/xlink" x="0px" y="0px"
	 viewBox="0 0 240 240" style="enable-background:new 0 0 240 240;" xml:space="preserve">
<g>
	<polygon style="fill:#E6007E;" points="226.8,206.9 193.9,193.8 226.8,180.6 239.9,193.8 	"/>
	<path style="fill:#040C0E;" d="M124.6,193.7c0,25.4,21.4,46.1,47.9,46.1c11.7,0,22.5-4.1,30.8-10.8l18.2-17.1L194.2,201l-3.5,3.4
		l-4.8,4.6c-3.8,2.8-8.5,4.4-13.5,4.4c-11.8,0-21.4-8.8-21.4-19.6c0-10.8,9.6-19.6,21.4-19.6c4.9,0,9.7,1.5,13.5,4.4l8.3,8
		l27.2-10.9l-18.2-17.1c-8.3-6.8-19.1-10.8-30.8-10.8C146,147.7,124.6,168.3,124.6,193.7z"/>
	<polygon style="fill:#040C0E;" points="226.6,171.8 226.6,-0.2 200.3,-0.2 200.3,145.6 	"/>
	<polygon style="fill:#E6007E;" points="102.1,180.6 69.3,193.8 102.1,206.9 115.2,193.8 	"/>
	<path style="fill:#040C0E;" d="M-0.1,193.7c0,25.4,21.4,46.1,47.9,46.1c11.7,0,22.5-4.1,30.8-10.8l18.2-17.1L69.5,201l-3.5,3.4
		l-4.8,4.6c-3.8,2.8-8.5,4.4-13.5,4.4c-11.8,0-21.4-8.8-21.4-19.6c0-10.8,9.6-19.6,21.4-19.6c4.9,0,9.7,1.5,13.5,4.4l8.3,8
		l27.2-10.9l-18.2-17.1c-8.3-6.8-19.1-10.8-30.8-10.8C21.3,147.7-0.1,168.3-0.1,193.7z"/>
	<polygon style="fill:#040C0E;" points="102.1,171.8 102.1,4.1 75.8,0 75.8,145.6 	"/>
</g>
<polygon style="fill:#040C0E;" points="102,26 75.7,-0.2 226.4,-0.2 200.2,26 "/>
</svg>
