<?xml version="1.0" encoding="utf-8"?>
<!-- Generator: Adobe Illustrator 30.4.0, SVG Export Plug-In . SVG Version: 9.03 Build 0)  -->
<svg version="1.0" id="Layer_1" xmlns="http://www.w3.org/2000/svg" xmlns:xlink="http://www.w3.org/1999/xlink" x="0px" y="0px"
	 viewBox="0 0 1000 265.9" style="enable-background:new 0 0 1000 265.9;" xml:space="preserve">
<g>
	<path style="fill:#E6007E;" d="M367.4,0h2.5l-0.4,4.5c-0.3,3-0.8,4.7-1.6,5.2c-1.5,0.9-3,2.1-4.5,3.6c-1.4,1.5-2.2,2.5-2.2,3.2
		c0,0.9-0.9,2.4-2.7,4.5c-1.8,2.1-3.2,3.3-4.2,3.7c-1.1,0.4-1.9,1.6-2.6,3.5c-0.8,2-2,4.1-3.8,6.4c-2.6,3.2-4.2,5.3-4.8,6.3
		c-0.6,1-0.9,1.9-0.9,2.8c0,1.1-0.5,2.2-1.5,3.5c-1,1.3-2,2.1-3.1,2.4c-1.1,0.4-1.6,1.3-1.6,2.7c0,1-0.1,1.6-0.4,1.8
		c-0.3,0.2-1,0.4-2.1,0.4c-1.8,0-2.6,0.3-2.6,0.8c0,0.6-0.7,1.2-2,1.7c-1.5,0.6-2.8,2.1-4,4.7c-1.3,2.6-2.2,3.9-2.7,3.9
		c-0.5,0-0.9,0.5-1.4,1.6c-0.4,1-1.5,2.4-3.5,4.2c-1.9,1.8-2.8,3.1-2.8,4.1c0,0.9-0.7,1.4-2.1,1.4c-1.3,0-2.8,0.9-4.3,2.6
		c-1.5,1.8-2.5,2.6-2.9,2.2c-0.4-0.2-0.7-0.1-1,0.4c-0.3,0.5-0.5,1.1-0.6,1.7c-0.1,0.7,0,1.2,0.2,1.7c0.4,0.7,0.2,1.8-0.7,3.2
		c-0.9,1.4-1.9,2.4-3,2.8c-1.3,0.6-2,1.2-2,2c0,0.8-0.9,1.4-2.6,1.8c-1.1,0.2-1.8,0.5-2.1,0.8c-0.3,0.3-0.3,0.9-0.1,1.6
		c0.3,1.3,0.2,3.1-0.2,5.4c-0.3,1.5-0.6,2.5-1,2.9c-0.4,0.5-1.2,0.9-2.4,1.2c-0.8,0.2-1.4,0.5-1.8,0.8c-0.5,0.3-0.6,0.6-0.5,0.9
		c0.4,0.6,0,1.5-1.3,2.6c-1.2,1.1-1.8,2-1.8,2.8c0,0.7-0.5,1.3-1.6,1.7c-1,0.4-1.5,1.1-1.7,2.3c-0.1,1.3-0.6,2.2-1.4,2.8
		c-1.3,1.1-2.5,2.6-3.8,4.6c-1.3,2-1.8,3.3-1.5,3.9c0.4,0.8-0.1,1.8-1.5,2.7c-1.3,0.9-1.8,1.4-1.4,1.4c0.3,0-0.2,0.7-1.6,2.2
		c-1.3,1.5-1.9,2.6-1.6,3.3c0.3,0.6-0.4,1.9-1.9,3.8c-1.5,1.9-2.7,2.8-3.5,2.8c-1.5,0-1.6,1.5-0.4,4.6c0.3,0.9,0.3,1.7,0.1,2.4
		c-0.2,0.7-0.8,1.8-1.9,3.3c-1.7,2.3-2.9,3.5-3.8,3.5c-1.3,0-1.6,0.5-1.1,1.6c0.6,1.2,1.7,2.1,3.5,2.7c4.1,1.5,6.6,1.1,7.7-1.2
		c0.6-1.3,1.8-2.4,3.6-3.5c0.6-0.3,1.5-0.8,2.7-1.5c1.3-0.6,2-1,2.2-1.2c1-0.6,2.8-1.4,5.6-2.6c2.4-1.1,3.9-2.1,4.6-3.2
		c0.8-1.1,1.5-1.5,2.3-1.3c0.4,0.1,0.6,0.1,0.7,0c0.1-0.1,0.1-0.4,0-0.7c-0.3-0.8,0.3-1.9,1.7-3.4c1.4-1.5,2.6-2.3,3.5-2.3
		c0.8,0,1.5-0.5,2.1-1.6c0.6-1.1,2.5-2.4,5.9-4.1c3.3-1.6,5.9-3.3,7.8-4.9c1-0.8,1.9-1.4,2.7-1.7c0.8-0.3,1.5-0.3,1.9,0
		c0.5,0.3,0.7,0.8,0.7,1.6c0,0.8-0.4,1.4-1.3,1.8c-0.8,0.4-1.2,0.9-1.1,1.6c0.1,0.6-0.6,1.7-2.2,3.3c-1.6,1.5-3,2.5-4.2,2.8
		c-1.1,0.4-1.6,0.9-1.6,1.7c0,0.7-0.7,1.7-2.1,2.9c-1.3,1.3-2.8,1.8-4.3,1.4c-1.5-0.3-2.2-0.1-2.2,0.7c0,0.8-0.4,1.6-1.3,2.3
		c-0.9,0.8-1.4,1.6-1.4,2.5c0,1-0.6,1.8-1.7,2.4c-1.1,0.6-2.2,0.8-3.4,0.5c-1.3-0.3-2.2,0.3-2.8,1.8c-0.6,1.5-1.4,2.3-2.4,2.3
		c-0.8,0-1.6,0.5-2.6,1.4c-0.9,0.9-1.6,1.9-2.1,3.1c-0.4,0.9-1.6,1.5-3.5,1.9c-2,0.4-3.2,1.2-3.5,2.3c-0.3,1.1-1.2,1.7-2.7,1.7
		c-1.6,0-2.7,0.5-3.4,1.4c-0.6,0.8-2.3,1.3-5.1,1.5c-2.7,0.1-4.1,0.4-4.1,0.8c0,0.4-0.4,0.6-1.1,0.6c-0.7,0.1-1.5,0-2.3-0.2
		c-0.8-0.2-1.4-0.5-1.6-0.9c-0.6-0.8-1.5-1.3-2.8-1.6c-0.8-0.1-1.4-0.3-1.7-0.7s-0.5-1.1-0.7-2.1c-0.3-1.8-0.6-3-1.1-3.6
		c-0.5-0.6-0.7-2.7-0.5-6.2c0.2-3.6,0.9-6.2,2.1-7.9c1.3-1.8,1.9-3.3,1.9-4.5c0-1.3,0.9-2.9,2.8-4.6c2.7-2.5,4.6-5.4,5.9-8.7
		l0.8-2.2l-2.6,2c-1.7,1.4-2.5,2.5-2.5,3.3c-0.1,0.8-0.6,1.7-1.5,2.8c-0.9,1.1-1.8,1.6-2.5,1.6c-0.8,0-1.8,0.7-2.7,2.2
		c-0.6,0.9-1.2,1.5-1.7,1.7c-0.5,0.2-1.3,0.2-2.3-0.1c-1.5-0.4-2.3-1.3-2.3-2.6c0-1.3-0.5-2.3-1.5-2.9c-1.1-0.7-1.2-1.2-0.4-1.5
		c0.6-0.2,2-1.3,4.2-3.4c2.1-2,3.6-2.9,4.4-2.9c0.8,0,1.8-0.5,2.9-1.5c0.7-0.6,1.3-0.9,1.7-0.9c0.4-0.1,1.1,0.1,2.1,0.5
		c1.5,0.7,2.3,0.9,2.5,0.6c0.2-0.3-0.3-1-1.4-2.2c-1.3-1.3-1.6-2.4-1.1-3.3c0.5-0.8,1.1-1.3,1.7-1.3c0.6,0,1.1-0.6,1.5-1.7
		c0.4-1.3,1.2-1.7,2.4-1.4c1.1,0.3,1.7,0,1.7-0.8c0-0.9,0.5-1.8,1.6-2.5c1.1-0.8,2.2-1.2,3.4-1.2c1.1,0,2-0.5,2.6-1.4
		c0.6-0.9,0.8-1.9,0.5-3.1c-0.3-1.1-0.1-1.7,0.5-1.7c0.7,0,0.8-0.5,0.4-1.4c-0.4-0.9-0.1-1.6,0.8-2.1c0.8-0.5,1.5-1.7,1.9-3.6
		c0.4-1.8,1.2-3.2,2.5-4.2c1.1-0.9,1.5-1.6,1.1-2.2c-0.4-0.5-1.2-0.4-2.4,0.4c-2.2,1.4-4.3,1.1-6.4-1.1l-2.1-2.1l-4.2,2
		c-2.9,1.3-4.5,2.5-4.8,3.4c-0.4,1-1.8,2-4.3,3.2c-2.5,1.1-5.1,3-8,5.6c-2.4,2.2-4.2,3.6-5.4,4.2c-1.2,0.5-2.2,0.4-3.2-0.3
		c-0.8-0.6-1.6-0.6-2.4,0.1c-0.8,0.7-1.1,1.5-0.8,2.6c0.2,0.9-0.5,2.1-2.2,3.6c-1.8,1.5-2.8,2.8-3.2,4.1c-0.4,1.3-1.6,2.4-3.6,3.2
		c-2,0.8-2.9,1.9-2.9,3.5c0,1.3-0.7,3-2.1,5.1c-1.4,2-2.6,3.1-3.6,3.1c-0.8,0-1.7,0.7-2.9,1.9c-1.2,1.3-1.7,2.4-1.7,3.3
		c0,1.3-1.3,3.4-3.9,6.5c-2.6,3.1-4.4,4.6-5.5,4.6c-1.1,0-1.7,0.2-1.8,0.7c-0.1,0.5,0.3,1.1,1.2,1.9c0.9,0.8,1.4,1.5,1.4,2.3
		c0,0.8,0.5,1.6,1.5,2.4c1,0.8,2,1.3,3,1.3c1,0,1.6-0.7,2-2.2c0.3-1,0.6-1.6,0.9-1.8c0.4-0.2,1.1-0.2,2.2,0c1.1,0.2,2.1,0.1,2.9-0.3
		c0.8-0.4,2.2-1.4,4.1-3.1c2.8-2.5,5.4-4,7.8-4.7c2.1-0.6,3.2-1.2,3.2-1.6c0-0.3,0.6-0.9,1.8-1.7c1.2-0.8,2.2-0.8,3.2-0.1
		c0.6,0.5,0.9,0.7,1.1,0.6c0.1-0.1,0.1-0.5,0-1.2c-0.1-0.8,0.1-1.3,0.6-1.7c0.6-0.3,1.3-0.4,2.2-0.3c0.9,0.2,1.8,0.6,2.7,1.2
		c0.8,0.6,1.2,0.9,1.4,1.2c0.1,0.2,0.2,0.4,0.1,0.6c-0.1,0.2-0.5,0.4-1.1,0.7c-1.1,0.6-2.4,2.3-3.8,4.9c-0.8,1.5-1.5,2.7-2.3,3.4
		c-0.7,0.7-1.7,1.3-3,1.7c-1.5,0.5-3,1.2-4.3,2c-0.7,0.5-1.1,0.5-1.1,0.1c0-0.6-0.5-0.2-1.4,1.2c-0.8,1.3-2.4,2.2-4.6,2.8
		c-2.2,0.6-3.6,1.6-4.3,3.1c-0.6,1.2-1.6,2.1-3.1,2.8c-1.5,0.7-2.8,0.9-3.9,0.5c-1-0.4-1.6-0.1-2,0.8c-0.4,0.9-1.2,1.3-2.7,1.2
		c-1.4-0.1-2.8-0.6-4.2-1.6c-1.4-1.1-2.5-1.7-3.2-1.7c-0.7,0-1.9-0.8-3.6-2.5c-1.2-1.2-1.9-2.2-2.1-3.2c-0.2-0.9-0.3-3.2-0.3-6.8
		c0-5.1-0.3-7.9-0.8-8.4c-0.6-0.6-0.5-2.4,0.4-5.3c0.9-2.9,2-5.2,3.3-7c1.5-1.8,2.2-3.1,2.2-3.7c0-0.7,1.3-2.1,3.8-4.1
		c2.5-2,4.2-3.1,5.1-3.1c0.4,0,0.8-0.1,1.2-0.4c0.4-0.3,0.5-0.6,0.5-1.1c0-0.9,0.1-2,0.2-3.3c0.1-1.2,1.1-1.9,3.2-2.2
		c1.2-0.1,2-0.4,2.4-0.7c0.4-0.4,0.7-0.9,0.8-1.8c0.3-1.4,0.9-2.6,1.8-3.7c0.2-0.2,0.6-0.7,1.3-1.4c0.6-0.7,1.1-1.2,1.3-1.5
		c0.7-0.8,1.3-1.1,1.9-0.8c0.4,0.2,0.8-0.1,1.2-0.8c0.4-0.9,1.1-1.3,2.3-1.3c1.2,0.1,1.8,0.6,1.8,1.5c0.1,0.6,0.1,1.3,0.1,2.1
		c0,0.4,1.1,0.6,3.3,0.4c1.8-0.1,2.9-0.5,3.3-1.1c0.4-0.6-0.1-1.4-1.4-2.3c-1.3-0.9-1.9-2.4-1.6-4.5c0.3-2.1,1.3-3.8,2.9-5.2
		c2.5-2,5.1-3.2,7.8-3.4c0.7,0,1.1-0.3,1.1-0.8c0-0.6,0.9-0.7,2.7-0.4c1.2,0.1,2,0.1,2.4-0.1c0.4-0.2,0.8-0.8,1.1-1.9
		c0.5-1.5,1.3-2.5,2.5-2.9c1.1-0.4,2.6-0.2,4.6,0.4c2,0.6,3.3,1.4,4.1,2.3c0.5,0.6,0.9,0.8,1.2,0.6c0.3-0.2,0.7-0.9,1.4-2.1l1.4-2.6
		l2.3,1.8c1.5,1.3,2.3,2.4,2.3,3.5c0,1.1,0.3,1.7,0.9,1.7c0.6,0,0.8-0.5,0.5-1.5c-0.3-0.9-0.2-1.8,0.4-2.7c0.5-0.9,1.3-1.4,2.3-1.5
		c1.1-0.1,2.4,0.1,4.2,0.8c1.7,0.7,3.2,1.5,4.4,2.5c0.9,0.8,1.5,1.2,1.8,1.2s0.9-0.5,1.6-1.4c1-1.1,2.3-2.1,4.1-3.1
		c1.5-0.8,2.5-2.1,2.8-3.9c0.4-1.8,1.1-2.9,2.1-3.4c0.9-0.5,1.6-1.6,2-3.5c0.1-0.5,0.2-0.9,0.4-1.3c0.2-0.4,0.4-0.6,0.5-0.8
		c0.2-0.1,0.3-0.2,0.5-0.1c0.2,0.1,0.5,0,0.8-0.4c0.4-0.4,0.7-1,1.1-1.7c0.7-1.7,1.4-2.5,2.2-2.5c0.8,0,1.9-1.2,3.5-3.7
		c1.6-2.5,2.8-4,3.5-4.4c1.1-0.8,3.1-2.8,5.9-6.2c1.6-2,3.3-3.8,4.9-5.5c1.5-1.5,2.3-2.7,2.3-3.4c0-0.7,0.3-1.1,0.9-1.1
		c0.6,0,0.8-0.4,0.8-1.3c0-0.8,0.6-1.6,1.7-2.2c1.2-0.6,2.3-2,3.5-4.2c1.3-2.5,4.1-5.9,8.2-10.3c4.3-4.6,6.5-7.3,6.5-7.9
		c0-0.6,0.2-0.9,0.6-0.9s1-0.9,1.8-2.6c0.7-1.6,1.8-2.6,3.3-3.1c1.3-0.4,2-1.1,2-2.1c0-0.9,0.5-1.6,1.4-2c0.8-0.4,1.3-1,1.3-1.9
		c0-0.8,0.4-1.3,1.2-1.3c0.4,0,0.7-0.2,1.1-0.5c0.4-0.4,0.6-0.8,0.6-1.3c0.4-1.1,1.1-1.7,2.3-1.7c1.2,0,1.8-0.3,1.8-0.9
		c0-0.6,1-0.7,2.9-0.3c2,0.4,3.1,0.2,3.5-0.4C364.6,0.3,365.7,0,367.4,0z"/>
	<path style="fill:#E6007E;" d="M375.5,107.1c-0.5,0-0.7,0.5-0.5,1.4c0.1,1-0.4,1.8-1.5,2.4c-1.2,0.7-2,1.3-2.3,1.7
		c-0.4,0.5-0.8,0.6-1.5,0.2c-0.7-0.4-1.5-0.4-2.3,0.1c-0.8,0.5-1.4,1.1-1.6,2.1c-0.4,1.2-0.9,1.8-1.6,1.7c-0.4,0-0.7-0.4-0.7-1.1
		c0-0.4-0.3-0.1-0.9,0.8c-0.4,0.6-0.7,1.2-1.1,2c-0.8,1.6-1.4,2.6-1.9,3.1c-0.5,0.5-1.3,0.7-2.3,0.7c-1.6,0-2.4,0.2-2.4,0.7
		c0,0.6-0.7,1.4-2.1,2.5c-1.4,1.1-2.5,1.6-3.3,1.6c-1,0-1.6,0.6-2,1.7c-0.4,1.1-1.3,1.9-2.8,2.2c-1.4,0.4-2.7,0.8-3.8,1.4
		c-1,0.5-1.9,0.7-2.8,0.7c-0.8,0-2.7,0.5-5.9,1.6c-3.2,1.1-5,1.5-5.6,1.3c-0.7-0.2-1.1,0-1.1,0.5c0,0.6-1.1,1.2-3.4,1.8
		c-1.9,0.5-3.7,1.6-5.3,3.3c-1.6,1.7-2.6,3.4-3,5.3c-0.5,1.9-0.9,3.3-1.3,4.2c-0.5,1.3-0.4,2.2,0.4,2.9c0.8,0.6,1.3,1.8,1.3,3.5
		c0,1.6,0.3,2.6,0.9,2.9c0.6,0.4,0.7,0.8,0.4,1.3c-0.1,0.2,0,0.5,0.5,1c0.5,0.5,1.1,0.9,1.9,1.2c1.3,0.6,2.3,1,2.9,1
		c0.6,0,1.5-0.2,2.5-0.8c2.7-1.3,6-1.1,10,0.6c0.6,0.3,0.9,0.3,1.2,0.2c0.2-0.2,0.3-0.6,0.3-1.2c0-2.2,0.9-2.8,2.7-1.9
		c1,0.6,1.8,0.4,2.3-0.6c0.5-1.1,1.2-1.4,2.2-0.9c0.8,0.4,1.6,0.1,2.3-0.7c0.7-0.8,1.5-1.1,2.3-0.8c1,0.4,2.1,0.3,3.5-0.2
		c1.3-0.5,2.1-1.1,2.4-2.1c0.4-1.1,1-1.6,1.9-1.6c0.9,0.1,1.9,0.7,2.8,1.9c1.1,1.3,1.8,1.4,2.2,0.3c0.1-0.6,0.3-1.6,0.5-3.2
		c0.1-0.8,0.3-1.4,0.6-1.7c0.3-0.3,0.9-0.3,1.6-0.2c1.3,0.2,2.2-0.1,2.5-1.1c0.4-0.9,1.6-1.8,3.5-2.6c3.6-1.5,6-1.8,7.2-0.6
		c0.8,0.9,0.1,2.2-2.1,4c-1.8,1.5-3.1,2.2-3.8,2.2c-0.5,0-0.9,0.5-1.4,1.6c-0.5,1.6-3.3,3.3-8.3,5.1s-8,2.1-8.7,0.9
		c-0.5-0.7-1-0.2-1.6,1.4c-0.3,0.7-0.6,1.3-0.9,1.7c-0.4,0.4-0.7,0.6-0.9,0.5c-0.8-0.1-2,0.3-3.6,1.4c-1.6,1.1-3.7,1.6-6.2,1.6
		c-2.5,0-3.7,0.3-3.6,0.9c0,0.2-0.2,0.4-0.5,0.5c-0.4,0.1-0.9,0.2-1.6,0.3c-0.7,0.1-1.5,0.1-2.5,0.1c-3,0-4.8,0.2-5.3,0.7
		c-0.4,0.4-1.2,0.7-2.4,0.9c-1.3,0.2-2.5,0.5-3.6,0.9c-1.1,0.4-2,0.3-2.7-0.1c-0.9-0.5-2.5-0.7-4.7-0.5c-1.5,0.1-2.6,0-3.3-0.3
		c-0.7-0.3-1.5-0.9-2.3-1.8c-0.4-0.5-1.2-1.3-2.2-2.4c-1.1-1.1-1.6-1.7-1.8-1.9c-1.3-1.4-1.9-2.4-1.9-2.9c0-0.6-0.3-0.8-0.9-0.8
		c-0.6,0-1-0.5-1.4-1.5c-0.4-1.1-1.1-2.1-1.9-3.1c-0.6-0.7-0.8-1.4-0.8-2c0-0.6,0.4-1.9,1-3.9c0.9-3,1.4-5,1.4-5.9
		c0-1,0.8-2.4,2.3-4.3c1.5-1.9,2.4-4.2,2.6-6.8c0.2-2.7,0.9-4.6,2.1-5.5c1.2-0.9,2.4-2.6,3.7-5.2c1.2-2.5,2.7-4.2,4.5-5.1
		c1.9-0.8,3-2.3,3.4-4.4c0.4-2.1,0.8-3.4,1.1-3.9c0.6-0.8,1.7-1.8,3.3-2.9c1.6-1.1,2.6-1.5,3-1.3c0.3,0.1,1.1-0.1,2.4-0.8
		c1.3-0.7,2.5-1.4,3.6-2.2c1.1-0.8,1.6-1.3,1.4-1.5c-0.5-0.5-0.2-1.5,0.9-3.1c1.1-1.6,2-2.4,2.8-2.4c1.2,0,2.7-0.8,4.5-2.5
		c1.6-1.4,4-2.8,7.2-4.2c3.2-1.4,5.5-2,6.9-1.8c0.8,0.1,2.4-0.3,4.6-1.1c2.2-0.8,4-1.6,5.4-2.4c1-0.6,1.8-0.8,2.3-0.8
		c0.6-0.1,1.3,0.3,2.3,1.2c1,0.9,1.5,1.6,1.5,2.2c0,0.6,0.3,0.8,0.8,0.8c0.6,0,0.8-0.3,0.4-0.8c-0.2-0.4,0.2-0.6,1.2-0.7
		c0.4-0.1,0.9-0.1,1.6-0.1c2.2,0,4.2,0.7,5.8,2.1c1.8,1.5,2.8,2.2,3.3,2.2c0.5,0,0.7,1.4,0.5,4.3c-0.1,2.9-0.7,4.9-1.9,5.9
		c-1.3,1.1-2.4,2.5-3.1,4.2C376.6,106.2,376,107.1,375.5,107.1z M372.7,99.2c0.5-0.4,0.8-0.8,1.1-1.2c0.2-0.4,0.2-0.7,0-0.9
		c-0.2-0.2-0.6-0.4-1.1-0.4c-0.8,0-1.9-0.9-3.3-2.6c-1.3-1.8-2.2-2.4-2.6-2c-0.4,0.4-2,0.7-4.6,0.8c-2.6,0.1-4.2,0.6-4.7,1.5
		c-0.6,1-2.6,2.8-6.3,5.5c-3.6,2.7-5.8,4.1-6.5,4.1c-0.7,0-1.3,0.7-1.9,2c-0.5,1.3-1.7,2.4-3.6,3.3c-1.5,0.7-2.9,1.5-4.1,2.3
		c-1.2,0.8-1.8,1.5-1.8,1.9c0,0.4-0.9,1.8-2.6,4.2c-1.7,2.3-2.5,3.9-2.5,4.8c0,0.8-0.5,1.8-1.5,2.9c-0.7,0.8-1,1.3-0.9,1.6
		s0.7,1,1.7,1.9c1.5,1.4,2.4,1.9,2.5,1.4c0.1-0.4,0.9-0.8,2.2-1.1c1.4-0.3,2.4-0.7,2.9-1.3c0.7-0.7,1.4-1.1,2.1-1.1
		c0.8,0,1.9-0.4,3.5-1.3c1.1-0.7,1.7-1.2,1.7-1.4c-0.5,0-0.4-0.5,0.4-1.4c0.8-0.9,1.6-1.2,2.6-0.9c1,0.3,1.6,0.1,1.9-0.6
		c0.2-0.6,1.2-1.3,2.8-2.2c1.5-0.8,3.1-1.9,4.7-3.1c1.8-1.3,3.3-2.3,4.3-3.1c1.5-1,3.1-2.4,4.9-4.3c1.8-2,3.3-2.9,4.5-2.7
		c0.6,0.1,1.1,0,1.4-0.4c0.3-0.4,0.6-1.2,0.8-2.3C371.4,101.2,372,99.9,372.7,99.2z M400.4,128.5c2.4-0.6,3.6-0.2,3.6,0.9
		c0.1,1.2-0.9,2.2-3.1,3.2c-0.4,0.1-0.7,0.3-1.2,0.4c-2.6,0.8-4.3,1.7-5.1,2.7c-0.8,1.1-1.5,1.6-2.3,1.6c-0.8,0-1.3,0.4-1.3,1.2
		c0,0.7-1.4,1.7-4.2,2.9c-2.9,1.3-4.5,2.3-4.8,2.8c-0.4,0.6-1.3,0.8-2.8,0.8c-1.1,0-1.5-0.1-1.5-0.3c0-0.1,0.1-0.1,0.2-0.2
		c0.8-0.3,1-0.7,0.6-1.2c-0.3-0.4,0.3-1,1.8-1.8c1.4-0.8,2.1-1.5,2.1-2.2c0-0.8,0.4-1,1.3-0.6c0.9,0.4,1.4,0.3,1.4-0.4
		c0-0.6,0.4-0.8,1.3-0.4c0.4,0.1,0.7,0.2,0.8,0.1c0.1-0.1,0.1-0.4,0-0.8c-0.1-0.4,0-0.8,0.4-1.2c0.4-0.4,1.2-0.8,2.2-1.1
		c2-0.7,2.9-1.3,2.9-1.8c0-0.5,0.6-0.6,1.8-0.3c0.8,0.2,1.8,0,2.8-0.7c1-0.7,1.5-1.5,1.5-2.3C399,129.1,399.5,128.7,400.4,128.5z"/>
	<path style="fill:#E6007E;" d="M450,147.2c-0.3,0.9-1.2,1.7-2.6,2.4c-1.5,0.7-2,1.3-1.7,1.8c0.4,0.6,0.1,1.6-1.1,3.3
		c-1.1,1.6-2,4.2-2.7,7.8c-0.7,3.6-0.7,5.8,0,6.7c0.7,0.8,1.4,1.3,2.2,1.3c0.6,0,1,0.5,1.2,1.5c0.2,1,0.1,2-0.2,3.1
		c-0.3,1.1-0.8,1.7-1.4,1.9c-1.4,0.4-2.8,0.4-4.1-0.1c-1.3-0.5-2-1.2-2-2.1c0-0.7-0.1-1.1-0.4-1.2c-0.2-0.1-0.8,0.1-1.5,0.5
		c-1.1,0.6-1.9,0.6-2.4-0.1c-0.5-0.7-1.4-3-2.6-6.8c-1.2-3.7-1.5-5.7-0.9-5.9c0.7-0.2,1-0.6,0.9-1.1s-0.5-0.8-1.2-0.8
		c-0.9,0-1.4,0.5-1.4,1.4c0,0.4-0.1,0.6-0.2,0.8c-0.1,0.2-0.4,0.2-0.6,0.1c-0.7-0.4-1-1.5-0.8-3.1c0.2-1.6,0.7-3.1,1.6-4.3
		c1.2-1.5,1.8-3.1,1.8-4.9c0-1.8,0.3-2.9,0.8-3.3c0.6-0.3,0.8-1.5,0.8-3.4c0-3.2,1.2-4.8,3.6-4.8c0.9,0,2.3-0.8,4.1-2.4
		c1.8-1.6,2.7-2.8,2.7-3.5c0-0.7,0.6-1.9,1.8-3.7c1.2-1.8,1.6-2.9,1.3-3.4c-0.4-0.6,0.2-2.4,1.7-5.6c1.5-3.2,2.5-4.8,3.1-4.8
		c0.6,0,0.8-0.8,0.8-2.3c0-1.7,0.6-3.2,1.7-4.6c1.1-1.4,1.7-2.4,1.7-2.9c0-0.5,0.5-1.3,1.6-2.5c0.7-0.8,0.9-1.2,0.7-1.2
		c-0.1-0.1-0.2,0-0.5,0.2c-0.8,0.4-2.4,0.8-4.7,1.1c-2.7,0.3-4.2,0.5-4.5,0.6c-0.8,0.3-1.5-0.1-2.2-1.3c-0.5-0.8-0.9-1.3-1.4-1.5
		c-0.4-0.2-0.7-0.2-0.8,0.2c-0.1,0.4-0.1,1,0.2,1.9c0.4,1.7-0.1,3.5-1.2,5.3c-1.2,1.9-2.6,2.9-4.3,3.2c-1.8,0.4-2.9,1-3.6,1.8
		c-0.6,0.8-1.4,1.2-2.2,1.2s-2.2,1-4.2,2.9c-2,2-4.4,3.2-7.4,3.6c-1.8,0.2-2.9,0.5-3.5,0.8c-0.6,0.4-1,1-1.2,1.9
		c-0.4,1.5-1.6,3.9-3.6,6.9c-2,3.2-2.9,5.5-2.5,7c0.4,1.5-0.3,3.3-2,5.3c-1.8,2-2.5,3.6-2.2,4.8c0.3,1.2-0.6,2.4-2.5,3.7
		c-2.1,1.3-3.3,2.9-3.7,4.9c-0.4,2-1.1,3.4-2.1,4c-1,0.6-1.3,1.8-1.1,3.5c0.2,1,0.2,1.6,0.1,1.9c-0.1,0.3-0.5,0.5-1.1,0.5
		c-1,0-2.5,1-4.5,3.1c-2,2-3.2,3.8-3.5,5.2c-0.4,1.5-1.2,2.6-2.6,3.1c-1.3,0.5-2.3,1.5-2.9,3.2c-2.4,6-4.8,10-7.2,12
		c-1.6,1.4-2.5,2.8-2.6,4.3c0,1.5-0.5,2.5-1.4,2.9c-0.7,0.4-0.9,0.7-0.6,0.8c0.5,0,0,1.4-1.6,4.1c-1.1,2.1-2.6,4.1-4.3,6
		c-1.8,1.9-3,2.8-3.8,2.8c-0.6,0-1.4,1.2-2.3,3.5c-0.9,2.3-1.8,3.5-2.5,3.5c-0.8,0-1.5,0.6-2.1,1.7c-0.6,1.1-1.9,1.6-4,1.6
		c-2,0-3.2,0.2-3.6,0.5c0.1,0.3,0.4,0.5,0.8,0.5c1,0,1.6,0.4,1.8,1.3c0.2,0.9-0.1,1.6-1,2.1c-1.1,0.6-2.2,2.1-3.5,4.7
		c-1.3,2.7-2.2,4-2.7,4c-0.4,0-0.9,0.8-1.6,2.5c-0.6,1.7-1.5,2.7-2.7,3.1c-1.3,0.4-1.7,1.1-1.3,2.2c0.2,0.6,0.2,1.1,0,1.3
		c-0.2,0.2-0.7,0.4-1.5,0.4c-1.5,0-1.8,0.3-0.8,0.8c0.7,0.4,0.8,0.8,0.2,1.3c-0.7,0.4-1.8,2.1-3.2,5.2c-1.4,3-3.5,6-6.2,8.8l-4,4.2
		l-1.2-2.5c-0.4-1-0.7-1.5-0.9-1.6l-0.2,0.2v0.2c0,0.9-0.3,1.5-0.8,1.9c-0.5,0.4-1.2,0.4-2.1,0c-0.8-0.3-1.2-2.3-0.9-6.1
		c0.3-3.8,0.1-6-0.4-6.7c-0.5-0.6-0.7-1.6-0.5-3.3c0.1-1.6,0.5-2.8,1.1-3.5c0.5-0.6,0.9-2,1.4-4.1c0.4-2.2,1.7-5.3,3.8-9.5
		c2.1-4.1,3.7-6.5,4.7-7c1.1-0.6,1.6-1.4,1.6-2.2c0-0.8,2.3-3.5,6.9-8c4.6-4.3,6.8-7.2,6.8-8.5c0-1.2,1-2.6,3.1-4.1
		c2-1.5,3.1-2.6,3.1-3.3c0-0.6,1.3-2.1,3.9-4.5c2.6-2.4,4.1-4.5,4.4-6.3c0.4-1.8,0.9-2.7,1.6-2.7c1.2,0,2.1-1.4,2.6-4.1
		c0.1-0.7,0.8-2,1.9-3.9c3.6-6,6.1-9.2,7.5-9.6c1.1-0.3,1.4-1.2,1.2-2.8c-0.3-1.6,0.4-3.6,2.1-6.1c1.6-2.4,2.7-3.6,3.2-3.6
		c0.8,0.1,1.3,0,1.5-0.3c0.1-0.3,0-0.8-0.5-1.7c-0.6-1.2-0.7-2-0.2-2.3c0.6-0.4,1.2-1.4,1.8-2.9c0.6-1.5,1.3-2.3,2-2.3
		c0.6,0,2-0.8,4-2.3c2-1.6,3.3-2.1,3.7-1.4c0.4,0.6,0.9,0.1,1.7-1.5c0-0.1,0-0.2,0.1-0.3c1.4-3.3,2.8-4.9,4.3-4.9
		c0.6,0,0.8-0.6,0.8-1.7c0-1.1,1.2-3.4,3.5-6.7c2.2-3.2,3.6-6,4.3-8.6c0.5-1.8,1-2.9,1.5-3.4c0.5-0.4,1.5-0.6,3.1-0.4
		c1.3,0.1,2.5-0.2,3.4-0.9c0.9-0.7,1.3-1.6,1-2.5c-0.7-2.8,0.2-5.6,2.7-8.3c1.3-1.4,2.1-2,2.2-1.7c0,0.4,0.3,0.4,0.8,0
		c0.6-0.4,0.5-1.1-0.4-2.1c-0.6-0.7-0.8-1.4-0.6-1.9c0.2-0.6,1.3-2,3.2-4.2c2.7-3.2,4.7-5.2,5.9-6.2c1.2-1,2.4-1.5,3.6-1.5
		c1.3,0,2-0.1,2-0.3c0-1.8,0.5-4.1,1.4-7.1c0.9-3,1.9-5.1,2.8-6.3c3-3.7,5.1-6,6.2-6.8c1.1-0.8,2.6-1.1,4.5-1
		c1.5,0.1,2.6,0.1,3.3-0.2c0.6-0.3,1.4-1.1,2.4-2.3c1.5-2,3.4-3,5.5-2.8c1.7,0.1,2.5,1,2.3,2.6c-0.1,0.1-0.1,0.3-0.1,0.4
		c-0.6,2.8-1.2,4.6-2.1,5.5c-0.8,0.9-2.1,1.2-3.9,1c-0.7-0.1-1.1,0-1.1,0.2c0,0.2,0.2,0.6,0.7,1.4c0.8,1.2,0.8,2.4,0,3.7
		c-0.7,1.2-1.2,2.7-1.5,4.5c-0.2,1.8-1.1,3.2-2.5,4.4c-1.5,1.2-2.2,2.8-2.2,4.7c0,2-1.1,4.1-3.2,6.2c-2.2,2.2-3.4,4.2-3.8,5.9
		c-0.1,0.6,0.1,0.8,0.7,0.4c0.2-0.1,0.5-0.4,0.8-0.6c1-1,2.2-1.5,3.6-1.5c1.3,0,2.4-0.5,3.2-1.5c0.6-1,2-1.5,4.1-1.5
		c2.1,0,3.2-0.2,3.2-0.6c0-0.6,2.6-1.3,7.7-2c2-0.3,3.2-0.8,3.6-1.5c0.4-0.6,1.9-1,4.5-1.2c2.5-0.1,4.1-0.4,4.8-0.8
		c0.7-0.4,1.9,0,3.6,1.4c1.7,1.3,2.4,2.4,2.2,3.2c-0.3,0.8-0.1,1.6,0.4,2.3c0.6,0.6,0.1,1.1-1.4,1.5c-0.2,0.1-0.5,0.1-0.8,0.2
		c-1.7,0.4-2.6,0.8-2.9,1.5c-0.2,0.6,0.2,1.7,1.2,3.2c0.6,0.9,0.9,1.7,0.7,2.3c-0.1,0.6-0.9,1.8-2.4,3.5c-2,2.5-3.1,4-3.1,4.4
		c0,0.3-0.7,1.4-2.2,3.5c-1.7,2.2-2.3,3.4-1.8,3.7c0.1,0.1,0.5,0.1,0.9,0.1c1.9,0,1.8,1-0.2,3.1c-0.6,0.6-1.4,1.3-2.3,2.1
		c-2.7,2.1-4,3.4-4,3.9c-0.1,0.6-0.9,1.8-2.6,3.7c-1.6,1.9-2.7,2.8-3.2,2.8c-0.6,0-1.2,0.9-1.7,2.6c-0.5,1.8-0.5,3-0.1,3.8
		c0.6,1.1,0.2,2.3-0.9,3.8C451.1,145.1,450.3,146.3,450,147.2z M421.2,91.9c0.6,0,0.8-0.3,0.8-0.9c0-0.6-0.3-0.8-0.8-0.8
		c-0.6,0-0.9,0.3-0.9,0.8C420.2,91.5,420.5,91.9,421.2,91.9z M504.2,139.8c0.4,0.2,0.4,0.8,0.1,1.8c-0.3,1-0.8,2-1.5,2.9
		c-0.8,0.9-1.3,2-1.7,3.2c-0.4,1.3-0.8,2-1.2,2c-0.4,0-1.4,0.7-3.1,2.1c-1.6,1.4-2.8,2-3.6,1.7c-0.8-0.3-1.8,0.6-2.9,2.5
		c-1.1,1.8-3,3.4-5.7,4.6c-2.7,1.3-4.8,1.6-6.3,1.1c-1.3-0.5-2.2-0.3-2.5,0.6c-0.4,1.1-1.5,2.4-3.4,3.9c-1.8,1.6-3.2,2.4-4,2.4
		c-1,0-1.5,0.4-1.5,1.2c0,0.9-0.8,1.6-2.4,2.2c-1.6,0.5-3.5,0.7-5.7,0.6c-2.7-0.1-4,0-4,0.4c0,0.4-1,0.9-2.9,1.6
		c-1.9,0.7-3.4,1.1-4.4,1.1c-1.3,0-1.6-0.5-0.9-1.6c0.4-0.5,0.9-1.2,1.8-2.1c0.9-1,1.6-1.6,2.1-1.7c0.5-0.2,0.9-0.1,1.4,0.4
		c0.8,0.7,1.7,0.5,2.5-0.6c0.8-1.3,1.3-2.1,1.3-2.5c0.1-0.9,0.9-1.8,2.5-2.6c1.6-0.8,3.1-1.1,4.3-0.8c1.1,0.2,1.9,0.2,2.5-0.1
		c0.6-0.2,1.4-0.9,2.4-2.1c1.6-1.9,3.2-2.7,4.8-2.3c1.5,0.3,2.6-0.1,3.3-1.2c0.6-1.1,1.3-1.7,2-1.7c0.5,0,1.3-0.4,2.3-1.3
		c1.1-0.8,2-1.7,2.7-2.7c0.8-0.9,1.1-1.5,0.8-1.7c-0.1-0.1-0.1-0.2,0-0.2c0.1,0,0.6,0.2,1.3,0.6c1.1,0.8,2.2,1,3.2,0.6
		c1-0.4,1.5-1.2,1.7-2.5c0.2-1.3,0.8-1.9,1.9-1.8c1.1,0.1,2.5-0.5,4.2-2c1.7-1.4,3-2,4-1.7c0.6,0.2,0.8,0.3,0.8,0.2
		s-0.3-0.4-0.9-0.8c-0.7-0.5-1-0.9-0.8-1.1c0.1-0.2,0.8-0.7,2.1-1.3C502.7,140,503.8,139.6,504.2,139.8z M464.8,99.6
		c-0.8,0-1.2,0.8-1.2,2.5c0.1,2.2,0.6,2.6,1.3,1.1c0.2-0.4,0.4-1,0.6-1.7c0.1-0.5,0.2-0.9,0.2-1.2c0-0.3-0.1-0.5-0.2-0.6
		C465.4,99.7,465.2,99.6,464.8,99.6z"/>
	<path style="fill:#E6007E;" d="M584.9,131.4c1.2,1.1,1.8,1.9,1.7,2.5c0,0.5-0.7,1.1-2.1,1.8c-1.3,0.7-2.2,1.6-2.6,2.7
		c-0.4,1.1-1.2,1.6-2.3,1.6c-1.1,0-2.7,0.6-4.6,1.8c-2,1.2-3.2,1.6-3.8,1.3c-0.6-0.3-1.3,0.2-1.9,1.7c-0.6,1.4-1.6,2.3-3.1,2.7
		c-1.3,0.4-2,0.9-2,1.7c0,0.8-0.4,1.3-1.1,1.5c-0.7,0.2-1.6,0.1-2.5-0.4c-1.1-0.5-1.8-0.1-2.1,1.2c-0.3,1.1-1,2.1-2.2,3.3
		c-1.2,1.1-2.1,1.7-2.9,1.7c-0.5,0-1.8,0.9-4,2.6c-2.1,1.7-3.4,2.5-3.9,2.5c-0.4,0-1.8,0.7-4,2.2c-2.2,1.5-4.1,2.2-5.6,2.2
		c-1,0-2.5,0.3-4.7,0.8c-2.1,0.6-3.5,1.1-4.2,1.5c-0.1,0.1,0,0.3,0.1,0.6c0.1,0.3,0.4,0.6,0.7,1c0.6,0.7,0.6,1.1,0.1,1.1
		c-0.3,0-1.1-0.1-2.4-0.3c-2.2-0.4-3.6-0.8-4.3-1.4c-0.6-0.5-1.2,0-1.6,1.6c-0.4,1.5-0.9,2.6-1.7,3.4c-0.6,0.6-1.8,1.1-3.8,1.7
		s-3.4,0.7-4.1,0.5c-1.3-0.3-2.7-0.5-4.2-0.5c-1.3-0.1-2.5-0.4-3.4-1c-0.9-0.6-2.3-1.8-4.2-3.6c-2.9-2.9-4.2-4.7-3.8-5.3
		c0.4-0.5,0-1.1-1.2-1.7c-0.8-0.4-1.2-0.9-1.2-1.5c0-0.6,0.3-2.1,1-4.7c1.1-3.6,2-5.6,2.9-6.1c1-0.5,1.5-1.4,1.5-2.8
		c0-1.5,0.4-2.3,1.1-2.5c0.8-0.3,0.7-0.7-0.1-1.3c-0.6-0.3-0.8-0.8-0.8-1.3c0-0.5,0.4-1.4,1.1-2.7c1.1-2,2-3.1,2.5-3.1
		c0.4,0,0.4-0.6,0.2-1.8c-0.8-3.2,1.1-5.9,5.5-8.1c2-1.1,3.3-1.8,3.7-2.4c0.4-0.5,0.6-1.6,0.6-3.1c0-4.9,2.3-9.4,6.8-13.4
		c2.5-2,3.8-3.7,4-5.1c0.2-1.3,0.6-2.6,1.2-3.8c0.7-1.5,1.1-2.6,1.3-3.3c0.2-0.9,1.2-1.6,2.9-2c1.3-0.3,2.5-0.9,3.7-1.8
		c1.2-0.9,1.6-1.6,1.4-2c-0.2-0.4,0.1-1.1,0.8-2.1c0.7-1,3.1-1.6,7-1.9c3.9-0.3,5.9-0.7,6.1-1.3c0.2-0.6,0.7-0.9,1.5-0.8
		c0.8,0.1,1.4,0.4,2,1.1c0.5,0.6,0.4,1.8-0.3,3.8c-0.7,2-1.4,2.9-2.1,2.9c-0.6,0-0.6,0.8-0.1,2.5c0.4,1.4,0.4,2.8,0.2,4.1
		c-0.2,1.3-0.6,2-1.2,2c-0.4,0-1.2,0.8-2.2,2.5c-1.1,1.8-2.2,2.7-3.3,2.8c-1.2,0.2-2,1.5-2.3,3.9c-0.4,2.6-1.1,4.6-1.9,6.1
		c-0.6,0.9-1.2,2.2-1.8,4c-0.4,1.1-1,1.4-1.9,1.1c-0.8-0.3-1.8,0.1-2.9,1.2c-1.2,1.1-1.8,2-1.8,2.9c0,0.8-0.3,1.3-0.8,1.6
		c-0.4,0.2-0.8,1-1.1,2.4c-0.3,1.5-1,2.6-2.2,3.1c-1.3,0.5-1.9,1.2-1.9,2c0,0.8-0.6,1.3-1.7,1.6c-1.2,0.3-1.8,0.9-1.8,1.8
		c0,0.8-0.9,2.3-2.6,4.3c-1.1,1.2-1.7,2.1-1.9,2.6c-0.2,0.5-0.1,1.1,0.3,1.6c0.4,0.5,0.5,1,0.2,1.6c-0.3,0.6-1.2,1.5-2.7,2.7
		c-1.7,1.4-2.7,2.5-3.1,3.3c-0.4,0.8-0.5,2.2-0.5,4.3c0,2,0.1,3.4,0.4,4.2c0.3,0.8,1,1.7,2.1,2.7c1.1,1,2,1.6,2.5,1.7
		c0.6,0.2,1.2,0,1.9-0.5c1.1-0.8,2-0.7,2.5,0.2c0.5,0.5,0.8,0.2,0.8-0.7c0-1.3,0.4-1.9,1.3-1.6c0.8,0.3,1.4,0,1.7-0.7
		c0.3-0.8,0.9-1.3,1.8-1.3c0.9,0,1.4-0.2,1.4-0.7c0-0.5,0.6-0.9,1.9-1.3c1.3-0.4,2.6-1.2,3.9-2.3c1.3-1.2,2.8-2,4.5-2.3
		c1.8-0.3,3.3-1.4,4.5-3.2c0.8-1.2,1.4-1.8,1.7-1.9c0.3-0.1,0.7,0.2,1.2,0.8c0.6,0.8,1.1,1,1.5,0.8c0.4-0.2,0.6-1,0.6-2.2
		c0-0.4,0.1-0.7,0.3-0.9s0.4-0.2,0.6-0.1c0.5,0.4,1.1-0.2,1.8-1.7c0.7-1.5,1.7-2.3,3.1-2.6c0.8-0.1,1.2,0.1,1.2,0.8
		c0,0.8-0.4,1.4-1.1,1.6c-0.3,0.1-0.2,0.2,0.1,0.2c0.4,0,0.9-0.1,1.8-0.2c2-0.3,3.6-1.1,4.8-2.5c1.2-1.3,2.9-2.6,5.2-3.8
		c2.3-1.2,3.9-1.7,4.9-1.4c1,0.3,1.5,0.2,1.5-0.3c0-0.6,0.9-1.8,2.7-3.6c1.3-1.3,2.1-2,2.5-2.1c0.4-0.1,0.9,0.2,1.4,0.9
		c0.6,0.8,1,0.9,1.2,0.5c0.1-0.3,0.3-1,0.5-2.1c0.3-2,1-3.1,2.2-3.5c1.1-0.2,1.6,0,1.6,0.6c0,0.8,0.2,0.7,0.7-0.1
		C582.8,130,583.6,130.2,584.9,131.4z M559.8,62.7c-1.5-0.6-2.1-1.4-1.8-2.2c0.3-0.8,1.4-1.6,3.3-2.4c2.2-0.9,3.5-1.6,3.8-2.1
		c0.3-0.7,0.9-0.3,1.8,1.2c0.6,1.1,0.9,2,0.9,2.7c0,1-0.3,1.6-0.8,2c-0.6,0.4-0.8,1-0.8,2c0,0.9-0.6,1.8-1.8,2.5
		c-0.7,0.5-1.2,0.7-1.5,0.6c-0.3-0.1-0.5-0.6-0.7-1.4C561.6,64.1,560.9,63.1,559.8,62.7z M586.6,128.1c-0.4,0.2-0.8,0.4-1,0.4
		c-0.2,0.1-0.4,0-0.5-0.2c-0.1-0.2-0.1-0.5,0-0.9c0.1-0.4,0.2-1,0.4-1.8c0.4-1.3,1-2,1.7-2c0.6,0,0.9,0.3,1,0.9c0.1,0.6,0,1.3-0.3,2
		C587.6,127.3,587.1,127.8,586.6,128.1z M587.3,129.4c0.4-0.4,0.9-0.4,1.3-0.1c0.5,0.4,0.7,1,0.7,1.7c0,0.8-0.4,1.2-1.3,1.2
		c-0.6,0-1-0.3-1.2-1C586.7,130.6,586.8,130,587.3,129.4z M592.6,122.7c0.2,0.8-0.2,1.1-1.2,0.8c-1.1-0.3-1.7-0.8-1.9-1.5
		c-0.2-0.8,0.2-1.1,1.2-0.8C591.7,121.5,592.4,122,592.6,122.7z M593.6,125.4c0.3,0,0.5,0,0.6,0.1c0.1,0.1,0.2,0.2,0.2,0.4
		s-0.1,0.5-0.2,0.8c-0.1,0.3-0.4,0.8-0.6,1.3c-0.8,1.4-1.5,1.9-2.1,1.5c-0.3-0.2-0.4-0.6-0.4-1.2c0-0.8,0.4-1.3,1.3-1.3
		c0.9,0,1.2-0.3,0.8-0.8C592.9,125.7,593,125.4,593.6,125.4z"/>
	<path style="fill:#E6007E;" d="M610.3,111.3c-1.1,0-2.5,1.4-4,4.1c-1.5,2.7-5.1,7.4-10.5,13.9c-1.8,2-2.7,3.5-2.7,4.5
		c0,0.8-1.8,2.9-5.5,6.4c-3.6,3.5-5.9,6.2-6.6,8c-0.8,1.7-2,3.4-3.8,5.3c-3.3,3.2-4.9,5.4-4.9,6.4c0,0.9-0.6,2.5-1.9,4.8
		c-1.3,2.3-2.5,4-3.6,5.1l-2.1,2l-2.8-2.5c-1.9-1.6-3.6-2.3-5.1-2.1c-1.5,0.2-3-0.3-4.6-1.6c-1.1-0.8-1.7-1.6-1.9-2.2
		c-0.2-0.6-0.2-1.6,0-3.1c0.4-2.2,0.9-3.7,1.7-4.6c3.6-4.3,5.8-6.4,6.6-6.4c0.8,0,1.4-0.3,2-0.8c0.2-0.2,1.4-1.1,3.5-2.7
		c1.6-1.3,2.1-2.2,1.6-2.7c-0.6-0.6,0.3-1.7,2.6-3.4c2.3-1.7,3.3-2.9,3.1-3.6c-0.8-2-1.1-3.4-1.1-4.1c0-0.7,0.5-1.3,1.3-1.8
		c1.2-0.8,1.8-1.4,1.8-2c0-0.7,0.8-1.8,2.5-3.4c1.8-1.6,2.6-2.7,2.6-3.2c0-0.6,0.3-0.8,0.9-0.8s1.9-0.9,3.7-2.8
		c1.9-1.9,3-3.3,3.3-4.3c0.4-0.9,1.5-2,3.5-3.4c1.9-1.2,3.6-2.9,5.2-5.2c1.6-2.2,2.4-4.1,2.4-5.5c0-1.5,0.7-2.7,2.1-3.7
		c1.5-0.9,2.2-1.9,2.2-2.9c0-0.9,0.6-1.6,1.9-2.1c1.3-0.5,2.5-0.5,3.7-0.1c0.5,0.2,0.8,0.2,1,0.1c0.2-0.2,0.2-0.6,0.1-1.4
		c-0.1-0.8,0-1.4,0.3-1.6c0.4-0.2,1.2-0.4,2.6-0.6c2.2-0.2,3.3,0.2,3.3,1.2c0,0.8,0.3,1.1,0.8,0.7c0.6-0.4,0.8-1.1,0.8-2.2
		c0-1.2,0.6-1.6,1.7-1.4c1.1,0.3,1.8-0.1,2.1-1.3c0.2-1.1,0.5-1.6,0.8-1.6c0.3,0,0.4,0.6,0.5,1.7c0,1.1,0,2.3-0.2,3.5
		c-0.2,1.2-0.4,2-0.7,2.4c-0.7,0.8-0.7,1.6,0.1,2.3c0.8,0.7,1.9,0.9,3.4,0.7c1.8-0.3,3.3-1.1,4.5-2.4c2.3-2.5,4.5-2.7,6.6-0.6
		c0.6,0.6,0.9,1.1,0.9,1.3s-0.3,0.5-0.9,0.8c-1.1,0.6-2.1,1.4-2.9,2.3c-0.8,0.9-1.2,1.7-1.2,2.4c0,0.8-0.2,1.3-0.6,1.3
		c-4.8,0.4-7.6,1-8.3,1.7c-0.6,0.6-0.7,0.8-0.3,0.8c0.1,0-0.1,0.2-0.4,0.7c-0.4,0.5-0.9,1.1-1.7,1.9c-0.8,0.8-1.6,1.7-2.5,2.6
		C613.7,109.6,611.4,111.3,610.3,111.3z M726.2,136.9c0.1,1.1,0,1.8-0.2,2.1c-0.2,0.2-0.8,0.3-1.9,0.3c-1-0.1-1.6,0.1-2,0.4
		c-0.4,0.3-0.6,1.1-0.8,2.3c-0.6,3.5-2.4,6.9-5.4,10.1c-1.9,2-2.8,3.2-2.8,3.6c0,0.4-1.1,0.8-3.3,1.2c-4.8,0.8-7.2,2.1-7.2,3.9
		c0,0.7-0.2,1.2-0.7,1.5c-0.5,0.3-1.4,0.5-2.8,0.7c-2.2,0.4-3.4,0.8-3.4,1.4c0,0.5-0.6,0.7-1.9,0.7c-1.2,0-1.9,0.6-2.2,1.7
		c-0.2,0.8-1.1,1.6-2.5,2.4c-1.5,0.8-2.6,1.2-3.5,0.9c-0.5-0.1-2.1,0.4-4.7,1.7c-1.2,0.6-2.3,0.9-3.4,1.2s-1.9,0.2-2.5,0.1
		c-0.6-0.2-0.9-0.5-0.9-1s-0.7-1.1-2.2-1.7s-2.1-1.5-1.8-2.7c0.1-0.7,0.1-1.1,0-1.3c-0.1-0.2-0.6-0.2-1.3,0.1
		c-1.1,0.4-1.7,0.2-1.8-0.5c-0.2-1.9-0.7-3.7-1.4-5.4c-1.1-2.6-1.2-4.4-0.1-5.5c0.7-0.7,1.1-2.8,1.3-6.2c0.1-3,0.4-4.9,0.7-5.8
		c0.4-0.8,1.1-1.3,2.2-1.3c0.7,0,1.1-0.2,1.3-0.6c0.1-0.4,0.1-1.2-0.1-2.5c-0.5-3.4,2.2-8,8-13.9c2.5-2.5,3.8-4,3.8-4.5
		c0-0.4,0.9-0.9,2.6-1.7c1.8-0.8,2.8-2,3.2-3.5c0.7-3,3.2-6.7,7.5-10.9c3.9-3.9,5.8-7.4,5.8-10.5c0-1.1-0.2-1.9-0.6-2.5
		c-0.4-0.5-1.4-1.2-2.8-1.9l-3.4-1.7l-1.4,2.2c-0.6,0.9-1.1,1.5-1.6,1.6c-0.5,0.2-1.4,0.2-2.5-0.1c-1.8-0.4-3.2-0.1-4,0.6
		c-1,0.8-2.5,1.5-4.4,2.1c-2,0.6-3.2,0.8-3.7,0.5c-0.6-0.3-0.7-0.1-0.4,0.6c0.8,2.2-0.9,4.2-4.9,6c-2.6,1.1-4.1,2.3-4.4,3.6
		c-0.4,1.1-1.5,3-3.4,5.6c-1.9,2.6-3.9,5.1-6.1,7.4c-2,2.1-2.9,3.6-2.9,4.4c0,0.8-0.5,1.6-1.5,2.5c-1,0.9-2.8,2-5.4,3.4
		c-2.7,1.5-4.1,2.8-4.3,3.8c-0.3,1.2-0.6,1.9-0.8,2.1c-0.5,0.4-1.1,1.3-1.7,2.7c-0.7,1.4-1,2.4-1,3c0,0.8-0.6,1.3-1.8,1.3
		c-0.8,0-1.2,0.2-1.4,0.5c-0.1,0.3-0.1,1,0.1,2.1c0.2,1.1,0.2,1.8,0.1,2.2c-0.1,0.4-0.6,0.7-1.3,0.9c-1.2,0.4-1.8,1.7-1.8,4
		c0,1.4-0.1,2.4-0.4,2.8c-0.3,0.5-0.9,0.8-1.8,1.1c-1.4,0.3-2.1,1.1-2.1,2.4c0,1.2-0.9,2.4-2.6,3.6c-1.8,1.1-2.6,2-2.6,2.5
		c0,0.6-1,1.6-2.9,2.8c-2,1.3-3.1,2.4-3.1,3.3c0,0.8-0.4,1.3-1.3,1.3c-0.9,0-1.4-0.3-1.4-0.8c0-0.4-0.3-0.6-0.8-0.7
		c-0.5-0.1-1.1-0.1-1.8,0c-0.7,0.1-1.1,0.4-1.3,0.8c-0.4,0.7-1,0.6-1.7-0.3c-0.4-0.6-0.9-1-1.4-1c-0.5,0-1.5,0.2-3,0.8
		c-2,0.7-3.2,0.8-3.8,0.3c-0.6-0.5-0.8-2-0.8-4.4c0-1.3,0.2-2.3,0.6-3.1c0.4-0.7,1.2-1.5,2.6-2.5c2.1-1.6,4-4.1,5.6-7.5
		c1.6-3.4,4-6.5,7.2-9.4c3.2-2.8,5.6-5.6,7.2-8.3c1.5-2.7,2.8-4.5,3.8-5.2c5.3-3.9,8.8-7.6,10.3-11.2c1-2.4,2.7-4.2,5.1-5.6
		c2.4-1.3,3.6-2.3,3.6-2.8c0-0.6,0.8-1.7,2.5-3.4c1.6-1.6,2.6-3.3,3.1-5.1c0.4-1.8,1.2-3,2.2-3.6c1.1-0.6,1.7-1.3,1.7-2
		c0-0.6,0.7-1.4,2.2-2.4l2.3-1.5l-1.8-2c-1.3-1.4-1.9-2.5-1.9-3.4c0-1.1-0.7-1.9-2.2-2.5c-1.4-0.6-2.4-0.5-3,0.3
		c-0.4,0.6-0.6,0.8-0.8,0.8c-0.2,0-0.5-0.3-0.8-0.9c-0.6-0.9-0.8-0.9-0.8,0c0,0.8-1.1,2.4-3.2,4.6c-2,2.1-3.5,2.8-4.3,2.2
		c-0.8-0.7-1.7-0.8-2.6-0.4c-0.9,0.4-1.8,0.3-2.6-0.4c-0.8-0.7-1.2-1.7-1.2-3.1c0.1-1.4,0.6-2.2,1.5-2.6c1.2-0.4,2.5-1.2,4-2.2
		c1.6-1.1,3.5-1.6,5.8-1.4c2.1,0.2,3.1,0.2,2.9-0.1c-0.2-0.2,0-0.7,0.6-1.5c0.6-0.7,3.4-1,8.5-0.9l7.6,0.1l1.4,3.1
		c0.9,2.1,1.2,4.3,0.8,6.6c-0.4,2.9-0.1,4.4,1.1,4.3c0.4-0.1,0.9-0.4,1.4-0.8c1.5-1.5,4-2.7,7.3-3.4c3.3-0.7,5.3-0.6,5.9,0.4
		c0.8,1.1,1.4,1.2,1.9,0.2c0.2-0.5,0.3-1.1,0.3-1.9c0-1.7,0.5-3.2,1.6-4.5c0.7-0.9,1.6-1.5,2.8-1.7c1.2-0.2,4.2-0.4,9-0.4
		c6.7-0.1,10.5,0.4,11.3,1.3c0.8,1,1.1,2.9,1.1,5.9c0,2.9-0.5,4.8-1.3,5.5c-0.8,0.8-1.1,1.8-0.8,3.2c0.4,1.4-0.1,2.5-1.3,3.4
		c-1.1,0.8-1.6,2.2-1.6,4.3c0.1,2-0.1,3.2-0.6,3.6c-0.6,0.4-1.1,1.1-1.6,2.3c-0.5,1.2-0.7,2.2-0.6,2.9c0.1,0.4,0,0.7-0.3,0.8
		c-0.2,0.1-0.7,0.1-1.3-0.1c-0.8-0.2-1.3-0.2-1.5,0c-0.2,0.2-0.3,0.7-0.3,1.5c0,1.3-0.8,2.3-2.5,3.1c-1.6,0.7-2.3,1.6-2,2.6
		c0.3,1-1,3.2-3.9,6.6c-2.9,3.4-5,6.3-6.4,8.9c-1.5,2.7-3.1,4.4-4.8,5.2c-1.8,0.8-2.8,2.1-3.3,3.9c-0.4,1.8-0.7,2.8-1.2,3.1
		c-0.2,0.2-0.7,1.3-1.5,3.2c-0.8,1.9-1.2,3.1-1.3,3.7c-0.2,1.3-0.2,2.8,0.2,4.5c0.3,1.6,0.7,2.5,1.1,2.5c0.6,0,1.8,0.4,3.5,1.3
		c1.6,0.8,2.6,0.9,2.8,0.3c0.4-0.6,1.4-0.8,3.1-0.5c1.7,0.2,3-0.2,3.9-1.2c0.9-1.1,1.7-1.6,2.4-1.6c0.6,0,1.4-0.6,2.5-1.9
		c1-1.2,2.2-1.6,3.8-1.4c2.4,0.4,3.9-0.5,4.4-2.7c0.1-0.8,1.2-2.3,3.3-4.3c2-2,2.9-3.2,2.9-3.7c0-0.3,0.7-0.7,2.1-1.1
		c1.5-0.4,2.2-0.9,2.2-1.4c0-0.6,0.3-0.9,0.9-0.9c0.7,0,1.4-0.4,2-1.3c0.6-0.9,1.5-1.4,2.6-1.6c0.5-0.1,0.9-0.3,1.3-0.6
		c0.4-0.3,0.5-0.7,0.5-1.2c0-1,0.7-2,2.1-3.2c1.4-1.1,2.3-1.4,2.8-0.9C725.8,134.1,726.1,135.2,726.2,136.9z M660.8,83.7
		c0.4-0.7,0.3-1.5-0.4-2.5c-0.4-0.6-0.8-0.7-1.2-0.3c-0.4,0.4-0.6,1.1-0.6,2.2c0,1,0.3,1.5,0.8,1.5
		C659.9,84.5,660.3,84.2,660.8,83.7z"/>
	<path style="fill:#E6007E;" d="M800.5,131.4c1.2,1.1,1.8,1.9,1.7,2.5c0,0.5-0.7,1.1-2.1,1.8c-1.3,0.7-2.2,1.6-2.6,2.7
		c-0.4,1.1-1.2,1.6-2.3,1.6c-1.1,0-2.7,0.6-4.6,1.8c-2,1.2-3.2,1.6-3.8,1.3c-0.6-0.3-1.3,0.2-1.9,1.7c-0.6,1.4-1.6,2.3-3.1,2.7
		c-1.3,0.4-2,0.9-2,1.7c0,0.8-0.4,1.3-1.1,1.5c-0.7,0.2-1.6,0.1-2.5-0.4c-1.1-0.5-1.8-0.1-2.1,1.2c-0.3,1.1-1,2.1-2.2,3.3
		c-1.2,1.1-2.1,1.7-2.9,1.7c-0.5,0-1.8,0.9-4,2.6c-2.1,1.7-3.4,2.5-3.9,2.5c-0.4,0-1.8,0.7-4,2.2c-2.2,1.5-4.1,2.2-5.6,2.2
		c-1,0-2.5,0.3-4.7,0.8c-2.1,0.6-3.5,1.1-4.2,1.5c-0.1,0.1,0,0.3,0.1,0.6c0.1,0.3,0.4,0.6,0.7,1c0.6,0.7,0.6,1.1,0.1,1.1
		c-0.3,0-1.1-0.1-2.4-0.3c-2.2-0.4-3.6-0.8-4.3-1.4c-0.6-0.5-1.2,0-1.6,1.6c-0.4,1.5-0.9,2.6-1.7,3.4c-0.6,0.6-1.8,1.1-3.8,1.7
		c-2,0.6-3.4,0.7-4.1,0.5c-1.3-0.3-2.7-0.5-4.2-0.5c-1.3-0.1-2.5-0.4-3.4-1s-2.3-1.8-4.2-3.6c-2.9-2.9-4.2-4.7-3.8-5.3
		c0.4-0.5,0-1.1-1.2-1.7c-0.8-0.4-1.2-0.9-1.2-1.5c0-0.6,0.3-2.1,1-4.7c1.1-3.6,2-5.6,2.9-6.1c1-0.5,1.5-1.4,1.5-2.8
		c0-1.5,0.4-2.3,1.1-2.5c0.8-0.3,0.7-0.7-0.1-1.3c-0.6-0.3-0.8-0.8-0.8-1.3c0-0.5,0.4-1.4,1.1-2.7c1.1-2,2-3.1,2.5-3.1
		c0.4,0,0.4-0.6,0.2-1.8c-0.8-3.2,1.1-5.9,5.5-8.1c2-1.1,3.3-1.8,3.7-2.4c0.4-0.5,0.6-1.6,0.6-3.1c0-4.9,2.3-9.4,6.8-13.4
		c2.5-2,3.8-3.7,4-5.1c0.2-1.3,0.6-2.6,1.2-3.8c0.7-1.5,1.1-2.6,1.3-3.3c0.2-0.9,1.2-1.6,2.9-2c1.3-0.3,2.5-0.9,3.7-1.8
		c1.2-0.9,1.6-1.6,1.4-2c-0.2-0.4,0.1-1.1,0.8-2.1c0.7-1,3.1-1.6,7-1.9c3.9-0.3,5.9-0.7,6.1-1.3c0.2-0.6,0.7-0.9,1.5-0.8
		c0.8,0.1,1.4,0.4,2,1.1c0.5,0.6,0.4,1.8-0.3,3.8c-0.7,2-1.4,2.9-2.1,2.9c-0.6,0-0.6,0.8-0.1,2.5c0.4,1.4,0.4,2.8,0.2,4.1
		c-0.2,1.3-0.6,2-1.2,2c-0.4,0-1.2,0.8-2.2,2.5c-1.1,1.8-2.2,2.7-3.3,2.8c-1.2,0.2-2,1.5-2.3,3.9c-0.4,2.6-1.1,4.6-1.9,6.1
		c-0.6,0.9-1.2,2.2-1.8,4c-0.4,1.1-1,1.4-1.9,1.1c-0.8-0.3-1.8,0.1-2.9,1.2c-1.2,1.1-1.8,2-1.8,2.9c0,0.8-0.3,1.3-0.8,1.6
		c-0.4,0.2-0.8,1-1.1,2.4c-0.3,1.5-1,2.6-2.2,3.1c-1.3,0.5-1.9,1.2-1.9,2c0,0.8-0.6,1.3-1.7,1.6c-1.2,0.3-1.8,0.9-1.8,1.8
		c0,0.8-0.9,2.3-2.6,4.3c-1.1,1.2-1.7,2.1-1.9,2.6c-0.2,0.5-0.1,1.1,0.3,1.6c0.4,0.5,0.5,1,0.2,1.6c-0.3,0.6-1.2,1.5-2.7,2.7
		c-1.7,1.4-2.7,2.5-3.1,3.3c-0.4,0.8-0.5,2.2-0.5,4.3c0,2,0.1,3.4,0.4,4.2c0.3,0.8,1,1.7,2.1,2.7c1.1,1,2,1.6,2.5,1.7
		c0.6,0.2,1.2,0,1.9-0.5c1.1-0.8,2-0.7,2.5,0.2c0.5,0.5,0.8,0.2,0.8-0.7c0-1.3,0.4-1.9,1.3-1.6c0.8,0.3,1.4,0,1.7-0.7
		c0.3-0.8,0.9-1.3,1.8-1.3c0.9,0,1.4-0.2,1.4-0.7c0-0.5,0.6-0.9,1.9-1.3c1.3-0.4,2.6-1.2,3.9-2.3c1.3-1.2,2.8-2,4.5-2.3
		c1.8-0.3,3.3-1.4,4.5-3.2c0.8-1.2,1.4-1.8,1.7-1.9c0.3-0.1,0.7,0.2,1.2,0.8c0.6,0.8,1.1,1,1.5,0.8c0.4-0.2,0.6-1,0.6-2.2
		c0-0.4,0.1-0.7,0.3-0.9c0.2-0.2,0.4-0.2,0.6-0.1c0.5,0.4,1.1-0.2,1.8-1.7c0.7-1.5,1.7-2.3,3.1-2.6c0.8-0.1,1.2,0.1,1.2,0.8
		c0,0.8-0.4,1.4-1.1,1.6c-0.3,0.1-0.2,0.2,0.1,0.2c0.4,0,0.9-0.1,1.8-0.2c2-0.3,3.6-1.1,4.8-2.5c1.2-1.3,2.9-2.6,5.2-3.8
		c2.3-1.2,3.9-1.7,4.9-1.4c1,0.3,1.5,0.2,1.5-0.3c0-0.6,0.9-1.8,2.7-3.6c1.3-1.3,2.1-2,2.5-2.1c0.4-0.1,0.9,0.2,1.4,0.9
		c0.6,0.8,1,0.9,1.2,0.5c0.1-0.3,0.3-1,0.5-2.1c0.3-2,1-3.1,2.2-3.5c1.1-0.2,1.6,0,1.6,0.6c0,0.8,0.2,0.7,0.7-0.1
		C798.4,130,799.2,130.2,800.5,131.4z M775.4,62.7c-1.5-0.6-2.1-1.4-1.8-2.2c0.3-0.8,1.4-1.6,3.3-2.4c2.2-0.9,3.5-1.6,3.8-2.1
		c0.3-0.7,0.9-0.3,1.8,1.2c0.6,1.1,0.9,2,0.9,2.7c0,1-0.3,1.6-0.8,2c-0.6,0.4-0.8,1-0.8,2c0,0.9-0.6,1.8-1.8,2.5
		c-0.7,0.5-1.2,0.7-1.5,0.6c-0.3-0.1-0.5-0.6-0.7-1.4C777.3,64.1,776.5,63.1,775.4,62.7z M802.2,128.1c-0.4,0.2-0.8,0.4-1,0.4
		c-0.2,0.1-0.4,0-0.5-0.2c-0.1-0.2-0.1-0.5,0-0.9c0.1-0.4,0.2-1,0.4-1.8c0.4-1.3,1-2,1.7-2c0.6,0,0.9,0.3,1,0.9c0.1,0.6,0,1.3-0.3,2
		C803.2,127.3,802.8,127.8,802.2,128.1z M802.9,129.4c0.4-0.4,0.9-0.4,1.3-0.1c0.5,0.4,0.7,1,0.7,1.7c0,0.8-0.4,1.2-1.3,1.2
		c-0.6,0-1-0.3-1.2-1C802.3,130.6,802.4,130,802.9,129.4z M808.2,122.7c0.2,0.8-0.2,1.1-1.2,0.8c-1.1-0.3-1.7-0.8-1.9-1.5
		c-0.2-0.8,0.2-1.1,1.2-0.8C807.3,121.5,808,122,808.2,122.7z M809.2,125.4c0.3,0,0.5,0,0.6,0.1c0.1,0.1,0.2,0.2,0.2,0.4
		s-0.1,0.5-0.2,0.8c-0.1,0.3-0.4,0.8-0.6,1.3c-0.8,1.4-1.5,1.9-2.1,1.5c-0.3-0.2-0.4-0.6-0.4-1.2c0-0.8,0.4-1.3,1.3-1.3
		c0.9,0,1.2-0.3,0.8-0.8C808.5,125.7,808.6,125.4,809.2,125.4z"/>
</g>
</svg>
