<?xml version="1.0" encoding="utf-8"?>
<!-- Generator: Adobe Illustrator 30.4.0, SVG Export Plug-In . SVG Version: 9.03 Build 0)  -->
<svg version="1.0" id="Layer_1" xmlns="http://www.w3.org/2000/svg" xmlns:xlink="http://www.w3.org/1999/xlink" x="0px" y="0px"
	 viewBox="0 0 240 240" style="enable-background:new 0 0 240 240;" xml:space="preserve">
<g>
	<g>
		<polygon style="fill:#FFFFFF;" points="226.9,207.1 194,194 226.9,180.8 240,194 		"/>
		<path style="fill:#FFFFFF;" d="M124.7,193.9c0,25.4,21.4,46.1,47.9,46.1c11.7,0,22.5-4.1,30.8-10.8l18.2-17.1l-27.3-10.9l-3.5,3.4
			l-4.8,4.6c-3.8,2.8-8.5,4.4-13.5,4.4c-11.8,0-21.4-8.8-21.4-19.6s9.6-19.6,21.4-19.6c4.9,0,9.7,1.5,13.5,4.4l8.3,8l27.2-10.9
			l-18.2-17.1C195,152,184.2,148,172.5,148C146.1,147.9,124.7,168.5,124.7,193.9z"/>
		<polygon style="fill:#FFFFFF;" points="226.7,172 226.7,0 200.4,0 200.4,145.8 		"/>
		<polygon style="fill:#FFFFFF;" points="102.2,180.8 69.4,194 102.2,207.1 115.3,194 		"/>
		<path style="fill:#FFFFFF;" d="M0,193.9C0,219.3,21.4,240,47.9,240c11.7,0,22.5-4.1,30.8-10.8l18.2-17.1l-27.3-10.9l-3.5,3.4
			l-4.8,4.6c-3.8,2.8-8.5,4.4-13.5,4.4c-11.8,0-21.4-8.8-21.4-19.6s9.6-19.6,21.4-19.6c4.9,0,9.7,1.5,13.5,4.4l8.3,8l27.2-10.9
			l-18.2-17.1C70.3,152,59.5,148,47.8,148C21.4,147.9,0,168.5,0,193.9z"/>
		<polygon style="fill:#FFFFFF;" points="102.2,172 102.2,4.3 75.9,0.2 75.9,145.8 		"/>
	</g>
	<polygon style="fill:#FFFFFF;" points="102.1,26.2 75.8,0 226.5,0 200.3,26.2 	"/>
</g>
</svg>
