<?xml version="1.0" encoding="utf-8"?>
<!-- Generator: Adobe Illustrator 30.4.0, SVG Export Plug-In . SVG Version: 9.03 Build 0)  -->
<svg version="1.0" id="Layer_1" xmlns="http://www.w3.org/2000/svg" xmlns:xlink="http://www.w3.org/1999/xlink" x="0px" y="0px"
	 viewBox="0 0 1000 265.9" style="enable-background:new 0 0 1000 265.9;" xml:space="preserve">
<g>
	<path style="fill:#009FE3;" d="M375.1,15.4c2.6,2.4,3.8,4.2,3.6,5.4c-0.1,0.3-0.3,0.5-0.6,0.5c-0.5,0-0.5,0.6-0.2,1.9
		c0.3,1.3,0.2,1.9-0.4,1.9c-0.5,0-0.7,0.4-0.7,1.2c0,0.9-0.9,2.3-2.7,4.3c-1.8,1.9-2.7,3.2-2.7,3.8c0,0.6-0.4,0.9-1.1,0.9
		c-0.7,0-1.1,0.3-1.1,0.8c0.1,0.8-0.7,1.9-2.2,3.3c-1.5,1.4-2.8,2.2-3.9,2.4s-1.7,0.5-1.8,0.8c-0.1,0.4,0.1,1.1,0.6,2.3
		c0.4,0.8,0.2,1.7-0.7,2.5c-3.1,3-6.1,6.4-9.1,10.1c-2.9,3.5-4.8,5.3-5.7,5.4c-0.5,0-1.2,0.4-1.8,1.2c-0.7,0.7-1.3,0.9-2,0.5
		c-0.7-0.4-0.6-1,0.1-1.8c0.7-0.8,1.3-1.3,1.8-1.3c0.5,0,1.1-0.8,1.6-2.4c0.5-1.6,1.2-2.5,2.1-2.8c0.8-0.3,1.1-0.8,0.8-1.5
		c-0.3-0.6,0-1.2,1-1.9c1.1-0.7,1.9-1.8,2.5-3.3c0.7-1.6,2.3-3.8,4.7-6.6c2.5-2.8,3.9-4.7,4.2-5.8c0.3-1.3,1.3-2.8,3-4.6
		c1.7-1.8,3-2.7,4-2.9c0.7-0.1,1.2-0.3,1.5-0.5c0.2-0.2,0.3-0.8,0.3-1.5c-0.1-1.4,0.3-2.7,1.2-3.9c0.7-1,1-2.2,0.8-3.6
		c-0.2-1.4-0.7-2.4-1.6-3c-0.7-0.5-2,0.2-3.9,2.1c-1.9,1.9-3.2,2.7-3.9,2.5c-0.4-0.1-0.7-0.1-0.9,0.1c-0.2,0.2-0.2,0.5-0.2,1.1
		c0.1,1.1-0.2,1.6-1,1.6c-0.8,0-1.7,0.7-2.6,2c-1,1.3-2,2-3.2,2.1c-1.2,0.1-1.7,0.3-1.7,0.6c0,0.4-0.7,1.1-2.1,2.2
		c-1.5,1.2-2.3,2.1-2.5,3c-0.2,0.9-0.5,1.4-0.9,1.4c-0.4,0.1-1.5,1-3.2,2.9c-1.7,1.9-2.5,3-2.5,3.5c0,0.4-0.7,0.8-2,1.2
		c-1.5,0.4-3.3,2.5-5.4,6.4c-2.2,3.8-3.8,6.1-4.9,6.7c-1,0.6-1.5,1.1-1.4,1.5c0.2,0.7-0.2,1.8-1.4,3.4c-1.2,1.6-2.2,2.5-3,2.7
		c-1.4,0.4-2.2,0.9-2.4,1.7c-0.9,2.8-2.4,5.4-4.4,7.8c-1.2,1.3-2,2.7-2.6,4.2c-0.5,1.5-1.2,2.3-1.8,2.6c-0.7,0.3-1.1,0.8-1.1,1.5
		s-0.3,1.1-1,1.1c-0.6,0-1.1,0.6-1.5,1.8c-0.4,1.7-1.4,3.5-2.8,5.4c-1.5,1.9-2.7,3-3.7,3.3c-1.5,0.4-3,2-4.5,4.8
		c-1.6,2.9-2.3,4.6-2,5c0.4,0.5-0.1,1.2-1.3,2.1c-1.2,0.8-1.8,2-1.6,3.5c0.1,1,0.2,1.5,0.4,1.7c0.2,0.2,0.7,0,1.6-0.4
		c1.2-0.5,3.5-2.8,6.9-6.7c3.3-3.9,5.6-6,6.9-6.4c1.3-0.4,2.1-1,2.3-1.7c0.2-0.8,0.8-1.1,1.7-1c0.9,0.1,1.4-0.1,1.4-0.7
		c0-0.7,0.1-1.2,0.2-1.5c0.1-0.4,0.1-0.8,0-1.2c-0.1-0.5,0.2-1.3,1-2.1c0.8-0.9,1.5-1.3,2-1.1c0.2,0.1,0.5,0,0.8-0.5
		c0.3-0.4,0.5-0.9,0.7-1.5c0.4-1.5,1.2-2.2,2.3-2.4c1-0.1,1.6-0.4,1.9-0.9c0.3-0.7,0.7-0.9,1.1-0.8c0.5,0.2,0.8,0.6,1.1,1.4
		c0.4,1-0.2,2.4-2,4.3c-1.8,1.9-2.8,2.8-3.3,2.8c-0.4,0-0.8,0.7-1.3,2c-0.4,1.3-1.2,1.9-2.2,1.7c-0.9-0.2-1.4,0.1-1.4,0.7
		c0,0.4-0.3,1.1-1,2c-0.6,0.9-1.3,1.8-2,2.5c-0.7,0.7-1.2,1-1.5,0.8c-0.2,0.1-0.4,0.3-0.5,0.7c0.1,0.5-0.5,1.3-1.7,2.1
		c-1.2,0.9-2.1,1.3-2.8,1.1c-0.1-0.1-0.2,0-0.3,0.3c-0.1,0.2-0.1,0.5-0.1,0.9c0,0.8-0.5,1.9-1.6,3.3c-1.8,2.2-3.2,3.6-4.3,4.2
		c-1,0.6-2.6,1-4.8,1.2c-2.1,0.2-3.3,0.4-3.7,0.5c-0.3,0.2-0.4,0.8-0.1,1.7c0.5,1.8-0.5,4.4-3,8c-2.5,3.6-5,6-7.6,7.4
		c-2.1,1.2-3.9,2.6-5.3,4.4c-1.6,2.1-2.7,3.1-3.3,3.1c-1.3,0.1-2.1,2.4-2.3,6.8c-0.1,2.2-0.5,3.7-1.3,4.5c-0.7,0.8-1,1.5-1,2.2
		c0,0.6-1,1.6-3,3.1c-2.1,1.5-3.6,2.8-4.3,3.9c-0.8,1.1-1,2.2-0.7,3.4c0.2,1,0.1,2.4-0.4,4.4c-0.5,1.9-1.1,3.1-1.7,3.6
		c-0.6,0.7-0.7,1.5-0.4,2.4c0.4,0.9,1.1,1.8,2.4,2.5c1.2,0.8,2.4,1.1,3.5,1.1c1.3-0.1,3.6-0.8,6.8-2.2c3.2-1.3,5.6-2.6,7.1-3.7
		c1.7-1.3,3.5-2.2,5.4-2.8c2-0.7,3.3-1.4,3.8-2.3c0.6-0.9,1.1-1.1,1.5-0.5c0.4,0.6,1.3,0.3,2.7-0.9c1.4-1.1,2.1-2.1,2.1-2.7
		c0-0.5,0-1,0-1.3c0-0.3,0.1-0.5,0.1-0.7c0.1-0.2,0.2-0.3,0.3-0.3c0.2,0,0.3,0.1,0.5,0.2c0.2,0.1,0.4,0.1,0.5,0c0.1-0.2,0.1-0.5,0-1
		c-0.2-0.8,0.1-1.9,0.9-3c0.8-1.2,1.6-1.8,2.4-1.9c0.6,0,1.2-0.5,1.9-1.5c0.7-1,2.1-1.8,4.3-2.5c2.2-0.6,3.6-0.6,4.3,0.1
		c0.7,0.7,0.9,1.5,0.6,2.5c-0.2,0.9-0.9,1.7-2,2.3c-1.3,0.8-2,1.4-2,1.8c0,0.5-0.4,0.7-1.2,0.7c-0.7,0-1.4,0.5-2.1,1.5
		c-0.3,0.5-0.5,0.8-0.7,0.9c-0.2,0.1-0.4,0.1-0.5,0s-0.5-0.3-0.8-0.8c-1.4-1.6-2-1.6-1.9-0.1c0,0.8-0.3,1.2-1,1.2
		c-0.7,0-0.8,0.7-0.5,2c0.2,0.8,0.3,1.3,0.2,1.5c-0.1,0.2-0.5,0.2-1,0c-0.6-0.2-0.9-0.2-0.9,0.1c0,0.1,0,0.1,0.1,0.2
		c0.4,0.5-1,2.1-4.3,4.6c-0.6,0.5-0.8,0.7-0.6,0.7c0.6-0.2,0.9,0.1,0.9,0.8c0.1,1.5-0.5,2.8-1.7,4.1c-0.2,0.2-0.5,0.5-0.7,0.6
		c-1,0.7-1.9,0.9-2.7,0.6c-0.8-0.3-1.3,0.1-1.5,1.1c-0.2,1-1,1.5-2.4,1.5c-1.4,0-3,0.7-4.8,2.1c-1.9,1.5-3.7,2.5-5.3,2.8
		c-1.8,0.4-2.9,0.9-3.5,1.5c-0.7,0.5-2.1,0.6-4.4,0.2c-2.3-0.4-3.6-0.5-4-0.3c-0.4,0.3-1.5-0.1-3.4-1.2c-1.2-0.7-2.1-1.1-2.7-1.2
		c-0.6-0.1-1.4,0-2.4,0.4c-2.5,0.9-4.2,0.2-5.1-2.2c-0.5-1.2-1.1-2.1-1.7-2.8c-0.5-0.5-0.8-1-0.8-1.4s0.2-1,0.7-1.8
		c1-1.8,1.5-4.5,1.4-8.1c0-0.8,0.4-1.6,1.1-2.5c0.6-0.7,1.3-2.1,2-4.1c0.7-1.9,1.3-3.3,2-4.2c0.7-0.9,0.8-1.8,0.2-2.8
		c-0.7-1.1-0.9-2-0.8-2.8c0.1-0.8,0.7-1.8,1.7-3.1c2-2.5,3.2-4.2,3.6-5c0.4-0.8,0.5-1.6,0.3-2.2c-0.3-1,1-2.8,3.9-5.5
		c2.9-2.7,4.2-4.7,4-5.8c-0.2-1.1,0.1-1.9,0.8-2.3c0.7-0.3,1.1-0.8,1.1-1.5c0-0.6,0.6-1.1,1.7-1.5c1.3-0.4,2.4-1.7,3.3-4
		c0.9-2.4,1.5-3.5,1.9-3.5c0.6-0.1,1.3-0.6,2.2-1.8c0.9-1.1,1.4-2.2,1.6-3.1c0.2-1.3,0.8-2.3,1.7-2.9c1-0.6,1.4-1.5,1.3-2.5
		c-0.1-1,0.2-1.8,0.7-2.5c0.5-0.7,1.2-1.1,2-1.1c0.6-0.1,1.3-0.8,2.2-2.3c0.9-1.5,1.3-2.7,1.2-3.6c0-0.6,0.4-1,1.3-1.1
		c0.9-0.1,1.2-0.7,0.9-1.9c-0.2-0.9,0.1-2.2,0.9-4c0.8-1.7,1.6-2.6,2.4-2.7c0.5,0,1.5-0.7,3.1-2c1.6-1.4,2.7-2.1,3.1-2.1
		c0.6,0,0.6-0.8,0.1-2.3c-0.4-1-0.5-1.6-0.4-1.9c0.1-0.3,0.5-0.6,1.3-0.8c1.2-0.4,1.9-1,2.2-2c0.2-1,0.6-1.5,1-1.5
		c0.4,0,1.3-1.1,2.6-3.3c1-1.6,1.6-2.6,1.8-3.2c0.2-0.6,0.3-1.3,0.2-2c0-0.6,0.4-0.6,1.2,0c0.5,0.4,0.8,0.5,1,0.5
		c0.2,0,0.2-0.3,0.1-0.8c0-0.8,0.5-1.3,1.4-1.6c1-0.3,1.5-1.4,1.3-3.4c-0.1-1.2,0-2.1,0.3-2.6c0.2-0.5,0.8-1.1,1.7-1.7
		c1.4-1,2.4-1.3,2.9-1.1c0.2,0.1,0.4,0,0.6-0.2c0.2-0.3,0.4-0.6,0.5-1c0.1-0.6,0.3-1,0.6-1.1c0.3-0.2,0.8-0.2,1.5,0
		c0.7,0.1,1.1,0.1,1.5,0c0.3-0.1,0.4-0.4,0.4-0.8c0-0.7,0.5-1.1,1.4-1.3c1-0.1,1.5-0.6,1.5-1.5c-0.1-0.8,0.2-1.6,0.9-2.4
		c0.8-0.8,1.1-1.6,1-2.5c-0.1-0.8,0.1-1.9,0.6-3c0.5-1.2,1-2,1.6-2.4c0.5-0.4,1.5-0.6,3.2-0.7c1-0.1,1.7-0.3,2.3-0.7
		c0.6-0.4,1.2-1.3,2-2.5c1.2-2.1,2-3.2,2.3-3.2c0.4,0,1.1-0.7,2.4-2c1.2-1.4,2.5-2,3.7-1.8c0.8,0.1,1.4,0,1.6-0.2
		c0.2-0.2,0.3-0.7,0.2-1.6c-0.1-0.8,0.1-1.5,0.5-2.1c0.4-0.6,1.2-1.3,2.3-2.2c2-1.4,3.1-2,3.3-1.8c0.2,0.2,0.8-0.2,1.9-1.3
		c1-1,1.7-1.4,2.2-1.4c0.6,0.1,1.3-0.2,2-1.1c0.8-0.9,1.9-1.4,3.5-1.4c1.5,0,2.3-0.2,2.3-0.6c0-0.4,1.5-0.5,4.6-0.4
		c2.1,0.1,3.6,0.3,4.4,0.6C372.3,12.9,373.5,13.8,375.1,15.4z M322.7,136.2c1-0.6,2.1-0.9,3.3-0.9c1.2,0,2,0.3,2.3,1
		c0.2,0.4,0.1,0.9-0.5,1.5c-0.6,0.6-1.2,1-2,1.1c-0.4,0-0.8,0.3-1.5,0.9c-0.5,0.5-0.9,0.6-1,0.2c-0.1-0.2-0.2-0.1-0.3,0.3
		c-0.1,0.2-0.2,0.6-0.3,1c-0.2,1.3-0.7,1.9-1.3,1.9c-0.5,0-1.2,0.5-1.8,1.5c-0.6,1-1.5,1.4-2.5,1.2c-1-0.2-1.6,0.2-1.8,1.2
		c-0.1,0.4-0.3,0.7-0.5,0.9c-0.2,0.2-0.4,0.2-0.6,0.2c-0.5-0.2-1.2,0.1-1.9,0.9c-0.5,0.7-0.9,1-1.2,0.9c-0.2-0.1-0.7-0.5-1.5-1.3
		c-0.5-0.5-0.8-1-1.1-1.4c-0.2-0.4-0.4-0.7-0.4-0.9c0-0.2,0.1-0.4,0.3-0.5c0.2-0.1,0.6-0.2,1-0.2c1-0.1,1.6-0.4,1.8-0.8
		c0.2-0.4,1-0.8,2.4-1.3c1.3-0.4,2.4-1.2,3.5-2.4C319.3,138.9,321.2,137.2,322.7,136.2z M326.7,78.9c0.4,0,0.8,0.1,1.3,0.3
		c0.5,0.2,0.9,0.4,1.1,0.7c0.3,0.3,0.3,0.5,0.2,0.6c-0.2,0.4-0.9,0.2-1.9-0.5C326.7,79.5,326.5,79.1,326.7,78.9z M332.5,76
		c1,0.3,1,0.8,0,1.4c-0.7,0.4-1.7,0.6-2.8,0.6c-0.9,0.1-1.4,0-1.6-0.1c-0.2-0.2,0-0.5,0.3-1C329.2,75.7,330.6,75.4,332.5,76z
		 M333.5,72.9c0.5,0.2,0.6,0.6,0.3,1.2c-0.2,0.4-0.6,0.5-1.1,0.3c-0.5-0.2-0.6-0.6-0.4-1.1C332.5,72.8,332.9,72.7,333.5,72.9z
		 M337.9,67.2c1-0.1,1.5-0.1,1.7,0.2c0.2,0.2,0.2,1,0,2.4c-0.1,1.4-0.5,2.5-1.2,3.5c-0.7,0.9-1.5,1.4-2.4,1.5
		c-0.8,0.1-1.3-0.7-1.6-2.3c-0.3-1.6-0.1-2.8,0.5-3.5C335.7,67.9,336.7,67.4,337.9,67.2z"/>
	<path style="fill:#009FE3;" d="M369,122.4c-0.4,0-0.6,0.4-0.5,1.2c0.1,0.8-0.3,1.5-1.3,2.1c-1,0.6-1.7,1.1-2,1.5
		c-0.3,0.4-0.7,0.5-1.3,0.2c-0.6-0.4-1.3-0.3-2,0c-0.7,0.4-1.2,1-1.4,1.8c-0.3,1-0.8,1.5-1.4,1.5c-0.4,0-0.6-0.3-0.6-0.9
		c0-0.4-0.3-0.1-0.8,0.7c-0.3,0.5-0.6,1.1-0.9,1.7c-0.7,1.4-1.2,2.3-1.7,2.7c-0.5,0.4-1.1,0.6-2,0.6c-1.4,0-2.1,0.2-2.1,0.6
		c0,0.5-0.6,1.2-1.8,2.1c-1.2,0.9-2.1,1.4-2.8,1.4c-0.8,0-1.4,0.5-1.7,1.5c-0.3,1-1.1,1.6-2.5,1.9c-1.2,0.3-2.3,0.7-3.3,1.2
		c-0.8,0.4-1.7,0.6-2.5,0.6c-0.7,0-2.4,0.5-5.1,1.4c-2.7,0.9-4.3,1.3-4.8,1.1c-0.6-0.2-0.9,0-0.9,0.5c0,0.5-1,1-2.9,1.5
		c-1.6,0.4-3.2,1.4-4.6,2.8c-1.4,1.5-2.3,3-2.6,4.5c-0.4,1.6-0.8,2.8-1.1,3.6c-0.4,1.1-0.3,1.9,0.4,2.5c0.7,0.5,1.1,1.5,1.1,3
		c0,1.4,0.3,2.2,0.8,2.5c0.5,0.3,0.6,0.7,0.4,1.1c-0.1,0.2,0,0.5,0.5,0.9c0.4,0.4,1,0.7,1.6,1c1.1,0.5,2,0.8,2.5,0.9
		c0.5,0,1.3-0.2,2.2-0.7c2.3-1.1,5.2-0.9,8.6,0.5c0.5,0.2,0.8,0.3,1,0.1c0.2-0.2,0.3-0.5,0.3-1c0-1.9,0.8-2.4,2.4-1.6
		c0.8,0.5,1.5,0.3,2-0.5c0.4-0.9,1.1-1.2,1.9-0.8c0.7,0.3,1.4,0.1,2-0.6c0.6-0.7,1.3-1,2-0.7c0.8,0.3,1.8,0.3,3-0.1
		c1.1-0.4,1.8-1,2.1-1.8c0.3-1,0.9-1.4,1.7-1.4c0.8,0.1,1.6,0.6,2.4,1.6c0.9,1.2,1.5,1.2,1.9,0.3c0.1-0.5,0.3-1.4,0.5-2.7
		c0.1-0.7,0.2-1.2,0.5-1.5c0.3-0.2,0.7-0.3,1.4-0.2c1.1,0.2,1.9-0.1,2.2-0.9c0.4-0.8,1.4-1.5,3-2.3c3.1-1.3,5.2-1.5,6.2-0.5
		c0.7,0.8,0.1,1.9-1.8,3.5c-1.6,1.3-2.7,1.9-3.3,1.9c-0.4,0-0.8,0.5-1.2,1.4c-0.4,1.4-2.8,2.9-7.2,4.4c-4.4,1.5-6.9,1.8-7.5,0.8
		c-0.4-0.6-0.9-0.2-1.4,1.2c-0.2,0.6-0.5,1.1-0.8,1.5c-0.3,0.4-0.6,0.5-0.8,0.5c-0.7-0.1-1.8,0.3-3.1,1.2c-1.4,0.9-3.2,1.4-5.4,1.4
		c-2.2,0-3.2,0.3-3.1,0.8c0,0.2-0.2,0.3-0.5,0.5c-0.3,0.1-0.8,0.2-1.4,0.3c-0.6,0.1-1.3,0.1-2.2,0.1c-2.6,0-4.1,0.2-4.5,0.6
		c-0.4,0.4-1.1,0.6-2.1,0.8c-1.1,0.2-2.1,0.5-3.1,0.8c-1,0.3-1.8,0.3-2.4-0.1c-0.8-0.4-2.1-0.6-4.1-0.5c-1.3,0.1-2.2,0-2.9-0.3
		c-0.6-0.2-1.3-0.8-2-1.5c-0.4-0.4-1-1.1-1.9-2s-1.4-1.5-1.5-1.7c-1.1-1.2-1.6-2.1-1.6-2.5c0-0.5-0.3-0.7-0.8-0.7
		c-0.5,0-0.9-0.4-1.2-1.3c-0.4-0.9-0.9-1.8-1.6-2.6c-0.5-0.6-0.7-1.2-0.7-1.7c0-0.5,0.3-1.7,0.9-3.4c0.8-2.6,1.2-4.3,1.2-5.1
		c0-0.8,0.7-2.1,2-3.7c1.3-1.6,2.1-3.6,2.3-5.9c0.2-2.4,0.8-3.9,1.8-4.7c1-0.8,2.1-2.3,3.2-4.5c1-2.2,2.3-3.6,3.9-4.4
		c1.6-0.7,2.6-2,2.9-3.8c0.4-1.8,0.7-2.9,0.9-3.4c0.5-0.7,1.4-1.6,2.9-2.5c1.4-0.9,2.3-1.3,2.6-1.1c0.2,0.1,0.9-0.1,2-0.7
		c1.1-0.6,2.2-1.2,3.1-1.9c1-0.7,1.4-1.1,1.2-1.3c-0.4-0.4-0.2-1.3,0.8-2.7c0.9-1.4,1.7-2,2.4-2c1,0,2.3-0.7,3.9-2.2
		c1.4-1.2,3.5-2.4,6.2-3.6c2.8-1.2,4.7-1.7,5.9-1.6c0.7,0.1,2-0.2,4-0.9c1.9-0.7,3.5-1.4,4.7-2.1c0.8-0.5,1.5-0.7,2-0.7
		c0.5-0.1,1.1,0.3,2,1c0.8,0.8,1.3,1.4,1.3,1.9c0,0.5,0.2,0.7,0.7,0.7c0.5,0,0.7-0.2,0.4-0.7c-0.2-0.3,0.2-0.5,1-0.6
		c0.4-0.1,0.8-0.1,1.4-0.1c1.9,0,3.6,0.6,5,1.8c1.5,1.3,2.5,1.9,2.8,1.9c0.4,0,0.6,1.2,0.5,3.7c-0.1,2.5-0.6,4.2-1.6,5.1
		c-1.2,0.9-2,2.1-2.6,3.6C370,121.6,369.4,122.4,369,122.4z M366.5,115.6c0.4-0.4,0.7-0.7,0.9-1c0.2-0.3,0.2-0.6,0-0.8
		c-0.2-0.2-0.5-0.3-0.9-0.3c-0.7,0-1.6-0.8-2.8-2.3c-1.2-1.5-1.9-2.1-2.3-1.7c-0.4,0.4-1.7,0.6-4,0.7c-2.2,0.1-3.6,0.5-4.1,1.3
		c-0.5,0.8-2.3,2.4-5.4,4.8c-3.1,2.3-5,3.5-5.6,3.5c-0.6,0-1.2,0.6-1.6,1.7c-0.4,1.2-1.5,2.1-3.1,2.8c-1.3,0.6-2.5,1.3-3.5,2
		c-1,0.7-1.5,1.3-1.5,1.6c0,0.4-0.8,1.6-2.3,3.6c-1.5,2-2.2,3.4-2.2,4.2c0,0.7-0.4,1.6-1.3,2.5c-0.6,0.7-0.9,1.1-0.8,1.4
		s0.6,0.8,1.5,1.7c1.3,1.2,2.1,1.6,2.2,1.2c0.1-0.4,0.8-0.7,1.9-0.9c1.2-0.2,2.1-0.6,2.5-1.1c0.6-0.6,1.2-0.9,1.8-0.9
		c0.7,0,1.7-0.4,3-1.1c1-0.6,1.5-1,1.5-1.2c-0.4,0-0.3-0.4,0.4-1.2c0.7-0.8,1.4-1.1,2.3-0.8c0.8,0.2,1.4,0.1,1.6-0.5
		c0.2-0.5,1-1.1,2.5-1.9c1.3-0.7,2.7-1.6,4.1-2.6c1.6-1.1,2.8-2,3.7-2.6c1.3-0.8,2.7-2.1,4.3-3.7c1.6-1.7,2.9-2.5,3.9-2.4
		c0.5,0.1,1,0,1.2-0.4c0.3-0.4,0.5-1,0.7-2C365.4,117.4,365.9,116.2,366.5,115.6z M390.5,140.9c2.1-0.5,3.1-0.2,3.1,0.8
		c0.1,1-0.8,1.9-2.6,2.7c-0.3,0.1-0.6,0.2-1,0.4c-2.2,0.7-3.7,1.5-4.4,2.4c-0.7,0.9-1.3,1.4-2,1.4c-0.7,0-1.1,0.3-1.1,1
		c0,0.6-1.2,1.5-3.6,2.5c-2.5,1.2-3.9,2-4.2,2.5c-0.3,0.5-1.1,0.7-2.5,0.7c-0.9,0-1.3-0.1-1.3-0.3c0-0.1,0.1-0.1,0.2-0.2
		c0.7-0.2,0.8-0.6,0.5-1c-0.2-0.4,0.3-0.9,1.5-1.5c1.2-0.7,1.8-1.3,1.8-1.9c0-0.7,0.4-0.8,1.1-0.5c0.8,0.4,1.2,0.2,1.2-0.4
		c0-0.5,0.4-0.7,1.1-0.4c0.4,0.1,0.6,0.1,0.7,0c0.1-0.1,0.1-0.3,0-0.7c-0.1-0.4,0-0.7,0.4-1c0.4-0.3,1-0.7,1.9-1
		c1.7-0.6,2.5-1.1,2.5-1.5c0-0.4,0.5-0.5,1.5-0.3c0.7,0.2,1.5,0,2.4-0.6c0.9-0.6,1.3-1.3,1.3-2C389.2,141.4,389.7,141.1,390.5,140.9
		z"/>
	<path style="fill:#009FE3;" d="M518.9,11.9c0.6,0.7,0.6,1.7,0,3c-0.6,1.3-1.5,2.2-2.6,2.8c-0.9,0.4-2,1.5-3.2,3.1
		c-1.2,1.7-1.8,2.9-1.8,3.7c0.1,0.5-1.2,2.1-3.6,4.7c-2.5,2.6-4,3.9-4.6,4c-0.7,0-1.1-0.4-1.1-1.1c0.1-0.5,0.3-0.8,0.5-0.9
		c0.4,0.2,0.8,0,1.5-0.7c0.6-0.7,0.8-1.1,0.5-1.1c-0.1,0-0.1-0.2,0-0.7c0.1-0.5,0.2-1,0.4-1.8c0.5-1.7,1.3-3.4,2.5-5
		c1.1-1.6,2-2.4,2.6-2.2c0.4,0.1,0.7-0.1,0.9-0.5c0.2-0.4,0.4-1.1,0.5-2.2c0.3-2.1,0.9-3.3,1.8-3.5c0.9-0.3,1.3-0.7,1.3-1.2
		c-0.1-0.5-0.5-0.8-1.5-1c-0.6-0.1-1-0.4-1.1-0.7c-0.1-0.4-0.1-1.1,0-2.3c0.2-1.4,0.2-2.1-0.1-2.2c-0.1-0.1-0.3,0.1-0.6,0.4
		c-0.6,0.6-1.6,1-3,1.1c-1.5,0.1-3.9,2.1-7.4,6c-3.5,3.9-5.3,6.1-5.3,6.5c0,0.5-1.3,1.5-4,2.9c-2.7,1.4-4.2,2.5-4.5,3.2
		c-0.2,0.7-0.7,1.1-1.5,1.1s-1.5,0.8-2.2,2.3c-0.8,1.5-1.8,2.5-2.9,2.8c-1,0.3-1.7,0.9-2.1,1.8c-0.4,1-1.3,2.9-2.7,5.5
		c-1.5,2.7-2.2,4.4-2.2,5.1c0.1,1-0.6,2.3-2,4.1c-1.4,1.8-2.8,3.1-4.2,3.9c-2,1-3.1,2-3.4,3c-0.3,1.2-1.6,2.9-3.9,5.3
		c-2.3,2.4-4.1,3.9-5.4,4.5c-1.1,0.5-1.8,1-2.1,1.4c-0.3,0.5-0.4,1.2-0.4,2.1c0.1,0.9,0,1.6-0.3,2c-0.2,0.4-0.8,0.8-1.5,1.1
		c-1.3,0.5-2.1,0.7-2.4,0.5c-0.3-0.2-0.8,0-1.5,0.6c-0.7,0.6-1.3,0.5-1.8-0.4c-0.6-1-1.1-1.4-1.5-1.1c-0.2,0.2-0.2,0.7,0,1.4
		c0.2,0.9-0.2,1.6-1.2,2c-1.3,0.5-1.6,1-0.7,1.5c0.8,0.4,2.1,0.5,3.7,0.4c1.8-0.2,3.5-0.6,5.3-1.4c1.8-0.8,2.9-1.6,3.5-2.4
		c0.7-0.8,1.5-1.3,2.4-1.3c0.7-0.1,1.4-0.3,2-0.7c0.6-0.4,1.6-1.4,3.1-3c2.1-2.2,4.8-4.4,8.3-6.6c3.5-2.2,5.6-3.1,6.2-2.8
		c0.2,0.1,0.4,0.1,0.4,0c0-0.1,0-0.2-0.1-0.4c-0.3-0.4,0.5-1.5,2.5-3.4c3.8-3.4,6.2-4.8,7.3-4.3c0.2,0.1,0.4,0.2,0.5,0.1
		c0.1,0,0-0.1-0.1-0.2c-0.3-0.3,0-1.2,0.9-2.7c0.9-1.5,1.6-2.3,2-2.3c0.5-0.1,1.4-0.8,2.9-2.3c1.4-1.5,2.1-2.4,2.1-2.9
		c0-0.7,0.6-1.8,1.7-3.3c1.1-1.5,1.7-2.5,1.7-3.1c0-0.4,0.2-0.6,0.5-0.8c0.3-0.2,0.7-0.2,1.1,0c0.5,0.1,0.9,0.4,1.2,0.7
		c2,1.8,1.1,4.8-2.7,9.1c-2.5,2.8-4,4.8-4.3,5.9c-0.4,1.2-0.7,1.7-1,1.7c-0.4,0-1.5,0.6-3.2,1.9c-1.7,1.3-2.7,1.8-3,1.5
		c-0.1-0.1-0.3,0.1-0.5,0.4c-0.2,0.3-0.4,0.7-0.7,1.3c-0.5,1.3-2.1,2.9-4.6,4.8c-2.5,1.9-3.9,3-4,3.5c-0.3,1-1.8,2.4-4.5,4.4
		c-2.7,2-4.8,3.2-6.4,3.6c-2.3,0.7-3.6,1.5-3.9,2.5c-0.2,1-1,1.6-2.2,1.9c-1.2,0.3-1.7,0.7-1.7,1.3c0,0.5-0.3,0.7-0.8,0.7
		c-0.4,0-1.6,0.8-3.5,2.5c-1.9,1.6-3.6,2.5-5.1,2.6c-1.6,0.1-2.6,0.7-3.1,1.6c-0.4,1-1,1.3-1.7,1.1c-0.7-0.2-1.4,0-1.9,0.8
		c-0.5,0.8-1.1,1.2-1.6,1.2c-0.2,0-0.9,0.5-1.9,1.5c-1,1-2.1,2.2-3.2,3.5c-2.7,3.4-4.3,5.1-4.8,5.1c-0.5,0.1-1.7,1.2-3.5,3.4
		c-1.8,2.2-2.8,3.6-2.9,4.3c-0.1,0.8,0.2,1.5,0.8,1.9c0.7,0.5,0.8,1.5,0.5,2.9c-0.3,1.5-2,3.3-5,5.3c-4.8,3.2-7.2,5.7-7.2,7.4
		c0,0.5-0.3,1.1-0.8,1.7c-0.5,0.5-1,1.8-1.7,3.7c-0.6,1.9-0.9,3.3-0.9,4.2c0,0.9-0.4,1.7-1.2,2.3c-1,0.8-1.4,2.6-1.4,5.1
		c0.1,2.6,0.6,4.5,1.6,5.7c1,1.2,1.5,2.4,1.3,3.5c-0.1,0.7,0,1.3,0.2,1.6s1,0.8,2,1.2c1.2,0.5,2.1,0.7,2.6,0.7c0.5,0,1.2-0.3,2-0.9
		c1.3-0.9,2-1.7,2.2-2.5c0.2-0.7,1-1,2.4-0.7c0.9,0.2,1.4,0.2,1.6,0c0.2-0.2,0.1-0.7,0-1.5c-0.2-1.1,0.3-2.5,1.7-4.1
		c1.6-1.7,2.7-3.2,3.3-4.5c0.7-1.5,1.9-2.7,3.7-3.7c1.1-0.6,1.8-1.1,2.2-1.6c0.4-0.5,0.5-1.1,0.5-2c-0.1-1.5,0.1-2.2,0.6-2.2
		c0.5,0,0.7,0.2,0.7,0.6c0,0.5,0.3,0.7,0.8,0.7c0.5,0,0.7-0.2,0.5-0.5c-0.1-0.3-0.1-1.8,0.2-4.5c0.2-2.7,0.7-4,1.5-4
		c0.2,0,0.6,0,1,0c0.4,0,0.7,0,0.7,0c0.4,0,0.6,0.4,0.8,1.3c0.2,0.9,0.1,1.8,0,2.9c-0.2,1.1-0.5,1.8-0.9,2.3c-0.8,0.8-1.4,2-1.7,3.5
		c-0.2,1.3-0.7,2-1.4,2.1c-0.3,0.1-0.5-0.2-0.5-0.8c0-0.5-0.3-0.6-0.8-0.3c-0.5,0.4-0.4,1,0.5,1.9c1.5,1.5,1.1,3.7-1.3,6.4
		c-1.1,1.3-1.6,2.3-1.6,2.9c0,0.5-0.7,1.3-2.2,2.2c-1.4,0.8-2.1,1.7-2.1,2.5c0,0.8-0.4,1.2-1.3,1.2c-0.8,0.1-1.5,0.8-2.1,2.3
		c-0.6,1.5-0.8,2.8-0.6,4c0.4,2.4,3.8,2.8,10.1,1.2c3.6-0.9,5.7-1.2,6.4-0.9c0.8,0.2,1.3,0,1.6-0.8c0.2-0.8,0.9-1.3,1.9-1.3
		c0.8-0.1,2.4-0.6,4.5-1.7c2.2-1.1,3.4-1.9,3.7-2.5c0.3-0.6,0.8-0.9,1.5-0.8c0.7,0.1,1.5,0.5,2.2,1.1c0.4,0.4,0.7,0.7,0.8,0.9
		c0.1,0.2,0.1,0.3,0,0.5c-0.1,0.2-0.4,0.4-0.8,0.6c-1,0.6-1.6,1.2-1.9,1.8c-0.4,0.7-0.9,1.1-1.5,1.1c-0.7,0-1.6,0.9-2.9,2.7
		c-0.8,1.3-1.5,2-2,2.3c-0.5,0.2-1.3,0.3-2.5,0.1c-1.8-0.2-3,0-3.8,0.8c-1.9,1.8-4,2.3-6.4,1.5c-1.1-0.3-1.9-0.4-2.5-0.3
		c-0.6,0.1-1.5,0.6-2.8,1.5c-1.3,1-2.5,1.6-3.6,1.8c-1.1,0.2-3.5,0.5-7.2,0.6c-5.4,0.2-8.4,0.6-9,1.2c-0.7,0.5-1.2,0.7-1.5,0.4
		c-0.4-0.4-1.1,0.2-2.2,1.5c-1.1,1.5-2.2,2.2-3.3,2.2c-1,0-1.6,0.3-2,0.9c-0.3,0.5-0.8,0.7-1.4,0.5c-0.3-0.1-0.6,0-0.9,0.3
		c-0.3,0.3-0.4,0.8-0.5,1.5c-0.2,1.6-0.9,2.6-2,3.1c-1.4,0.7-2.7,1.5-3.8,2.4c-1.2,1-2.4,1.7-3.5,2.3c-1.2,0.6-2.5,0.7-3.9,0.3
		c-0.6-0.2-0.8-0.4-0.6-0.7c0.1-0.2,0.1-0.4-0.2-0.4c-0.1,0-0.3,0.1-0.5,0.2c-0.7,0.3-1.2,0.8-1.5,1.6c-0.2,0.8-0.7,0.9-1.5,0.3
		c-0.8-0.6-2.7-1-5.8-1.2c-0.4,0-0.8-0.5-1.1-1.5c-0.3-1-0.9-1.5-1.8-1.5c-0.9,0.1-1.7-0.2-2.3-0.9c-0.6-0.6-0.9-1.5-1-2.7
		c-0.1-1.3-0.5-2.2-1-2.7c-0.6-0.5-0.7-1.8-0.3-3.8c0.2-1.2,0.3-2,0.2-2.5c-0.1-0.5-0.4-0.8-0.9-1.1c-0.5-0.3-0.8-0.7-0.8-1.2
		c0-0.5,0.4-1.6,1.2-3.2c1.1-2.5,1.9-4.1,2.5-4.9c0.5-0.7,1.6-2.9,3.3-6.6c1.6-3.6,2.7-5.6,3.1-5.9c0.7-0.5,2-2.8,3.8-6.9
		c1.8-4.1,2.7-6.6,2.6-7.7c-0.1-1,0-1.6,0.3-1.9c0.2-0.3,0.8-0.5,1.7-0.6c0.7-0.1,1.1-0.3,1.5-0.5c0.3-0.2,0.4-0.5,0.3-0.8
		c-0.4-0.8-0.3-2.4,0.2-4.7c0.5-2.3,1.1-3.6,1.7-3.8c3.6-1.4,5.3-2.4,5-3.1c-0.2-0.4,0.4-1.5,1.9-3.1c1.3-1.3,2.8-3.2,4.5-5.6
		c1.6-2.2,2.7-3.3,3.1-3.3c0.5-0.1,1.1-0.5,1.7-1.5c0.6-0.9,0.9-1.8,0.9-2.5c0-0.9,0.2-1.4,0.6-1.4c0.5,0,0.8-0.5,1.1-1.5
		c0.2-0.9,1.3-2.4,3.4-4.5c6.2-6.2,9.1-9.9,8.6-10.9c-0.2-0.5,0.6-1.3,2.5-2.5c1.9-1.1,3.7-2.9,5.4-5.4c1.7-2.4,2.9-3.7,3.5-3.8
		c0.6-0.1,0.8-0.5,0.5-1.1c-0.3-0.7,0.3-1.7,1.7-3c1.3-1.2,2.4-2.7,3.2-4.4c1.1-2.4,3.9-4.9,8.4-7.5c0.9-0.6,1.7-1.7,2.4-3.3
		c1.2-3,4.1-5.3,8.8-6.8c1.3-0.4,2.2-0.8,2.6-1.2c0.4-0.4,0.7-1.1,0.8-2c0.2-1.6,0.9-3,2.1-4.3c1.5-1.6,2.6-2.9,3.4-3.8
		c1.4-1.7,3.8-4.3,7.2-7.9c3.4-3.6,5.3-5.4,5.5-5.4c0.2,0,1.5-1.2,3.7-3.5c2.2-2.4,3.7-3.5,4.3-3.5c0.7,0,2.5-1.4,5.4-4.1
		c0.7-0.5,1.7-0.7,3-0.5c1.1,0.2,2.1,0,2.7-0.5c0.7-0.5,1-1.3,0.9-2.4c-0.1-0.5,0-0.8,0.3-1C498.9,2,499.3,2,500,2
		c1,0.1,1.9,0,2.8-0.5c0.5-0.2,2.1-0.5,4.8-0.9c2.7-0.4,4.1-0.6,4.5-0.6c0.2-0.1,0.5,0.1,0.8,0.5c0.3,0.4,0.6,0.9,0.9,1.5
		c0.7,1.5,1.5,2.2,2.6,2.3c0.7,0.1,1.2,0.3,1.5,0.7c0.3,0.4,0.6,1.2,0.9,2.5c0.4,1.9,0.4,2.9-0.1,3.2
		C518.3,10.8,518.4,11.2,518.9,11.9z M407.1,161.5c-0.4-0.7-0.7-1.8-0.8-3.5c-0.1-1.4-0.7-2.4-1.6-3.1c-1.1-0.7-1.6-1.7-1.6-2.8
		c-0.1-0.7-0.2-1.1-0.4-1.3c-0.2-0.2-0.5-0.2-0.9,0c-0.7,0.3-1.2,0.1-1.6-0.6c-0.4-0.7-0.3-1.3,0.2-2c0.5-0.5,0.6-1.2,0.3-1.9
		c-0.3-0.7-0.8-1-1.5-1c-0.7,0-1-0.4-0.8-1.1c0.2-0.8-0.1-1.7-1-2.6c-0.4-0.4-0.6-0.7-0.8-0.9c-0.2-0.2-0.4-0.3-0.5-0.3
		c-0.2,0-0.3,0-0.4,0.2c-0.1,0.2-0.2,0.5-0.4,0.8c-0.4,0.9-0.5,1.7-0.3,2.5c0.2,0.7-0.1,1.2-0.9,1.5c-0.4,0.1-0.9,0.7-1.7,1.6
		c-0.8,0.9-1.5,2-2.1,3c-0.6,1.1-1.2,2-1.9,2.8c-0.7,0.8-1.1,1.1-1.4,1c-0.6-0.2-1,0.7-1.2,2.6c-0.2,2-0.7,3.4-1.5,4.1
		c-0.7,0.8-0.9,1.7-0.6,2.6c0.4,1,0.1,1.8-0.8,2.3c-1,0.6-1.6,1.8-1.8,3.6c-0.2,1.8,0,2.9,0.8,3.4c0.8,0.5,1.3,1.2,1.3,2.2
		c0,0.4,0,0.6,0.1,0.8c0.1,0.2,0.3,0.3,0.5,0.4c0.3,0.1,0.6,0.1,1,0c0.4-0.1,1-0.2,2-0.4c2.2-0.4,3.9-1.1,4.9-2.2
		c1-1,2.1-1.5,3.4-1.6c1.3-0.1,2.3-0.5,3.1-1.2c0.8-0.7,1.7-1,2.5-0.7c0.7,0.2,1,0.2,1-0.3c0-0.4,0.7-1,2.2-1.8
		c1.4-0.7,2.1-1.4,2.1-2c0-0.6,0.3-1.2,1-1.9C407.5,163.2,407.6,162.4,407.1,161.5z M394.8,138.9c-0.4-0.2-0.8-0.3-1.4-0.4
		c-0.6-0.1-1.1-0.1-1.5,0c-0.4,0.1-0.6,0.2-0.6,0.4c0,0.3,0.6,0.6,1.8,1c1.2,0.3,1.9,0.4,2.2,0.1
		C395.7,139.7,395.5,139.4,394.8,138.9z M432.9,117.4c-1.2-1.2-1.7-2.3-1.5-3.3c0.2-0.9,0-1.6-0.8-2.2c-1.7-1.3-1.5-2.5,0.5-3.5
		c1.1-0.5,2-0.6,2.8-0.3c1.5,0.7,2.8,1.7,3.9,2.8c1.1,1.2,1.8,2.1,1.9,3c0.2,1.4,0.7,2.5,1.3,3.5c0.5,0.7,0.6,1.2,0.4,1.4
		c-0.2,0.2-1.2,0.3-2.9,0.4c-1.5,0.1-2.5,0-3.2-0.2C434.5,118.6,433.7,118.1,432.9,117.4z"/>
	<path style="fill:#009FE3;" d="M561,152.3c0.6-0.6,1.1-0.8,1.5-0.5c0.4,0.3,0.6,0.9,0.6,1.9c0,1-0.4,1.4-1.2,1
		c-0.7-0.2-1.4,0-2.1,0.6c-0.8,0.7-1.1,1.4-1.1,2.3c0,1.5-0.7,1.5-2.2,0.2c-0.5-0.4-0.7-0.6-0.7-0.5c0,0.1,0.1,0.2,0.3,0.5
		c0.3,0.5,0.2,0.8-0.3,0.9c-0.2,1.5-1.1,3.1-2.8,5c-1.7,1.9-3.3,3.3-4.9,4c-2.2,1.2-4.1,2.5-5.6,3.7c-1.7,1.5-2.9,2.2-3.5,2.2
		c-0.7,0-1.1,0.5-1.1,1.5c0,1.8-1.7,2.9-5.2,3.2c-1.6,0.1-2.7,0.5-3.2,1.1c-0.5,0.6-1.8,0.9-3.7,0.9s-2.9-0.3-2.9-0.9
		c0-0.6-0.9-0.8-2.6-0.6c-1.8,0.2-4-0.4-6.7-1.7c-2.7-1.3-4.1-2.5-4.1-3.5c0-0.8-0.6-1.5-1.9-2.1c-0.8-0.3-1.3-0.6-1.4-1
		c-0.2-0.3-0.1-0.9,0-1.8c0.3-1.1,0.8-2.4,1.5-3.9c0.7-1.3,1-2.4,1-3.2c0-0.8,0.2-1.4,0.7-1.7c0.5-0.3,0.7-1,0.7-2.2
		c0-1,0.6-2.3,1.9-3.8c1.2-1.4,1.8-3.3,1.8-5.8c0-0.7,0-1.2,0-1.6c0-0.4-0.1-0.8-0.2-1c-0.1-0.3-0.2-0.5-0.3-0.5
		c-0.1-0.1-0.2-0.1-0.4,0c-0.7,0.2-1.1,0.9-1.2,2.1c-0.1,1.2-0.9,2.5-2.2,4.2c-1.4,1.6-2.5,2.5-3.5,2.6c-0.8,0.1-2.2,1.1-4,3
		c-1.8,1.9-2.9,2.8-3.5,2.8c-0.6,0-0.8,0.5-0.5,1.6c0.2,1.1-0.5,2.1-2.2,3c-1.2,0.6-2.7,1.2-4.5,1.6c-1.4,0.3-2.1,0.9-2.1,1.8
		c0,0.8-0.5,1.4-1.6,1.8c-1.1,0.4-1.8,0.3-2.2-0.4c-0.4-0.6-1-0.3-2,0.9c-1,1.3-1.5,2.1-1.5,2.4c0,0.3-0.8,0.7-2.5,1.3
		c-1.6,0.5-2.9,0.8-3.9,0.7c-2.7-0.1-5,0.4-6.9,1.5c-1.2,0.6-2.2,0.7-3,0.3c-0.9-0.5-1.6-0.6-2.2-0.4c-0.5,0.2-1,0.1-1.4-0.5
		c-0.3-0.5-0.8-0.5-1.5,0c-0.7,0.5-1.5,0.2-2.5-1.2c-1-1.4-1.5-2.4-1.5-2.9c0-0.6-0.4-1.7-1.3-3.2c-0.9-1.5-1.1-3-0.5-4.7
		c0.6-1.8,1.1-3.8,1.4-6.1c0.3-2.3,1.5-4.5,3.5-6.4c1.9-1.9,2.9-3.2,2.9-3.7c0-0.5,0.8-1.1,2.3-1.9c0.6-0.3,1.1-0.7,1.5-1
		c0.4-0.4,0.5-0.7,0.4-0.9c-0.5-0.8-0.4-2,0.2-3.7c0.6-1.7,1.4-2.8,2.4-3.4c1-0.6,2-1.7,3-3.4c1-1.7,1.5-3,1.5-4
		c0-0.7,0.7-1.2,2.1-1.5c1.5-0.4,2.5-0.8,3-1.4c0.6-0.5,0.9-1.3,0.9-2.4c0-1.2,0.2-1.8,0.7-1.8c0.5,0,0.7-0.4,0.7-1.1
		c0-0.7,0.8-1.4,2.5-2.1c1.5-0.6,3.1-1.6,4.7-3c1.6-1.3,2.9-2,4-2c0.6,0,1-0.1,1.2-0.3c0.2-0.2,0.2-0.6,0-1.2c-0.4-1,0.1-2,1.4-3
		c1.3-1,2.1-2,2.4-3c0.3-1,1-1.4,2.1-1.1c1.2,0.4,2.7,0.5,4.4,0.4c1.7-0.1,2.7-0.4,3-0.9c0.4-0.5,0.7-0.7,1-0.4c0.4,0.4,1,0.3,2-0.3
		c1-0.5,3-0.9,6-1c2.9-0.1,4.5-0.4,4.9-0.7c0.3-0.3,1.8-0.3,4.5,0c4.3,0.5,7.9,2.6,10.7,6.1c1,1.2,1.7,1.6,2.1,1.3
		c0.4-0.4,1-0.2,1.8,0.5c0.7,0.5,1.5,0.5,2.5,0c0.9-0.5,1.7-0.6,2.3-0.4c0.6,0.2,0.8,0.8,0.5,1.5c-0.2,0.5-0.2,0.7,0,0.7
		c0.1,0,0.2,0,0.3-0.1c0.5-0.4,0.7-0.8,0.7-1.5c0-0.6,0.8-1.6,2.5-2.9c1.2-1,2.4-1.9,3.5-2.8c0.7-0.6,1.3-0.6,1.8,0
		c0.5,0.6,0.5,1.4,0.2,2.4c-0.2,0.7-0.6,1.2-1,1.3c-0.4,0.2-1.1,0.1-2.2,0c-1.3-0.2-2-0.2-2.1,0c-0.1,0.1,0,0.3,0.2,0.5
		c0.5,0.7,0.8,2.2,0.8,4.5c0,2.3-0.3,3.5-0.9,3.5c-0.6,0-1.2,0.6-1.8,1.9c-0.6,1.2-0.9,2.5-0.9,3.7c0,1.2-0.6,2.2-1.7,3
		c-1.2,0.8-2,2.2-2.4,4.2c-0.3,1.9-0.8,3.1-1.4,3.5c-0.5,0.4-1.4,1.3-2.5,3c-1.1,1.6-1.7,2.6-1.7,3c0,0.3-0.5,0.8-1.5,1.5
		c-1,0.7-1.3,1.3-1.1,2c0.2,0.5-0.5,1.6-2.3,3.3c-1.8,1.6-2.9,2.3-3.4,2c-0.3-0.2-1.2,0-2.5,0.5c-1,0.4-1.6,1-1.8,1.6
		c-0.2,0.7,0,1.2,0.6,1.6c0.7,0.4,0.8,1,0.5,1.7c-0.3,0.7-1.3,1.8-3,3.3c-2.2,2.1-3.4,3.7-3.4,4.8c0,1.1-0.5,2.1-1.5,3.2
		c-1,1-1.5,1.7-1.4,2.1c0.1,0.4,0.8,0.9,2.2,1.5c1,0.4,1.6,0.8,1.8,1.2c0.2,0.4,0.2,0.9,0,1.6s-0.2,1.3,0,1.6c0.2,0.3,0.7,0.7,1.5,1
		c0.8,0.4,1.4,0.5,1.8,0.4c0.4-0.1,0.8-0.5,1.3-1.2c0.8-1.1,1.8-1.5,3.1-1.3c1.3,0.2,2.5-0.1,3.7-0.9c1.2-0.8,2.4-1.1,3.5-1
		c1.1,0.1,1.8-0.4,2.3-1.5c0.6-1.2,1.2-1.9,1.8-2.2c1.8-0.9,3-1.3,3.8-1.2c0.1,0.1,0.5-0.1,1.2-0.4c0.8-0.3,1.6-0.7,2.5-1
		c0.9-0.4,1.5-0.7,1.9-1l2.3-2.5c2.3-1.5,3.9-2.3,4.8-2.5c0.1,0,0.2-0.1,0.4-0.2c0.1-0.1,0.2-0.3,0.4-0.5c0.1-0.2,0.2-0.3,0.4-0.5
		c1.1-0.9,2.1-1.8,3-2.7c0.5-0.5,0.9-0.6,1-0.4C560.1,152.8,560.4,152.7,561,152.3z M509.7,139.8c-0.1-0.5,1.4-1.9,4.6-4.4
		c3.1-2.4,4.6-3.9,4.3-4.5c-0.1-0.2-0.1-0.3,0-0.3c0.2,0.1,0.6,0.3,1.2,0.8c0.8,0.7,1.3,1,1.6,1c0.3,0,0.8-0.3,1.5-1
		c1-0.9,1.1-1.7,0.5-2.5c-0.4-0.5-0.5-0.9-0.4-1.1c0.1-0.3,0.4-0.7,1-1.1c0.8-0.6,1.8-1.8,2.9-3.6c0.4-0.7,0.8-1.2,1.2-1.5
		c0.4-0.4,0.6-0.5,0.8-0.5c0.2,0.1,0.3,0.1,0.4-0.2c0-0.1-0.1-0.3-0.2-0.6c-0.2-0.4-0.2-0.7,0-0.9c0.2-0.2,0.7-0.2,1.3-0.2
		c1.2,0,2.1,0.3,2.6,0.8c0.5,0.5,1,0.6,1.6,0.3c0.6-0.3,0.9-0.8,0.9-1.6c0-0.7-0.6-1.1-1.8-1.1c-1.3,0-3.4-0.8-6.3-2.3
		c-2.5-1.3-4-2-4.5-2c-0.4-0.1-1,0.1-1.6,0.6c-0.8,0.5-1.8,0.7-2.9,0.7c-1.2,0-2.5,0.5-3.7,1.5c-1.4,1-3.5,1.8-6.4,2.4
		c-3.8,0.7-6.7,2-8.9,3.9c-1.1,1-2.4,1.8-4,2.5c-1.6,0.8-2.8,1.8-3.6,3.2c-0.8,1.3-1.6,1.9-2.5,1.7c-0.5-0.1-0.9,0-1.1,0.2
		s-0.5,0.8-0.7,1.7c-0.2,0.9-0.4,1.5-0.8,1.9c-0.3,0.3-0.9,0.5-1.6,0.5c-0.8,0-1.3,0.1-1.5,0.3c-0.2,0.2-0.1,0.8,0.1,1.8
		c0.3,1.4,0.1,2.3-0.7,2.6c-0.6,0.2-1.2,1-1.8,2.2c-0.6,1.2-1.1,2.6-1.4,4.1c-0.2,1-1.2,2.4-3,4.1c-1.8,1.7-3.1,2.6-4,2.6
		c-0.8,0-1.5,0.7-2.1,2.2c-0.6,1.5-0.8,2.7-0.5,3.8c0.4,1.2,0.2,2.1-0.4,2.7c-0.4,0.4-0.4,0.9-0.2,1.4c0.2,0.5,0.9,1.2,2,2.3
		c1.9,1.8,3,2.6,3.5,2.6c0.5,0,1.1-0.8,1.7-2.3c0.7-1.5,1.1-2.3,1.5-2.3c0.8,0.1,1.4,0,1.8-0.2c0.4-0.2,0.8-0.7,1.1-1.6
		c0.5-1.1,1.3-1.9,2.2-2.3s1.4-0.8,1.4-1.5c0-0.7,0.3-1.1,1-1.1c0.7,0,1.6-0.5,2.7-1.5c1.1-1,2.3-1.5,3.7-1.5c1.3,0,2.9-1,4.9-3
		c1.9-1.9,3.3-2.8,4.2-2.5c0.9,0.3,1.7-0.3,2.3-1.7c0.7-1.4,1.2-2.1,1.7-2.1c0.6,0,1.5-0.5,2.7-1.5
		C509.2,140.9,509.8,140.2,509.7,139.8z M471.8,154.3c0.2,0,0.4,0.3,0.4,0.8c0,0.5-0.3,0.7-0.8,0.7c-0.5,0-0.7-0.2-0.4-0.7
		C471.3,154.6,471.6,154.3,471.8,154.3z"/>
	<path style="fill:#009FE3;" d="M653.2,155.9c0-0.7,0.5-1.1,1.4-1.2c0.9-0.1,1.6,0.1,2,0.7c0.4,0.5,0.3,1.3,0,2.3
		c-0.4,1-0.9,1.5-1.4,1.5c-0.7,0-1.2,0.6-1.5,1.8c-0.3,1.1-1.4,2.2-3.2,3.4c-1.8,1.2-3.3,1.6-4.5,1.4c-0.9-0.1-1.4,0.1-1.4,0.4
		c0.1,0.2,0.1,0.3,0,0.5c-0.2,0.1-0.4,0.2-0.7,0.2c-0.7,0-1.8,0.8-3.2,2.5c-1.8,2.2-2.8,2.9-3.1,2c-0.1-0.2-0.1-0.7-0.1-1.3
		c0-1.2-0.3-1.8-0.8-1.8s-0.6,0.6-0.3,1.7c0.3,1.2,0.2,2.5-0.5,3.8c-0.6,1.3-1.3,2-2.2,2c-1,0-1.6,0.5-1.9,1.5
		c-0.3,1.1-1.2,1.5-2.6,1.2c-1.6-0.3-3.5,0.2-5.6,1.5c-4.2,2.4-6.5,2.3-6.9-0.3c-0.1-0.8-0.2-1.2-0.5-1.2c-0.2,0-0.8,0.2-1.5,0.8
		c-0.8,0.5-1.4,0.7-1.8,0.7c-0.4,0-1.2-0.3-2.2-0.8c-1.5-0.7-2.3-1.6-2.3-2.6c0-1.1-0.3-2.1-0.8-3.1c-0.5-1-0.6-1.8-0.2-2.4
		c0.4-0.5,0.5-2.7,0.2-6.4c-0.2-3,0.1-4.5,1.1-4.5c0.7,0,1.4-0.5,1.9-1.5c0.5-1,0.7-1.5,0.4-1.5c-0.1,0,0-0.2,0.4-0.7
		c0.4-0.5,1-1,1.7-1.8c1.6-1.6,2.8-3.7,3.5-6.1c0.7-2.4,1.6-4.4,2.7-6.1c1.1-1.7,1.7-3,1.7-4c0-0.8,0.5-1.8,1.5-3.1
		c1-1.3,2.3-3.4,3.8-6.3c1.3-2.6,2.4-4.4,3.2-5.5c0.8-1.1,1.6-1.6,2.3-1.6c0.7,0,1-0.5,1-1.5c0-1,0.5-1.8,1.6-2.4
		c1-0.5,1.4-1.2,1.1-2c-0.3-0.8,0-1.7,1-2.5c0.9-0.8,1.4-1.5,1.4-2c0-0.5-0.3-1-1.1-1.5c-0.6-0.3-1.2-0.5-1.7-0.5s-1,0.1-1.4,0.4
		c-0.4,0.3-0.5,0.6-0.4,1c0.2,0.7-0.2,1.3-1.4,1.8c-1.2,0.5-2.4,0.8-3.8,0.6c-1.3-0.1-2.5,0.2-3.5,0.8c-1,0.7-1.5,1.5-1.5,2.5
		c0,0.9-0.3,1.4-0.8,1.4c-0.5,0-1.6,0.8-3.1,2.3c-1,1-1.7,1.5-2.1,1.7c-0.4,0.2-0.8,0-1.3-0.4c-0.5-0.4-0.9-0.5-1.2-0.3
		c-0.3,0.2-0.9,0.7-1.6,1.6c-0.7,0.9-1.3,1.5-1.8,1.6c-0.5,0.2-1.2,0.2-2.3,0c-1-0.2-1.6-0.2-2,0c-0.4,0.2-0.7,0.6-1,1.4
		c-0.4,0.9-1,1.5-1.9,1.8c-0.9,0.3-2.3,0.4-4.3,0.2c-0.4-0.1-0.7,0-1,0.2c-0.3,0.2-0.4,0.4-0.3,0.6c0.2,1.9,0,2.8-0.5,2.6
		c-0.5-0.1-1.3,0-2.3,0.5c-1.1,0.5-1.6,0.8-1.6,1.1c0,0.5-1.4,2.3-4.3,5.6c-2.9,3.2-4.5,4.9-4.9,4.9c-0.7,0-1.7,0.7-3,2
		c-1.3,1.3-1.9,2.4-1.9,3.1c0,0.9-0.4,1.7-1.2,2.4c-0.7,0.6-1.1,1.2-1.1,1.9c0,0.7-0.6,1.5-1.9,2.4c-1.3,0.8-2,1.7-2.1,2.5
		c-0.5,2.5-1.3,3.7-2.5,3.7c-0.7,0-1,0.4-1,1.1c0,0.5-1.3,2.1-4,4.7c-2.7,2.6-4.3,3.9-4.9,3.9c-0.5,0-1.5,1.2-3,3.7
		c-1,1.7-1.8,2.7-2.4,3.1c-0.5,0.4-1.5,0.6-2.9,0.6c-3.9,0-5.9-2.1-5.9-6.3c0-2.2,0.4-3.6,1.2-4.2c0.7-0.6,1.1-1.2,1.1-1.8
		c0-0.5,0.5-1.5,1.6-2.9c2.5-3.2,4.6-6.5,6.1-10c0.8-1.6,1.4-2.5,1.9-2.5c0.5,0,0.8-0.5,0.8-1.5c0-1,0.4-1.6,1.1-1.9
		c0.7-0.2,1.1-1.6,1.1-4c0-1.5,0.2-2.6,0.5-3.4c0.4-0.8,1.2-1.8,2.5-3.1c2.1-2.1,3.5-3,4.3-2.9c0.5,0.1,0.8-0.1,1-0.4
		c0.2-0.3,0.4-0.8,0.5-1.5c0.1-0.8,0.3-1.4,0.6-1.7c0.3-0.3,1-0.4,1.9-0.4c1.5,0,2.3-0.5,2.5-1.4c0.3-1,1.3-1.6,3.1-1.9
		c1.2-0.2,1.9-0.5,2.2-0.8c0.2-0.3,0.2-0.9,0-1.8c-1.2-4.3-0.8-7,1-8.2c1.1-0.7,1.6-1.4,1.6-2.1c0-0.7,0.5-1.3,1.5-2
		c1-0.7,1.5-1.4,1.5-2.1s0.3-1.4,1-2c0.7-0.6,1.2-0.8,1.5-0.4c0.2-0.1,0.4-0.3,0.5-0.7c0-1.1,0.4-2.3,1.1-3.4
		c0.8-1.1,1.6-1.9,2.7-2.4c1.5-0.5,2.2-1,2.2-1.5c0-0.4,1.1-1.3,3.2-2.7c2.1-1.4,3.2-2.3,3.5-2.8c0.2-0.4,1-0.4,2.5-0.1
		c1.3,0.3,2.6,0.5,3.9,0.6c0.6,0.1,1,0.3,1.1,0.6c0.2,0.3,0.2,1,0.1,2.1c-0.1,1.9-0.2,3.5-0.2,4.6c-0.1,1.3-0.6,2.2-1.7,2.5
		c-1.3,0.4-2.4,1-3.1,1.8c-0.7,0.8-0.8,1.4-0.4,2c0.4,0.4,0.6,1,0.6,1.7c0,0.7-0.1,1.3-0.3,1.8c-0.2,0.5-0.6,0.7-1,0.7
		c-0.7-0.1-1.4,0.2-2.3,0.9c-0.8,0.8-1.5,1-1.8,0.6c-0.2-0.2-0.3-0.1-0.4,0.3c-0.1,0.2-0.1,0.6-0.1,1c0,1.2-0.4,2.1-1.3,2.7
		c-0.9,0.7-1.1,1-0.5,1c0.6,0,1.3-0.5,2.2-1.5c0.9-1,1.7-1.5,2.4-1.5c0.7,0,2.3-0.6,4.7-2c2.4-1.3,3.8-2.3,4.3-3
		c0.5-0.8,1.9-1,4.1-0.7c1.8,0.2,3,0.2,3.7-0.1c0.6-0.3,1.3-1.2,2-2.6c0.7-1.4,1.5-2.1,2.4-2.1s2.1-0.7,3.7-2.2
		c1.5-1.4,2.3-1.8,2.3-1.3c0,0.5,0.8,0,2.3-1.6c0.1-0.1,0.2-0.2,0.3-0.4c1.2-1.3,2.1-2.1,2.6-2.3c0.5-0.2,1.5-0.2,2.9,0.1
		c1.9,0.4,3.6,0.3,5.1-0.3c1.5-0.6,3.1-0.9,4.7-0.9s2.6,0.3,2.8,0.9c0.7,2.1,1.1,5.9,1.3,11.4c0.1,2.1-0.5,3.8-1.5,5.2
		c-1.2,1.5-1.9,2.8-2.4,3.8c-0.2,0.4-0.6,0.9-1.3,1.5c-0.7,0.5-1.3,1-2,1.3c-1.5,0.6-2.5,1.2-2.9,1.9c-0.4,0.6-0.8,1.8-1,3.6
		c-0.4,3.1-1.5,4.6-3.4,4.6c-0.9,0-1.5,0.3-1.9,0.9c-0.2,0.3-0.3,0.5-0.1,0.5c0.1,0,0.3-0.1,0.5-0.2c0.4-0.2,0.6-0.2,0.6,0.1
		c-0.1,0.2-0.2,0.5-0.3,1.1c-0.2,0.9-0.7,1.8-1.3,2.7c-0.5,0.7-0.6,1.4-0.3,2.1c0.2,0.8-0.1,1.3-1.1,1.6c-1,0.2-1.3,0.8-1.1,1.6
		c0.3,0.8-0.2,1.9-1.6,3.1c-1.4,1.2-2.4,2.4-3.1,3.8c-0.7,1.5-1.8,2.1-3.3,1.9c-1.5-0.1-2.5,0.2-2.8,0.9c-2.1,3.9-3.5,7.6-4.5,11
		c-0.5,2.1-1,3.2-1.5,3.5c-0.4,0.3-0.5,1.1-0.1,2.5c0.4,1.5,0.5,2.5,0.3,3c-0.1,0.3-0.1,0.5,0,0.5c0.2,0.1,0.4,0,0.7-0.1
		c0.7-0.3,1.2,0,1.5,0.9c0.3,0.8,1.3,1,3,0.7c1.7-0.3,2.6-0.2,2.8,0.5c0.2,0.4,0.7,0.5,1.5,0.3c0.8-0.2,1.5-0.6,2.4-1.1
		c0.8-0.6,1.2-1.1,1.2-1.6c0-0.8,0.4-1.5,1.1-2.1c0.7-0.5,1.7-0.8,2.8-0.8c1.5,0,2.3-0.3,2.5-1c0.2-0.7,1-1.1,2.3-1.1
		c1.3,0,2.1-0.3,2.5-0.9c0.4-0.6,0.7-0.6,1.1-0.1c0.4,0.7,0.8,0.9,1.2,0.8c0.4-0.2,0.5-0.6,0.3-1.4c-0.3-1,0.5-2.3,2.4-3.9
		c2.1-1.8,3.5-3.1,4.2-3.8c0.8-0.9,1.8-1.1,2.8-0.5c0.4,0.2,0.6,0.3,0.8,0.4c0.2,0.1,0.3,0.1,0.5,0.1c0.1,0,0.2-0.1,0.2-0.2
		C653.2,156.3,653.2,156.1,653.2,155.9z M658,155.8c0.4-1.1,0.7-1.2,1-0.5c0.2,0.7-0.1,1.5-1,2.3c-0.6,0.5-0.9,0.8-0.9,0.6
		c-0.1-0.1-0.1-0.1,0-0.2c0.1-0.1,0.2-0.2,0.3-0.5c0.1-0.3,0.2-0.6,0.4-0.9C657.8,156.3,657.9,156,658,155.8z M666.4,149.6
		c0.2,1.7-0.6,3-2.3,4c-1.6,0.9-2.7,0.8-3.5-0.4c-0.1-0.2-0.2-0.5-0.3-0.7c-0.3-1-0.1-1.5,0.5-1.5c0.6,0,1.2-0.6,1.9-1.9
		c0.4-0.8,0.9-1.3,1.4-1.5c0.5-0.2,1-0.1,1.4,0.2C666.1,148.1,666.4,148.8,666.4,149.6z"/>
	<path style="fill:#009FE3;" d="M755.6,147.9c1-0.3,1.5-0.2,1.5,0.4c0,0.7-0.3,1.5-0.9,2.4c-0.6,0.9-1.1,1.4-1.5,1.4
		c-0.4,0-1.3,0.6-2.5,1.9c-1.2,1.2-3.1,2.5-5.6,3.8c-2.6,1.3-4,2.5-4.2,3.4c-0.2,0.9-0.7,1.4-1.5,1.4c-0.7,0-1,0.2-1,0.7
		c0,0.4-1.3,2-3.8,4.8c-2.5,2.8-4.3,4.1-5.2,3.8c-0.9-0.2-1.8,0.2-2.5,1.5c-0.7,1.2-2,2-3.8,2.6c-1.7,0.5-2.5,1.3-2.5,2.2
		c0,1-1.2,1.9-3.5,2.7c-2.2,0.8-4.1,1.8-5.5,2.7c-0.6,0.4-1.1,0.7-1.5,0.9c-0.4,0.2-0.7,0.3-0.9,0.3c-0.2,0-0.3,0-0.4-0.2
		c-0.1-0.2-0.1-0.5-0.1-0.8c0-0.8-0.3-1.2-1-0.9c-0.4,0.2-1.1,0.6-2.1,1.4c-1.5,1.1-2.2,1.3-2.2,0.6c0-0.2,0-0.4-0.1-0.5
		s-0.2-0.1-0.3,0c-0.3,0.3-0.2,0.8,0.5,1.5c0.4,0.4,0.5,0.8,0.4,1c-0.1,0.2-0.6,0.5-1.4,0.6c-1.3,0.4-2,0.9-2,1.5c0,0.7-0.2,1-0.7,1
		c-0.5,0-0.8-0.3-0.8-0.9c-0.1-0.6-0.2-0.6-0.5,0c-0.2,0.6-0.5,0.9-1.1,0.9s-2.3,1.3-5.2,3.9c-3,2.5-4.2,4.1-3.6,4.6
		c0.5,0.5,0.7,1.4,0.7,2.8c0,1.4-0.5,2.1-1.4,2.1c-0.5,0-0.9,0.2-1.1,0.5c-0.2,0.3-0.3,1-0.2,2c0.1,1,0,1.6-0.2,2
		c-0.2,0.4-0.6,0.6-1.2,0.6c-1.1,0.1-2-0.2-2.6-0.8c-0.4-0.4-0.9-0.6-1.6-0.8c-0.7-0.2-1.3-0.2-1.9-0.1c-0.6,0.1-0.9,0.3-0.9,0.6
		c0,0.4,0.5,0.5,1.4,0.5c1.3,0,2,0.7,2.3,2.1c0.2,1.4-0.2,2.6-1.4,3.6c-1,0.8-1.3,1.5-1.1,1.9c0.2,0.5-0.3,1.6-1.7,3.5
		c-1.6,2.1-2.9,4-4,5.9c-1.2,2.1-2.4,3.4-3.5,3.9c-1.2,0.5-1.6,1.1-1.3,1.8c0.3,0.8,0.2,1.1-0.4,1.1c-0.6,0-1.4-0.5-2.3-1.4
		c-1.9-1.8-2.9-1.8-3-0.1c0,1,0.2,1.6,0.7,1.9c0.7,0.6,0.9,1.3,0.7,2.2c-0.2,0.9-0.8,1.7-1.8,2.4s-2,1-3,0.8
		c-1.3-0.2-1.9-0.2-1.9,0.1c0,0.2-0.1,0.8-0.4,1.9c-0.2,0.9-0.1,1.8,0.4,2.6c0.4,0.9,0.1,1.9-1.1,3c-1.3,1.1-1.9,2.4-1.9,3.7
		c0,1.4-0.6,2.2-1.7,2.5c-1.3,0.4-2.9,1.5-4.9,3.4c-2.2,1.9-3.6,2.8-4.3,2.5c-0.4-0.2-0.7-0.2-0.8,0c-0.1,0.2,0,0.5,0.1,1.1
		c0.3,0.9,0,1.7-0.9,2.3c-0.9,0.6-2.1,0.9-3.8,0.9c-1.5,0-2.6,0.4-3.5,1.1c-0.9,0.7-2.2,1.1-3.9,1.1c-1.7,0-2.9,0.4-3.6,1.1
		c-1.2,1.2-3.9,1.3-8.2,0.2c-1.7-0.4-2.8-0.8-3.2-1.2c-0.4-0.4-0.8-1.3-1-2.6c-0.4-1.9-0.8-3.1-1.3-3.6c-0.6-0.6-0.9-1.4-0.9-2.5
		c0-1.1,0.4-2,1-2.9c0.7-1,0.8-2,0.4-3.2c-0.3-0.8-0.4-1.7-0.2-2.6c0.2-0.9,0.5-1.3,1-1.3c0.4,0,0.9-0.8,1.5-2.5
		c0.6-1.7,0.8-2.9,0.7-3.8c-0.1-0.9,1-3,3.3-6.3c2.4-3.5,4-5.7,4.7-6.4c0.7-0.8,1.3-1.2,2-1.2c2.4,0,3.5-0.8,3.5-2.3
		c0-1,0.5-1.5,1.5-1.5c0.9,0,2.2-0.8,3.9-2.5c3.1-3.1,5.6-4.6,7.4-4.3c0.8,0.1,1.5-0.6,2.3-2.1c0.6-1.4,1.2-2.1,1.9-2.2
		c0.6-0.1,1.2,0.4,1.7,1.6c0.4,1.1,0.4,2.1-0.1,3c-0.5,0.9-1.2,1.4-2.2,1.4c-0.9,0-1.9,0.5-2.9,1.6c-1,1.1-1.4,1.9-1.1,2.6
		c0.2,0.7,0.1,1-0.4,1c-0.5,0-0.7,0.3-0.7,0.8c0,0.5-1.5,2.3-4.5,5.3c-3,3-4.5,4.7-4.5,5.1c0,0.4-1.3,1.9-3.8,4.5
		c-2.5,2.5-4,3.8-4.4,3.8c-0.6,0-1.5,1.2-2.7,3.6c-1.2,2.4-1.8,4.2-1.8,5.4c0,2.1,0.2,3.6,0.7,4.5c0.5,0.9,1.4,1.6,2.9,2.1
		c2.7,1,5,0.5,7.1-1.5c0.5-0.5,1.2-0.8,2.1-0.8c0.9,0,1.9-0.7,2.9-2.2c1.1-1.5,1.8-2.1,2.3-1.8c0.5,0.3,1.4-0.3,2.6-1.7
		c1.2-1.5,1.7-2.5,1.5-3.3c-0.2-0.9,0.2-1.8,1.2-2.7c1.1-1,2.2-2.4,3.4-4.3c1.2-1.9,2.4-3.5,3.8-4.9c1.2-1.2,2.5-2.7,3.8-4.5
		c1.2-1.6,4.2-4.8,9.2-9.8c4.8-4.8,7.3-7.7,7.3-8.5c0-0.7,0.7-1.5,2-2.4c1.3-0.9,2.3-1.2,3-1c0.7,0.2,1,0.1,0.9-0.3
		c-0.1-0.5-0.5-1.1-1.2-1.9c-0.6-0.7-0.9-1.1-0.9-1.4c0-0.2,0.3-0.7,0.9-1.4c0.8-1,1.3-1.6,1.3-1.8c0-0.4-0.8-0.6-2.3-0.7
		c-1.5-0.1-2.4,0-2.7,0.3c-0.2,0.5-0.6,0.6-1,0.3c-0.4-0.3-1.2-0.1-2.5,0.7c-0.8,0.5-1.4,0.8-1.7,0.8c-0.3,0-0.7-0.3-1.3-1
		c-0.7-0.8-0.9-1.6-0.5-2.3c0.4-0.6,0.7-0.7,1.1-0.2c0.5,0.8,1,1,1.5,0.7c0.3-0.2,0.4-0.5,0.2-1c-0.2-0.6,0-1.1,0.6-1.5
		c0.7-0.4,1.4-0.4,2.1-0.1c0.7,0.2,1.8-0.4,3.5-1.8c1.7-1.5,3-2,3.9-1.5c0.7,0.4,1.2,0.4,1.4,0.1c0.2-0.3,0.2-1.1,0-2.3
		c-0.1-0.7,0.3-1.1,1.4-1.4c1-0.2,1.6-0.7,1.8-1.5c0.2-0.7,0.7-1.1,1.5-1.1c0.6,0,1.9-1,3.9-3.1c2-2.1,3.4-3.9,4.2-5.5
		c0.7-1.4,1.7-2.1,3-2c0.8,0.1,1.4-0.1,1.7-0.4c0.3-0.3,0.5-1.1,0.7-2.3c0.4-2,0.9-3.3,1.5-4c0.7-0.7,1.2-1.7,1.5-3
		c0.3-1.3,1.1-2.4,2.3-3.1c1.2-0.8,1.8-1.5,1.8-2.3c0-0.7,0.4-1.2,1.1-1.5c0.7-0.3,1.1-1,1.1-2.2c0-0.7-0.1-1.1-0.4-1.3
		c-0.2-0.2-0.8-0.3-1.5-0.3c-1.3,0-2.3,0.8-3,2.5c-0.7,1.6-1.7,2.8-3.1,3.8c-1.5,1-3.6,2.8-6.4,5.6c-2.8,2.8-4.8,4.4-6.1,4.7
		s-2,0.8-2.2,1.5c-0.2,0.7-0.8,1.1-1.8,1.1c-1,0-1.9,0.5-2.7,1.5c-0.9,0.9-1.8,1.2-2.7,1c-1-0.3-2,0.1-3.2,1.2
		c-1.2,1.1-2.2,1.5-2.9,1.2c-0.7-0.3-1.7-0.1-3,0.7c-0.9,0.6-2.5,0.9-4.6,0.8c-2.2-0.1-3.7-0.5-4.5-1.1c-0.4-0.3-2-1-4.9-2.2
		c-2.2-0.8-3.7-1.7-4.3-2.5c-0.6-0.8-0.6-1.8,0-2.9c0.5-1,0.5-2.2-0.1-3.8c-0.5-1.6-0.3-3.2,0.7-4.8c1-1.6,1.6-3.5,2-5.5
		c0.4-2.1,1.2-3.6,2.6-4.5c0.9-0.7,1.4-1.1,1.5-1.4c0.1-0.3-0.1-0.6-0.5-0.9c-0.5-0.2-0.7-0.5-0.8-0.9c0-0.3,0.1-0.6,0.5-0.8
		c0.4-0.2,0.8-0.3,1.5-0.3c0.9,0,1.4-0.6,1.4-1.8c0-1.1,0.5-1.9,1.5-2.2c1-0.2,1.4-1,1.1-2.3c-0.3-1.3-0.1-1.9,0.6-1.9
		c0.7,0,1.2-0.7,1.4-2c0.2-1.5,1-2.6,2.5-3.4c2.3-1.3,3.4-1.7,3.2-1c0,0.1-0.1,0.3-0.2,0.5c-0.2,0.3-0.2,0.5-0.1,0.5
		c0.1,0,0.3,0,0.5-0.1c0.7-0.2,1.1-1,1.3-2.3c0.1-0.8,0.3-1.3,0.6-1.6c0.3-0.3,0.8-0.4,1.5-0.4c0.8,0,1.4-0.2,1.7-0.6
		c0.3-0.4,0.3-1.1,0.2-2.1c-0.1-0.6,0.6-1.5,2.1-2.5c1.5-1.1,2.3-2.1,2.3-3c0-0.7,0.8-1.8,2.5-3.1c1.7-1.4,3-2,3.9-2
		c1,0,2.6-0.7,4.8-2.1c0.1-0.1,0.2-0.7,0.4-1.8c0.1-1,0.8-1.8,2-2.5c1.2-0.6,2.5-0.8,3.9-0.5c1.5,0.2,2.6-0.1,3.4-1.1
		c1.6-1.9,4-2.5,7.3-1.7c1.8,0.4,2.6,0.3,2.6-0.1c0-0.5,0.4-1.2,1.1-1.9c0.5-0.5,0.9-0.7,1.1-0.7c0.3,0,0.7,0.2,1.2,0.6
		c0.5,0.4,0.8,0.6,1.1,0.5c0.2-0.1,0.5-0.4,0.9-0.9c0.4-0.6,0.7-1,0.9-1.1c0.2-0.1,0.5-0.1,0.8,0c0.3,0.1,0.9,0.5,1.7,1
		c1.3,0.8,2.8,1.2,4.5,0.9c1.6-0.2,2.8-0.2,3.8,0.2c1,0.4,1.3,1,1.1,1.7c-0.2,0.6,0.4,1.2,1.7,1.8c1.2,0.5,2.2,1.6,2.9,3.3
		c0.7,1.6,0.9,3.2,0.5,4.6c-0.3,1.3-0.1,1.9,0.5,1.8c0.4-0.1,1.2-0.5,2.3-1.4c1.2-1,2.1-1.5,2.7-1.5c0.5,0,0.8-0.2,0.8-0.7
		c0-0.4,0.4-0.7,1.3-1.1c0.9-0.4,1.9-0.1,3,0.8c1.1,0.9,1.7,1.8,1.7,2.9c0,1.5-0.5,2.9-1.5,4.4c-1,1.5-2.1,2.3-3.2,2.5
		c-1.4,0.2-2.6,1.3-3.5,3.3c-1,1.9-1.8,2.9-2.2,2.9c-0.5,0-0.7,0.6-0.7,1.7c0,1.2-0.8,2.5-2.3,3.9c-1.5,1.4-2.3,2.7-2.3,4
		c0,1.6-0.8,3.5-2.4,5.7c-1.6,2.2-3,3.5-4.3,3.8c-1.5,0.4-2.2,0.8-2.2,1.5c0,0.7-0.4,1.2-1.1,1.5c-0.8,0.4-1.2,1-1.2,1.8
		c0,0.8-0.4,1.6-1.1,2.2c-0.7,0.6-1.1,1.2-1.1,1.7c0,0.4-0.6,1.2-1.9,2.5c-1.2,1.2-2.1,1.8-2.6,1.8c-0.4,0-0.5,0.5-0.3,1.4
		c0.2,0.8-0.4,1.8-1.6,3.1c-1.3,1.2-1.9,2-1.9,2.6c0,0.5-1.1,1.8-3.4,4.1c-2.2,2.2-3.4,3.5-3.4,3.8c0,0.4,0.6,0.7,1.9,0.9
		c0.8,0.1,1.3,0.1,1.5,0c0.2-0.1,0.2-0.5,0-1.1c-0.3-0.9-0.2-1.4,0.5-1.4c0.5,0,1.7-0.9,3.5-2.6c1.1-1.1,2-1.8,2.7-2.1
		c0.6-0.3,1.4-0.4,2.2-0.2c1.5,0.3,2.6,0.1,3.4-0.6c0.8-0.7,2.1-0.8,4-0.1c1.3,0.4,2.1,0.6,2.5,0.6c0.4,0,0.7-0.3,1-1
		c0.5-0.9,0.4-1.7-0.4-2.3c-0.7-0.6-1.1-1.1-1.1-1.6c0-0.5,0.4-1.1,1.3-1.7c0.9-0.7,1.6-1,2.2-1c0.6,0,1.8-0.8,3.5-2.4
		c1.7-1.6,2.6-2.7,2.6-3.2c0-0.8,2.3-2.1,6.9-3.6c0.9-0.4,1.4-0.8,1.4-1.4c0-1,0.5-1.9,1.6-2.6c1.1-0.7,2.4-1,4-1
		c2.1,0,3.3-0.4,3.6-1.2c0.3-0.8,0.2-1.5-0.5-1.8c-0.6-0.4-0.4-0.8,0.6-1.4c1-0.5,1.7-0.4,2,0.4C754,148,754.6,148.2,755.6,147.9z
		 M657.4,210.6c-1.3,0.5-2.5,0.8-3.7,0.7c-1.2-0.1-1.8-0.5-1.8-1.1c0-0.4,0.4-0.8,1.1-1c0.7-0.2,1.2-1,1.3-2.2
		c0.1-0.7,0.3-1.2,0.6-1.4c0.4-0.2,1.1-0.2,2.1-0.1c1.6,0.1,2.5-0.3,2.8-1c0.1-0.4,0.3-1.1,0.6-2c0.1-0.4,0.7-0.6,1.6-0.8
		c0.9-0.2,1.8-0.2,2.7-0.1c0.9,0.1,1.3,0.4,1.3,0.7c0,0.7-1.1,2.1-3.3,4.2S658.8,210,657.4,210.6z M707.6,148.4
		c1.5-0.2,2.6-0.7,3.4-1.2c0.8-0.6,1.1-1.2,0.9-2c-0.1-0.5,0-0.9,0.3-1.2c0.3-0.2,1.1-0.5,2.2-0.7c3.2-0.6,5.4-2.3,6.5-5.1
		c0.7-1.5,1.6-3,2.9-4.4c1.3-1.5,2-2.5,2-3.2c0-0.7,0.5-2,1.4-3.9c1.2-2.4,1.3-4.1,0.1-5.3c-1.1-1.1-3.7-2.1-7.9-2.7
		c-2.5-0.4-3.8-0.7-4.1-0.7c-0.7-0.2-2.3,0.1-4.9,0.9c-2.5,0.8-4.1,1.4-4.9,2c-0.7,0.6-1.8,1.2-3.2,1.8c-1.4,0.6-2.5,0.9-3.1,0.9
		c-0.7,0-1.6,0.7-2.9,2c-1.3,1.3-2.3,2.7-3.1,4.2c-0.8,1.4-1.5,2.1-2.2,2.1c-0.7,0-1.1,0.2-1.1,0.7c0,0.5-0.4,1.2-1.3,2.2
		c-0.2,0.3-1,1.2-2.3,2.6c-0.7,0.7-1.7,1.3-3,1.6c-1.5,0.3-3.8,2.2-6.9,5.6s-5.4,6.5-6.8,9.2c-1.6,3.1-2.8,5-3.5,5.6
		c-1.1,1-2,2.1-2.7,3.5c-0.9,1.6-1.1,2.8-0.5,3.4c0.5,0.5,0.8,1.2,0.8,1.8c0,0.6,0.5,1.5,1.6,2.7l1.6,1.8l2.4-1.4
		c1.6-0.9,3.5-1.5,5.7-1.7c2.2-0.2,3.8-0.5,4.6-0.8c0.9-0.4,1.6-0.2,2.1,0.5c0.4,0.5,0.5,0.6,0.5,0.1c0-0.1-0.1-0.4-0.2-0.7
		c-0.3-1.1,0.2-2,1.4-2.5c0.5-0.2,0.9-0.5,1.2-0.8c0.3-0.3,0.5-0.5,0.4-0.6c-0.1-0.1,0-0.4,0.4-0.7c0.4-0.4,0.9-0.7,1.5-1.1
		c1.5-0.9,2.5-1.1,3.1-0.5c0.6,0.6,1.1,0.9,1.5,0.8c0.4-0.1,0.6-0.5,0.6-1.2c0-0.9,0.6-1.8,1.8-2.8c2.8-2.3,4.4-3.6,4.6-3.8
		c1.8-1.6,3.1-2.3,4-2.1c0.8,0.2,1.5-0.5,2.3-2.1C705.8,149.4,706.7,148.5,707.6,148.4z M675.2,197.1c0.5-0.3,0.7-0.5,0.7-0.7
		c0-0.2-0.2-0.4-0.7-0.4c-0.5,0-0.8,0.3-0.8,0.8C674.3,197.3,674.6,197.4,675.2,197.1z M747,114.9c-1.2-0.2-1.8-0.4-1.9-0.6
		c-0.1-0.2,0.1-0.9,0.6-2c0.7-1.3,1.6-1.9,2.7-2c1.1-0.1,1.7,0.5,1.9,1.7c0.1,1.2-0.1,2-0.6,2.4C749.2,114.9,748.3,115.1,747,114.9z
		"/>
</g>
</svg>
