<?xml version="1.0" encoding="utf-8"?>
<!-- Generator: Adobe Illustrator 30.4.0, SVG Export Plug-In . SVG Version: 9.03 Build 0)  -->
<svg version="1.0" id="Layer_1" xmlns="http://www.w3.org/2000/svg" xmlns:xlink="http://www.w3.org/1999/xlink" x="0px" y="0px"
	 viewBox="0 0 1000 265.9" style="enable-background:new 0 0 1000 265.9;" xml:space="preserve">
<g>
	<path style="fill:#F9D500;" d="M339.4,152.8c-1.2,0-2.3,0.5-3.3,1.6c-1,1.1-1.2,1.9-0.5,2.6c0.6,0.6,0.6,1.4,0.1,2.3
		c-0.5,1-1.2,1.5-2,1.5c-0.7,0-1.1,0.4-1.1,1.2c0,0.8,0.3,1.3,1,1.3c0.5,0,1.3,0.1,2.4,0.2c1.3,0.1,2.1,0.6,2.5,1.7
		c0.4,1.1,0.2,2.2-0.4,3.5c-0.6,1.2-1.6,2.1-3,2.6c-2.7,1.1-4.4,1.9-5.3,2.3c-2,1-3.4,1.6-4.2,1.6c-0.3,0-0.6,0.1-0.7,0.2
		c-0.2,0.2-0.2,0.3,0,0.5c0.3,0.5-0.3,1.6-2,3.3c-1.6,1.8-2.3,3-2.1,3.7c0.1,0.3-0.1,0.7-0.6,1.1c-0.5,0.4-1.2,0.8-2.2,1.2
		c-1.6,0.7-3,1.8-4.4,3.5c-1.4,1.7-2.1,3.2-2.1,4.5c0,0.8-0.8,1.6-2.4,2.2c-1.6,0.6-2.3,1.3-2.3,2.2c0,0.8-0.6,1.7-1.7,2.6
		c-1,0.9-1.6,1.8-1.6,2.6c0,0.8-1.3,2.6-4,5.3c-2.7,2.7-4.3,3.8-4.8,3.5c-0.6-0.3-0.9-0.3-0.9,0.2c0,0.5-0.6,1-1.8,1.6
		c-0.8,0.4-1.2,0.7-1.2,0.9c0,0.1,0.1,0.1,0.3,0.1c1.6,0.1,1.3,1.9-1,5.3c-1.3,1.9-2.6,3.4-3.9,4.6c-1.3,1.2-2.2,1.7-2.7,1.5
		c-0.5-0.2-1,0.8-1.4,3c-0.2,1.3-0.7,2.5-1.5,3.7c-0.8,1.1-2.2,2.7-4.2,4.7c-3.3,3.3-5.7,6-7.4,8.2c-3.7,5-6.3,7.4-8,7.4
		c-0.6,0-0.9,0.1-0.9,0.4c0,0.1,0,0.1,0.1,0.2c0.2,0.2-0.1,0.7-0.8,1.4c-0.7,0.7-1.6,1.4-2.6,2c-1,0.6-1.8,0.9-2.3,0.9
		c-0.8,0-0.9,0.3-0.3,1c1.5,1.5,1.3,2.3-0.5,2.3c-0.9,0-2.1,0.3-3.4,1c-1.4,0.7-2.5,1.4-3.4,2.3c-1,1-3,1.4-6,1.2
		c-7.2-0.3-11.2-1.9-12.1-4.6c-0.5-1.5-0.5-2.4-0.2-2.7c0.4-0.4,0.1-0.8-0.9-1.4c-1.6-0.9-1.7-2.6-0.1-5.2c0.8-1.4,1-2.3,0.4-2.9
		s-0.9-1.6-0.9-3.1c0-1.5,0.3-2.4,0.8-2.7c0.5-0.3,0.8-1.1,0.8-2.3c0-1.2,0.4-2,1.2-2.3c0.8-0.4,1.3-1.1,1.3-2.2
		c0-1.1,0.7-3,2.1-5.6c1.4-2.6,2.8-4.6,4.2-6.1c1.2-1.3,3.3-3,6.3-5.2c1.4-1,3.4-2.6,6.1-4.9c0.5-0.5,1.2-1.1,2.1-1.9
		c0.9-0.8,1.4-1.2,1.4-1.2c0.8-0.7,2.2-1.2,3.9-1.5c1.8-0.3,2.8-1,3.1-2c0.3-1,0.9-1.7,1.9-2.1c0.8-0.3,1.9-1,3-2.1
		c1.2-1,2.3-1.5,3.5-1.4c1.2,0.1,1.9,0.8,2.3,2c0.3,1.1,0.1,2.1-0.4,3c-0.6,0.9-1.3,1.4-2.1,1.4c-0.6,0-1.1,0.4-1.5,1.3
		c-0.4,0.8-0.8,1.1-1.3,0.8c-0.6-0.3-1.4-0.1-2.4,0.6c-1,0.7-1.6,1.5-1.6,2.2c0,0.9-0.6,2.1-1.8,3.5c-0.7,0.9-1.3,1.5-1.9,1.7
		c-0.5,0.2-1.3,0.2-2.4,0c-1.2-0.2-1.9-0.2-2.3,0c-0.3,0.2-0.6,0.6-0.7,1.4c-0.2,1.2-1.1,2-2.6,2.3c-0.9,0.1-1.5,0.4-1.9,0.7
		c-0.3,0.3-0.5,0.8-0.4,1.5c0.2,1.2-0.2,1.9-1.3,2.2c-1.2,0.3-1.6,0.9-1.3,1.7c0.3,0.7-0.1,1.4-1.2,2c-1.1,0.6-1.7,1.2-1.7,1.8
		s-0.8,1.7-2.5,3.2c-2.1,2-3.1,2.7-3,2.2c0.1-0.2,0.2-0.5,0.4-0.8c0.1-0.3,0.1-0.4,0-0.5c-0.1-0.1-0.3-0.1-0.6,0
		c-0.7,0.3-1.1,2.2-1.1,5.9c0,3.7-0.2,6-0.7,6.9c-0.4,0.9,0,2.7,1.2,5.2c1.2,2.6,2.2,3.9,3.1,4.1c0.9,0.1,2.2-0.5,3.7-2
		c1.7-1.6,3.5-3,5.4-4.3c1.9-1.3,2.7-2.2,2.4-2.5c-0.1-0.1,0-0.2,0-0.3c0.1-0.1,0.3-0.2,0.6-0.2c0.3-0.1,0.6-0.1,0.9-0.1
		c1.1,0,1.9-0.3,2.5-0.9c0.6-0.6,0.8-1.4,0.6-2.3c-0.1-0.6,1.1-3.1,3.8-7.4c2.6-4.3,4.3-6.6,4.9-6.9c0.5-0.1,0.6-0.6,0.3-1.3
		c-0.3-0.7,0-1.2,0.8-1.6c0.9-0.4,1.6-1.2,2.1-2.5c0.5-1.3,1.4-2.2,2.8-2.7c1.3-0.5,2-1.1,2-2c0-0.8,0.6-1.9,1.9-3.2
		c2.9-3.2,4.8-5.1,5.6-5.8c0.5-0.4,1.2-0.8,2.3-1.3c0.9-0.4,1.5-1.3,1.9-2.8c0.3-1.4,1.5-3.1,3.6-5.2c2.2-2,3.4-3.9,3.6-5.8
		c0.4-2,0.8-2.9,1.3-2.9c0.5-0.1,0.3-0.8-0.5-2.1c-0.7-1-0.9-1.7-0.7-2.1c0.3-0.7,2.5-3.2,6.9-7.5c0.5-0.6,1-1.1,1.4-1.5
		c1.7-1.7,2.5-3.1,2.5-4.2c0-0.9,0.7-2.1,2.2-3.5c1.4-1.4,2.8-2.3,4-2.7c1.1-0.3,1.8-1.3,2.2-2.9c0.4-1.6,0.8-2.4,1.4-2.4
		c0.7,0,1.5-0.5,2.4-1.5c0.7-0.7,1.1-1.2,1.2-1.6c0.1-0.4,0-1-0.4-1.7c-0.3-0.5-0.4-0.9-0.5-1.1c-0.1-0.2,0-0.4,0.1-0.6
		c0.2-0.2,0.5-0.3,1-0.4c0.7-0.2,1.2-0.5,1.3-0.8c0.2-0.3,0.1-1,0-2.2c-0.2-1.1-0.1-2.1,0.4-2.9c0.5-0.8,1.7-2.2,3.6-4.3
		c2.9-3.1,4.4-5,4.4-5.8c0-0.7,0.8-1.2,2.4-1.6c1.6-0.3,2.4-0.9,2.4-2.1c0-0.8,0.6-1.7,1.7-2.4c1.1-0.8,2.2-1.1,3.1-1
		c0.5,0.1,0.7,0,0.6-0.1c-0.1-0.1-0.3-0.3-0.8-0.6c-0.9-0.6-1.2-1.2-0.9-2c0.3-0.7,0.7-1,1.1-0.8c0.2,0.1,0.3,0,0.4-0.1
		c0.1-0.1,0.1-0.4,0-0.7c-0.1-0.6,0.9-1.7,2.9-3.5c2-1.7,3.4-2.6,4.1-2.6c0.5,0,0.5-0.2,0.1-0.5c-0.1-0.1-0.2-0.2-0.4-0.3
		c-0.5-0.3-0.7-0.6-0.6-0.9s0.5-0.8,1.3-1.4c1.3-0.9,1.8-1.7,1.4-2.3c-0.4-0.7-0.4-1.3,0-1.9c0.5-0.8,0.7-2.1,0.7-3.8
		c0.1-1.2,0.2-2,0.5-2.4c0.3-0.4,0.9-0.8,1.9-1c3.5-1,4.7-2.3,3.6-3.8c-0.6-1-0.5-2.4,0.4-4.2c0.7-1.3,1.4-2.3,2.3-3
		c0.8-0.7,2.5-1.6,4.9-2.7c1.5-0.7,2.3-1.4,2.3-2.2c0-0.8,0.7-2,2.2-3.4c1.5-1.5,3.3-2.2,5.3-2c2,0.1,3.6,0.8,4.8,2
		c0.8,0.8,1.2,1.4,1.3,1.9c0.1,0.5-0.2,1.5-0.7,2.9c-0.7,2.1-0.9,3.8-0.5,5.2c0.3,1.4,0.2,2.3-0.4,2.6c-0.5,0.3-0.7,0.8-0.5,1.5
		c0.3,0.7-0.7,2-2.7,3.7c-2.1,1.8-3.1,3.3-3.1,4.5c0,1.2-0.5,2.2-1.6,2.7c-1.1,0.6-1.7,1.5-1.7,2.6c0,1.3-0.5,2.4-1.6,3.3
		c-1,0.9-1.6,2.1-1.8,3.5c-0.1,0.8-0.3,1.4-0.6,1.7c-0.3,0.3-0.8,0.4-1.6,0.3c-1.4-0.1-2.7,0.5-4,1.9c-1.3,1.4-1.7,2.8-1.4,4.1
		c0.3,1,0,2.1-0.6,3c-0.7,1-1.7,1.7-3.2,2.3c-0.9,0.3-1.4,1-1.4,2.2c0,1.1-0.5,2.1-1.4,3c-1,1-1.4,2-1.2,2.9c0.2,1-0.3,2.1-1.6,3.4
		C341.7,152.2,340.5,152.8,339.4,152.8z M274.1,203.1c-0.6,1.1-1.2,1.2-1.7,0.2c-0.6-1-0.6-2.1-0.1-3.3c0.3-0.8,0.8-1.4,1.4-1.7
		c0.6-0.4,1.6-0.6,3-0.8c2.5-0.3,3.7-1,3.7-2c0-1,0.9-1.9,2.6-2.7c1.8-0.8,2.8-1.7,3.2-2.6c0.3-0.8,0.8-1.1,1.6-0.9
		c0.8,0.3,1.5,1,2,2.3c0.6,1.3,0.6,2.2,0.1,2.7c-0.5,0.7-0.6,1.1-0.3,1.5c0.3,0.3,0.2,0.5-0.4,0.5c-0.7,0-1-0.3-1-1
		c-0.1-0.7-0.2-0.7-0.5,0c-0.2,0.7-0.6,0.8-1.1,0.6c-0.5-0.3-1,0.2-1.6,1.3c-0.7,1.2-1.4,1.6-2.2,1.3c-0.8-0.3-1.8,0.2-2.8,1.5
		c-1,1.4-2.2,2.1-3.5,2.1C275.4,201.8,274.6,202.3,274.1,203.1z M384.8,136.5c0-0.6,0.5-0.3,1.4,0.9c0.7,0.8,1.1,1.5,1.1,2
		c0,0.5-0.5,0.7-1.4,0.7c-0.6,0-0.9,0.1-0.9,0.3c0,0.1,0,0.1,0.1,0.2c0.3,0.3,0.3,0.6,0,1c-0.3,0.4-0.7,0.8-1.2,1.2
		c-0.6,0.4-1.1,0.5-1.6,0.5c-1,0-1.5,0.2-1.5,0.7c0,0.3-0.7,1.3-2,2.8c-1.3,1.5-2.5,2.1-3.5,1.9c-1.2-0.3-1.9-0.1-2.1,0.6
		c-0.2,0.6-1.2,1.1-2.9,1.5c-1.7,0.4-3.3,1.2-4.9,2.5c-1.6,1.3-2.7,1.8-3.5,1.5c-0.8-0.3-1.2,0.1-1.2,1c0,1.3-1,2.7-3.1,4.1
		c-2.1,1.4-3.7,1.9-4.9,1.5c-1.1-0.3-1.7-0.2-1.7,0.4s-0.5,0.9-1.6,0.9c-1.1,0-1.7,0.4-1.7,1.2c0,0.8-0.6,1.5-1.8,2
		c-1.2,0.6-2.4,0.8-3.7,0.6c-1.2-0.1-2-0.8-2.3-1.9c-0.3-1.1,0.1-2.5,1-4.2c0.5-1.1,1.6-2.1,3.4-3c1.7-0.9,2.9-1.1,3.6-0.7
		c0.5,0.4,1.6-0.3,3.3-2c1.4-1.3,3-2.5,4.8-3.5c1.8-1,3.2-1.5,4.1-1.5c0.8,0,1.8-0.6,3.1-1.8c3.1-2.7,5.6-4.6,7.5-5.4
		c2-0.9,3.9-1.1,5.9-0.5c1.1,0.3,1.9-0.3,2.4-1.6c0.5-1.3,1.6-2.1,3.1-2.4C384,137.5,384.8,137.1,384.8,136.5z M394.1,63
		c3.1,3.1,4,5.1,2.5,6c-0.3,0.2-0.8,0.3-1.5,0.3c-1,0-1.6,0.3-2,0.8c-0.3,0.6-1.2,0.9-2.7,0.9c-2.2,0-3.8-1.7-4.6-5.1
		c-0.9-3.4-0.5-6.1,1.2-8c0.8-0.9,1.4-1.2,1.8-1c0.4,0.3,0.7,0,1.1-0.9c0.3-0.8,0.8-1,1.4-0.7c0.5,0.4,0.5,0.8,0,1.4
		c-0.7,0.7-0.9,1.5-0.5,2.3C391.1,59.8,392.2,61.1,394.1,63z M396,59.7c-0.4,0.7-0.8,1.2-1.1,1.4c-0.4,0.2-0.7,0.1-0.9-0.2
		c-0.2-0.3-0.3-0.9-0.3-1.7c0-1.4,0.4-2.1,1.1-2.1C396.5,57.2,396.9,58,396,59.7z"/>
	<path style="fill:#F9D500;" d="M456.2,131.9c1.1,1,1.6,1.8,1.6,2.3c0,0.5-0.7,1.1-1.9,1.7c-1.2,0.7-2.1,1.5-2.4,2.5
		c-0.4,1-1.1,1.5-2.2,1.5c-1,0-2.5,0.6-4.3,1.7c-1.8,1.1-3,1.5-3.5,1.2c-0.6-0.3-1.2,0.2-1.8,1.6c-0.6,1.3-1.5,2.2-2.8,2.5
		c-1.2,0.3-1.9,0.8-1.9,1.6c0,0.7-0.3,1.2-1,1.4c-0.7,0.2-1.5,0.1-2.3-0.3c-1-0.5-1.6-0.1-2,1.1c-0.3,1-0.9,2-2,3
		c-1.1,1-2,1.6-2.7,1.6c-0.5,0-1.7,0.8-3.7,2.4c-2,1.6-3.2,2.3-3.6,2.3c-0.4,0-1.6,0.7-3.7,2.1c-2.1,1.4-3.8,2.1-5.2,2.1
		c-0.9,0-2.4,0.3-4.4,0.8c-2,0.5-3.3,1-3.9,1.4c-0.1,0.1,0,0.2,0.1,0.5c0.1,0.3,0.4,0.6,0.7,0.9c0.5,0.7,0.6,1,0.1,1
		c-0.3,0-1-0.1-2.3-0.3c-2-0.3-3.4-0.8-4-1.3c-0.6-0.5-1.1,0-1.5,1.5c-0.3,1.4-0.8,2.4-1.6,3.1c-0.5,0.5-1.7,1-3.6,1.6
		c-1.9,0.5-3.1,0.7-3.8,0.5c-1.2-0.3-2.5-0.4-3.9-0.5c-1.2-0.1-2.3-0.4-3.2-0.9c-0.9-0.6-2.2-1.7-3.9-3.4c-2.7-2.7-3.9-4.4-3.5-4.9
		c0.3-0.5,0-1-1.1-1.6c-0.7-0.4-1.1-0.8-1.1-1.4c0-0.5,0.3-2,0.9-4.4c1-3.3,1.9-5.2,2.7-5.7c0.9-0.5,1.4-1.3,1.4-2.6
		c0-1.4,0.3-2.2,1-2.3c0.7-0.3,0.7-0.7-0.1-1.2c-0.5-0.3-0.8-0.7-0.7-1.2c0-0.5,0.4-1.3,1-2.5c1-1.9,1.8-2.8,2.3-2.8
		c0.3,0,0.4-0.6,0.2-1.7c-0.7-2.9,1-5.4,5.1-7.5c1.9-1,3-1.7,3.4-2.2c0.4-0.5,0.6-1.5,0.6-2.9c0-4.6,2.1-8.7,6.4-12.4
		c2.3-1.9,3.5-3.5,3.7-4.7c0.2-1.2,0.6-2.4,1.1-3.5c0.7-1.4,1-2.4,1.2-3c0.2-0.8,1.1-1.5,2.7-1.9c1.2-0.3,2.3-0.8,3.4-1.7
		c1.1-0.8,1.5-1.5,1.3-1.9c-0.2-0.3,0.1-1,0.8-2c0.7-0.9,2.8-1.5,6.6-1.8c3.6-0.3,5.5-0.7,5.7-1.2c0.2-0.6,0.7-0.8,1.4-0.8
		c0.7,0.1,1.3,0.4,1.9,1c0.5,0.5,0.4,1.7-0.2,3.5c-0.6,1.8-1.3,2.7-1.9,2.7c-0.5,0-0.6,0.8-0.1,2.3c0.3,1.3,0.4,2.6,0.2,3.8
		c-0.2,1.2-0.6,1.9-1.1,1.9c-0.4,0-1.1,0.8-2.1,2.3c-1,1.6-2.1,2.5-3,2.6c-1.1,0.2-1.8,1.4-2.2,3.6c-0.4,2.4-1,4.3-1.8,5.7
		c-0.5,0.8-1.1,2.1-1.7,3.7c-0.3,1-0.9,1.3-1.8,1c-0.7-0.3-1.6,0.1-2.7,1.1c-1.1,1-1.7,1.9-1.7,2.7c0,0.7-0.3,1.2-0.8,1.5
		c-0.4,0.2-0.7,0.9-1,2.3c-0.3,1.4-0.9,2.4-2.1,2.8c-1.2,0.5-1.8,1.1-1.8,1.9c0,0.7-0.5,1.2-1.6,1.5c-1.1,0.3-1.7,0.8-1.7,1.7
		c0,0.8-0.8,2.1-2.4,4c-1,1.1-1.6,1.9-1.8,2.4s-0.1,1,0.3,1.5c0.4,0.5,0.4,0.9,0.1,1.5c-0.3,0.5-1.1,1.4-2.5,2.5
		c-1.6,1.3-2.5,2.3-2.8,3c-0.3,0.7-0.5,2.1-0.5,4c0,1.8,0.1,3.1,0.4,3.9c0.3,0.8,0.9,1.6,2,2.5c1,0.9,1.8,1.5,2.3,1.6
		c0.5,0.2,1.1,0,1.8-0.4c1-0.7,1.8-0.7,2.3,0.2c0.5,0.5,0.7,0.2,0.8-0.7c0-1.2,0.4-1.7,1.2-1.5c0.8,0.3,1.3,0,1.6-0.7
		c0.3-0.8,0.8-1.2,1.7-1.2c0.8,0,1.3-0.2,1.3-0.7c0-0.5,0.6-0.8,1.8-1.2c1.2-0.4,2.4-1.1,3.6-2.2c1.2-1.1,2.6-1.8,4.2-2.2
		c1.6-0.3,3-1.3,4.2-2.9c0.8-1.1,1.3-1.7,1.6-1.8c0.3-0.1,0.6,0.1,1.1,0.7c0.5,0.7,1,1,1.4,0.7c0.4-0.2,0.6-0.9,0.6-2
		c0-0.4,0.1-0.7,0.3-0.9c0.2-0.2,0.4-0.2,0.6-0.1c0.5,0.3,1-0.2,1.7-1.6c0.7-1.4,1.6-2.2,2.8-2.4c0.7-0.1,1.1,0.1,1.1,0.8
		c0,0.8-0.3,1.3-1,1.5c-0.3,0.1-0.2,0.2,0.1,0.2c0.3,0,0.9-0.1,1.7-0.2c1.9-0.3,3.4-1,4.5-2.3c1.1-1.2,2.7-2.4,4.8-3.6
		c2.1-1.1,3.6-1.6,4.6-1.3c0.9,0.3,1.4,0.2,1.4-0.3c0-0.5,0.8-1.6,2.5-3.3c1.2-1.2,2-1.8,2.3-2c0.4-0.1,0.8,0.2,1.3,0.9
		c0.6,0.7,0.9,0.9,1.1,0.5c0.1-0.3,0.3-0.9,0.5-2c0.3-1.8,0.9-2.9,2.1-3.2c1-0.2,1.5,0,1.5,0.6c0,0.7,0.2,0.7,0.7-0.1
		C454.2,130.6,455,130.8,456.2,131.9z M432.8,68c-1.4-0.6-1.9-1.3-1.7-2.1c0.3-0.8,1.3-1.5,3-2.3c2.1-0.8,3.3-1.5,3.5-2
		c0.3-0.7,0.8-0.3,1.7,1.1c0.6,1,0.9,1.8,0.9,2.5c0,0.9-0.3,1.5-0.8,1.9c-0.5,0.3-0.8,0.9-0.8,1.9c0,0.8-0.6,1.6-1.7,2.3
		c-0.7,0.5-1.1,0.6-1.4,0.5c-0.3-0.1-0.5-0.5-0.7-1.3C434.5,69.2,433.8,68.4,432.8,68z M457.7,128.7c-0.4,0.2-0.7,0.3-0.9,0.4
		c-0.2,0.1-0.4,0-0.4-0.1c-0.1-0.2-0.1-0.4,0-0.8c0.1-0.4,0.2-0.9,0.4-1.7c0.4-1.2,0.9-1.9,1.6-1.9c0.5,0,0.8,0.3,0.9,0.8
		c0.1,0.6,0,1.2-0.3,1.9S458.3,128.5,457.7,128.7z M458.4,130c0.4-0.4,0.8-0.4,1.2,0c0.4,0.4,0.6,0.9,0.6,1.6c0,0.7-0.4,1.1-1.2,1.1
		c-0.6,0-1-0.3-1.1-0.9C457.8,131.1,458,130.5,458.4,130z M463.3,123.7c0.2,0.7-0.2,1-1.1,0.8c-1-0.3-1.6-0.7-1.8-1.4
		c-0.2-0.7,0.2-1,1.1-0.8C462.5,122.6,463.1,123.1,463.3,123.7z M464.3,126.3c0.3,0,0.5,0,0.6,0.1c0.1,0.1,0.2,0.2,0.2,0.4
		c0,0.2-0.1,0.4-0.2,0.7c-0.1,0.3-0.3,0.7-0.6,1.2c-0.7,1.3-1.4,1.8-2,1.4c-0.3-0.2-0.4-0.6-0.4-1.1c0-0.8,0.4-1.2,1.2-1.2
		c0.8,0,1.1-0.3,0.8-0.8C463.6,126.6,463.7,126.3,464.3,126.3z"/>
	<path style="fill:#F9D500;" d="M441.3,139.6c0.5-0.8,0.8-0.7,1,0.3c0.1,0.8,0.1,1.7-0.2,2.7c-0.3,1.2-1,2-2.2,2.4
		c-1.1,0.5-2,0.3-2.7-0.5c-0.8-0.8-0.9-1.9-0.4-3.1c0.5-1.2,1.3-1.7,2.3-1.4C440.3,140.4,441,140.2,441.3,139.6z M467,120.4
		c0.3,1-0.6,2.1-2.4,3c-2,1.1-2.9,1.8-2.9,2.2c0,0.5-0.9,1.6-2.6,3.2c-1.6,1.5-2.8,3.1-3.6,4.7c-0.5,0.9-2,2.3-4.6,4.3
		c-2.5,1.9-4.1,2.9-4.8,2.9c-0.3,0-1-0.6-2.1-1.8c-1-1.2-1.6-2-1.6-2.5c0-0.5,0.4-0.6,1.3-0.2c0.8,0.3,1.2-0.1,1.2-1.2
		c0-1,0.3-1.6,0.8-1.6c0.5,0,0.9-0.6,1.3-1.9c0.1-0.5,0.5-1.1,1.1-1.8c0.6-0.7,1.3-1.2,2.1-1.6c1.8-0.9,2.7-1.7,2.7-2.3
		c0-0.7,0.7-1.5,2-2.4c1.3-0.9,2.5-1.4,3.4-1.4c0.7,0,1.2-0.1,1.5-0.4c0.3-0.3,0.4-0.8,0.4-1.6c0-1.3,0.7-2.3,2.2-3.1
		c1.7-0.9,3.1-2,4.3-3.1c1.1-1.2,1.6-2.1,1.3-2.7c-0.3-0.7-0.1-1.1,0.6-1.1c0.7,0,1.3-0.7,2-2.1c0.6-1.3,1.2-2,1.8-2
		c0.6,0,0.7-0.3,0.4-0.9c-0.3-0.6,0.1-1,1.2-1.3c1.1-0.3,1.7-0.7,1.7-1.5c0-0.8,0.3-1.3,1-1.5c1.8-0.6,3.2-0.6,4.3,0
		c1,0.6,1.4,1.5,1.1,2.9c-0.3,1.4-1.2,2.6-2.7,3.7c-1.9,1.3-2.8,2.2-2.6,2.5c0.1,0.5-0.6,1.4-2.2,2.8c-1.6,1.4-3,2.4-4.1,2.8
		c-1.3,0.5-1.8,1.2-1.5,2c0.3,0.8,0,1.2-0.7,1.2C467.1,119,466.8,119.4,467,120.4z M530.9,142.3c1.5,0,2.8-0.5,3.8-1.6
		c0.7-0.7,1.5-1.2,2.3-1.6c0.8-0.3,1.5-0.4,2.1-0.2c0.6,0.2,0.8,0.6,0.8,1.3c0,0.5-0.1,0.9-0.3,1.2c-0.2,0.3-0.6,0.4-1,0.3
		c-0.4-0.1-0.8,0.1-1.2,0.5c-0.4,0.4-0.7,1-1,1.7c-0.6,1.5-1.1,2.3-1.7,2.3c-0.6,0-0.9,0.5-0.9,1.5c0,1.1-0.7,2.2-2,3.4
		c-1.3,1.1-2.9,1.8-4.6,2.1c-2,0.3-3,0.8-3,1.3c0,0.5-0.5,0.7-1.5,0.7c-0.9,0-1.8,0.8-2.6,2.3c-0.8,1.6-2.4,2.5-4.6,2.8
		c-2.1,0.3-4.2,1.4-6.5,3.3c-2.2,1.8-3.6,2.7-4,2.7c-0.5,0-0.9,0.4-1.2,1.1c-0.3,0.8-2,1.3-5.1,1.7c-2.6,0.3-4.3,0.6-5,0.8
		c-0.8,0.2-2,0.9-3.7,1.9c-1.6,1-3,1.3-4,0.7c-1-0.6-1.8-0.8-2.3-0.7c-0.5,0.1-1.2-0.1-2.2-0.6c-1-0.5-1.7-0.5-2.3,0
		c-0.6,0.6-1.7,0.5-3.4-0.4c-1.8-0.8-3-1.3-3.5-1.3c-0.6,0-1.8-0.9-3.8-2.7c-1.9-1.8-3.1-3.2-3.4-4c-0.4-1-0.2-2.2,0.7-3.7
		c1-2.1,1.3-3.1,0.7-3.1c-0.1,0-0.3,0-0.5,0.1c-0.7,0.1-1-0.1-1-0.8c0-0.6,0.1-1.5,0.2-2.6c0.1-1,0.7-1.6,2.1-1.6
		c1.3,0,2-0.2,2.2-0.7c0.2-0.5,0-1.7-0.5-3.6c-0.7-2.1-0.8-3.6-0.4-4.5c0.2-0.5,0.7-1.6,1.7-3.4c0.4-0.8,0.8-1.4,1.2-1.7
		c0.4-0.3,1.1-0.3,2.1-0.2c0.9,0.1,1.6,0.1,2-0.1c0.4-0.2,0.8-0.7,1-1.5c0.5-1.4,0.6-2.4,0.3-3.1c-0.3-0.8,0-1.3,0.9-1.7
		c0.8-0.4,1.3-0.9,1.3-1.6c0-0.7,1.2-2,3.6-4c2.4-2,3.6-3.4,3.6-4c0-0.7,0.4-1.2,1.2-1.6c1-0.4,2-1.5,2.9-3.2c1-1.8,2.3-2.9,3.6-3.3
		c2.2-0.5,2.5-2.6,1.2-6.2c-0.4-1.1-0.3-2.3,0.3-3.5c0.6-1.2,1.4-1.9,2.3-1.9c0.8,0,1-0.7,0.7-2.1c-0.3-1.3-1-2-2-2
		c-0.9,0-1.6-0.4-2-1.3c-0.7-1.8-2.2-1.4-4.6,1.3c-3.3,3.7-5.9,4.6-7.9,2.5c-1.1-1.1-1.3-2.2-0.6-3.2c0.7-1,1.6-1.8,2.9-2.4
		c1.2-0.6,1.9-1.6,1.9-3.1c0-1.4,0.4-2.7,1.2-3.7c0.8-1,1.3-2.5,1.7-4.5c0.4-2.1,1.1-3.6,2.1-4.5c1-0.9,1.6-1.7,1.6-2.4
		c0-0.6,0.6-1.5,1.8-2.6c1.2-1.1,2.5-2.1,4-3c1.2-0.7,2.6-0.9,4.2-0.9c1.6,0.1,2.9,0.5,3.8,1.2c1.2,1,1.7,2.4,1.5,4.4
		c-0.2,2-1,3.6-2.4,5c-1.6,1.5-2.4,2.6-2.4,3.2c0,0.7-0.5,1.5-1.5,2.3c-2.5,2.3-2.7,4.1-0.5,5.3c1.2,0.7,2.3,0.8,3.3,0.4
		c0.8-0.4,1.7-0.7,2.6-0.8c2.3-0.3,3.7-0.6,4.2-0.7c2.1-0.4,3.7-0.3,4.7,0.3c1.2,0.7,2.2,0.6,2.7-0.2c1.7-2.3,3.6-2.4,5.7-0.3
		c1.2,1.2,1.8,2.2,1.9,3c0.1,0.8-0.4,1.7-1.4,2.5c-0.9,0.8-1.3,2.1-1.1,3.6c0.2,1.5-0.1,2.6-0.9,3.4c-0.8,0.8-1.4,1.9-1.8,3.1
		c-0.4,1.4-0.9,2.4-1.6,3.2c-0.7,0.8-1.4,2.2-2,4.1c-0.6,1.9-1.4,3.3-2.5,4.3c-1,0.9-1.6,1.7-1.6,2.4c0,0.6-0.2,1-0.6,1.3
		c-0.4,0.3-1.4,1.6-3,3.9c-1.4,2-2.4,3.3-3,3.9c-0.7,0.6-1.3,0.8-2,0.5c-0.6-0.2-1.3,0.2-2.1,1.2c-0.8,1-1.9,2.9-3.3,5.6
		c-2.5,4.8-4.4,7.2-5.8,7.2c-0.7,0-1.7,0.9-3.1,2.7c-1.4,1.8-2.5,2.6-3.2,2.3c-0.7-0.3-1.5,0.3-2.3,1.8c-0.8,1.5-1.5,3.5-2.1,6
		c-1.1,5.2-1.6,8-1.4,8.4c0.1,0.2,0.6,0.3,1.7,0.3c1.4,0,2.2,0.3,2.2,0.9c0.2,0.6,0.8,0.9,1.8,0.9c1,0,2.2-0.3,3.6-1
		s2.3-1.4,2.8-2.2c0.5-0.7,1.1-1,1.9-1c0.8,0,2-0.8,3.3-2.4c1.4-1.6,2.8-2.6,4.1-2.8c1.3-0.3,2.3-0.7,2.9-1.2
		c0.8-0.7,1.6-0.9,2.5-0.7c0.8,0.1,1.8-0.2,2.8-1c1-0.8,1.9-1.9,2.5-3.3c0.5-1.1,1.5-1.8,2.9-2.1c1.4-0.3,2.5,0.1,3.2,1
		c1.6,1.8,2.4,1.7,2.4-0.4c0-1,0.3-1.6,0.9-1.6c0.5,0,0.8-0.3,0.8-0.9c0-0.8,0.8-1.8,2.4-2.9C528.5,142.9,529.8,142.3,530.9,142.3z
		 M522.3,98.9c-0.3,0-0.4,0.3-0.4,0.8c0,0.5,0.3,0.8,0.9,0.8c0.5,0,0.6-0.3,0.3-0.8C522.8,99.2,522.5,98.9,522.3,98.9z"/>
	<path style="fill:#F9D500;" d="M606.9,137.9c0.1,1.1-0.5,2.2-1.8,3.1c-1.2,0.8-1.8,1.6-1.8,2.3c0.1,0.8-0.4,1.8-1.4,3
		c-1,1.1-2,1.8-3,2.1c-1.3,0.3-2.1,1.1-2.3,2.4c-0.2,1.4-0.8,2.2-2,2.3c-1.3,0.1-2.1,0.5-2.3,1.2c-0.3,0.7-0.1,1.8,0.6,3.3
		c0.8,1.6,1.2,2.3,1.3,2.2c0-0.2,0.2-0.3,0.5-0.2c0.3,0,0.7,0.1,1.3,0.3c1,0.5,1.5,0.5,1.5,0.2c0-0.1-0.1-0.4-0.2-0.7
		c-0.5-0.8-0.4-1.3,0.3-1.3c0.6-0.1,1.4,0.3,2.4,1.1c1,0.8,1.6,1.5,1.7,2.1c0.1,0.5-0.7,1.2-2.3,2.1c-1.6,0.8-2.7,1.1-3.2,0.9
		c-0.6-0.3-2.1-0.4-4.5-0.3c-2.2,0.1-4.5,0-7-0.5c-1.8-0.3-3.5-0.3-5.1,0.1c-1.7,0.4-2.6,1-2.9,1.8c-0.2,0.7-1.2,0.9-3.1,0.8
		c-1-0.1-1.7,0-2.1,0.1c-0.4,0.1-0.6,0.4-0.5,0.7c0.1,0.3,0,0.5-0.3,0.6c-0.3,0.2-0.6,0.2-1,0c-0.9-0.3-1.7,0-2.4,0.7
		c-0.7,0.7-1.8,1.1-3.2,1.1c-1.5,0-2.9,0.8-4.3,2.5c-1.5,1.9-2.9,2.9-4.2,2.9c-0.6,0-0.9-0.3-0.9-0.8c-0.1-0.7-0.8-1.3-2.3-1.6
		c-1.5-0.4-2.4-0.2-2.9,0.3c-0.7,0.8-1.5,1.2-2.3,1.1c-0.8-0.1-1.4-0.7-1.7-1.7c-0.3-1.1-1-1.7-2.2-1.9c-0.8-0.1-1.7-0.7-2.7-1.9
		c-0.9-1.2-1.5-2.3-1.6-3.4c-0.1-1-1.4-1.9-4.1-2.4c-0.7-0.1-1.1-0.6-1.3-1.3c-0.2-0.7-0.4-2.4-0.4-4.8c-0.2-6.2,1.3-11.1,4.5-14.7
		c1.2-1.3,1.9-2.9,2.2-4.9c0.3-1.9,0.8-3.1,1.7-3.6c0.9-0.6,1.4-1.1,1.4-1.7c-0.1-0.6,0.9-2.6,2.9-6c2-3.4,3.5-5.6,4.5-6.7
		c1.2-1.2,1.9-2.2,1.9-2.7c0-0.6,0.9-1.5,2.8-2.6c0.8-0.5,1.5-1.1,2.3-1.9c0.7-0.8,1.2-1.4,1.4-2c0.5-1.4,1.7-2.4,3.4-2.8
		c1.1-0.3,1.9-0.8,2.4-1.3c0.5-0.6,1.1-1.6,1.7-3.2c0.9-2.5,2.3-4.3,4-5.2c1.7-0.9,3.5-2.3,5.3-4.3c1.9-1.9,3.3-3.9,4.4-5.9
		c0.9-1.8,2.2-3.1,3.9-4c1.7-0.9,4.5-1.6,8.5-2.3c2.6-0.4,4.9-1,6.9-1.8c3.3-1.4,7.6-1.7,12.8-0.8c2.7,0.5,4.4,0.8,5.1,1.2
		c0.7,0.3,1.2,0.8,1.2,1.5c0,0.5,0.7,1.4,2.3,2.6c1.5,1.2,2.3,2.1,2.3,2.5c0,0.5,0.5,1,1.5,1.6c0.7,0.4,1,0.8,1,1.2
		c0,0.4-0.2,1.4-0.7,3c-0.8,2.3-1,3.9-0.8,4.8c0.3,1,0.1,1.6-0.6,1.6c-0.2,0-0.5,0-1,0c-0.5,0-0.9,0-1.1,0c-0.8,0-1.3-0.8-1.5-2.5
		c-0.2-1.7-1.4-3.7-3.7-5.9c-1.5-1.4-2.6-2.3-3.2-2.5c-0.7-0.3-1.5-0.2-2.6,0.1c-1.4,0.4-3.1,1.6-4.9,3.7c-1.6,1.9-3.3,2.9-5.3,3.1
		c-2,0.2-3.5,1-4.4,2.4c-0.8,1.4-1.7,2.2-2.5,2.3c-0.7,0-1.4,0.6-2.3,1.9c-0.8,1.2-1.6,1.8-2.3,1.8c-0.7,0-1.5,0.6-2.3,1.9
		c-0.8,1.1-1,1.7-0.7,1.7c0.7-0.1-0.1,1.5-2.3,4.8c-0.5,0.7-1,1.4-1.6,2.2c-1.3,1.6-2.1,3.2-2.3,4.6c-0.3,1.3-0.5,2-0.8,2
		c-0.7,0.1-1.2,1.1-1.5,3.1c-0.4,2-0.4,3.7,0,5c0.3,1.3,0.4,2.2,0.2,2.8c-0.2,0.6-0.8,1.3-1.8,2.2c-1.6,1.4-2.5,1.8-2.9,1.3
		c-0.6-0.8-2.3-1.3-5.2-1.3c-0.5,0-0.7-0.6-0.8-1.9c-0.1-1.3,0.1-2.1,0.5-2.6c0.3-0.3,0.5-0.8,0.6-1.6c0.2-0.7,0.2-1.4,0.1-2
		c-0.1-0.6-0.2-0.9-0.5-0.9c-1.3,0.1-2,0.2-2,0.5c0,0.1,0.1,0.3,0.2,0.5c0.4,0.5-0.1,1.1-1.4,1.9c-1,0.5-1.7,1.3-2.2,2.3
		c-0.5,1-0.5,1.8,0,2.5c0.4,0.5,0.3,1.5-0.3,3c-0.6,1.5-1.3,2.3-2,2.6c-0.8,0.4-1.4,1.2-1.7,2.5c-0.3,1.4-0.6,2.1-1.1,2.1
		c-0.5,0.1-1.1,1-1.7,2.7c-0.6,1.7-0.9,3.2-0.8,4.4c0.1,1.2-0.2,2.7-0.7,4.3c-0.5,1.6-1.1,2.7-1.8,3.2c-0.8,0.6-1,1.6-0.6,2.9
		c0.4,1.3,1.1,2.5,2.3,3.5c1,0.8,1.9,1.4,2.7,1.5c0.8,0.2,2.3,0.1,4.5-0.1c3.3-0.4,5.3-0.5,5.8-0.4c0.7,0.1,1.8-0.3,3.4-1.2
		c1.6-0.8,2.4-1.5,2.3-2c0-0.5,0.7-0.7,2-0.5c1.4,0.3,2.3-0.1,2.5-1.2c0.2-0.8,0.8-1.8,1.9-2.8c0.9-0.8,1.2-1.6,1-2.3
		c-0.3-0.7-0.8-0.6-1.8,0.5c-0.6,0.7-1,1.1-1.2,1.1c-0.2,0-0.7-0.3-1.3-1c-2.3-2.4-3.7-4.9-4.4-7.3c-0.6-2.5-0.4-4.8,0.7-6.9
		c1-1.6,1.3-2.8,1.1-3.5c-0.1-0.5,0.2-0.5,1.1-0.1c0.3,0.2,0.6,0.4,1.1,0.7c3.3,2,5.4,5.6,6.3,10.9c0.3,2.2,0.8,3.8,1.4,4.6
		c0.2,0.2,0.6,0.4,1.1,0.5c0.5,0.2,1.1,0.3,1.8,0.3c0.7,0,1.3,0,1.9,0c0.6,0,1.1-0.1,1.5-0.3c0.4-0.2,0.6-0.4,0.6-0.6
		c-0.1-0.7,0.5-1.6,1.6-2.9c1.1-1.3,2-2,2.6-2.1c0.7-0.1,2-1.2,3.9-3.5c2-2.3,2.9-3.7,2.8-4.4c0-0.6,0.9-1.3,2.6-2.3
		c1.2-0.7,2-1.3,2.3-1.8c0.3-0.6,0.4-1.3,0.2-2.2c-0.1-0.7,0.4-2.1,1.5-4.4c1.1-2.3,1.9-3.3,2.4-3.3c0.3,0.1,0.4,0,0.5-0.2
		c0.1-0.2,0-0.5-0.1-0.7c-0.3-0.6,0-1.5,1-2.8c1-1.3,1.9-2,2.7-2.1c0.7-0.1,0.9-1.3,0.7-3.4c-0.3-3.1,0.3-6.1,2-9
		c1.7-2.8,3.8-4.7,6.4-5.5c1-0.3,1.8-0.1,2.4,0.6c0.6,0.8,0.9,1.8,1,3.1c0,1.3-0.2,2.7-0.8,4.2c-0.5,1-0.6,2.2-0.5,3.4
		c0.1,1.1-0.7,2-2.3,2.7c-1.5,0.7-2.3,1.3-2.3,1.8c0,0.5-0.6,0.7-1.9,0.6c-1.4-0.1-2.2,0.2-2.3,0.9c-0.2,0.8,0.1,1,0.9,0.6
		c0.7-0.3,1-0.1,1,0.7c0,0.3,0,0.8-0.1,1.5c-0.3,1.8-0.7,3.1-1.4,3.9c-0.7,0.8-1,1.6-0.9,2.3c0.1,0.8-0.6,1.7-1.9,2.7
		c-1.3,0.9-2.2,1.1-2.6,0.5c-0.5-0.7-0.9-0.4-1.2,1c-0.3,1.3-0.3,2.3-0.2,2.9c0.1,0.6-0.2,0.9-1.1,1.1
		C607.1,136.4,606.8,137,606.9,137.9z M640.7,137.6c1,2,0.2,3.7-2.4,4.9c-1.2,0.6-1.8,1.3-1.7,2.1c0.1,0.7-0.8,1.6-2.6,2.7
		c-1.7,1-2.5,1.8-2.5,2.3c0,0.5-0.4,0.8-1.2,0.9c-0.8,0.1-1.4,0.6-1.6,1.3c-0.2,0.8-1.5,1.7-4,2.8c-2.4,1.1-4,2-4.9,2.5
		c-0.7,0.5-1.7,0.8-2.9,1c-1.2,0.1-1.9,0.6-2.1,1.4c-0.3,0.8-0.9,1.3-1.9,1.3c-1,0-1.6-0.4-1.6-1.2c-0.1-0.7-0.1-1-0.2-0.9
		c-0.1,0-0.3,0.4-0.7,1c-0.4,0.7-0.8,1.1-1.1,1c-0.4,0-1.1-0.4-2.1-1.2c-1.4-1-2.1-2-2-3c0.1-0.9,0.9-1.5,2.5-1.7
		c1.8-0.2,3.1-0.5,4-0.9c0.9-0.4,2.1-1.2,3.4-2.4c1.7-1.6,2.8-2.3,3.3-2.3c0.4,0,1.2-0.8,2.5-2.3c1.8-2.3,4.1-2.8,6.8-1.5
		c0.7,0.3,1,0.2,1-0.3c0-0.6,0.2-0.8,0.7-0.6c0.2,0.1,0.4,0,0.5-0.2c0.2-0.2,0.3-0.6,0.4-1.1c0.2-1.2,0.7-1.7,1.7-1.4
		c0.8,0.3,1.5-0.2,2-1.5c0.5-1.2,1.2-2.2,2.3-2.9c1.3-0.8,2.3-1.1,2.9-1.1C639.7,136.2,640.2,136.7,640.7,137.6z"/>
	<path style="fill:#F9D500;" d="M769.9,6.6c1,0.9,1.8,2,2.5,3.4c0.7,1.3,1,2.4,0.8,3.3c-0.3,1.9-1.8,5-4.3,9.3c-1.3,2.2-2,3.7-2,4.5
		c0,1.1-0.4,1.9-1.1,2.3c-0.8,0.4-1.7,0.5-3,0.1c-1.1-0.3-1.7-0.4-1.9-0.3c-0.2,0.1-0.1,0.6,0,1.5c0.2,0.8,0.1,1.5-0.2,2
		c-0.4,0.6-1.2,1.3-2.4,2.2c-2.2,1.6-3.5,3.1-4.1,4.6c-0.5,1-0.9,1.7-1.3,1.9c-0.4,0.2-1.4,0.2-3-0.1c-1.8-0.3-2.7-0.3-2.7,0
		c0,0.1,0.1,0.3,0.4,0.6c0.7,0.7,1,1.3,1,1.7c-0.1,0.4-0.6,0.8-1.5,1c-1,0.3-1.4,0.9-1.1,1.7c0.3,0.6-0.2,1.8-1.3,3.5
		c-0.7,1-1.4,1.7-2.2,2.1c-0.7,0.4-1.9,0.7-3.5,1c-1.6,0.3-2.7,0.5-3.2,0.8c-0.5,0.3-0.7,0.7-0.7,1.4c0,0.8-0.3,1.3-0.8,1.3
		c-0.7,0-1.1-0.5-1.3-1.5c0-0.1,0-0.3,0-0.4c-0.1-1.9,0.9-4.5,3.1-7.7c2.2-3.3,3.8-4.7,4.8-4.3c0.8,0.3,1.3,0,1.7-0.8
		c0.4-0.9,0.9-1.4,1.6-1.4c0.8,0,1.4-0.5,1.9-1.6c0.4-0.9,1.6-2,3.6-3.2c1.9-1.2,3.3-2.6,4.2-4.2c0.9-1.6,2-2.6,3.1-2.9
		c1.2-0.3,1.8-1,1.8-2.1c0-0.9,1.1-2.8,3.2-5.7c1.4-1.9,2.3-3.2,2.6-4c0.3-0.8,0.3-1.8,0-3c-0.3-1.8-0.8-3-1.3-3.5
		c-0.7-0.7-1.7-0.8-3.1-0.6c-1.4,0.3-2.4,0.8-3,1.7c-0.8,1.1-1.6,1.7-2.4,1.7c-0.7,0-1.8,0.5-3.3,1.6c-1.7,1.1-2.9,1.8-3.5,2.1
		c-0.9,0.3-2,1.6-3.3,3.7c-1.4,2.3-2.5,3.6-3.3,4c-0.8,0.4-1.6,1.6-2.5,3.5c-0.8,1.8-1.9,2.7-3,2.9c-1.1,0.2-2.3,1.5-3.4,3.9
		c-1.2,2.4-2.2,3.8-3,4.2c-0.8,0.3-2.4,1.6-4.6,4c-2.3,2.3-3.4,3.7-3.4,4.3c0,0.5-0.8,2-2.3,4.4c-1.6,2.4-2.3,3.9-2.3,4.4
		c0,0.8-0.7,2.3-2.1,4.6c-1.4,2.3-2.6,3.8-3.5,4.4c-1.2,0.9-2.5,1.4-3.9,1.4c-0.8,0-1.4,0.2-1.6,0.6c-0.2,0.4-0.4,1.4-0.5,3
		c-0.1,2.3-0.7,4-1.8,4.9c-1,0.8-1.4,1.4-1.1,1.8c0.4,0.4,1.2,0.1,2.4-0.7c1.2-0.9,1.9-1.6,1.9-2.3c0-0.9,0.3-1.5,1-1.6
		c0.7-0.2,1.5,0.1,2.6,0.7c1.3,0.8,2,1.8,2.1,2.8c0,0.5-0.2,0.8-0.7,0.8c-0.4,0-1.1,0.8-2.2,2.4c-1.2,1.8-2.7,3.2-4.5,4.3
		c-2,1.2-3,2.1-3,2.7c0,0.8-1.7,1.6-5.2,2.2c-1,0.1-1.6,0.5-1.6,1.1c0,0.7-0.3,1.4-0.8,2c-0.6,0.6-1.2,0.9-1.8,0.9
		c-1,0.1-2.8,1.5-5.6,4.4c-1.9,2-2.5,2.9-1.9,2.9c0.7,0,1,0.4,1,1.2c0,0.8,0.8,1.2,2.4,1c1.6-0.1,2.4-0.3,2.4-0.6
		c0-0.3,0.7-1.2,2-2.7c0.8-1,1.5-1.5,1.9-1.7c0.4-0.2,1,0,1.7,0.4c0.7,0.5,1.3,0.6,1.7,0.4c0.4-0.2,1.1-0.8,1.9-1.8
		c1.2-1.6,2.2-2.4,2.9-2.3c1.6,0.3,2.8,0.4,3.6,0.5c1.6,0.1,2.6,0.4,3,0.7c0.4,0.4,0.2,0.9-0.3,1.6c-0.4,0.5-0.5,0.9-0.3,1.1
		c0.2,0.2,0.8,0.4,1.9,0.6c4.6,1,5.4,4,2.4,9.2c-0.3,0.6-0.8,1.7-1.6,3.4c-0.6,1.5-1.4,2.3-2.3,2.3c-1,0-1.9,0.9-2.7,2.7
		c-1.3,2.8-1.6,5.3-0.8,7.4c0.4,1.2,0.2,2.1-0.7,2.8c-1.8,1.5-3.6,3.3-5.4,5.4c-1.9,2.1-2.8,3.4-2.8,3.9c0,0.7-0.7,1.7-2.1,2.9
		c-1.3,1.2-2,2.2-2,2.9s-0.6,1.9-1.8,3.4c-2,2.4-3.2,4.5-3.8,6.2c-0.6,1.7-0.8,3.8-0.7,6.4c0.1,3.3,0.5,5.1,1.1,5.6
		c0.4,0.4,0.6,0.4,0.6,0c0-0.2-0.1-0.5-0.2-1c-0.3-0.8-0.3-1.3,0-1.4c0.2-0.1,1.2,0.1,2.8,0.5c2.2,0.5,3.4,0.5,3.8-0.1
		c0.3-0.5,2.2-1,5.7-1.5c3.5-0.5,5.7-1.1,6.7-2c1-0.8,2.3-1.3,4-1.5c2.4-0.2,4-0.5,4.8-0.8c0.8-0.3,1.3-0.9,1.5-1.7
		c0.2-1,0.9-1.6,2.2-1.9c0.5-0.1,0.9-0.3,1.2-0.4c0.3-0.2,0.3-0.3,0.2-0.5c-0.3-0.5,0.2-1.1,1.4-2c1.2-0.8,2.4-1.4,3.6-1.6
		c1.3-0.3,2.4-0.8,3.2-1.7c0.7-0.7,1.1-1,1.4-1c0.3,0,0.7,0.3,1.1,0.9c0.7,0.8,0.8,1.4,0.3,1.8c-0.5,0.3-0.9,0.9-1.3,2
		c-0.4,1-0.9,1.5-1.6,1.5c-0.7,0-2,0.9-3.7,2.8c-1.8,2-3.1,2.9-3.9,2.9c-0.8,0-2.3,1.3-4.6,3.9c-1.6,1.9-3.6,3.5-5.9,4.7
		c-2.3,1.3-4.5,1.9-6.4,2c-0.8,0-1.8,0.7-2.9,2.1c-1.2,1.6-2.8,2.7-4.9,3.5c-2.1,0.7-4.3,1-6.6,0.6c-2.7-0.4-4.1-0.8-4.3-1.1
		c-0.3-0.5-1-0.5-2-0.2c-1,0.3-1.6,0.8-1.9,1.5c-0.3,0.7-1,1.1-2,1.1c-1,0-1.8-0.4-2.5-1.1c-0.7-0.8-1.4-1.2-2.3-1.2
		c-0.8,0-1-0.2-0.7-0.7c0.3-0.5-0.2-1.1-1.3-2c-1.1-0.8-1.9-1.1-2.4-0.8c-0.2,0.1-0.3-0.1-0.4-0.4c-0.1-0.5-0.1-1.2,0-2.1
		c0.2-1.8-0.1-2.9-0.8-3.1c-0.9-0.3-1.3-1-1.2-2c0.1-1,0.7-1.7,1.7-2.2c1.2-0.5,1.8-2,1.9-4.3c0.1-2.2,0.7-3.8,1.9-4.9
		c1.1-1,1.7-1.8,1.7-2.3c0-0.7,0.2-1,0.7-1c0.5,0,0.8-0.8,1.1-2.3c0.3-1.6,1.1-2.5,2.4-2.9c1.3-0.4,2.4-1.1,3.3-2.1
		c0.7-0.7,1-1.2,0.9-1.6c0-0.3-0.4-0.8-1-1.6c-0.8-0.9-1.1-1.8-0.9-2.7c0.2-0.9,0.7-1.4,1.6-1.4c0.8,0,1.5-0.5,2.1-1.6
		c0.6-1.1,1.1-1.7,1.7-1.7c0.7,0,1.9-1,3.6-3.1c1.8-2.1,2.6-3.4,2.6-4.2c0-0.5,0.1-0.8,0.2-0.8c0.1,0,0.1,0,0.2,0.1
		c0.2,0.2,0.6,0,1.3-0.5c0.7-0.5,1.2-1.2,1.8-1.9c0.5-0.7,0.7-1.3,0.7-1.6c-0.1-0.3,0.1-0.5,0.4-0.8c0.4-0.3,0.8-0.5,1.3-0.6
		c1.4-0.4,2.1-1.2,2.1-2.4c0-1.3,0.6-2.1,1.8-2.4c0.8-0.2,1.3-0.4,1.3-0.6c0-0.3-0.6-1-1.9-2.3c-1.4-1.4-2.4-2.1-3.2-2.3
		c-0.8-0.2-1.6,0.2-2.4,1c-0.8,0.8-2.1,1.2-3.6,1c-1.6-0.2-2.5-0.1-2.9,0.4c-0.5,0.6-1.1,0.9-2,0.9c-1,0-2.2,0.7-3.3,2
		c-1.2,1.4-2.1,2.1-2.5,2.1c-0.3,0-1.2,0.7-2.7,2.1c-1.5,1.4-2.5,2.1-3,2.1c-0.6,0-1.4,0.6-2.3,1.7c-1,1.1-1.8,1.7-2.3,1.7
		c-0.7,0-1.5,0.7-2.3,2.1c-0.8,1.4-1.7,2.1-2.4,2.1c-0.8,0-1.9,0.4-3.2,1.3c-1.4,0.8-2.5,1.2-3.5,1c-1-0.3-1.6,0.3-2,1.8
		c-0.3,1.3-1,2.6-2.2,3.8c-1.1,1.2-1.5,2.4-1.1,3.4c0.3,0.8-0.1,1.9-1,3.2c-0.9,1.3-1.7,1.8-2.4,1.4c-0.4-0.3-1.2,0.3-2.3,1.7
		c-1.1,1.4-1.7,2.5-1.7,3.2c0,0.7-0.5,1.2-1.4,1.4c-1,0.3-1.9,1.8-2.8,4.6c-0.8,2.7-1.7,4.1-2.5,4.1c-0.7,0-1.1,0.4-1.1,1.3
		c0,0.8-0.7,1.5-2.1,2.1c-1.3,0.5-2.8,1.7-4.5,3.6c-1.6,1.9-2.8,2.8-3.6,2.8c-0.7,0-0.9,0.7-0.5,2.1c0.2,0.8,0.2,1.4,0,1.8
		c-0.2,0.3-0.8,0.7-1.7,1.1c-1.4,0.5-2.3,1.1-2.7,1.9c-0.3,0.5-0.7,0.7-1.2,0.6c-0.5-0.1-0.9-0.4-1.3-0.9c-0.4-0.5-0.6-1.1-0.6-1.9
		c0-1.3,0.7-2.4,2-3.3c1.3-0.9,2.3-1.9,2.8-3c0.4-0.7,0.5-1.1,0.4-1.1c-0.2,0-0.9,0.5-2.1,1.4c-0.4,0.3-1.7,1.3-3.9,2.8
		c-1.1,0.8-1.7,1.2-1.8,1.4c-0.4,0.5-1.2,0.5-2.3,0c-1.1-0.5-1.7-1.1-1.7-1.8c0-1-0.3-1.6-0.9-2c-0.5-0.3-0.5-0.8,0-1.5
		c0.6-0.6,0.9-1.2,0.9-2c0-0.8,0.6-1.8,1.8-3.1c3-3.2,4.5-5.1,4.5-5.6c0-0.3,0.5-1.1,1.6-2.3c1-1.2,1.6-2.2,1.6-3
		c0-0.9,0.6-1.8,1.8-2.6c1.3-0.9,2.7-2.5,4.2-4.8c2.9-4.4,5.1-6.3,6.5-5.8c0.7,0.3,1.3-0.2,1.9-1.4c0.6-1.2,1.1-1.7,1.7-1.3
		c0.2,0.1,0.4,0,0.7-0.2c0.3-0.3,0.5-0.7,0.7-1.3c0.5-1.4,1.2-2.2,2.3-2.2c1,0,2.3-1.3,3.9-3.8c1.8-2.7,3.3-4.9,4.7-6.4
		c1.5-1.6,2.3-2.8,2.3-3.4c0-0.6,0.1-1.3,0.2-2.1c0.1-0.8,1.2-1.3,3.3-1.7c1.9-0.3,3-0.7,3.4-1.2s0.2-1.2-0.7-2.1
		c-0.6-0.6-0.8-1.1-0.8-1.6c0.1-0.5,0.6-1.3,1.6-2.5c1.4-1.9,2.3-2.8,2.7-2.8c0.5,0,0.8-0.7,1.2-2.2c0.3-1.4,0.8-2.5,1.3-3.2
		c0.6-0.7,1.2-0.9,1.9-0.6c0.8,0.3,1.4-0.2,1.9-1.5c0.9-2.5,2.9-5.2,6-8.1c1.6-1.6,2.4-2.7,2.4-3.3c0-1.2,0.6-2.5,1.8-4.1
		c1.2-1.6,2.6-2.8,4.2-3.7c1.7-1,3.2-2.1,4.4-3.2c1.2-1.2,1.9-2.1,1.9-2.7c0-0.8,3.8-5,11.3-12.7c3.6-3.7,5.4-5.9,5.4-6.5
		s3.7-4.7,11.1-12.3c7.4-7.6,11.1-12,11.1-13.4c0-1.3,1-2.6,2.9-4c2-1.4,3.4-2.2,4-2.2c0.6,0,1.8-0.9,3.7-2.8c1.9-1.9,2.8-3,2.8-3.6
		c0-0.7,0.5-1.5,1.6-2.6s1.9-1.6,2.6-1.6c0.9,0,1.4-0.3,1.4-0.8c0-0.6,0.5-0.9,1.6-0.9c1,0,1.6,0.3,1.6,0.8c0.1,0.5,0.9,0.2,2.3-0.9
		c1.6-1.2,2.7-1.6,3.5-1.4c0.8,0.3,1.5,0.2,2.3-0.3c0.7-0.5,1.2-0.6,1.5-0.5c0.1,0,0.2,0.1,0.5,0.2c0.3,0.1,0.7,0.3,1.2,0.4
		c0.5,0.2,0.9,0.3,1.3,0.5c1.8,0.7,2.6,1.5,2.6,2.4C768.2,4.7,768.8,5.7,769.9,6.6z M671.4,113.3c0.3-0.3,0.3-0.8,0.1-1.5
		c-0.3-0.7-0.6-0.7-1,0c-0.5,0.7-0.5,1.2,0,1.6C670.8,113.6,671.1,113.6,671.4,113.3z M684.9,100.9c-0.5-1.5-1.7-1.5-3.4,0
		c-0.7,0.6-1,0.9-0.8,0.9c0.1,0,0.2,0,0.3-0.1c0.7-0.3,1.4-0.2,2.3,0.4c0.7,0.6,1.3,0.8,1.6,0.5
		C685.2,102.3,685.2,101.8,684.9,100.9z M714,70.8c0.4-0.8,0.8-1.3,1.4-1.3c0.3,0,0.4,0.1,0.4,0.4c0,0.3-0.2,0.7-0.5,1.3
		c-0.3,0.6-0.6,1-0.9,1.2c-0.3,0.2-0.5,0.1-0.5-0.1C713.7,71.9,713.8,71.5,714,70.8z M729.2,62.3c-0.8,0.5-1,1.1-0.7,1.9
		c0.1,0.5,0.1,0.8-0.1,0.9c-0.2,0.2-0.7,0.2-1.4,0.2c-1.4,0-2.2,0.3-2.5,0.9c-0.3,0.5-0.9,0.8-1.8,0.8c-1,0-1.7,0.6-2.2,1.8
		c-1,2.3-2.2,2.6-3.4,0.7c-0.5-0.8-0.6-1.4-0.4-1.9c0.2-0.5,1-1.5,2.3-2.9c1.8-1.8,3.3-3.6,4.5-5.3c1-1.4,2.1-2,3.2-1.7
		c0.2,0.1,0.7,0.2,1.4,0.3c0.7,0.2,1.2,0.3,1.5,0.3c0.7,0.1,1,0.7,0.9,1.7C730.5,61.1,730,61.8,729.2,62.3z M741.5,138.5
		c0.5-0.5,0.9-0.3,1.4,0.6c1,1.6,0.9,2.3-0.4,2.3c-0.3,0-0.6,0.1-0.9,0.3c-0.3,0.2-0.4,0.5-0.4,0.8c0,0.7-0.4,1.2-1.1,1.6
		c-0.6,0.3-1.9,0.3-3.9,0.2c-2-0.1-3.2-0.3-3.4-0.6c-0.5-0.4-0.4-1,0.2-1.9c0.6-0.8,1.3-1.4,2.3-1.7c1.2-0.3,2.2-0.9,2.8-1.7
		c0.7-0.8,1.3-0.9,1.9-0.4C740.6,138.8,741.1,138.9,741.5,138.5z"/>
</g>
</svg>
