<?xml version="1.0" encoding="utf-8"?>
<!-- Generator: Adobe Illustrator 30.4.0, SVG Export Plug-In . SVG Version: 9.03 Build 0)  -->
<svg version="1.0" id="Layer_1" xmlns="http://www.w3.org/2000/svg" xmlns:xlink="http://www.w3.org/1999/xlink" x="0px" y="0px"
	 viewBox="0 0 240 240" style="enable-background:new 0 0 240 240;" xml:space="preserve">
<g>
	<polygon style="fill:#F9D500;" points="226.9,207 194.1,193.8 226.9,180.7 240,193.8 	"/>
	<path style="fill:#040C0E;" d="M124.7,193.8c0,25.4,21.4,46.1,47.9,46.1c11.7,0,22.5-4.1,30.8-10.8l18.2-17.1l-27.2-10.9l-3.5,3.4
		l-4.8,4.6c-3.8,2.8-8.5,4.4-13.5,4.4c-11.8,0-21.4-8.8-21.4-19.6c0-10.8,9.6-19.6,21.4-19.6c4.9,0,9.7,1.5,13.5,4.4l8.3,8
		l27.2-10.9l-18.2-17.1c-8.3-6.8-19.1-10.8-30.8-10.8C146.1,147.8,124.7,168.4,124.7,193.8z"/>
	<polygon style="fill:#040C0E;" points="226.7,171.9 226.7,-0.1 200.4,-0.1 200.4,145.6 	"/>
	<polygon style="fill:#F9D500;" points="102.2,180.7 69.4,193.8 102.2,207 115.3,193.8 	"/>
	<path style="fill:#040C0E;" d="M0,193.8c0,25.4,21.4,46.1,47.9,46.1c11.7,0,22.5-4.1,30.8-10.8L96.9,212l-27.2-10.9l-3.5,3.4
		l-4.8,4.6c-3.8,2.8-8.5,4.4-13.5,4.4c-11.8,0-21.4-8.8-21.4-19.6c0-10.8,9.6-19.6,21.4-19.6c4.9,0,9.7,1.5,13.5,4.4l8.3,8
		l27.2-10.9l-18.2-17.1c-8.3-6.8-19.1-10.8-30.8-10.8C21.4,147.8,0,168.4,0,193.8z"/>
	<polygon style="fill:#040C0E;" points="102.2,171.9 102.2,4.2 76,0.1 76,145.6 	"/>
</g>
<polygon style="fill:#040C0E;" points="102.1,26.1 75.8,-0.1 226.6,-0.1 200.3,26.1 "/>
</svg>
